%FSLAX45Y45*%
G04 Gerber Fmt 4.5, Leading zero omitted, Abs format (unit mm)*
G04 Created by KiCad (PCBNEW (6.0.2)) date 2023-11-23 16:59:48*
%MOMM*%
%LPD*%
G01*
G04 APERTURE LIST*
%TA.AperFunction,Profile*%
%ADD10C,0.100000*%
%TD*%
%ADD11C,0.200000*%
%ADD12C,0.030000*%
%ADD13C,0.100000*%
%ADD14C,0.120000*%
%ADD15C,0.170000*%
G04 APERTURE END LIST*
D10*
X18000000Y-10200000D02*
X13000000Y-10200000D01*
X18000000Y-5200000D02*
X18000000Y-10200000D01*
X13000000Y-10200000D02*
X13000000Y-5200000D01*
X13000000Y-5200000D02*
X18000000Y-5200000D01*
D11*
D12*
X13085000Y-5285000D02*
X13115000Y-5315000D01*
X13115000Y-5285000D02*
X13085000Y-5315000D01*
X13085000Y-5485000D02*
X13115000Y-5515000D01*
X13115000Y-5485000D02*
X13085000Y-5515000D01*
X13085000Y-5685000D02*
X13115000Y-5715000D01*
X13115000Y-5685000D02*
X13085000Y-5715000D01*
X13085000Y-5885000D02*
X13115000Y-5915000D01*
X13115000Y-5885000D02*
X13085000Y-5915000D01*
X13085000Y-6085000D02*
X13115000Y-6115000D01*
X13115000Y-6085000D02*
X13085000Y-6115000D01*
X13085000Y-6285000D02*
X13115000Y-6315000D01*
X13115000Y-6285000D02*
X13085000Y-6315000D01*
X13085000Y-6485000D02*
X13115000Y-6515000D01*
X13115000Y-6485000D02*
X13085000Y-6515000D01*
X13085000Y-6685000D02*
X13115000Y-6715000D01*
X13115000Y-6685000D02*
X13085000Y-6715000D01*
X13085000Y-6885000D02*
X13115000Y-6915000D01*
X13115000Y-6885000D02*
X13085000Y-6915000D01*
X13085000Y-7085000D02*
X13115000Y-7115000D01*
X13115000Y-7085000D02*
X13085000Y-7115000D01*
X13085000Y-7285000D02*
X13115000Y-7315000D01*
X13115000Y-7285000D02*
X13085000Y-7315000D01*
X13085000Y-7485000D02*
X13115000Y-7515000D01*
X13115000Y-7485000D02*
X13085000Y-7515000D01*
X13085000Y-7685000D02*
X13115000Y-7715000D01*
X13115000Y-7685000D02*
X13085000Y-7715000D01*
X13085000Y-7885000D02*
X13115000Y-7915000D01*
X13115000Y-7885000D02*
X13085000Y-7915000D01*
X13085000Y-8085000D02*
X13115000Y-8115000D01*
X13115000Y-8085000D02*
X13085000Y-8115000D01*
X13085000Y-8285000D02*
X13115000Y-8315000D01*
X13115000Y-8285000D02*
X13085000Y-8315000D01*
X13085000Y-8485000D02*
X13115000Y-8515000D01*
X13115000Y-8485000D02*
X13085000Y-8515000D01*
X13085000Y-8685000D02*
X13115000Y-8715000D01*
X13115000Y-8685000D02*
X13085000Y-8715000D01*
X13085000Y-8885000D02*
X13115000Y-8915000D01*
X13115000Y-8885000D02*
X13085000Y-8915000D01*
X13085000Y-9085000D02*
X13115000Y-9115000D01*
X13115000Y-9085000D02*
X13085000Y-9115000D01*
X13085000Y-9285000D02*
X13115000Y-9315000D01*
X13115000Y-9285000D02*
X13085000Y-9315000D01*
X13085000Y-9485000D02*
X13115000Y-9515000D01*
X13115000Y-9485000D02*
X13085000Y-9515000D01*
X13085000Y-9685000D02*
X13115000Y-9715000D01*
X13115000Y-9685000D02*
X13085000Y-9715000D01*
X13085000Y-9885000D02*
X13115000Y-9915000D01*
X13115000Y-9885000D02*
X13085000Y-9915000D01*
X13085000Y-10085000D02*
X13115000Y-10115000D01*
X13115000Y-10085000D02*
X13085000Y-10115000D01*
X13155000Y-7835000D02*
X13185000Y-7865000D01*
X13185000Y-7835000D02*
X13155000Y-7865000D01*
X13225000Y-9250000D02*
X13255000Y-9280000D01*
X13255000Y-9250000D02*
X13225000Y-9280000D01*
X13285000Y-5285000D02*
X13315000Y-5315000D01*
X13315000Y-5285000D02*
X13285000Y-5315000D01*
X13285000Y-5785000D02*
X13315000Y-5815000D01*
X13315000Y-5785000D02*
X13285000Y-5815000D01*
X13285000Y-5985000D02*
X13315000Y-6015000D01*
X13315000Y-5985000D02*
X13285000Y-6015000D01*
X13285000Y-6185000D02*
X13315000Y-6215000D01*
X13315000Y-6185000D02*
X13285000Y-6215000D01*
X13285000Y-6385000D02*
X13315000Y-6415000D01*
X13315000Y-6385000D02*
X13285000Y-6415000D01*
X13285000Y-9485000D02*
X13315000Y-9515000D01*
X13315000Y-9485000D02*
X13285000Y-9515000D01*
X13285000Y-9685000D02*
X13315000Y-9715000D01*
X13315000Y-9685000D02*
X13285000Y-9715000D01*
X13285000Y-9885000D02*
X13315000Y-9915000D01*
X13315000Y-9885000D02*
X13285000Y-9915000D01*
X13285000Y-10085000D02*
X13315000Y-10115000D01*
X13315000Y-10085000D02*
X13285000Y-10115000D01*
X13325000Y-7635000D02*
X13355000Y-7665000D01*
X13355000Y-7635000D02*
X13325000Y-7665000D01*
X13365050Y-6685000D02*
X13395050Y-6715000D01*
X13395050Y-6685000D02*
X13365050Y-6715000D01*
X13385000Y-6985000D02*
X13415000Y-7015000D01*
X13415000Y-6985000D02*
X13385000Y-7015000D01*
X13385000Y-7185000D02*
X13415000Y-7215000D01*
X13415000Y-7185000D02*
X13385000Y-7215000D01*
X13385000Y-7385000D02*
X13415000Y-7415000D01*
X13415000Y-7385000D02*
X13385000Y-7415000D01*
X13385000Y-7985000D02*
X13415000Y-8015000D01*
X13415000Y-7985000D02*
X13385000Y-8015000D01*
X13385000Y-8185000D02*
X13415000Y-8215000D01*
X13415000Y-8185000D02*
X13385000Y-8215000D01*
X13385000Y-8385000D02*
X13415000Y-8415000D01*
X13415000Y-8385000D02*
X13385000Y-8415000D01*
X13385000Y-8585000D02*
X13415000Y-8615000D01*
X13415000Y-8585000D02*
X13385000Y-8615000D01*
X13385000Y-8785000D02*
X13415000Y-8815000D01*
X13415000Y-8785000D02*
X13385000Y-8815000D01*
X13385000Y-8985000D02*
X13415000Y-9015000D01*
X13415000Y-8985000D02*
X13385000Y-9015000D01*
X13385000Y-9185000D02*
X13415000Y-9215000D01*
X13415000Y-9185000D02*
X13385000Y-9215000D01*
X13485000Y-5285000D02*
X13515000Y-5315000D01*
X13515000Y-5285000D02*
X13485000Y-5315000D01*
X13485000Y-9685000D02*
X13515000Y-9715000D01*
X13515000Y-9685000D02*
X13485000Y-9715000D01*
X13485000Y-9885000D02*
X13515000Y-9915000D01*
X13515000Y-9885000D02*
X13485000Y-9915000D01*
X13485000Y-10085000D02*
X13515000Y-10115000D01*
X13515000Y-10085000D02*
X13485000Y-10115000D01*
X13552500Y-8980000D02*
X13582500Y-9010000D01*
X13582500Y-8980000D02*
X13552500Y-9010000D01*
X13552500Y-9080833D02*
X13582500Y-9110833D01*
X13582500Y-9080833D02*
X13552500Y-9110833D01*
X13552500Y-9181667D02*
X13582500Y-9211667D01*
X13582500Y-9181667D02*
X13552500Y-9211667D01*
X13552500Y-9310000D02*
X13582500Y-9340000D01*
X13582500Y-9310000D02*
X13552500Y-9340000D01*
X13580000Y-8857500D02*
X13610000Y-8887500D01*
X13610000Y-8857500D02*
X13580000Y-8887500D01*
X13582500Y-6435024D02*
X13612500Y-6465024D01*
X13612500Y-6435024D02*
X13582500Y-6465024D01*
X13582500Y-6541350D02*
X13612500Y-6571350D01*
X13612500Y-6541350D02*
X13582500Y-6571350D01*
X13582500Y-6647675D02*
X13612500Y-6677675D01*
X13612500Y-6647675D02*
X13582500Y-6677675D01*
X13582500Y-6754000D02*
X13612500Y-6784000D01*
X13612500Y-6754000D02*
X13582500Y-6784000D01*
X13585000Y-5785000D02*
X13615000Y-5815000D01*
X13615000Y-5785000D02*
X13585000Y-5815000D01*
X13585000Y-6085000D02*
X13615000Y-6115000D01*
X13615000Y-6085000D02*
X13585000Y-6115000D01*
X13585000Y-8285000D02*
X13615000Y-8315000D01*
X13615000Y-8285000D02*
X13585000Y-8315000D01*
X13585000Y-8485000D02*
X13615000Y-8515000D01*
X13615000Y-8485000D02*
X13585000Y-8515000D01*
X13585000Y-8685000D02*
X13615000Y-8715000D01*
X13615000Y-8685000D02*
X13585000Y-8715000D01*
X13605000Y-6870000D02*
X13635000Y-6900000D01*
X13635000Y-6870000D02*
X13605000Y-6900000D01*
X13605000Y-9402500D02*
X13635000Y-9432500D01*
X13635000Y-9402500D02*
X13605000Y-9432500D01*
X13607500Y-6345000D02*
X13637500Y-6375000D01*
X13637500Y-6345000D02*
X13607500Y-6375000D01*
X13667500Y-8980000D02*
X13697500Y-9010000D01*
X13697500Y-8980000D02*
X13667500Y-9010000D01*
X13667500Y-9080833D02*
X13697500Y-9110833D01*
X13697500Y-9080833D02*
X13667500Y-9110833D01*
X13667500Y-9181667D02*
X13697500Y-9211667D01*
X13697500Y-9181667D02*
X13667500Y-9211667D01*
X13670000Y-8762500D02*
X13700000Y-8792500D01*
X13700000Y-8762500D02*
X13670000Y-8792500D01*
X13670052Y-6965369D02*
X13700052Y-6995369D01*
X13700052Y-6965369D02*
X13670052Y-6995369D01*
X13677500Y-6285000D02*
X13707500Y-6315000D01*
X13707500Y-6285000D02*
X13677500Y-6315000D01*
X13680000Y-9305000D02*
X13710000Y-9335000D01*
X13710000Y-9305000D02*
X13680000Y-9335000D01*
X13685000Y-5285000D02*
X13715000Y-5315000D01*
X13715000Y-5285000D02*
X13685000Y-5315000D01*
X13685000Y-9885000D02*
X13715000Y-9915000D01*
X13715000Y-9885000D02*
X13685000Y-9915000D01*
X13685000Y-10085000D02*
X13715000Y-10115000D01*
X13715000Y-10085000D02*
X13685000Y-10115000D01*
X13697500Y-6435024D02*
X13727500Y-6465024D01*
X13727500Y-6435024D02*
X13697500Y-6465024D01*
X13697500Y-6541350D02*
X13727500Y-6571350D01*
X13727500Y-6541350D02*
X13697500Y-6571350D01*
X13697500Y-6647675D02*
X13727500Y-6677675D01*
X13727500Y-6647675D02*
X13697500Y-6677675D01*
X13697500Y-6754000D02*
X13727500Y-6784000D01*
X13727500Y-6754000D02*
X13697500Y-6784000D01*
X13710000Y-8882500D02*
X13740000Y-8912500D01*
X13740000Y-8882500D02*
X13710000Y-8912500D01*
X13720000Y-8440000D02*
X13750000Y-8470000D01*
X13750000Y-8440000D02*
X13720000Y-8470000D01*
X13731578Y-7026895D02*
X13761578Y-7056895D01*
X13761578Y-7026895D02*
X13731578Y-7056895D01*
X13735000Y-6857500D02*
X13765000Y-6887500D01*
X13765000Y-6857500D02*
X13735000Y-6887500D01*
X13780000Y-6395000D02*
X13810000Y-6425000D01*
X13810000Y-6395000D02*
X13780000Y-6425000D01*
X13785000Y-5585000D02*
X13815000Y-5615000D01*
X13815000Y-5585000D02*
X13785000Y-5615000D01*
X13785000Y-5885000D02*
X13815000Y-5915000D01*
X13815000Y-5885000D02*
X13785000Y-5915000D01*
X13785000Y-8585000D02*
X13815000Y-8615000D01*
X13815000Y-8585000D02*
X13785000Y-8615000D01*
X13793104Y-7088422D02*
X13823104Y-7118422D01*
X13823104Y-7088422D02*
X13793104Y-7118422D01*
X13802500Y-9255000D02*
X13832500Y-9285000D01*
X13832500Y-9255000D02*
X13802500Y-9285000D01*
X13805000Y-9490000D02*
X13835000Y-9520000D01*
X13835000Y-9490000D02*
X13805000Y-9520000D01*
X13810000Y-8722500D02*
X13840000Y-8752500D01*
X13840000Y-8722500D02*
X13810000Y-8752500D01*
X13810000Y-8837500D02*
X13840000Y-8867500D01*
X13840000Y-8837500D02*
X13810000Y-8867500D01*
X13812895Y-6945578D02*
X13842895Y-6975578D01*
X13842895Y-6945578D02*
X13812895Y-6975578D01*
X13852500Y-6203024D02*
X13882500Y-6233024D01*
X13882500Y-6203024D02*
X13852500Y-6233024D01*
X13852500Y-6465000D02*
X13882500Y-6495000D01*
X13882500Y-6465000D02*
X13852500Y-6495000D01*
X13854631Y-7149948D02*
X13884631Y-7179948D01*
X13884631Y-7149948D02*
X13854631Y-7179948D01*
X13874422Y-7007104D02*
X13904422Y-7037104D01*
X13904422Y-7007104D02*
X13874422Y-7037104D01*
X13885000Y-5285000D02*
X13915000Y-5315000D01*
X13915000Y-5285000D02*
X13885000Y-5315000D01*
X13885000Y-9885000D02*
X13915000Y-9915000D01*
X13915000Y-9885000D02*
X13885000Y-9915000D01*
X13885000Y-10085000D02*
X13915000Y-10115000D01*
X13915000Y-10085000D02*
X13885000Y-10115000D01*
X13915000Y-8722500D02*
X13945000Y-8752500D01*
X13945000Y-8722500D02*
X13915000Y-8752500D01*
X13915000Y-8837500D02*
X13945000Y-8867500D01*
X13945000Y-8837500D02*
X13915000Y-8867500D01*
X13925000Y-5730000D02*
X13955000Y-5760000D01*
X13955000Y-5730000D02*
X13925000Y-5760000D01*
X13932500Y-9485000D02*
X13962500Y-9515000D01*
X13962500Y-9485000D02*
X13932500Y-9515000D01*
X13935000Y-7207500D02*
X13965000Y-7237500D01*
X13965000Y-7207500D02*
X13935000Y-7237500D01*
X13935000Y-9092700D02*
X13965000Y-9122700D01*
X13965000Y-9092700D02*
X13935000Y-9122700D01*
X13935000Y-9185100D02*
X13965000Y-9215100D01*
X13965000Y-9185100D02*
X13935000Y-9215100D01*
X13935000Y-9277500D02*
X13965000Y-9307500D01*
X13965000Y-9277500D02*
X13935000Y-9307500D01*
X13967500Y-8048500D02*
X13997500Y-8078500D01*
X13997500Y-8048500D02*
X13967500Y-8078500D01*
X13967500Y-9005000D02*
X13997500Y-9035000D01*
X13997500Y-9005000D02*
X13967500Y-9035000D01*
X13967500Y-9575000D02*
X13997500Y-9605000D01*
X13997500Y-9575000D02*
X13967500Y-9605000D01*
X13975000Y-6240000D02*
X14005000Y-6270000D01*
X14005000Y-6240000D02*
X13975000Y-6270000D01*
X13982524Y-6440024D02*
X14012524Y-6470024D01*
X14012524Y-6440024D02*
X13982524Y-6470024D01*
X13982524Y-6531063D02*
X14012524Y-6561063D01*
X14012524Y-6531063D02*
X13982524Y-6561063D01*
X13982524Y-6622101D02*
X14012524Y-6652101D01*
X14012524Y-6622101D02*
X13982524Y-6652101D01*
X13982524Y-6713139D02*
X14012524Y-6743139D01*
X14012524Y-6713139D02*
X13982524Y-6743139D01*
X13982524Y-6804178D02*
X14012524Y-6834178D01*
X14012524Y-6804178D02*
X13982524Y-6834178D01*
X13982524Y-6895216D02*
X14012524Y-6925216D01*
X14012524Y-6895216D02*
X13982524Y-6925216D01*
X13982524Y-6986254D02*
X14012524Y-7016254D01*
X14012524Y-6986254D02*
X13982524Y-7016254D01*
X14000000Y-9382500D02*
X14030000Y-9412500D01*
X14030000Y-9382500D02*
X14000000Y-9412500D01*
X14015000Y-6145000D02*
X14045000Y-6175000D01*
X14045000Y-6145000D02*
X14015000Y-6175000D01*
X14015000Y-7075000D02*
X14045000Y-7105000D01*
X14045000Y-7075000D02*
X14015000Y-7105000D01*
X14020000Y-8722500D02*
X14050000Y-8752500D01*
X14050000Y-8722500D02*
X14020000Y-8752500D01*
X14020000Y-8837500D02*
X14050000Y-8867500D01*
X14050000Y-8837500D02*
X14020000Y-8867500D01*
X14022500Y-7235000D02*
X14052500Y-7265000D01*
X14052500Y-7235000D02*
X14022500Y-7265000D01*
X14052500Y-6335000D02*
X14082500Y-6365000D01*
X14082500Y-6335000D02*
X14052500Y-6365000D01*
X14062500Y-8965000D02*
X14092500Y-8995000D01*
X14092500Y-8965000D02*
X14062500Y-8995000D01*
X14062500Y-9092500D02*
X14092500Y-9122500D01*
X14092500Y-9092500D02*
X14062500Y-9122500D01*
X14062500Y-9184900D02*
X14092500Y-9214900D01*
X14092500Y-9184900D02*
X14062500Y-9214900D01*
X14062500Y-9277300D02*
X14092500Y-9307300D01*
X14092500Y-9277300D02*
X14062500Y-9307300D01*
X14062500Y-9500000D02*
X14092500Y-9530000D01*
X14092500Y-9500000D02*
X14062500Y-9530000D01*
X14062500Y-9615000D02*
X14092500Y-9645000D01*
X14092500Y-9615000D02*
X14062500Y-9645000D01*
X14085000Y-5285000D02*
X14115000Y-5315000D01*
X14115000Y-5285000D02*
X14085000Y-5315000D01*
X14085000Y-5585000D02*
X14115000Y-5615000D01*
X14115000Y-5585000D02*
X14085000Y-5615000D01*
X14085000Y-9885000D02*
X14115000Y-9915000D01*
X14115000Y-9885000D02*
X14085000Y-9915000D01*
X14085000Y-10085000D02*
X14115000Y-10115000D01*
X14115000Y-10085000D02*
X14085000Y-10115000D01*
X14092500Y-7693500D02*
X14122500Y-7723500D01*
X14122500Y-7693500D02*
X14092500Y-7723500D01*
X14092500Y-7773500D02*
X14122500Y-7803500D01*
X14122500Y-7773500D02*
X14092500Y-7803500D01*
X14092500Y-7853500D02*
X14122500Y-7883500D01*
X14122500Y-7853500D02*
X14092500Y-7883500D01*
X14092500Y-7933500D02*
X14122500Y-7963500D01*
X14122500Y-7933500D02*
X14092500Y-7963500D01*
X14092500Y-8013500D02*
X14122500Y-8043500D01*
X14122500Y-8013500D02*
X14092500Y-8043500D01*
X14092500Y-8093500D02*
X14122500Y-8123500D01*
X14122500Y-8093500D02*
X14092500Y-8123500D01*
X14092500Y-8173500D02*
X14122500Y-8203500D01*
X14122500Y-8173500D02*
X14092500Y-8203500D01*
X14092500Y-8253500D02*
X14122500Y-8283500D01*
X14122500Y-8253500D02*
X14092500Y-8283500D01*
X14107500Y-9365000D02*
X14137500Y-9395000D01*
X14137500Y-9365000D02*
X14107500Y-9395000D01*
X14110000Y-6440024D02*
X14140000Y-6470024D01*
X14140000Y-6440024D02*
X14110000Y-6470024D01*
X14110000Y-6531063D02*
X14140000Y-6561063D01*
X14140000Y-6531063D02*
X14110000Y-6561063D01*
X14110000Y-6622101D02*
X14140000Y-6652101D01*
X14140000Y-6622101D02*
X14110000Y-6652101D01*
X14110000Y-6713139D02*
X14140000Y-6743139D01*
X14140000Y-6713139D02*
X14110000Y-6743139D01*
X14110000Y-6804178D02*
X14140000Y-6834178D01*
X14140000Y-6804178D02*
X14110000Y-6834178D01*
X14110000Y-6895216D02*
X14140000Y-6925216D01*
X14140000Y-6895216D02*
X14110000Y-6925216D01*
X14110000Y-6987500D02*
X14140000Y-7017500D01*
X14140000Y-6987500D02*
X14110000Y-7017500D01*
X14110000Y-7115000D02*
X14140000Y-7145000D01*
X14140000Y-7115000D02*
X14110000Y-7145000D01*
X14110024Y-6102524D02*
X14140024Y-6132524D01*
X14140024Y-6102524D02*
X14110024Y-6132524D01*
X14110024Y-6217524D02*
X14140024Y-6247524D01*
X14140024Y-6217524D02*
X14110024Y-6247524D01*
X14116462Y-7237500D02*
X14146462Y-7267500D01*
X14146462Y-7237500D02*
X14116462Y-7267500D01*
X14125000Y-8722500D02*
X14155000Y-8752500D01*
X14155000Y-8722500D02*
X14125000Y-8752500D01*
X14125000Y-8837500D02*
X14155000Y-8867500D01*
X14155000Y-8837500D02*
X14125000Y-8867500D01*
X14130000Y-7602500D02*
X14160000Y-7632500D01*
X14160000Y-7602500D02*
X14130000Y-7632500D01*
X14132500Y-8347500D02*
X14162500Y-8377500D01*
X14162500Y-8347500D02*
X14132500Y-8377500D01*
X14135000Y-9742500D02*
X14165000Y-9772500D01*
X14165000Y-9742500D02*
X14135000Y-9772500D01*
X14146667Y-9500000D02*
X14176667Y-9530000D01*
X14176667Y-9500000D02*
X14146667Y-9530000D01*
X14146667Y-9615000D02*
X14176667Y-9645000D01*
X14176667Y-9615000D02*
X14146667Y-9645000D01*
X14155000Y-6350000D02*
X14185000Y-6380000D01*
X14185000Y-6350000D02*
X14155000Y-6380000D01*
X14157500Y-9005000D02*
X14187500Y-9035000D01*
X14187500Y-9005000D02*
X14157500Y-9035000D01*
X14190024Y-6102524D02*
X14220024Y-6132524D01*
X14220024Y-6102524D02*
X14190024Y-6132524D01*
X14190024Y-6217524D02*
X14220024Y-6247524D01*
X14220024Y-6217524D02*
X14190024Y-6247524D01*
X14192500Y-7435000D02*
X14222500Y-7465000D01*
X14222500Y-7435000D02*
X14192500Y-7465000D01*
X14192500Y-8510000D02*
X14222500Y-8540000D01*
X14222500Y-8510000D02*
X14192500Y-8540000D01*
X14202500Y-9092500D02*
X14232500Y-9122500D01*
X14232500Y-9092500D02*
X14202500Y-9122500D01*
X14202500Y-9184900D02*
X14232500Y-9214900D01*
X14232500Y-9184900D02*
X14202500Y-9214900D01*
X14202500Y-9277300D02*
X14232500Y-9307300D01*
X14232500Y-9277300D02*
X14202500Y-9307300D01*
X14202500Y-9405000D02*
X14232500Y-9435000D01*
X14232500Y-9405000D02*
X14202500Y-9435000D01*
X14205000Y-7075000D02*
X14235000Y-7105000D01*
X14235000Y-7075000D02*
X14205000Y-7105000D01*
X14207500Y-7237500D02*
X14237500Y-7267500D01*
X14237500Y-7237500D02*
X14207500Y-7267500D01*
X14207500Y-7693500D02*
X14237500Y-7723500D01*
X14237500Y-7693500D02*
X14207500Y-7723500D01*
X14207500Y-7773500D02*
X14237500Y-7803500D01*
X14237500Y-7773500D02*
X14207500Y-7803500D01*
X14207500Y-7853500D02*
X14237500Y-7883500D01*
X14237500Y-7853500D02*
X14207500Y-7883500D01*
X14207500Y-7933500D02*
X14237500Y-7963500D01*
X14237500Y-7933500D02*
X14207500Y-7963500D01*
X14207500Y-8013500D02*
X14237500Y-8043500D01*
X14237500Y-8013500D02*
X14207500Y-8043500D01*
X14207500Y-8093500D02*
X14237500Y-8123500D01*
X14237500Y-8093500D02*
X14207500Y-8123500D01*
X14207500Y-8173500D02*
X14237500Y-8203500D01*
X14237500Y-8173500D02*
X14207500Y-8203500D01*
X14207500Y-8253500D02*
X14237500Y-8283500D01*
X14237500Y-8253500D02*
X14207500Y-8283500D01*
X14212500Y-8692500D02*
X14242500Y-8722500D01*
X14242500Y-8692500D02*
X14212500Y-8722500D01*
X14222500Y-7565000D02*
X14252500Y-7595000D01*
X14252500Y-7565000D02*
X14222500Y-7595000D01*
X14225000Y-8382500D02*
X14255000Y-8412500D01*
X14255000Y-8382500D02*
X14225000Y-8412500D01*
X14230833Y-9500000D02*
X14260833Y-9530000D01*
X14260833Y-9500000D02*
X14230833Y-9530000D01*
X14230833Y-9615000D02*
X14260833Y-9645000D01*
X14260833Y-9615000D02*
X14230833Y-9645000D01*
X14232500Y-8815000D02*
X14262500Y-8845000D01*
X14262500Y-8815000D02*
X14232500Y-8845000D01*
X14247500Y-9005000D02*
X14277500Y-9035000D01*
X14277500Y-9005000D02*
X14247500Y-9035000D01*
X14250000Y-6440000D02*
X14280000Y-6470000D01*
X14280000Y-6440000D02*
X14250000Y-6470000D01*
X14250000Y-6531038D02*
X14280000Y-6561038D01*
X14280000Y-6531038D02*
X14250000Y-6561038D01*
X14250000Y-6622077D02*
X14280000Y-6652077D01*
X14280000Y-6622077D02*
X14250000Y-6652077D01*
X14250000Y-6713115D02*
X14280000Y-6743115D01*
X14280000Y-6713115D02*
X14250000Y-6743115D01*
X14250000Y-6804153D02*
X14280000Y-6834153D01*
X14280000Y-6804153D02*
X14250000Y-6834153D01*
X14250000Y-6895192D02*
X14280000Y-6925192D01*
X14280000Y-6895192D02*
X14250000Y-6925192D01*
X14250000Y-6986230D02*
X14280000Y-7016230D01*
X14280000Y-6986230D02*
X14250000Y-7016230D01*
X14255000Y-6310000D02*
X14285000Y-6340000D01*
X14285000Y-6310000D02*
X14255000Y-6340000D01*
X14265000Y-7297500D02*
X14295000Y-7327500D01*
X14295000Y-7297500D02*
X14265000Y-7327500D01*
X14270024Y-6102524D02*
X14300024Y-6132524D01*
X14300024Y-6102524D02*
X14270024Y-6132524D01*
X14270024Y-6217524D02*
X14300024Y-6247524D01*
X14300024Y-6217524D02*
X14270024Y-6247524D01*
X14285000Y-5285000D02*
X14315000Y-5315000D01*
X14315000Y-5285000D02*
X14285000Y-5315000D01*
X14285000Y-5585000D02*
X14315000Y-5615000D01*
X14315000Y-5585000D02*
X14285000Y-5615000D01*
X14285000Y-10085000D02*
X14315000Y-10115000D01*
X14315000Y-10085000D02*
X14285000Y-10115000D01*
X14295000Y-7075000D02*
X14325000Y-7105000D01*
X14325000Y-7075000D02*
X14295000Y-7105000D01*
X14297500Y-9365000D02*
X14327500Y-9395000D01*
X14327500Y-9365000D02*
X14297500Y-9395000D01*
X14302500Y-7832500D02*
X14332500Y-7862500D01*
X14332500Y-7832500D02*
X14302500Y-7862500D01*
X14302500Y-8112500D02*
X14332500Y-8142500D01*
X14332500Y-8112500D02*
X14302500Y-8142500D01*
X14315000Y-9500000D02*
X14345000Y-9530000D01*
X14345000Y-9500000D02*
X14315000Y-9530000D01*
X14315000Y-9615000D02*
X14345000Y-9645000D01*
X14345000Y-9615000D02*
X14315000Y-9645000D01*
X14325000Y-7627500D02*
X14355000Y-7657500D01*
X14355000Y-7627500D02*
X14325000Y-7657500D01*
X14325000Y-8310000D02*
X14355000Y-8340000D01*
X14355000Y-8310000D02*
X14325000Y-8340000D01*
X14325000Y-8745000D02*
X14355000Y-8775000D01*
X14355000Y-8745000D02*
X14325000Y-8775000D01*
X14327500Y-5972474D02*
X14357500Y-6002474D01*
X14357500Y-5972474D02*
X14327500Y-6002474D01*
X14342500Y-7737500D02*
X14372500Y-7767500D01*
X14372500Y-7737500D02*
X14342500Y-7767500D01*
X14342500Y-7927500D02*
X14372500Y-7957500D01*
X14372500Y-7927500D02*
X14342500Y-7957500D01*
X14342500Y-8017500D02*
X14372500Y-8047500D01*
X14372500Y-8017500D02*
X14342500Y-8047500D01*
X14342500Y-8207500D02*
X14372500Y-8237500D01*
X14372500Y-8207500D02*
X14342500Y-8237500D01*
X14342500Y-8965000D02*
X14372500Y-8995000D01*
X14372500Y-8965000D02*
X14342500Y-8995000D01*
X14342500Y-9092500D02*
X14372500Y-9122500D01*
X14372500Y-9092500D02*
X14342500Y-9122500D01*
X14342500Y-9184900D02*
X14372500Y-9214900D01*
X14372500Y-9184900D02*
X14342500Y-9214900D01*
X14342500Y-9277300D02*
X14372500Y-9307300D01*
X14372500Y-9277300D02*
X14342500Y-9307300D01*
X14345000Y-6350000D02*
X14375000Y-6380000D01*
X14375000Y-6350000D02*
X14345000Y-6380000D01*
X14350024Y-6102524D02*
X14380024Y-6132524D01*
X14380024Y-6102524D02*
X14350024Y-6132524D01*
X14350024Y-6217524D02*
X14380024Y-6247524D01*
X14380024Y-6217524D02*
X14350024Y-6247524D01*
X14377500Y-8642500D02*
X14407500Y-8672500D01*
X14407500Y-8642500D02*
X14377500Y-8672500D01*
X14382500Y-7273962D02*
X14412500Y-7303962D01*
X14412500Y-7273962D02*
X14382500Y-7303962D01*
X14382500Y-7365000D02*
X14412500Y-7395000D01*
X14412500Y-7365000D02*
X14382500Y-7395000D01*
X14385000Y-5785000D02*
X14415000Y-5815000D01*
X14415000Y-5785000D02*
X14385000Y-5815000D01*
X14390000Y-6440024D02*
X14420000Y-6470024D01*
X14420000Y-6440024D02*
X14390000Y-6470024D01*
X14390000Y-6531063D02*
X14420000Y-6561063D01*
X14420000Y-6531063D02*
X14390000Y-6561063D01*
X14390000Y-6622101D02*
X14420000Y-6652101D01*
X14420000Y-6622101D02*
X14390000Y-6652101D01*
X14390000Y-6713139D02*
X14420000Y-6743139D01*
X14420000Y-6713139D02*
X14390000Y-6743139D01*
X14390000Y-6804178D02*
X14420000Y-6834178D01*
X14420000Y-6804178D02*
X14390000Y-6834178D01*
X14390000Y-6895216D02*
X14420000Y-6925216D01*
X14420000Y-6895216D02*
X14390000Y-6925216D01*
X14390000Y-6986254D02*
X14420000Y-7016254D01*
X14420000Y-6986254D02*
X14390000Y-7016254D01*
X14390000Y-7115000D02*
X14420000Y-7145000D01*
X14420000Y-7115000D02*
X14390000Y-7145000D01*
X14407500Y-9382500D02*
X14437500Y-9412500D01*
X14437500Y-9382500D02*
X14407500Y-9412500D01*
X14430000Y-7566000D02*
X14460000Y-7596000D01*
X14460000Y-7566000D02*
X14430000Y-7596000D01*
X14430000Y-8381000D02*
X14460000Y-8411000D01*
X14460000Y-8381000D02*
X14430000Y-8411000D01*
X14430024Y-6102524D02*
X14460024Y-6132524D01*
X14460024Y-6102524D02*
X14430024Y-6132524D01*
X14430024Y-6217524D02*
X14460024Y-6247524D01*
X14460024Y-6217524D02*
X14430024Y-6247524D01*
X14432500Y-9580000D02*
X14462500Y-9610000D01*
X14462500Y-9580000D02*
X14432500Y-9610000D01*
X14432813Y-7692500D02*
X14462813Y-7722500D01*
X14462813Y-7692500D02*
X14432813Y-7722500D01*
X14432813Y-7832500D02*
X14462813Y-7862500D01*
X14462813Y-7832500D02*
X14432813Y-7862500D01*
X14432813Y-7972500D02*
X14462813Y-8002500D01*
X14462813Y-7972500D02*
X14432813Y-8002500D01*
X14432813Y-8112500D02*
X14462813Y-8142500D01*
X14462813Y-8112500D02*
X14432813Y-8142500D01*
X14432813Y-8252500D02*
X14462813Y-8282500D01*
X14462813Y-8252500D02*
X14432813Y-8282500D01*
X14435000Y-6350000D02*
X14465000Y-6380000D01*
X14465000Y-6350000D02*
X14435000Y-6380000D01*
X14437500Y-9005000D02*
X14467500Y-9035000D01*
X14467500Y-9005000D02*
X14437500Y-9035000D01*
X14457000Y-8543500D02*
X14487000Y-8573500D01*
X14487000Y-8543500D02*
X14457000Y-8573500D01*
X14457500Y-7435000D02*
X14487500Y-7465000D01*
X14487500Y-7435000D02*
X14457500Y-7465000D01*
X14470000Y-9092700D02*
X14500000Y-9122700D01*
X14500000Y-9092700D02*
X14470000Y-9122700D01*
X14470000Y-9185100D02*
X14500000Y-9215100D01*
X14500000Y-9185100D02*
X14470000Y-9215100D01*
X14470000Y-9277500D02*
X14500000Y-9307500D01*
X14500000Y-9277500D02*
X14470000Y-9307500D01*
X14475000Y-9480000D02*
X14505000Y-9510000D01*
X14505000Y-9480000D02*
X14475000Y-9510000D01*
X14485000Y-5285000D02*
X14515000Y-5315000D01*
X14515000Y-5285000D02*
X14485000Y-5315000D01*
X14485000Y-5585000D02*
X14515000Y-5615000D01*
X14515000Y-5585000D02*
X14485000Y-5615000D01*
X14485000Y-7075000D02*
X14515000Y-7105000D01*
X14515000Y-7075000D02*
X14485000Y-7105000D01*
X14485000Y-8785000D02*
X14515000Y-8815000D01*
X14515000Y-8785000D02*
X14485000Y-8815000D01*
X14485000Y-10085000D02*
X14515000Y-10115000D01*
X14515000Y-10085000D02*
X14485000Y-10115000D01*
X14510024Y-6102524D02*
X14540024Y-6132524D01*
X14540024Y-6102524D02*
X14510024Y-6132524D01*
X14510024Y-6217524D02*
X14540024Y-6247524D01*
X14540024Y-6217524D02*
X14510024Y-6247524D01*
X14512187Y-7566000D02*
X14542187Y-7596000D01*
X14542187Y-7566000D02*
X14512187Y-7596000D01*
X14512187Y-8381000D02*
X14542187Y-8411000D01*
X14542187Y-8381000D02*
X14512187Y-8411000D01*
X14515000Y-7692500D02*
X14545000Y-7722500D01*
X14545000Y-7692500D02*
X14515000Y-7722500D01*
X14515000Y-7832500D02*
X14545000Y-7862500D01*
X14545000Y-7832500D02*
X14515000Y-7862500D01*
X14515000Y-7972500D02*
X14545000Y-8002500D01*
X14545000Y-7972500D02*
X14515000Y-8002500D01*
X14515000Y-8112500D02*
X14545000Y-8142500D01*
X14545000Y-8112500D02*
X14515000Y-8142500D01*
X14515000Y-8252500D02*
X14545000Y-8282500D01*
X14545000Y-8252500D02*
X14515000Y-8282500D01*
X14530000Y-6440000D02*
X14560000Y-6470000D01*
X14560000Y-6440000D02*
X14530000Y-6470000D01*
X14530000Y-6531038D02*
X14560000Y-6561038D01*
X14560000Y-6531038D02*
X14530000Y-6561038D01*
X14530000Y-6622077D02*
X14560000Y-6652077D01*
X14560000Y-6622077D02*
X14530000Y-6652077D01*
X14530000Y-6713115D02*
X14560000Y-6743115D01*
X14560000Y-6713115D02*
X14530000Y-6743115D01*
X14530000Y-6804153D02*
X14560000Y-6834153D01*
X14560000Y-6804153D02*
X14530000Y-6834153D01*
X14530000Y-6895192D02*
X14560000Y-6925192D01*
X14560000Y-6895192D02*
X14530000Y-6925192D01*
X14530000Y-6986230D02*
X14560000Y-7016230D01*
X14560000Y-6986230D02*
X14530000Y-7016230D01*
X14535000Y-6310000D02*
X14565000Y-6340000D01*
X14565000Y-6310000D02*
X14535000Y-6340000D01*
X14570000Y-9870000D02*
X14600000Y-9900000D01*
X14600000Y-9870000D02*
X14570000Y-9900000D01*
X14575000Y-7075000D02*
X14605000Y-7105000D01*
X14605000Y-7075000D02*
X14575000Y-7105000D01*
X14585000Y-5785000D02*
X14615000Y-5815000D01*
X14615000Y-5785000D02*
X14585000Y-5815000D01*
X14585000Y-7285000D02*
X14615000Y-7315000D01*
X14615000Y-7285000D02*
X14585000Y-7315000D01*
X14585000Y-8985000D02*
X14615000Y-9015000D01*
X14615000Y-8985000D02*
X14585000Y-9015000D01*
X14590024Y-6102524D02*
X14620024Y-6132524D01*
X14620024Y-6102524D02*
X14590024Y-6132524D01*
X14590024Y-6217524D02*
X14620024Y-6247524D01*
X14620024Y-6217524D02*
X14590024Y-6247524D01*
X14594373Y-7566000D02*
X14624373Y-7596000D01*
X14624373Y-7566000D02*
X14594373Y-7596000D01*
X14594373Y-8381000D02*
X14624373Y-8411000D01*
X14624373Y-8381000D02*
X14594373Y-8411000D01*
X14597187Y-7692500D02*
X14627187Y-7722500D01*
X14627187Y-7692500D02*
X14597187Y-7722500D01*
X14597187Y-7832500D02*
X14627187Y-7862500D01*
X14627187Y-7832500D02*
X14597187Y-7862500D01*
X14597187Y-7972500D02*
X14627187Y-8002500D01*
X14627187Y-7972500D02*
X14597187Y-8002500D01*
X14597187Y-8112500D02*
X14627187Y-8142500D01*
X14627187Y-8112500D02*
X14597187Y-8142500D01*
X14597187Y-8252500D02*
X14627187Y-8282500D01*
X14627187Y-8252500D02*
X14597187Y-8282500D01*
X14597500Y-9255000D02*
X14627500Y-9285000D01*
X14627500Y-9255000D02*
X14597500Y-9285000D01*
X14602500Y-9517500D02*
X14632500Y-9547500D01*
X14632500Y-9517500D02*
X14602500Y-9547500D01*
X14625000Y-6350000D02*
X14655000Y-6380000D01*
X14655000Y-6350000D02*
X14625000Y-6380000D01*
X14670000Y-6440024D02*
X14700000Y-6470024D01*
X14700000Y-6440024D02*
X14670000Y-6470024D01*
X14670000Y-6531063D02*
X14700000Y-6561063D01*
X14700000Y-6531063D02*
X14670000Y-6561063D01*
X14670000Y-6622101D02*
X14700000Y-6652101D01*
X14700000Y-6622101D02*
X14670000Y-6652101D01*
X14670000Y-6713139D02*
X14700000Y-6743139D01*
X14700000Y-6713139D02*
X14670000Y-6743139D01*
X14670000Y-6804178D02*
X14700000Y-6834178D01*
X14700000Y-6804178D02*
X14670000Y-6834178D01*
X14670000Y-6895216D02*
X14700000Y-6925216D01*
X14700000Y-6895216D02*
X14670000Y-6925216D01*
X14670000Y-6986254D02*
X14700000Y-7016254D01*
X14700000Y-6986254D02*
X14670000Y-7016254D01*
X14670000Y-7115000D02*
X14700000Y-7145000D01*
X14700000Y-7115000D02*
X14670000Y-7145000D01*
X14670000Y-9320000D02*
X14700000Y-9350000D01*
X14700000Y-9320000D02*
X14670000Y-9350000D01*
X14670024Y-6102524D02*
X14700024Y-6132524D01*
X14700024Y-6102524D02*
X14670024Y-6132524D01*
X14670024Y-6217524D02*
X14700024Y-6247524D01*
X14700024Y-6217524D02*
X14670024Y-6247524D01*
X14676560Y-7566000D02*
X14706560Y-7596000D01*
X14706560Y-7566000D02*
X14676560Y-7596000D01*
X14676560Y-8381000D02*
X14706560Y-8411000D01*
X14706560Y-8381000D02*
X14676560Y-8411000D01*
X14679373Y-7692500D02*
X14709373Y-7722500D01*
X14709373Y-7692500D02*
X14679373Y-7722500D01*
X14679373Y-7832500D02*
X14709373Y-7862500D01*
X14709373Y-7832500D02*
X14679373Y-7862500D01*
X14679373Y-7972500D02*
X14709373Y-8002500D01*
X14709373Y-7972500D02*
X14679373Y-8002500D01*
X14679373Y-8112500D02*
X14709373Y-8142500D01*
X14709373Y-8112500D02*
X14679373Y-8142500D01*
X14679373Y-8252500D02*
X14709373Y-8282500D01*
X14709373Y-8252500D02*
X14679373Y-8282500D01*
X14685000Y-5285000D02*
X14715000Y-5315000D01*
X14715000Y-5285000D02*
X14685000Y-5315000D01*
X14685000Y-5585000D02*
X14715000Y-5615000D01*
X14715000Y-5585000D02*
X14685000Y-5615000D01*
X14685000Y-10085000D02*
X14715000Y-10115000D01*
X14715000Y-10085000D02*
X14685000Y-10115000D01*
X14732500Y-9440000D02*
X14762500Y-9470000D01*
X14762500Y-9440000D02*
X14732500Y-9470000D01*
X14735000Y-6335000D02*
X14765000Y-6365000D01*
X14765000Y-6335000D02*
X14735000Y-6365000D01*
X14747500Y-8790500D02*
X14777500Y-8820500D01*
X14777500Y-8790500D02*
X14747500Y-8820500D01*
X14747500Y-8872500D02*
X14777500Y-8902500D01*
X14777500Y-8872500D02*
X14747500Y-8902500D01*
X14747500Y-8954500D02*
X14777500Y-8984500D01*
X14777500Y-8954500D02*
X14747500Y-8984500D01*
X14747500Y-9036500D02*
X14777500Y-9066500D01*
X14777500Y-9036500D02*
X14747500Y-9066500D01*
X14747500Y-9118500D02*
X14777500Y-9148500D01*
X14777500Y-9118500D02*
X14747500Y-9148500D01*
X14747500Y-9200500D02*
X14777500Y-9230500D01*
X14777500Y-9200500D02*
X14747500Y-9230500D01*
X14747500Y-9282500D02*
X14777500Y-9312500D01*
X14777500Y-9282500D02*
X14747500Y-9312500D01*
X14762500Y-7597500D02*
X14792500Y-7627500D01*
X14792500Y-7597500D02*
X14762500Y-7627500D01*
X14762500Y-7878000D02*
X14792500Y-7908000D01*
X14792500Y-7878000D02*
X14762500Y-7908000D01*
X14762500Y-8070000D02*
X14792500Y-8100000D01*
X14792500Y-8070000D02*
X14762500Y-8100000D01*
X14765000Y-6145000D02*
X14795000Y-6175000D01*
X14795000Y-6145000D02*
X14765000Y-6175000D01*
X14765000Y-7075000D02*
X14795000Y-7105000D01*
X14795000Y-7075000D02*
X14765000Y-7105000D01*
X14765000Y-7790000D02*
X14795000Y-7820000D01*
X14795000Y-7790000D02*
X14765000Y-7820000D01*
X14765000Y-8157500D02*
X14795000Y-8187500D01*
X14795000Y-8157500D02*
X14765000Y-8187500D01*
X14765000Y-8347500D02*
X14795000Y-8377500D01*
X14795000Y-8347500D02*
X14765000Y-8377500D01*
X14777500Y-8697500D02*
X14807500Y-8727500D01*
X14807500Y-8697500D02*
X14777500Y-8727500D01*
X14785000Y-5785000D02*
X14815000Y-5815000D01*
X14815000Y-5785000D02*
X14785000Y-5815000D01*
X14785000Y-7285000D02*
X14815000Y-7315000D01*
X14815000Y-7285000D02*
X14785000Y-7315000D01*
X14785000Y-7485000D02*
X14815000Y-7515000D01*
X14815000Y-7485000D02*
X14785000Y-7515000D01*
X14785000Y-9785000D02*
X14815000Y-9815000D01*
X14815000Y-9785000D02*
X14785000Y-9815000D01*
X14797524Y-6440024D02*
X14827524Y-6470024D01*
X14827524Y-6440024D02*
X14797524Y-6470024D01*
X14797524Y-6531063D02*
X14827524Y-6561063D01*
X14827524Y-6531063D02*
X14797524Y-6561063D01*
X14797524Y-6622101D02*
X14827524Y-6652101D01*
X14827524Y-6622101D02*
X14797524Y-6652101D01*
X14797524Y-6713139D02*
X14827524Y-6743139D01*
X14827524Y-6713139D02*
X14797524Y-6743139D01*
X14797524Y-6804178D02*
X14827524Y-6834178D01*
X14827524Y-6804178D02*
X14797524Y-6834178D01*
X14797524Y-6895216D02*
X14827524Y-6925216D01*
X14827524Y-6895216D02*
X14797524Y-6925216D01*
X14797524Y-6986254D02*
X14827524Y-7016254D01*
X14827524Y-6986254D02*
X14797524Y-7016254D01*
X14802500Y-6237500D02*
X14832500Y-6267500D01*
X14832500Y-6237500D02*
X14802500Y-6267500D01*
X14805000Y-7692500D02*
X14835000Y-7722500D01*
X14835000Y-7692500D02*
X14805000Y-7722500D01*
X14805000Y-8252500D02*
X14835000Y-8282500D01*
X14835000Y-8252500D02*
X14805000Y-8282500D01*
X14806000Y-7974000D02*
X14836000Y-8004000D01*
X14836000Y-7974000D02*
X14806000Y-8004000D01*
X14832500Y-9380000D02*
X14862500Y-9410000D01*
X14862500Y-9380000D02*
X14832500Y-9410000D01*
X14857500Y-8640000D02*
X14887500Y-8670000D01*
X14887500Y-8640000D02*
X14857500Y-8670000D01*
X14862500Y-8790500D02*
X14892500Y-8820500D01*
X14892500Y-8790500D02*
X14862500Y-8820500D01*
X14862500Y-8872500D02*
X14892500Y-8902500D01*
X14892500Y-8872500D02*
X14862500Y-8902500D01*
X14862500Y-8954500D02*
X14892500Y-8984500D01*
X14892500Y-8954500D02*
X14862500Y-8984500D01*
X14862500Y-9036500D02*
X14892500Y-9066500D01*
X14892500Y-9036500D02*
X14862500Y-9066500D01*
X14862500Y-9118500D02*
X14892500Y-9148500D01*
X14892500Y-9118500D02*
X14862500Y-9148500D01*
X14862500Y-9200500D02*
X14892500Y-9230500D01*
X14892500Y-9200500D02*
X14862500Y-9230500D01*
X14862500Y-9282500D02*
X14892500Y-9312500D01*
X14892500Y-9282500D02*
X14862500Y-9312500D01*
X14885000Y-5285000D02*
X14915000Y-5315000D01*
X14915000Y-5285000D02*
X14885000Y-5315000D01*
X14885000Y-5585000D02*
X14915000Y-5615000D01*
X14915000Y-5585000D02*
X14885000Y-5615000D01*
X14885000Y-8185000D02*
X14915000Y-8215000D01*
X14915000Y-8185000D02*
X14885000Y-8215000D01*
X14885000Y-10085000D02*
X14915000Y-10115000D01*
X14915000Y-10085000D02*
X14885000Y-10115000D01*
X14925000Y-6202500D02*
X14955000Y-6232500D01*
X14955000Y-6202500D02*
X14925000Y-6232500D01*
X14947500Y-9982500D02*
X14977500Y-10012500D01*
X14977500Y-9982500D02*
X14947500Y-10012500D01*
X14957500Y-8632500D02*
X14987500Y-8662500D01*
X14987500Y-8632500D02*
X14957500Y-8662500D01*
X14958524Y-6467024D02*
X14988524Y-6497024D01*
X14988524Y-6467024D02*
X14958524Y-6497024D01*
X14985000Y-6585000D02*
X15015000Y-6615000D01*
X15015000Y-6585000D02*
X14985000Y-6615000D01*
X14985000Y-6785000D02*
X15015000Y-6815000D01*
X15015000Y-6785000D02*
X14985000Y-6815000D01*
X14985000Y-6985000D02*
X15015000Y-7015000D01*
X15015000Y-6985000D02*
X14985000Y-7015000D01*
X14985000Y-7185000D02*
X15015000Y-7215000D01*
X15015000Y-7185000D02*
X14985000Y-7215000D01*
X14985000Y-7385000D02*
X15015000Y-7415000D01*
X15015000Y-7385000D02*
X14985000Y-7415000D01*
X14985000Y-7585000D02*
X15015000Y-7615000D01*
X15015000Y-7585000D02*
X14985000Y-7615000D01*
X14985000Y-7785000D02*
X15015000Y-7815000D01*
X15015000Y-7785000D02*
X14985000Y-7815000D01*
X14985000Y-7985000D02*
X15015000Y-8015000D01*
X15015000Y-7985000D02*
X14985000Y-8015000D01*
X15019000Y-8558500D02*
X15049000Y-8588500D01*
X15049000Y-8558500D02*
X15019000Y-8588500D01*
X15019000Y-8822500D02*
X15049000Y-8852500D01*
X15049000Y-8822500D02*
X15019000Y-8852500D01*
X15085000Y-5285000D02*
X15115000Y-5315000D01*
X15115000Y-5285000D02*
X15085000Y-5315000D01*
X15085000Y-8185000D02*
X15115000Y-8215000D01*
X15115000Y-8185000D02*
X15085000Y-8215000D01*
X15085000Y-9285000D02*
X15115000Y-9315000D01*
X15115000Y-9285000D02*
X15085000Y-9315000D01*
X15085000Y-9785000D02*
X15115000Y-9815000D01*
X15115000Y-9785000D02*
X15085000Y-9815000D01*
X15085000Y-10085000D02*
X15115000Y-10115000D01*
X15115000Y-10085000D02*
X15085000Y-10115000D01*
X15160000Y-8595000D02*
X15190000Y-8625000D01*
X15190000Y-8595000D02*
X15160000Y-8625000D01*
X15177500Y-8790000D02*
X15207500Y-8820000D01*
X15207500Y-8790000D02*
X15177500Y-8820000D01*
X15180000Y-8513000D02*
X15210000Y-8543000D01*
X15210000Y-8513000D02*
X15180000Y-8543000D01*
X15187500Y-6277500D02*
X15217500Y-6307500D01*
X15217500Y-6277500D02*
X15187500Y-6307500D01*
X15187500Y-6392500D02*
X15217500Y-6422500D01*
X15217500Y-6392500D02*
X15187500Y-6422500D01*
X15212500Y-8425000D02*
X15242500Y-8455000D01*
X15242500Y-8425000D02*
X15212500Y-8455000D01*
X15215000Y-8885000D02*
X15245000Y-8915000D01*
X15245000Y-8885000D02*
X15215000Y-8915000D01*
X15242500Y-8690000D02*
X15272500Y-8720000D01*
X15272500Y-8690000D02*
X15242500Y-8720000D01*
X15282179Y-6392455D02*
X15312179Y-6422455D01*
X15312179Y-6392455D02*
X15282179Y-6422455D01*
X15285000Y-5285000D02*
X15315000Y-5315000D01*
X15315000Y-5285000D02*
X15285000Y-5315000D01*
X15285000Y-6085000D02*
X15315000Y-6115000D01*
X15315000Y-6085000D02*
X15285000Y-6115000D01*
X15285000Y-6277500D02*
X15315000Y-6307500D01*
X15315000Y-6277500D02*
X15285000Y-6307500D01*
X15285000Y-8185000D02*
X15315000Y-8215000D01*
X15315000Y-8185000D02*
X15285000Y-8215000D01*
X15285000Y-9285000D02*
X15315000Y-9315000D01*
X15315000Y-9285000D02*
X15285000Y-9315000D01*
X15285000Y-10085000D02*
X15315000Y-10115000D01*
X15315000Y-10085000D02*
X15285000Y-10115000D01*
X15307500Y-8385000D02*
X15337500Y-8415000D01*
X15337500Y-8385000D02*
X15307500Y-8415000D01*
X15307500Y-8513000D02*
X15337500Y-8543000D01*
X15337500Y-8513000D02*
X15307500Y-8543000D01*
X15307500Y-8595000D02*
X15337500Y-8625000D01*
X15337500Y-8595000D02*
X15307500Y-8625000D01*
X15307500Y-8808000D02*
X15337500Y-8838000D01*
X15337500Y-8808000D02*
X15307500Y-8838000D01*
X15307500Y-8923000D02*
X15337500Y-8953000D01*
X15337500Y-8923000D02*
X15307500Y-8953000D01*
X15335000Y-5525000D02*
X15365000Y-5555000D01*
X15365000Y-5525000D02*
X15335000Y-5555000D01*
X15335000Y-9845000D02*
X15365000Y-9875000D01*
X15365000Y-9845000D02*
X15335000Y-9875000D01*
X15352500Y-8672500D02*
X15382500Y-8702500D01*
X15382500Y-8672500D02*
X15352500Y-8702500D01*
X15380000Y-9048000D02*
X15410000Y-9078000D01*
X15410000Y-9048000D02*
X15380000Y-9078000D01*
X15382500Y-6432500D02*
X15412500Y-6462500D01*
X15412500Y-6432500D02*
X15382500Y-6462500D01*
X15390000Y-6300000D02*
X15420000Y-6330000D01*
X15420000Y-6300000D02*
X15390000Y-6330000D01*
X15400833Y-8808000D02*
X15430833Y-8838000D01*
X15430833Y-8808000D02*
X15400833Y-8838000D01*
X15400833Y-8923000D02*
X15430833Y-8953000D01*
X15430833Y-8923000D02*
X15400833Y-8953000D01*
X15402500Y-8425000D02*
X15432500Y-8455000D01*
X15432500Y-8425000D02*
X15402500Y-8455000D01*
X15425000Y-6525000D02*
X15455000Y-6555000D01*
X15455000Y-6525000D02*
X15425000Y-6555000D01*
X15427500Y-6616268D02*
X15457500Y-6646268D01*
X15457500Y-6616268D02*
X15427500Y-6646268D01*
X15427500Y-6697512D02*
X15457500Y-6727512D01*
X15457500Y-6697512D02*
X15427500Y-6727512D01*
X15435000Y-9845000D02*
X15465000Y-9875000D01*
X15465000Y-9845000D02*
X15435000Y-9875000D01*
X15447500Y-8500000D02*
X15477500Y-8530000D01*
X15477500Y-8500000D02*
X15447500Y-8530000D01*
X15447500Y-8585500D02*
X15477500Y-8615500D01*
X15477500Y-8585500D02*
X15447500Y-8615500D01*
X15447500Y-8715000D02*
X15477500Y-8745000D01*
X15477500Y-8715000D02*
X15447500Y-8745000D01*
X15474662Y-6361207D02*
X15504662Y-6391207D01*
X15504662Y-6361207D02*
X15474662Y-6391207D01*
X15485000Y-5285000D02*
X15515000Y-5315000D01*
X15515000Y-5285000D02*
X15485000Y-5315000D01*
X15485000Y-6085000D02*
X15515000Y-6115000D01*
X15515000Y-6085000D02*
X15485000Y-6115000D01*
X15485000Y-8185000D02*
X15515000Y-8215000D01*
X15515000Y-8185000D02*
X15485000Y-8215000D01*
X15485000Y-10085000D02*
X15515000Y-10115000D01*
X15515000Y-10085000D02*
X15485000Y-10115000D01*
X15492500Y-8425000D02*
X15522500Y-8455000D01*
X15522500Y-8425000D02*
X15492500Y-8455000D01*
X15494167Y-8808000D02*
X15524167Y-8838000D01*
X15524167Y-8808000D02*
X15494167Y-8838000D01*
X15494167Y-8923000D02*
X15524167Y-8953000D01*
X15524167Y-8923000D02*
X15494167Y-8953000D01*
X15524377Y-6440410D02*
X15554377Y-6470410D01*
X15554377Y-6440410D02*
X15524377Y-6470410D01*
X15535000Y-5525000D02*
X15565000Y-5555000D01*
X15565000Y-5525000D02*
X15535000Y-5555000D01*
X15535000Y-9845000D02*
X15565000Y-9875000D01*
X15565000Y-9845000D02*
X15535000Y-9875000D01*
X15542431Y-6532203D02*
X15572431Y-6562203D01*
X15572431Y-6532203D02*
X15542431Y-6562203D01*
X15542500Y-6616268D02*
X15572500Y-6646268D01*
X15572500Y-6616268D02*
X15542500Y-6646268D01*
X15542500Y-6697512D02*
X15572500Y-6727512D01*
X15572500Y-6697512D02*
X15542500Y-6727512D01*
X15542500Y-8672500D02*
X15572500Y-8702500D01*
X15572500Y-8672500D02*
X15542500Y-8702500D01*
X15587500Y-8385000D02*
X15617500Y-8415000D01*
X15617500Y-8385000D02*
X15587500Y-8415000D01*
X15587500Y-8513000D02*
X15617500Y-8543000D01*
X15617500Y-8513000D02*
X15587500Y-8543000D01*
X15587500Y-8595000D02*
X15617500Y-8625000D01*
X15617500Y-8595000D02*
X15587500Y-8625000D01*
X15587500Y-8808000D02*
X15617500Y-8838000D01*
X15617500Y-8808000D02*
X15587500Y-8838000D01*
X15587500Y-8923000D02*
X15617500Y-8953000D01*
X15617500Y-8923000D02*
X15587500Y-8953000D01*
X15652500Y-8690000D02*
X15682500Y-8720000D01*
X15682500Y-8690000D02*
X15652500Y-8720000D01*
X15680000Y-8885000D02*
X15710000Y-8915000D01*
X15710000Y-8885000D02*
X15680000Y-8915000D01*
X15682500Y-8425000D02*
X15712500Y-8455000D01*
X15712500Y-8425000D02*
X15682500Y-8455000D01*
X15685000Y-5285000D02*
X15715000Y-5315000D01*
X15715000Y-5285000D02*
X15685000Y-5315000D01*
X15685000Y-6085000D02*
X15715000Y-6115000D01*
X15715000Y-6085000D02*
X15685000Y-6115000D01*
X15685000Y-6285000D02*
X15715000Y-6315000D01*
X15715000Y-6285000D02*
X15685000Y-6315000D01*
X15685000Y-8185000D02*
X15715000Y-8215000D01*
X15715000Y-8185000D02*
X15685000Y-8215000D01*
X15685000Y-10085000D02*
X15715000Y-10115000D01*
X15715000Y-10085000D02*
X15685000Y-10115000D01*
X15715000Y-8512500D02*
X15745000Y-8542500D01*
X15745000Y-8512500D02*
X15715000Y-8542500D01*
X15718000Y-8788000D02*
X15748000Y-8818000D01*
X15748000Y-8788000D02*
X15718000Y-8818000D01*
X15727500Y-8595000D02*
X15757500Y-8625000D01*
X15757500Y-8595000D02*
X15727500Y-8625000D01*
X15730000Y-5610000D02*
X15760000Y-5640000D01*
X15760000Y-5610000D02*
X15730000Y-5640000D01*
X15782422Y-9785000D02*
X15812422Y-9815000D01*
X15812422Y-9785000D02*
X15782422Y-9815000D01*
X15822500Y-9180000D02*
X15852500Y-9210000D01*
X15852500Y-9180000D02*
X15822500Y-9210000D01*
X15877500Y-8558500D02*
X15907500Y-8588500D01*
X15907500Y-8558500D02*
X15877500Y-8588500D01*
X15877500Y-8822500D02*
X15907500Y-8852500D01*
X15907500Y-8822500D02*
X15877500Y-8852500D01*
X15885000Y-5285000D02*
X15915000Y-5315000D01*
X15915000Y-5285000D02*
X15885000Y-5315000D01*
X15885000Y-6085000D02*
X15915000Y-6115000D01*
X15915000Y-6085000D02*
X15885000Y-6115000D01*
X15885000Y-6285000D02*
X15915000Y-6315000D01*
X15915000Y-6285000D02*
X15885000Y-6315000D01*
X15885000Y-7385000D02*
X15915000Y-7415000D01*
X15915000Y-7385000D02*
X15885000Y-7415000D01*
X15885000Y-7584408D02*
X15915000Y-7614408D01*
X15915000Y-7584408D02*
X15885000Y-7614408D01*
X15885000Y-7785000D02*
X15915000Y-7815000D01*
X15915000Y-7785000D02*
X15885000Y-7815000D01*
X15885000Y-7985000D02*
X15915000Y-8015000D01*
X15915000Y-7985000D02*
X15885000Y-8015000D01*
X15885000Y-8185000D02*
X15915000Y-8215000D01*
X15915000Y-8185000D02*
X15885000Y-8215000D01*
X15885000Y-10085000D02*
X15915000Y-10115000D01*
X15915000Y-10085000D02*
X15885000Y-10115000D01*
X15937500Y-8630000D02*
X15967500Y-8660000D01*
X15967500Y-8630000D02*
X15937500Y-8660000D01*
X15967500Y-8790500D02*
X15997500Y-8820500D01*
X15997500Y-8790500D02*
X15967500Y-8820500D01*
X15967500Y-8875625D02*
X15997500Y-8905625D01*
X15997500Y-8875625D02*
X15967500Y-8905625D01*
X15967500Y-8960750D02*
X15997500Y-8990750D01*
X15997500Y-8960750D02*
X15967500Y-8990750D01*
X15975000Y-9190000D02*
X16005000Y-9220000D01*
X16005000Y-9190000D02*
X15975000Y-9220000D01*
X15985000Y-5585000D02*
X16015000Y-5615000D01*
X16015000Y-5585000D02*
X15985000Y-5615000D01*
X15985321Y-9785000D02*
X16015321Y-9815000D01*
X16015321Y-9785000D02*
X15985321Y-9815000D01*
X16045000Y-8675000D02*
X16075000Y-8705000D01*
X16075000Y-8675000D02*
X16045000Y-8705000D01*
X16047500Y-9270000D02*
X16077500Y-9300000D01*
X16077500Y-9270000D02*
X16047500Y-9300000D01*
X16070000Y-9830000D02*
X16100000Y-9860000D01*
X16100000Y-9830000D02*
X16070000Y-9860000D01*
X16082000Y-7553000D02*
X16112000Y-7583000D01*
X16112000Y-7553000D02*
X16082000Y-7583000D01*
X16082000Y-7817000D02*
X16112000Y-7847000D01*
X16112000Y-7817000D02*
X16082000Y-7847000D01*
X16082500Y-8790500D02*
X16112500Y-8820500D01*
X16112500Y-8790500D02*
X16082500Y-8820500D01*
X16082500Y-8875625D02*
X16112500Y-8905625D01*
X16112500Y-8875625D02*
X16082500Y-8905625D01*
X16082500Y-8960750D02*
X16112500Y-8990750D01*
X16112500Y-8960750D02*
X16082500Y-8990750D01*
X16082500Y-9045875D02*
X16112500Y-9075875D01*
X16112500Y-9045875D02*
X16082500Y-9075875D01*
X16082500Y-9131000D02*
X16112500Y-9161000D01*
X16112500Y-9131000D02*
X16082500Y-9161000D01*
X16085000Y-5285000D02*
X16115000Y-5315000D01*
X16115000Y-5285000D02*
X16085000Y-5315000D01*
X16085000Y-6085000D02*
X16115000Y-6115000D01*
X16115000Y-6085000D02*
X16085000Y-6115000D01*
X16085000Y-6285000D02*
X16115000Y-6315000D01*
X16115000Y-6285000D02*
X16085000Y-6315000D01*
X16085000Y-6485000D02*
X16115000Y-6515000D01*
X16115000Y-6485000D02*
X16085000Y-6515000D01*
X16085000Y-6685000D02*
X16115000Y-6715000D01*
X16115000Y-6685000D02*
X16085000Y-6715000D01*
X16085000Y-6885000D02*
X16115000Y-6915000D01*
X16115000Y-6885000D02*
X16085000Y-6915000D01*
X16085000Y-7085000D02*
X16115000Y-7115000D01*
X16115000Y-7085000D02*
X16085000Y-7115000D01*
X16085000Y-8085000D02*
X16115000Y-8115000D01*
X16115000Y-8085000D02*
X16085000Y-8115000D01*
X16085000Y-8285000D02*
X16115000Y-8315000D01*
X16115000Y-8285000D02*
X16085000Y-8315000D01*
X16085000Y-8485000D02*
X16115000Y-8515000D01*
X16115000Y-8485000D02*
X16085000Y-8515000D01*
X16085000Y-10085000D02*
X16115000Y-10115000D01*
X16115000Y-10085000D02*
X16085000Y-10115000D01*
X16142500Y-9363000D02*
X16172500Y-9393000D01*
X16172500Y-9363000D02*
X16142500Y-9393000D01*
X16145000Y-7195000D02*
X16175000Y-7225000D01*
X16175000Y-7195000D02*
X16145000Y-7225000D01*
X16185000Y-9785000D02*
X16215000Y-9815000D01*
X16215000Y-9785000D02*
X16185000Y-9815000D01*
X16200000Y-9085000D02*
X16230000Y-9115000D01*
X16230000Y-9085000D02*
X16200000Y-9115000D01*
X16211000Y-9563500D02*
X16241000Y-9593500D01*
X16241000Y-9563500D02*
X16211000Y-9593500D01*
X16239000Y-7589000D02*
X16269000Y-7619000D01*
X16269000Y-7589000D02*
X16239000Y-7619000D01*
X16241000Y-7783000D02*
X16271000Y-7813000D01*
X16271000Y-7783000D02*
X16241000Y-7813000D01*
X16267500Y-7877500D02*
X16297500Y-7907500D01*
X16297500Y-7877500D02*
X16267500Y-7907500D01*
X16280000Y-7490000D02*
X16310000Y-7520000D01*
X16310000Y-7490000D02*
X16280000Y-7520000D01*
X16285000Y-5285000D02*
X16315000Y-5315000D01*
X16315000Y-5285000D02*
X16285000Y-5315000D01*
X16285000Y-6085000D02*
X16315000Y-6115000D01*
X16315000Y-6085000D02*
X16285000Y-6115000D01*
X16285000Y-6285000D02*
X16315000Y-6315000D01*
X16315000Y-6285000D02*
X16285000Y-6315000D01*
X16285000Y-6485000D02*
X16315000Y-6515000D01*
X16315000Y-6485000D02*
X16285000Y-6515000D01*
X16285000Y-6685000D02*
X16315000Y-6715000D01*
X16315000Y-6685000D02*
X16285000Y-6715000D01*
X16285000Y-6885000D02*
X16315000Y-6915000D01*
X16315000Y-6885000D02*
X16285000Y-6915000D01*
X16285000Y-8085000D02*
X16315000Y-8115000D01*
X16315000Y-8085000D02*
X16285000Y-8115000D01*
X16285000Y-8285000D02*
X16315000Y-8315000D01*
X16315000Y-8285000D02*
X16285000Y-8315000D01*
X16285000Y-8485000D02*
X16315000Y-8515000D01*
X16315000Y-8485000D02*
X16285000Y-8515000D01*
X16285000Y-8685000D02*
X16315000Y-8715000D01*
X16315000Y-8685000D02*
X16285000Y-8715000D01*
X16285000Y-10085000D02*
X16315000Y-10115000D01*
X16315000Y-10085000D02*
X16285000Y-10115000D01*
X16300000Y-9327500D02*
X16330000Y-9357500D01*
X16330000Y-9327500D02*
X16300000Y-9357500D01*
X16302000Y-9126000D02*
X16332000Y-9156000D01*
X16332000Y-9126000D02*
X16302000Y-9156000D01*
X16303000Y-9014000D02*
X16333000Y-9044000D01*
X16333000Y-9014000D02*
X16303000Y-9044000D01*
X16310000Y-7685000D02*
X16340000Y-7715000D01*
X16340000Y-7685000D02*
X16310000Y-7715000D01*
X16335000Y-9422500D02*
X16365000Y-9452500D01*
X16365000Y-9422500D02*
X16335000Y-9452500D01*
X16336000Y-8927000D02*
X16366000Y-8957000D01*
X16366000Y-8927000D02*
X16336000Y-8957000D01*
X16352500Y-5632500D02*
X16382500Y-5662500D01*
X16382500Y-5632500D02*
X16352500Y-5662500D01*
X16367500Y-7932500D02*
X16397500Y-7962500D01*
X16397500Y-7932500D02*
X16367500Y-7962500D01*
X16370000Y-9230000D02*
X16400000Y-9260000D01*
X16400000Y-9230000D02*
X16370000Y-9260000D01*
X16372500Y-7570000D02*
X16402500Y-7600000D01*
X16402500Y-7570000D02*
X16372500Y-7600000D01*
X16372500Y-7812500D02*
X16402500Y-7842500D01*
X16402500Y-7812500D02*
X16372500Y-7842500D01*
X16375000Y-7450000D02*
X16405000Y-7480000D01*
X16405000Y-7450000D02*
X16375000Y-7480000D01*
X16430000Y-9465000D02*
X16460000Y-9495000D01*
X16460000Y-9465000D02*
X16430000Y-9495000D01*
X16432500Y-8886000D02*
X16462500Y-8916000D01*
X16462500Y-8886000D02*
X16432500Y-8916000D01*
X16432500Y-9015000D02*
X16462500Y-9045000D01*
X16462500Y-9015000D02*
X16432500Y-9045000D01*
X16432500Y-9127000D02*
X16462500Y-9157000D01*
X16462500Y-9127000D02*
X16432500Y-9157000D01*
X16432500Y-9345000D02*
X16462500Y-9375000D01*
X16462500Y-9345000D02*
X16432500Y-9375000D01*
X16435000Y-7685000D02*
X16465000Y-7715000D01*
X16465000Y-7685000D02*
X16435000Y-7715000D01*
X16437500Y-5445000D02*
X16467500Y-5475000D01*
X16467500Y-5445000D02*
X16437500Y-5475000D01*
X16470000Y-7490000D02*
X16500000Y-7520000D01*
X16500000Y-7490000D02*
X16470000Y-7520000D01*
X16472500Y-7885000D02*
X16502500Y-7915000D01*
X16502500Y-7885000D02*
X16472500Y-7915000D01*
X16485000Y-6285000D02*
X16515000Y-6315000D01*
X16515000Y-6285000D02*
X16485000Y-6315000D01*
X16485000Y-6485000D02*
X16515000Y-6515000D01*
X16515000Y-6485000D02*
X16485000Y-6515000D01*
X16485000Y-6685000D02*
X16515000Y-6715000D01*
X16515000Y-6685000D02*
X16485000Y-6715000D01*
X16485000Y-6885000D02*
X16515000Y-6915000D01*
X16515000Y-6885000D02*
X16485000Y-6915000D01*
X16485000Y-8085000D02*
X16515000Y-8115000D01*
X16515000Y-8085000D02*
X16485000Y-8115000D01*
X16485000Y-8285000D02*
X16515000Y-8315000D01*
X16515000Y-8285000D02*
X16485000Y-8315000D01*
X16485000Y-8485000D02*
X16515000Y-8515000D01*
X16515000Y-8485000D02*
X16485000Y-8515000D01*
X16485000Y-8685000D02*
X16515000Y-8715000D01*
X16515000Y-8685000D02*
X16485000Y-8715000D01*
X16485000Y-10085000D02*
X16515000Y-10115000D01*
X16515000Y-10085000D02*
X16485000Y-10115000D01*
X16492500Y-9230000D02*
X16522500Y-9260000D01*
X16522500Y-9230000D02*
X16492500Y-9260000D01*
X16502500Y-7587500D02*
X16532500Y-7617500D01*
X16532500Y-7587500D02*
X16502500Y-7617500D01*
X16505000Y-7782500D02*
X16535000Y-7812500D01*
X16535000Y-7782500D02*
X16505000Y-7812500D01*
X16527000Y-9423000D02*
X16557000Y-9453000D01*
X16557000Y-9423000D02*
X16527000Y-9453000D01*
X16527500Y-8927500D02*
X16557500Y-8957500D01*
X16557500Y-8927500D02*
X16527500Y-8957500D01*
X16558500Y-9014000D02*
X16588500Y-9044000D01*
X16588500Y-9014000D02*
X16558500Y-9044000D01*
X16560000Y-9126000D02*
X16590000Y-9156000D01*
X16590000Y-9126000D02*
X16560000Y-9156000D01*
X16562500Y-5445000D02*
X16592500Y-5475000D01*
X16592500Y-5445000D02*
X16562500Y-5475000D01*
X16563000Y-9329000D02*
X16593000Y-9359000D01*
X16593000Y-9329000D02*
X16563000Y-9359000D01*
X16592000Y-7352500D02*
X16622000Y-7382500D01*
X16622000Y-7352500D02*
X16592000Y-7382500D01*
X16615000Y-9835000D02*
X16645000Y-9865000D01*
X16645000Y-9835000D02*
X16615000Y-9865000D01*
X16628000Y-7556000D02*
X16658000Y-7586000D01*
X16658000Y-7556000D02*
X16628000Y-7586000D01*
X16647500Y-5630000D02*
X16677500Y-5660000D01*
X16677500Y-5630000D02*
X16647500Y-5660000D01*
X16660500Y-7817000D02*
X16690500Y-7847000D01*
X16690500Y-7817000D02*
X16660500Y-7847000D01*
X16670000Y-5885000D02*
X16700000Y-5915000D01*
X16700000Y-5885000D02*
X16670000Y-5915000D01*
X16682500Y-9377500D02*
X16712500Y-9407500D01*
X16712500Y-9377500D02*
X16682500Y-9407500D01*
X16685000Y-6285000D02*
X16715000Y-6315000D01*
X16715000Y-6285000D02*
X16685000Y-6315000D01*
X16685000Y-6485000D02*
X16715000Y-6515000D01*
X16715000Y-6485000D02*
X16685000Y-6515000D01*
X16685000Y-6685000D02*
X16715000Y-6715000D01*
X16715000Y-6685000D02*
X16685000Y-6715000D01*
X16685000Y-6885000D02*
X16715000Y-6915000D01*
X16715000Y-6885000D02*
X16685000Y-6915000D01*
X16685000Y-7085000D02*
X16715000Y-7115000D01*
X16715000Y-7085000D02*
X16685000Y-7115000D01*
X16685000Y-10085000D02*
X16715000Y-10115000D01*
X16715000Y-10085000D02*
X16685000Y-10115000D01*
X16692500Y-5445000D02*
X16722500Y-5475000D01*
X16722500Y-5445000D02*
X16692500Y-5475000D01*
X16697500Y-8460000D02*
X16727500Y-8490000D01*
X16727500Y-8460000D02*
X16697500Y-8490000D01*
X16708200Y-7742500D02*
X16738200Y-7772500D01*
X16738200Y-7742500D02*
X16708200Y-7772500D01*
X16721000Y-9099000D02*
X16751000Y-9129000D01*
X16751000Y-9099000D02*
X16721000Y-9129000D01*
X16732000Y-7262500D02*
X16762000Y-7292500D01*
X16762000Y-7262500D02*
X16732000Y-7292500D01*
X16745000Y-8565000D02*
X16775000Y-8595000D01*
X16775000Y-8565000D02*
X16745000Y-8595000D01*
X16752500Y-8360000D02*
X16782500Y-8390000D01*
X16782500Y-8360000D02*
X16752500Y-8390000D01*
X16765000Y-7625000D02*
X16795000Y-7655000D01*
X16795000Y-7625000D02*
X16765000Y-7655000D01*
X16802500Y-9331000D02*
X16832500Y-9361000D01*
X16832500Y-9331000D02*
X16802500Y-9361000D01*
X16802500Y-9425750D02*
X16832500Y-9455750D01*
X16832500Y-9425750D02*
X16802500Y-9455750D01*
X16802500Y-9520500D02*
X16832500Y-9550500D01*
X16832500Y-9520500D02*
X16802500Y-9550500D01*
X16802500Y-9615000D02*
X16832500Y-9645000D01*
X16832500Y-9615000D02*
X16802500Y-9645000D01*
X16802500Y-9710000D02*
X16832500Y-9740000D01*
X16832500Y-9710000D02*
X16802500Y-9740000D01*
X16807500Y-7742500D02*
X16837500Y-7772500D01*
X16837500Y-7742500D02*
X16807500Y-7772500D01*
X16817500Y-5445000D02*
X16847500Y-5475000D01*
X16847500Y-5445000D02*
X16817500Y-5475000D01*
X16827500Y-8462500D02*
X16857500Y-8492500D01*
X16857500Y-8462500D02*
X16827500Y-8492500D01*
X16828000Y-8173500D02*
X16858000Y-8203500D01*
X16858000Y-8173500D02*
X16828000Y-8203500D01*
X16828000Y-8752000D02*
X16858000Y-8782000D01*
X16858000Y-8752000D02*
X16828000Y-8782000D01*
X16847500Y-9822500D02*
X16877500Y-9852500D01*
X16877500Y-9822500D02*
X16847500Y-9852500D01*
X16855000Y-5630000D02*
X16885000Y-5660000D01*
X16885000Y-5630000D02*
X16855000Y-5660000D01*
X16862500Y-8595000D02*
X16892500Y-8625000D01*
X16892500Y-8595000D02*
X16862500Y-8625000D01*
X16865000Y-5722500D02*
X16895000Y-5752500D01*
X16895000Y-5722500D02*
X16865000Y-5752500D01*
X16865000Y-8330000D02*
X16895000Y-8360000D01*
X16895000Y-8330000D02*
X16865000Y-8360000D01*
X16875000Y-7627500D02*
X16905000Y-7657500D01*
X16905000Y-7627500D02*
X16875000Y-7657500D01*
X16883799Y-7083555D02*
X16913799Y-7113555D01*
X16913799Y-7083555D02*
X16883799Y-7113555D01*
X16885000Y-6485000D02*
X16915000Y-6515000D01*
X16915000Y-6485000D02*
X16885000Y-6515000D01*
X16885000Y-6685000D02*
X16915000Y-6715000D01*
X16915000Y-6685000D02*
X16885000Y-6715000D01*
X16885000Y-6885000D02*
X16915000Y-6915000D01*
X16915000Y-6885000D02*
X16885000Y-6915000D01*
X16885000Y-7385000D02*
X16915000Y-7415000D01*
X16915000Y-7385000D02*
X16885000Y-7415000D01*
X16885000Y-10085000D02*
X16915000Y-10115000D01*
X16915000Y-10085000D02*
X16885000Y-10115000D01*
X16895000Y-7762500D02*
X16925000Y-7792500D01*
X16925000Y-7762500D02*
X16895000Y-7792500D01*
X16902500Y-7869300D02*
X16932500Y-7899300D01*
X16932500Y-7869300D02*
X16902500Y-7899300D01*
X16902500Y-7953600D02*
X16932500Y-7983600D01*
X16932500Y-7953600D02*
X16902500Y-7983600D01*
X16902500Y-8037900D02*
X16932500Y-8067900D01*
X16932500Y-8037900D02*
X16902500Y-8067900D01*
X16902500Y-8122200D02*
X16932500Y-8152200D01*
X16932500Y-8122200D02*
X16902500Y-8152200D01*
X16905000Y-8840000D02*
X16935000Y-8870000D01*
X16935000Y-8840000D02*
X16905000Y-8870000D01*
X16917500Y-9037500D02*
X16947500Y-9067500D01*
X16947500Y-9037500D02*
X16917500Y-9067500D01*
X16917500Y-9331000D02*
X16947500Y-9361000D01*
X16947500Y-9331000D02*
X16917500Y-9361000D01*
X16917500Y-9425750D02*
X16947500Y-9455750D01*
X16947500Y-9425750D02*
X16917500Y-9455750D01*
X16917500Y-9520500D02*
X16947500Y-9550500D01*
X16947500Y-9520500D02*
X16917500Y-9550500D01*
X16917500Y-9615250D02*
X16947500Y-9645250D01*
X16947500Y-9615250D02*
X16917500Y-9645250D01*
X16917500Y-9710000D02*
X16947500Y-9740000D01*
X16947500Y-9710000D02*
X16917500Y-9740000D01*
X16945000Y-5445000D02*
X16975000Y-5475000D01*
X16975000Y-5445000D02*
X16945000Y-5475000D01*
X16955000Y-5722500D02*
X16985000Y-5752500D01*
X16985000Y-5722500D02*
X16955000Y-5752500D01*
X16960000Y-8400000D02*
X16990000Y-8430000D01*
X16990000Y-8400000D02*
X16960000Y-8430000D01*
X16960000Y-8525000D02*
X16990000Y-8555000D01*
X16990000Y-8525000D02*
X16960000Y-8555000D01*
X16960000Y-9867500D02*
X16990000Y-9897500D01*
X16990000Y-9867500D02*
X16960000Y-9897500D01*
X16962500Y-8930000D02*
X16992500Y-8960000D01*
X16992500Y-8930000D02*
X16962500Y-8960000D01*
X16967500Y-9232500D02*
X16997500Y-9262500D01*
X16997500Y-9232500D02*
X16967500Y-9262500D01*
X16972500Y-7675000D02*
X17002500Y-7705000D01*
X17002500Y-7675000D02*
X16972500Y-7705000D01*
X16975000Y-6305000D02*
X17005000Y-6335000D01*
X17005000Y-6305000D02*
X16975000Y-6335000D01*
X16990000Y-9750000D02*
X17020000Y-9780000D01*
X17020000Y-9750000D02*
X16990000Y-9780000D01*
X17005000Y-9445000D02*
X17035000Y-9475000D01*
X17035000Y-9445000D02*
X17005000Y-9475000D01*
X17017500Y-7785000D02*
X17047500Y-7815000D01*
X17047500Y-7785000D02*
X17017500Y-7815000D01*
X17017500Y-7869300D02*
X17047500Y-7899300D01*
X17047500Y-7869300D02*
X17017500Y-7899300D01*
X17017500Y-7953600D02*
X17047500Y-7983600D01*
X17047500Y-7953600D02*
X17017500Y-7983600D01*
X17017500Y-8037900D02*
X17047500Y-8067900D01*
X17047500Y-8037900D02*
X17017500Y-8067900D01*
X17047500Y-5722500D02*
X17077500Y-5752500D01*
X17077500Y-5722500D02*
X17047500Y-5752500D01*
X17048250Y-9327500D02*
X17078250Y-9357500D01*
X17078250Y-9327500D02*
X17048250Y-9357500D01*
X17050000Y-8845000D02*
X17080000Y-8875000D01*
X17080000Y-8845000D02*
X17050000Y-8875000D01*
X17056000Y-8331000D02*
X17086000Y-8361000D01*
X17086000Y-8331000D02*
X17056000Y-8361000D01*
X17058000Y-8595000D02*
X17088000Y-8625000D01*
X17088000Y-8595000D02*
X17058000Y-8625000D01*
X17060000Y-5935000D02*
X17090000Y-5965000D01*
X17090000Y-5935000D02*
X17060000Y-5965000D01*
X17060000Y-6030000D02*
X17090000Y-6060000D01*
X17090000Y-6030000D02*
X17060000Y-6060000D01*
X17060000Y-8962500D02*
X17090000Y-8992500D01*
X17090000Y-8962500D02*
X17060000Y-8992500D01*
X17072500Y-5445000D02*
X17102500Y-5475000D01*
X17102500Y-5445000D02*
X17072500Y-5475000D01*
X17075000Y-8462500D02*
X17105000Y-8492500D01*
X17105000Y-8462500D02*
X17075000Y-8492500D01*
X17082500Y-6305000D02*
X17112500Y-6335000D01*
X17112500Y-6305000D02*
X17082500Y-6335000D01*
X17084766Y-6882588D02*
X17114766Y-6912588D01*
X17114766Y-6882588D02*
X17084766Y-6912588D01*
X17085000Y-7385000D02*
X17115000Y-7415000D01*
X17115000Y-7385000D02*
X17085000Y-7415000D01*
X17085000Y-7585000D02*
X17115000Y-7615000D01*
X17115000Y-7585000D02*
X17085000Y-7615000D01*
X17085000Y-10085000D02*
X17115000Y-10115000D01*
X17115000Y-10085000D02*
X17085000Y-10115000D01*
X17085500Y-9616000D02*
X17115500Y-9646000D01*
X17115500Y-9616000D02*
X17085500Y-9646000D01*
X17090000Y-9750000D02*
X17120000Y-9780000D01*
X17120000Y-9750000D02*
X17090000Y-9780000D01*
X17092000Y-8173500D02*
X17122000Y-8203500D01*
X17122000Y-8173500D02*
X17092000Y-8203500D01*
X17117500Y-9197500D02*
X17147500Y-9227500D01*
X17147500Y-9197500D02*
X17117500Y-9227500D01*
X17117500Y-9867500D02*
X17147500Y-9897500D01*
X17147500Y-9867500D02*
X17117500Y-9897500D01*
X17119000Y-9457500D02*
X17149000Y-9487500D01*
X17149000Y-9457500D02*
X17119000Y-9487500D01*
X17143000Y-9327500D02*
X17173000Y-9357500D01*
X17173000Y-9327500D02*
X17143000Y-9357500D01*
X17155000Y-5935000D02*
X17185000Y-5965000D01*
X17185000Y-5935000D02*
X17155000Y-5965000D01*
X17155000Y-6030000D02*
X17185000Y-6060000D01*
X17185000Y-6030000D02*
X17155000Y-6060000D01*
X17155000Y-8370000D02*
X17185000Y-8400000D01*
X17185000Y-8370000D02*
X17155000Y-8400000D01*
X17155000Y-8560000D02*
X17185000Y-8590000D01*
X17185000Y-8560000D02*
X17155000Y-8590000D01*
X17155000Y-8990000D02*
X17185000Y-9020000D01*
X17185000Y-8990000D02*
X17155000Y-9020000D01*
X17157500Y-8852500D02*
X17187500Y-8882500D01*
X17187500Y-8852500D02*
X17157500Y-8882500D01*
X17157500Y-9672500D02*
X17187500Y-9702500D01*
X17187500Y-9672500D02*
X17157500Y-9702500D01*
X17176082Y-5553661D02*
X17206082Y-5583661D01*
X17206082Y-5553661D02*
X17176082Y-5583661D01*
X17180218Y-6304782D02*
X17210218Y-6334782D01*
X17210218Y-6304782D02*
X17180218Y-6334782D01*
X17195000Y-8465000D02*
X17225000Y-8495000D01*
X17225000Y-8465000D02*
X17195000Y-8495000D01*
X17200000Y-5445000D02*
X17230000Y-5475000D01*
X17230000Y-5445000D02*
X17200000Y-5475000D01*
X17217500Y-9265000D02*
X17247500Y-9295000D01*
X17247500Y-9265000D02*
X17217500Y-9295000D01*
X17217500Y-9390000D02*
X17247500Y-9420000D01*
X17247500Y-9390000D02*
X17217500Y-9420000D01*
X17217500Y-9835000D02*
X17247500Y-9865000D01*
X17247500Y-9835000D02*
X17217500Y-9865000D01*
X17226793Y-8309950D02*
X17256793Y-8339950D01*
X17256793Y-8309950D02*
X17226793Y-8339950D01*
X17236359Y-5613641D02*
X17266359Y-5643641D01*
X17266359Y-5613641D02*
X17236359Y-5643641D01*
X17247500Y-8752000D02*
X17277500Y-8782000D01*
X17277500Y-8752000D02*
X17247500Y-8782000D01*
X17260000Y-8937500D02*
X17290000Y-8967500D01*
X17290000Y-8937500D02*
X17260000Y-8967500D01*
X17262634Y-6302416D02*
X17292634Y-6332416D01*
X17292634Y-6302416D02*
X17262634Y-6332416D01*
X17275000Y-9745000D02*
X17305000Y-9775000D01*
X17305000Y-9745000D02*
X17275000Y-9775000D01*
X17285000Y-10085000D02*
X17315000Y-10115000D01*
X17315000Y-10085000D02*
X17285000Y-10115000D01*
X17292500Y-8683500D02*
X17322500Y-8713500D01*
X17322500Y-8683500D02*
X17292500Y-8713500D01*
X17314000Y-9195000D02*
X17344000Y-9225000D01*
X17344000Y-9195000D02*
X17314000Y-9225000D01*
X17318000Y-9457000D02*
X17348000Y-9487000D01*
X17348000Y-9457000D02*
X17318000Y-9487000D01*
X17325000Y-5445000D02*
X17355000Y-5475000D01*
X17355000Y-5445000D02*
X17325000Y-5475000D01*
X17332500Y-9327500D02*
X17362500Y-9357500D01*
X17362500Y-9327500D02*
X17332500Y-9357500D01*
X17345000Y-6455000D02*
X17375000Y-6485000D01*
X17375000Y-6455000D02*
X17345000Y-6485000D01*
X17345000Y-9067500D02*
X17375000Y-9097500D01*
X17375000Y-9067500D02*
X17345000Y-9097500D01*
X17349500Y-9616000D02*
X17379500Y-9646000D01*
X17379500Y-9616000D02*
X17349500Y-9646000D01*
X17354000Y-8211000D02*
X17384000Y-8241000D01*
X17384000Y-8211000D02*
X17354000Y-8241000D01*
X17367500Y-5572500D02*
X17397500Y-5602500D01*
X17397500Y-5572500D02*
X17367500Y-5602500D01*
X17412500Y-9235000D02*
X17442500Y-9265000D01*
X17442500Y-9235000D02*
X17412500Y-9265000D01*
X17412500Y-9425000D02*
X17442500Y-9455000D01*
X17442500Y-9425000D02*
X17412500Y-9455000D01*
X17450000Y-8245000D02*
X17480000Y-8275000D01*
X17480000Y-8245000D02*
X17450000Y-8275000D01*
X17452500Y-5445000D02*
X17482500Y-5475000D01*
X17482500Y-5445000D02*
X17452500Y-5475000D01*
X17452500Y-9330000D02*
X17482500Y-9360000D01*
X17482500Y-9330000D02*
X17452500Y-9360000D01*
X17485000Y-6895000D02*
X17515000Y-6925000D01*
X17515000Y-6895000D02*
X17485000Y-6925000D01*
X17485000Y-10085000D02*
X17515000Y-10115000D01*
X17515000Y-10085000D02*
X17485000Y-10115000D01*
X17550000Y-9547500D02*
X17580000Y-9577500D01*
X17580000Y-9547500D02*
X17550000Y-9577500D01*
X17552500Y-5882500D02*
X17582500Y-5912500D01*
X17582500Y-5882500D02*
X17552500Y-5912500D01*
X17555000Y-7945000D02*
X17585000Y-7975000D01*
X17585000Y-7945000D02*
X17555000Y-7975000D01*
X17560000Y-8560000D02*
X17590000Y-8590000D01*
X17590000Y-8560000D02*
X17560000Y-8590000D01*
X17580000Y-5445000D02*
X17610000Y-5475000D01*
X17610000Y-5445000D02*
X17580000Y-5475000D01*
X17582101Y-7182422D02*
X17612101Y-7212422D01*
X17612101Y-7182422D02*
X17582101Y-7212422D01*
X17582500Y-5727500D02*
X17612500Y-5757500D01*
X17612500Y-5727500D02*
X17582500Y-5757500D01*
X17585000Y-7385000D02*
X17615000Y-7415000D01*
X17615000Y-7385000D02*
X17585000Y-7415000D01*
X17585000Y-8235000D02*
X17615000Y-8265000D01*
X17615000Y-8235000D02*
X17585000Y-8265000D01*
X17635000Y-7045000D02*
X17665000Y-7075000D01*
X17665000Y-7045000D02*
X17635000Y-7075000D01*
X17645000Y-5895000D02*
X17675000Y-5925000D01*
X17675000Y-5895000D02*
X17645000Y-5925000D01*
X17645000Y-7635000D02*
X17675000Y-7665000D01*
X17675000Y-7635000D02*
X17645000Y-7665000D01*
X17665000Y-8085000D02*
X17695000Y-8115000D01*
X17695000Y-8085000D02*
X17665000Y-8115000D01*
X17685000Y-9885000D02*
X17715000Y-9915000D01*
X17715000Y-9885000D02*
X17685000Y-9915000D01*
X17685000Y-10085000D02*
X17715000Y-10115000D01*
X17715000Y-10085000D02*
X17685000Y-10115000D01*
X17705000Y-9100000D02*
X17735000Y-9130000D01*
X17735000Y-9100000D02*
X17705000Y-9130000D01*
X17707500Y-5445000D02*
X17737500Y-5475000D01*
X17737500Y-5445000D02*
X17707500Y-5475000D01*
X17832500Y-5445000D02*
X17862500Y-5475000D01*
X17862500Y-5445000D02*
X17832500Y-5475000D01*
X17885000Y-6285000D02*
X17915000Y-6315000D01*
X17915000Y-6285000D02*
X17885000Y-6315000D01*
X17885000Y-6485000D02*
X17915000Y-6515000D01*
X17915000Y-6485000D02*
X17885000Y-6515000D01*
X17885000Y-6685000D02*
X17915000Y-6715000D01*
X17915000Y-6685000D02*
X17885000Y-6715000D01*
X17885000Y-6885000D02*
X17915000Y-6915000D01*
X17915000Y-6885000D02*
X17885000Y-6915000D01*
X17885000Y-7085000D02*
X17915000Y-7115000D01*
X17915000Y-7085000D02*
X17885000Y-7115000D01*
X17885000Y-7285000D02*
X17915000Y-7315000D01*
X17915000Y-7285000D02*
X17885000Y-7315000D01*
X17885000Y-7485000D02*
X17915000Y-7515000D01*
X17915000Y-7485000D02*
X17885000Y-7515000D01*
X17885000Y-7685000D02*
X17915000Y-7715000D01*
X17915000Y-7685000D02*
X17885000Y-7715000D01*
X17885000Y-7885000D02*
X17915000Y-7915000D01*
X17915000Y-7885000D02*
X17885000Y-7915000D01*
X17885000Y-8085000D02*
X17915000Y-8115000D01*
X17915000Y-8085000D02*
X17885000Y-8115000D01*
X17885000Y-8285000D02*
X17915000Y-8315000D01*
X17915000Y-8285000D02*
X17885000Y-8315000D01*
X17885000Y-8485000D02*
X17915000Y-8515000D01*
X17915000Y-8485000D02*
X17885000Y-8515000D01*
X17885000Y-8685000D02*
X17915000Y-8715000D01*
X17915000Y-8685000D02*
X17885000Y-8715000D01*
X17885000Y-8885000D02*
X17915000Y-8915000D01*
X17915000Y-8885000D02*
X17885000Y-8915000D01*
X17885000Y-9085000D02*
X17915000Y-9115000D01*
X17915000Y-9085000D02*
X17885000Y-9115000D01*
X17885000Y-9485000D02*
X17915000Y-9515000D01*
X17915000Y-9485000D02*
X17885000Y-9515000D01*
X17885000Y-9685000D02*
X17915000Y-9715000D01*
X17915000Y-9685000D02*
X17885000Y-9715000D01*
X17885000Y-9885000D02*
X17915000Y-9915000D01*
X17915000Y-9885000D02*
X17885000Y-9915000D01*
X17885000Y-10085000D02*
X17915000Y-10115000D01*
X17915000Y-10085000D02*
X17885000Y-10115000D01*
D13*
X13750000Y-7320000D02*
G75*
G03*
X13750000Y-7320000I-50000J0D01*
G01*
X13750000Y-7574000D02*
G75*
G03*
X13750000Y-7574000I-50000J0D01*
G01*
X13750000Y-7828000D02*
G75*
G03*
X13750000Y-7828000I-50000J0D01*
G01*
X13750000Y-8082000D02*
G75*
G03*
X13750000Y-8082000I-50000J0D01*
G01*
X15168000Y-5900000D02*
G75*
G03*
X15168000Y-5900000I-50000J0D01*
G01*
X15168000Y-9500000D02*
G75*
G03*
X15168000Y-9500000I-50000J0D01*
G01*
X15422000Y-5900000D02*
G75*
G03*
X15422000Y-5900000I-50000J0D01*
G01*
X15422000Y-9500000D02*
G75*
G03*
X15422000Y-9500000I-50000J0D01*
G01*
X15676000Y-5900000D02*
G75*
G03*
X15676000Y-5900000I-50000J0D01*
G01*
X15676000Y-9500000D02*
G75*
G03*
X15676000Y-9500000I-50000J0D01*
G01*
X15930000Y-5900000D02*
G75*
G03*
X15930000Y-5900000I-50000J0D01*
G01*
X15930000Y-9500000D02*
G75*
G03*
X15930000Y-9500000I-50000J0D01*
G01*
X17350000Y-7320000D02*
G75*
G03*
X17350000Y-7320000I-50000J0D01*
G01*
X17350000Y-7574000D02*
G75*
G03*
X17350000Y-7574000I-50000J0D01*
G01*
X17350000Y-7828000D02*
G75*
G03*
X17350000Y-7828000I-50000J0D01*
G01*
X17350000Y-8082000D02*
G75*
G03*
X17350000Y-8082000I-50000J0D01*
G01*
D14*
X15500000Y-6815000D02*
X15500000Y-6935000D01*
X15440000Y-6875000D02*
X15560000Y-6875000D01*
D15*
X15306105Y-6681105D02*
X15306105Y-6560895D01*
X15185895Y-6560895D01*
X15185895Y-6681105D01*
X15306105Y-6681105D01*
X15306105Y-7189105D02*
X15306105Y-7068895D01*
X15185895Y-7068895D01*
X15185895Y-7189105D01*
X15306105Y-7189105D01*
X15814105Y-6681105D02*
X15814105Y-6560895D01*
X15693895Y-6560895D01*
X15693895Y-6681105D01*
X15814105Y-6681105D01*
X15814105Y-7189105D02*
X15814105Y-7068895D01*
X15693895Y-7068895D01*
X15693895Y-7189105D01*
X15814105Y-7189105D01*
D11*
X13252619Y-10515476D02*
X13252619Y-10315476D01*
X13300238Y-10315476D01*
X13328809Y-10325000D01*
X13347857Y-10344048D01*
X13357381Y-10363095D01*
X13366905Y-10401190D01*
X13366905Y-10429762D01*
X13357381Y-10467857D01*
X13347857Y-10486905D01*
X13328809Y-10505952D01*
X13300238Y-10515476D01*
X13252619Y-10515476D01*
X13452619Y-10515476D02*
X13452619Y-10382143D01*
X13452619Y-10420238D02*
X13462143Y-10401190D01*
X13471667Y-10391667D01*
X13490714Y-10382143D01*
X13509762Y-10382143D01*
X13576428Y-10515476D02*
X13576428Y-10382143D01*
X13576428Y-10315476D02*
X13566905Y-10325000D01*
X13576428Y-10334524D01*
X13585952Y-10325000D01*
X13576428Y-10315476D01*
X13576428Y-10334524D01*
X13700238Y-10515476D02*
X13681190Y-10505952D01*
X13671667Y-10486905D01*
X13671667Y-10315476D01*
X13805000Y-10515476D02*
X13785952Y-10505952D01*
X13776428Y-10486905D01*
X13776428Y-10315476D01*
X14033571Y-10515476D02*
X14033571Y-10315476D01*
X14100238Y-10458333D01*
X14166905Y-10315476D01*
X14166905Y-10515476D01*
X14347857Y-10515476D02*
X14347857Y-10410714D01*
X14338333Y-10391667D01*
X14319286Y-10382143D01*
X14281190Y-10382143D01*
X14262143Y-10391667D01*
X14347857Y-10505952D02*
X14328809Y-10515476D01*
X14281190Y-10515476D01*
X14262143Y-10505952D01*
X14252619Y-10486905D01*
X14252619Y-10467857D01*
X14262143Y-10448810D01*
X14281190Y-10439286D01*
X14328809Y-10439286D01*
X14347857Y-10429762D01*
X14443095Y-10382143D02*
X14443095Y-10582143D01*
X14443095Y-10391667D02*
X14462143Y-10382143D01*
X14500238Y-10382143D01*
X14519286Y-10391667D01*
X14528809Y-10401190D01*
X14538333Y-10420238D01*
X14538333Y-10477381D01*
X14528809Y-10496429D01*
X14519286Y-10505952D01*
X14500238Y-10515476D01*
X14462143Y-10515476D01*
X14443095Y-10505952D01*
X14624048Y-10496429D02*
X14633571Y-10505952D01*
X14624048Y-10515476D01*
X14614524Y-10505952D01*
X14624048Y-10496429D01*
X14624048Y-10515476D01*
X14624048Y-10391667D02*
X14633571Y-10401190D01*
X14624048Y-10410714D01*
X14614524Y-10401190D01*
X14624048Y-10391667D01*
X14624048Y-10410714D01*
D12*
X12965000Y-10830000D02*
X12995000Y-10860000D01*
X12995000Y-10830000D02*
X12965000Y-10860000D01*
D11*
X13290714Y-10735476D02*
X13309762Y-10735476D01*
X13328809Y-10745000D01*
X13338333Y-10754524D01*
X13347857Y-10773571D01*
X13357381Y-10811667D01*
X13357381Y-10859286D01*
X13347857Y-10897381D01*
X13338333Y-10916429D01*
X13328809Y-10925952D01*
X13309762Y-10935476D01*
X13290714Y-10935476D01*
X13271667Y-10925952D01*
X13262143Y-10916429D01*
X13252619Y-10897381D01*
X13243095Y-10859286D01*
X13243095Y-10811667D01*
X13252619Y-10773571D01*
X13262143Y-10754524D01*
X13271667Y-10745000D01*
X13290714Y-10735476D01*
X13443095Y-10916429D02*
X13452619Y-10925952D01*
X13443095Y-10935476D01*
X13433571Y-10925952D01*
X13443095Y-10916429D01*
X13443095Y-10935476D01*
X13519286Y-10735476D02*
X13643095Y-10735476D01*
X13576428Y-10811667D01*
X13605000Y-10811667D01*
X13624048Y-10821190D01*
X13633571Y-10830714D01*
X13643095Y-10849762D01*
X13643095Y-10897381D01*
X13633571Y-10916429D01*
X13624048Y-10925952D01*
X13605000Y-10935476D01*
X13547857Y-10935476D01*
X13528809Y-10925952D01*
X13519286Y-10916429D01*
X13766905Y-10735476D02*
X13785952Y-10735476D01*
X13805000Y-10745000D01*
X13814524Y-10754524D01*
X13824048Y-10773571D01*
X13833571Y-10811667D01*
X13833571Y-10859286D01*
X13824048Y-10897381D01*
X13814524Y-10916429D01*
X13805000Y-10925952D01*
X13785952Y-10935476D01*
X13766905Y-10935476D01*
X13747857Y-10925952D01*
X13738333Y-10916429D01*
X13728809Y-10897381D01*
X13719286Y-10859286D01*
X13719286Y-10811667D01*
X13728809Y-10773571D01*
X13738333Y-10754524D01*
X13747857Y-10745000D01*
X13766905Y-10735476D01*
X13957381Y-10735476D02*
X13976428Y-10735476D01*
X13995476Y-10745000D01*
X14005000Y-10754524D01*
X14014524Y-10773571D01*
X14024048Y-10811667D01*
X14024048Y-10859286D01*
X14014524Y-10897381D01*
X14005000Y-10916429D01*
X13995476Y-10925952D01*
X13976428Y-10935476D01*
X13957381Y-10935476D01*
X13938333Y-10925952D01*
X13928809Y-10916429D01*
X13919286Y-10897381D01*
X13909762Y-10859286D01*
X13909762Y-10811667D01*
X13919286Y-10773571D01*
X13928809Y-10754524D01*
X13938333Y-10745000D01*
X13957381Y-10735476D01*
X14109762Y-10935476D02*
X14109762Y-10802143D01*
X14109762Y-10821190D02*
X14119286Y-10811667D01*
X14138333Y-10802143D01*
X14166905Y-10802143D01*
X14185952Y-10811667D01*
X14195476Y-10830714D01*
X14195476Y-10935476D01*
X14195476Y-10830714D02*
X14205000Y-10811667D01*
X14224048Y-10802143D01*
X14252619Y-10802143D01*
X14271667Y-10811667D01*
X14281190Y-10830714D01*
X14281190Y-10935476D01*
X14376428Y-10935476D02*
X14376428Y-10802143D01*
X14376428Y-10821190D02*
X14385952Y-10811667D01*
X14405000Y-10802143D01*
X14433571Y-10802143D01*
X14452619Y-10811667D01*
X14462143Y-10830714D01*
X14462143Y-10935476D01*
X14462143Y-10830714D02*
X14471667Y-10811667D01*
X14490714Y-10802143D01*
X14519286Y-10802143D01*
X14538333Y-10811667D01*
X14547857Y-10830714D01*
X14547857Y-10935476D01*
X14938333Y-10725952D02*
X14766905Y-10983095D01*
X15195476Y-10735476D02*
X15214524Y-10735476D01*
X15233571Y-10745000D01*
X15243095Y-10754524D01*
X15252619Y-10773571D01*
X15262143Y-10811667D01*
X15262143Y-10859286D01*
X15252619Y-10897381D01*
X15243095Y-10916429D01*
X15233571Y-10925952D01*
X15214524Y-10935476D01*
X15195476Y-10935476D01*
X15176428Y-10925952D01*
X15166905Y-10916429D01*
X15157381Y-10897381D01*
X15147857Y-10859286D01*
X15147857Y-10811667D01*
X15157381Y-10773571D01*
X15166905Y-10754524D01*
X15176428Y-10745000D01*
X15195476Y-10735476D01*
X15347857Y-10916429D02*
X15357381Y-10925952D01*
X15347857Y-10935476D01*
X15338333Y-10925952D01*
X15347857Y-10916429D01*
X15347857Y-10935476D01*
X15481190Y-10735476D02*
X15500238Y-10735476D01*
X15519286Y-10745000D01*
X15528809Y-10754524D01*
X15538333Y-10773571D01*
X15547857Y-10811667D01*
X15547857Y-10859286D01*
X15538333Y-10897381D01*
X15528809Y-10916429D01*
X15519286Y-10925952D01*
X15500238Y-10935476D01*
X15481190Y-10935476D01*
X15462143Y-10925952D01*
X15452619Y-10916429D01*
X15443095Y-10897381D01*
X15433571Y-10859286D01*
X15433571Y-10811667D01*
X15443095Y-10773571D01*
X15452619Y-10754524D01*
X15462143Y-10745000D01*
X15481190Y-10735476D01*
X15738333Y-10935476D02*
X15624048Y-10935476D01*
X15681190Y-10935476D02*
X15681190Y-10735476D01*
X15662143Y-10764048D01*
X15643095Y-10783095D01*
X15624048Y-10792619D01*
X15928809Y-10935476D02*
X15814524Y-10935476D01*
X15871667Y-10935476D02*
X15871667Y-10735476D01*
X15852619Y-10764048D01*
X15833571Y-10783095D01*
X15814524Y-10792619D01*
X16043095Y-10821190D02*
X16024048Y-10811667D01*
X16014524Y-10802143D01*
X16005000Y-10783095D01*
X16005000Y-10773571D01*
X16014524Y-10754524D01*
X16024048Y-10745000D01*
X16043095Y-10735476D01*
X16081190Y-10735476D01*
X16100238Y-10745000D01*
X16109762Y-10754524D01*
X16119286Y-10773571D01*
X16119286Y-10783095D01*
X16109762Y-10802143D01*
X16100238Y-10811667D01*
X16081190Y-10821190D01*
X16043095Y-10821190D01*
X16024048Y-10830714D01*
X16014524Y-10840238D01*
X16005000Y-10859286D01*
X16005000Y-10897381D01*
X16014524Y-10916429D01*
X16024048Y-10925952D01*
X16043095Y-10935476D01*
X16081190Y-10935476D01*
X16100238Y-10925952D01*
X16109762Y-10916429D01*
X16119286Y-10897381D01*
X16119286Y-10859286D01*
X16109762Y-10840238D01*
X16100238Y-10830714D01*
X16081190Y-10821190D01*
X16195476Y-10735476D02*
X16195476Y-10773571D01*
X16271667Y-10735476D02*
X16271667Y-10773571D01*
X16566905Y-11011667D02*
X16557381Y-11002143D01*
X16538333Y-10973571D01*
X16528809Y-10954524D01*
X16519286Y-10925952D01*
X16509762Y-10878333D01*
X16509762Y-10840238D01*
X16519286Y-10792619D01*
X16528809Y-10764048D01*
X16538333Y-10745000D01*
X16557381Y-10716429D01*
X16566905Y-10706905D01*
X16624048Y-10735476D02*
X16757381Y-10735476D01*
X16671667Y-10935476D01*
X16824048Y-10754524D02*
X16833571Y-10745000D01*
X16852619Y-10735476D01*
X16900238Y-10735476D01*
X16919286Y-10745000D01*
X16928810Y-10754524D01*
X16938333Y-10773571D01*
X16938333Y-10792619D01*
X16928810Y-10821190D01*
X16814524Y-10935476D01*
X16938333Y-10935476D01*
X17062143Y-10735476D02*
X17081190Y-10735476D01*
X17100238Y-10745000D01*
X17109762Y-10754524D01*
X17119286Y-10773571D01*
X17128810Y-10811667D01*
X17128810Y-10859286D01*
X17119286Y-10897381D01*
X17109762Y-10916429D01*
X17100238Y-10925952D01*
X17081190Y-10935476D01*
X17062143Y-10935476D01*
X17043095Y-10925952D01*
X17033571Y-10916429D01*
X17024048Y-10897381D01*
X17014524Y-10859286D01*
X17014524Y-10811667D01*
X17024048Y-10773571D01*
X17033571Y-10754524D01*
X17043095Y-10745000D01*
X17062143Y-10735476D01*
X17366905Y-10935476D02*
X17366905Y-10735476D01*
X17452619Y-10935476D02*
X17452619Y-10830714D01*
X17443095Y-10811667D01*
X17424048Y-10802143D01*
X17395476Y-10802143D01*
X17376429Y-10811667D01*
X17366905Y-10821190D01*
X17576429Y-10935476D02*
X17557381Y-10925952D01*
X17547857Y-10916429D01*
X17538333Y-10897381D01*
X17538333Y-10840238D01*
X17547857Y-10821190D01*
X17557381Y-10811667D01*
X17576429Y-10802143D01*
X17605000Y-10802143D01*
X17624048Y-10811667D01*
X17633571Y-10821190D01*
X17643095Y-10840238D01*
X17643095Y-10897381D01*
X17633571Y-10916429D01*
X17624048Y-10925952D01*
X17605000Y-10935476D01*
X17576429Y-10935476D01*
X17757381Y-10935476D02*
X17738333Y-10925952D01*
X17728810Y-10906905D01*
X17728810Y-10735476D01*
X17909762Y-10925952D02*
X17890714Y-10935476D01*
X17852619Y-10935476D01*
X17833571Y-10925952D01*
X17824048Y-10906905D01*
X17824048Y-10830714D01*
X17833571Y-10811667D01*
X17852619Y-10802143D01*
X17890714Y-10802143D01*
X17909762Y-10811667D01*
X17919286Y-10830714D01*
X17919286Y-10849762D01*
X17824048Y-10868810D01*
X17995476Y-10925952D02*
X18014524Y-10935476D01*
X18052619Y-10935476D01*
X18071667Y-10925952D01*
X18081190Y-10906905D01*
X18081190Y-10897381D01*
X18071667Y-10878333D01*
X18052619Y-10868810D01*
X18024048Y-10868810D01*
X18005000Y-10859286D01*
X17995476Y-10840238D01*
X17995476Y-10830714D01*
X18005000Y-10811667D01*
X18024048Y-10802143D01*
X18052619Y-10802143D01*
X18071667Y-10811667D01*
X18147857Y-11011667D02*
X18157381Y-11002143D01*
X18176429Y-10973571D01*
X18185952Y-10954524D01*
X18195476Y-10925952D01*
X18205000Y-10878333D01*
X18205000Y-10840238D01*
X18195476Y-10792619D01*
X18185952Y-10764048D01*
X18176429Y-10745000D01*
X18157381Y-10716429D01*
X18147857Y-10706905D01*
D13*
X12995000Y-11109000D02*
G75*
G03*
X12995000Y-11109000I-50000J0D01*
G01*
D11*
X13357381Y-11199476D02*
X13243095Y-11199476D01*
X13300238Y-11199476D02*
X13300238Y-10999476D01*
X13281190Y-11028048D01*
X13262143Y-11047095D01*
X13243095Y-11056619D01*
X13443095Y-11180429D02*
X13452619Y-11189952D01*
X13443095Y-11199476D01*
X13433571Y-11189952D01*
X13443095Y-11180429D01*
X13443095Y-11199476D01*
X13576428Y-10999476D02*
X13595476Y-10999476D01*
X13614524Y-11009000D01*
X13624048Y-11018524D01*
X13633571Y-11037571D01*
X13643095Y-11075667D01*
X13643095Y-11123286D01*
X13633571Y-11161381D01*
X13624048Y-11180429D01*
X13614524Y-11189952D01*
X13595476Y-11199476D01*
X13576428Y-11199476D01*
X13557381Y-11189952D01*
X13547857Y-11180429D01*
X13538333Y-11161381D01*
X13528809Y-11123286D01*
X13528809Y-11075667D01*
X13538333Y-11037571D01*
X13547857Y-11018524D01*
X13557381Y-11009000D01*
X13576428Y-10999476D01*
X13766905Y-10999476D02*
X13785952Y-10999476D01*
X13805000Y-11009000D01*
X13814524Y-11018524D01*
X13824048Y-11037571D01*
X13833571Y-11075667D01*
X13833571Y-11123286D01*
X13824048Y-11161381D01*
X13814524Y-11180429D01*
X13805000Y-11189952D01*
X13785952Y-11199476D01*
X13766905Y-11199476D01*
X13747857Y-11189952D01*
X13738333Y-11180429D01*
X13728809Y-11161381D01*
X13719286Y-11123286D01*
X13719286Y-11075667D01*
X13728809Y-11037571D01*
X13738333Y-11018524D01*
X13747857Y-11009000D01*
X13766905Y-10999476D01*
X13957381Y-10999476D02*
X13976428Y-10999476D01*
X13995476Y-11009000D01*
X14005000Y-11018524D01*
X14014524Y-11037571D01*
X14024048Y-11075667D01*
X14024048Y-11123286D01*
X14014524Y-11161381D01*
X14005000Y-11180429D01*
X13995476Y-11189952D01*
X13976428Y-11199476D01*
X13957381Y-11199476D01*
X13938333Y-11189952D01*
X13928809Y-11180429D01*
X13919286Y-11161381D01*
X13909762Y-11123286D01*
X13909762Y-11075667D01*
X13919286Y-11037571D01*
X13928809Y-11018524D01*
X13938333Y-11009000D01*
X13957381Y-10999476D01*
X14109762Y-11199476D02*
X14109762Y-11066143D01*
X14109762Y-11085190D02*
X14119286Y-11075667D01*
X14138333Y-11066143D01*
X14166905Y-11066143D01*
X14185952Y-11075667D01*
X14195476Y-11094714D01*
X14195476Y-11199476D01*
X14195476Y-11094714D02*
X14205000Y-11075667D01*
X14224048Y-11066143D01*
X14252619Y-11066143D01*
X14271667Y-11075667D01*
X14281190Y-11094714D01*
X14281190Y-11199476D01*
X14376428Y-11199476D02*
X14376428Y-11066143D01*
X14376428Y-11085190D02*
X14385952Y-11075667D01*
X14405000Y-11066143D01*
X14433571Y-11066143D01*
X14452619Y-11075667D01*
X14462143Y-11094714D01*
X14462143Y-11199476D01*
X14462143Y-11094714D02*
X14471667Y-11075667D01*
X14490714Y-11066143D01*
X14519286Y-11066143D01*
X14538333Y-11075667D01*
X14547857Y-11094714D01*
X14547857Y-11199476D01*
X14938333Y-10989952D02*
X14766905Y-11247095D01*
X15195476Y-10999476D02*
X15214524Y-10999476D01*
X15233571Y-11009000D01*
X15243095Y-11018524D01*
X15252619Y-11037571D01*
X15262143Y-11075667D01*
X15262143Y-11123286D01*
X15252619Y-11161381D01*
X15243095Y-11180429D01*
X15233571Y-11189952D01*
X15214524Y-11199476D01*
X15195476Y-11199476D01*
X15176428Y-11189952D01*
X15166905Y-11180429D01*
X15157381Y-11161381D01*
X15147857Y-11123286D01*
X15147857Y-11075667D01*
X15157381Y-11037571D01*
X15166905Y-11018524D01*
X15176428Y-11009000D01*
X15195476Y-10999476D01*
X15347857Y-11180429D02*
X15357381Y-11189952D01*
X15347857Y-11199476D01*
X15338333Y-11189952D01*
X15347857Y-11180429D01*
X15347857Y-11199476D01*
X15481190Y-10999476D02*
X15500238Y-10999476D01*
X15519286Y-11009000D01*
X15528809Y-11018524D01*
X15538333Y-11037571D01*
X15547857Y-11075667D01*
X15547857Y-11123286D01*
X15538333Y-11161381D01*
X15528809Y-11180429D01*
X15519286Y-11189952D01*
X15500238Y-11199476D01*
X15481190Y-11199476D01*
X15462143Y-11189952D01*
X15452619Y-11180429D01*
X15443095Y-11161381D01*
X15433571Y-11123286D01*
X15433571Y-11075667D01*
X15443095Y-11037571D01*
X15452619Y-11018524D01*
X15462143Y-11009000D01*
X15481190Y-10999476D01*
X15614524Y-10999476D02*
X15738333Y-10999476D01*
X15671667Y-11075667D01*
X15700238Y-11075667D01*
X15719286Y-11085190D01*
X15728809Y-11094714D01*
X15738333Y-11113762D01*
X15738333Y-11161381D01*
X15728809Y-11180429D01*
X15719286Y-11189952D01*
X15700238Y-11199476D01*
X15643095Y-11199476D01*
X15624048Y-11189952D01*
X15614524Y-11180429D01*
X15833571Y-11199476D02*
X15871667Y-11199476D01*
X15890714Y-11189952D01*
X15900238Y-11180429D01*
X15919286Y-11151857D01*
X15928809Y-11113762D01*
X15928809Y-11037571D01*
X15919286Y-11018524D01*
X15909762Y-11009000D01*
X15890714Y-10999476D01*
X15852619Y-10999476D01*
X15833571Y-11009000D01*
X15824048Y-11018524D01*
X15814524Y-11037571D01*
X15814524Y-11085190D01*
X15824048Y-11104238D01*
X15833571Y-11113762D01*
X15852619Y-11123286D01*
X15890714Y-11123286D01*
X15909762Y-11113762D01*
X15919286Y-11104238D01*
X15928809Y-11085190D01*
X16100238Y-11066143D02*
X16100238Y-11199476D01*
X16052619Y-10989952D02*
X16005000Y-11132810D01*
X16128809Y-11132810D01*
X16195476Y-10999476D02*
X16195476Y-11037571D01*
X16271667Y-10999476D02*
X16271667Y-11037571D01*
X16566905Y-11275667D02*
X16557381Y-11266143D01*
X16538333Y-11237571D01*
X16528809Y-11218524D01*
X16519286Y-11189952D01*
X16509762Y-11142333D01*
X16509762Y-11104238D01*
X16519286Y-11056619D01*
X16528809Y-11028048D01*
X16538333Y-11009000D01*
X16557381Y-10980429D01*
X16566905Y-10970905D01*
X16747857Y-11199476D02*
X16633571Y-11199476D01*
X16690714Y-11199476D02*
X16690714Y-10999476D01*
X16671667Y-11028048D01*
X16652619Y-11047095D01*
X16633571Y-11056619D01*
X16919286Y-10999476D02*
X16881190Y-10999476D01*
X16862143Y-11009000D01*
X16852619Y-11018524D01*
X16833571Y-11047095D01*
X16824048Y-11085190D01*
X16824048Y-11161381D01*
X16833571Y-11180429D01*
X16843095Y-11189952D01*
X16862143Y-11199476D01*
X16900238Y-11199476D01*
X16919286Y-11189952D01*
X16928810Y-11180429D01*
X16938333Y-11161381D01*
X16938333Y-11113762D01*
X16928810Y-11094714D01*
X16919286Y-11085190D01*
X16900238Y-11075667D01*
X16862143Y-11075667D01*
X16843095Y-11085190D01*
X16833571Y-11094714D01*
X16824048Y-11113762D01*
X17176429Y-11199476D02*
X17176429Y-10999476D01*
X17262143Y-11199476D02*
X17262143Y-11094714D01*
X17252619Y-11075667D01*
X17233571Y-11066143D01*
X17205000Y-11066143D01*
X17185952Y-11075667D01*
X17176429Y-11085190D01*
X17385952Y-11199476D02*
X17366905Y-11189952D01*
X17357381Y-11180429D01*
X17347857Y-11161381D01*
X17347857Y-11104238D01*
X17357381Y-11085190D01*
X17366905Y-11075667D01*
X17385952Y-11066143D01*
X17414524Y-11066143D01*
X17433571Y-11075667D01*
X17443095Y-11085190D01*
X17452619Y-11104238D01*
X17452619Y-11161381D01*
X17443095Y-11180429D01*
X17433571Y-11189952D01*
X17414524Y-11199476D01*
X17385952Y-11199476D01*
X17566905Y-11199476D02*
X17547857Y-11189952D01*
X17538333Y-11170905D01*
X17538333Y-10999476D01*
X17719286Y-11189952D02*
X17700238Y-11199476D01*
X17662143Y-11199476D01*
X17643095Y-11189952D01*
X17633571Y-11170905D01*
X17633571Y-11094714D01*
X17643095Y-11075667D01*
X17662143Y-11066143D01*
X17700238Y-11066143D01*
X17719286Y-11075667D01*
X17728810Y-11094714D01*
X17728810Y-11113762D01*
X17633571Y-11132810D01*
X17805000Y-11189952D02*
X17824048Y-11199476D01*
X17862143Y-11199476D01*
X17881190Y-11189952D01*
X17890714Y-11170905D01*
X17890714Y-11161381D01*
X17881190Y-11142333D01*
X17862143Y-11132810D01*
X17833571Y-11132810D01*
X17814524Y-11123286D01*
X17805000Y-11104238D01*
X17805000Y-11094714D01*
X17814524Y-11075667D01*
X17833571Y-11066143D01*
X17862143Y-11066143D01*
X17881190Y-11075667D01*
X17957381Y-11275667D02*
X17966905Y-11266143D01*
X17985952Y-11237571D01*
X17995476Y-11218524D01*
X18005000Y-11189952D01*
X18014524Y-11142333D01*
X18014524Y-11104238D01*
X18005000Y-11056619D01*
X17995476Y-11028048D01*
X17985952Y-11009000D01*
X17966905Y-10980429D01*
X17957381Y-10970905D01*
D14*
X12935000Y-11313000D02*
X12935000Y-11433000D01*
X12875000Y-11373000D02*
X12995000Y-11373000D01*
D11*
X13357381Y-11463476D02*
X13243095Y-11463476D01*
X13300238Y-11463476D02*
X13300238Y-11263476D01*
X13281190Y-11292048D01*
X13262143Y-11311095D01*
X13243095Y-11320619D01*
X13443095Y-11444428D02*
X13452619Y-11453952D01*
X13443095Y-11463476D01*
X13433571Y-11453952D01*
X13443095Y-11444428D01*
X13443095Y-11463476D01*
X13528809Y-11282524D02*
X13538333Y-11273000D01*
X13557381Y-11263476D01*
X13605000Y-11263476D01*
X13624048Y-11273000D01*
X13633571Y-11282524D01*
X13643095Y-11301571D01*
X13643095Y-11320619D01*
X13633571Y-11349190D01*
X13519286Y-11463476D01*
X13643095Y-11463476D01*
X13766905Y-11263476D02*
X13785952Y-11263476D01*
X13805000Y-11273000D01*
X13814524Y-11282524D01*
X13824048Y-11301571D01*
X13833571Y-11339667D01*
X13833571Y-11387286D01*
X13824048Y-11425381D01*
X13814524Y-11444428D01*
X13805000Y-11453952D01*
X13785952Y-11463476D01*
X13766905Y-11463476D01*
X13747857Y-11453952D01*
X13738333Y-11444428D01*
X13728809Y-11425381D01*
X13719286Y-11387286D01*
X13719286Y-11339667D01*
X13728809Y-11301571D01*
X13738333Y-11282524D01*
X13747857Y-11273000D01*
X13766905Y-11263476D01*
X13957381Y-11263476D02*
X13976428Y-11263476D01*
X13995476Y-11273000D01*
X14005000Y-11282524D01*
X14014524Y-11301571D01*
X14024048Y-11339667D01*
X14024048Y-11387286D01*
X14014524Y-11425381D01*
X14005000Y-11444428D01*
X13995476Y-11453952D01*
X13976428Y-11463476D01*
X13957381Y-11463476D01*
X13938333Y-11453952D01*
X13928809Y-11444428D01*
X13919286Y-11425381D01*
X13909762Y-11387286D01*
X13909762Y-11339667D01*
X13919286Y-11301571D01*
X13928809Y-11282524D01*
X13938333Y-11273000D01*
X13957381Y-11263476D01*
X14109762Y-11463476D02*
X14109762Y-11330143D01*
X14109762Y-11349190D02*
X14119286Y-11339667D01*
X14138333Y-11330143D01*
X14166905Y-11330143D01*
X14185952Y-11339667D01*
X14195476Y-11358714D01*
X14195476Y-11463476D01*
X14195476Y-11358714D02*
X14205000Y-11339667D01*
X14224048Y-11330143D01*
X14252619Y-11330143D01*
X14271667Y-11339667D01*
X14281190Y-11358714D01*
X14281190Y-11463476D01*
X14376428Y-11463476D02*
X14376428Y-11330143D01*
X14376428Y-11349190D02*
X14385952Y-11339667D01*
X14405000Y-11330143D01*
X14433571Y-11330143D01*
X14452619Y-11339667D01*
X14462143Y-11358714D01*
X14462143Y-11463476D01*
X14462143Y-11358714D02*
X14471667Y-11339667D01*
X14490714Y-11330143D01*
X14519286Y-11330143D01*
X14538333Y-11339667D01*
X14547857Y-11358714D01*
X14547857Y-11463476D01*
X14938333Y-11253952D02*
X14766905Y-11511095D01*
X15195476Y-11263476D02*
X15214524Y-11263476D01*
X15233571Y-11273000D01*
X15243095Y-11282524D01*
X15252619Y-11301571D01*
X15262143Y-11339667D01*
X15262143Y-11387286D01*
X15252619Y-11425381D01*
X15243095Y-11444428D01*
X15233571Y-11453952D01*
X15214524Y-11463476D01*
X15195476Y-11463476D01*
X15176428Y-11453952D01*
X15166905Y-11444428D01*
X15157381Y-11425381D01*
X15147857Y-11387286D01*
X15147857Y-11339667D01*
X15157381Y-11301571D01*
X15166905Y-11282524D01*
X15176428Y-11273000D01*
X15195476Y-11263476D01*
X15347857Y-11444428D02*
X15357381Y-11453952D01*
X15347857Y-11463476D01*
X15338333Y-11453952D01*
X15347857Y-11444428D01*
X15347857Y-11463476D01*
X15481190Y-11263476D02*
X15500238Y-11263476D01*
X15519286Y-11273000D01*
X15528809Y-11282524D01*
X15538333Y-11301571D01*
X15547857Y-11339667D01*
X15547857Y-11387286D01*
X15538333Y-11425381D01*
X15528809Y-11444428D01*
X15519286Y-11453952D01*
X15500238Y-11463476D01*
X15481190Y-11463476D01*
X15462143Y-11453952D01*
X15452619Y-11444428D01*
X15443095Y-11425381D01*
X15433571Y-11387286D01*
X15433571Y-11339667D01*
X15443095Y-11301571D01*
X15452619Y-11282524D01*
X15462143Y-11273000D01*
X15481190Y-11263476D01*
X15719286Y-11330143D02*
X15719286Y-11463476D01*
X15671667Y-11253952D02*
X15624048Y-11396809D01*
X15747857Y-11396809D01*
X15805000Y-11263476D02*
X15938333Y-11263476D01*
X15852619Y-11463476D01*
X16005000Y-11282524D02*
X16014524Y-11273000D01*
X16033571Y-11263476D01*
X16081190Y-11263476D01*
X16100238Y-11273000D01*
X16109762Y-11282524D01*
X16119286Y-11301571D01*
X16119286Y-11320619D01*
X16109762Y-11349190D01*
X15995476Y-11463476D01*
X16119286Y-11463476D01*
X16195476Y-11263476D02*
X16195476Y-11301571D01*
X16271667Y-11263476D02*
X16271667Y-11301571D01*
X16566905Y-11539667D02*
X16557381Y-11530143D01*
X16538333Y-11501571D01*
X16528809Y-11482524D01*
X16519286Y-11453952D01*
X16509762Y-11406333D01*
X16509762Y-11368238D01*
X16519286Y-11320619D01*
X16528809Y-11292048D01*
X16538333Y-11273000D01*
X16557381Y-11244428D01*
X16566905Y-11234905D01*
X16747857Y-11463476D02*
X16633571Y-11463476D01*
X16690714Y-11463476D02*
X16690714Y-11263476D01*
X16671667Y-11292048D01*
X16652619Y-11311095D01*
X16633571Y-11320619D01*
X16985952Y-11463476D02*
X16985952Y-11263476D01*
X17071667Y-11463476D02*
X17071667Y-11358714D01*
X17062143Y-11339667D01*
X17043095Y-11330143D01*
X17014524Y-11330143D01*
X16995476Y-11339667D01*
X16985952Y-11349190D01*
X17195476Y-11463476D02*
X17176429Y-11453952D01*
X17166905Y-11444428D01*
X17157381Y-11425381D01*
X17157381Y-11368238D01*
X17166905Y-11349190D01*
X17176429Y-11339667D01*
X17195476Y-11330143D01*
X17224048Y-11330143D01*
X17243095Y-11339667D01*
X17252619Y-11349190D01*
X17262143Y-11368238D01*
X17262143Y-11425381D01*
X17252619Y-11444428D01*
X17243095Y-11453952D01*
X17224048Y-11463476D01*
X17195476Y-11463476D01*
X17376429Y-11463476D02*
X17357381Y-11453952D01*
X17347857Y-11434905D01*
X17347857Y-11263476D01*
X17528810Y-11453952D02*
X17509762Y-11463476D01*
X17471667Y-11463476D01*
X17452619Y-11453952D01*
X17443095Y-11434905D01*
X17443095Y-11358714D01*
X17452619Y-11339667D01*
X17471667Y-11330143D01*
X17509762Y-11330143D01*
X17528810Y-11339667D01*
X17538333Y-11358714D01*
X17538333Y-11377762D01*
X17443095Y-11396809D01*
X17605000Y-11539667D02*
X17614524Y-11530143D01*
X17633571Y-11501571D01*
X17643095Y-11482524D01*
X17652619Y-11453952D01*
X17662143Y-11406333D01*
X17662143Y-11368238D01*
X17652619Y-11320619D01*
X17643095Y-11292048D01*
X17633571Y-11273000D01*
X17614524Y-11244428D01*
X17605000Y-11234905D01*
D15*
X12970105Y-11697105D02*
X12970105Y-11576895D01*
X12849895Y-11576895D01*
X12849895Y-11697105D01*
X12970105Y-11697105D01*
D11*
X13357381Y-11727476D02*
X13243095Y-11727476D01*
X13300238Y-11727476D02*
X13300238Y-11527476D01*
X13281190Y-11556048D01*
X13262143Y-11575095D01*
X13243095Y-11584619D01*
X13443095Y-11708428D02*
X13452619Y-11717952D01*
X13443095Y-11727476D01*
X13433571Y-11717952D01*
X13443095Y-11708428D01*
X13443095Y-11727476D01*
X13519286Y-11527476D02*
X13652619Y-11527476D01*
X13566905Y-11727476D01*
X13766905Y-11527476D02*
X13785952Y-11527476D01*
X13805000Y-11537000D01*
X13814524Y-11546524D01*
X13824048Y-11565571D01*
X13833571Y-11603667D01*
X13833571Y-11651286D01*
X13824048Y-11689381D01*
X13814524Y-11708428D01*
X13805000Y-11717952D01*
X13785952Y-11727476D01*
X13766905Y-11727476D01*
X13747857Y-11717952D01*
X13738333Y-11708428D01*
X13728809Y-11689381D01*
X13719286Y-11651286D01*
X13719286Y-11603667D01*
X13728809Y-11565571D01*
X13738333Y-11546524D01*
X13747857Y-11537000D01*
X13766905Y-11527476D01*
X13957381Y-11527476D02*
X13976428Y-11527476D01*
X13995476Y-11537000D01*
X14005000Y-11546524D01*
X14014524Y-11565571D01*
X14024048Y-11603667D01*
X14024048Y-11651286D01*
X14014524Y-11689381D01*
X14005000Y-11708428D01*
X13995476Y-11717952D01*
X13976428Y-11727476D01*
X13957381Y-11727476D01*
X13938333Y-11717952D01*
X13928809Y-11708428D01*
X13919286Y-11689381D01*
X13909762Y-11651286D01*
X13909762Y-11603667D01*
X13919286Y-11565571D01*
X13928809Y-11546524D01*
X13938333Y-11537000D01*
X13957381Y-11527476D01*
X14109762Y-11727476D02*
X14109762Y-11594143D01*
X14109762Y-11613190D02*
X14119286Y-11603667D01*
X14138333Y-11594143D01*
X14166905Y-11594143D01*
X14185952Y-11603667D01*
X14195476Y-11622714D01*
X14195476Y-11727476D01*
X14195476Y-11622714D02*
X14205000Y-11603667D01*
X14224048Y-11594143D01*
X14252619Y-11594143D01*
X14271667Y-11603667D01*
X14281190Y-11622714D01*
X14281190Y-11727476D01*
X14376428Y-11727476D02*
X14376428Y-11594143D01*
X14376428Y-11613190D02*
X14385952Y-11603667D01*
X14405000Y-11594143D01*
X14433571Y-11594143D01*
X14452619Y-11603667D01*
X14462143Y-11622714D01*
X14462143Y-11727476D01*
X14462143Y-11622714D02*
X14471667Y-11603667D01*
X14490714Y-11594143D01*
X14519286Y-11594143D01*
X14538333Y-11603667D01*
X14547857Y-11622714D01*
X14547857Y-11727476D01*
X14938333Y-11517952D02*
X14766905Y-11775095D01*
X15195476Y-11527476D02*
X15214524Y-11527476D01*
X15233571Y-11537000D01*
X15243095Y-11546524D01*
X15252619Y-11565571D01*
X15262143Y-11603667D01*
X15262143Y-11651286D01*
X15252619Y-11689381D01*
X15243095Y-11708428D01*
X15233571Y-11717952D01*
X15214524Y-11727476D01*
X15195476Y-11727476D01*
X15176428Y-11717952D01*
X15166905Y-11708428D01*
X15157381Y-11689381D01*
X15147857Y-11651286D01*
X15147857Y-11603667D01*
X15157381Y-11565571D01*
X15166905Y-11546524D01*
X15176428Y-11537000D01*
X15195476Y-11527476D01*
X15347857Y-11708428D02*
X15357381Y-11717952D01*
X15347857Y-11727476D01*
X15338333Y-11717952D01*
X15347857Y-11708428D01*
X15347857Y-11727476D01*
X15481190Y-11527476D02*
X15500238Y-11527476D01*
X15519286Y-11537000D01*
X15528809Y-11546524D01*
X15538333Y-11565571D01*
X15547857Y-11603667D01*
X15547857Y-11651286D01*
X15538333Y-11689381D01*
X15528809Y-11708428D01*
X15519286Y-11717952D01*
X15500238Y-11727476D01*
X15481190Y-11727476D01*
X15462143Y-11717952D01*
X15452619Y-11708428D01*
X15443095Y-11689381D01*
X15433571Y-11651286D01*
X15433571Y-11603667D01*
X15443095Y-11565571D01*
X15452619Y-11546524D01*
X15462143Y-11537000D01*
X15481190Y-11527476D01*
X15719286Y-11527476D02*
X15681190Y-11527476D01*
X15662143Y-11537000D01*
X15652619Y-11546524D01*
X15633571Y-11575095D01*
X15624048Y-11613190D01*
X15624048Y-11689381D01*
X15633571Y-11708428D01*
X15643095Y-11717952D01*
X15662143Y-11727476D01*
X15700238Y-11727476D01*
X15719286Y-11717952D01*
X15728809Y-11708428D01*
X15738333Y-11689381D01*
X15738333Y-11641762D01*
X15728809Y-11622714D01*
X15719286Y-11613190D01*
X15700238Y-11603667D01*
X15662143Y-11603667D01*
X15643095Y-11613190D01*
X15633571Y-11622714D01*
X15624048Y-11641762D01*
X15909762Y-11527476D02*
X15871667Y-11527476D01*
X15852619Y-11537000D01*
X15843095Y-11546524D01*
X15824048Y-11575095D01*
X15814524Y-11613190D01*
X15814524Y-11689381D01*
X15824048Y-11708428D01*
X15833571Y-11717952D01*
X15852619Y-11727476D01*
X15890714Y-11727476D01*
X15909762Y-11717952D01*
X15919286Y-11708428D01*
X15928809Y-11689381D01*
X15928809Y-11641762D01*
X15919286Y-11622714D01*
X15909762Y-11613190D01*
X15890714Y-11603667D01*
X15852619Y-11603667D01*
X15833571Y-11613190D01*
X15824048Y-11622714D01*
X15814524Y-11641762D01*
X16024048Y-11727476D02*
X16062143Y-11727476D01*
X16081190Y-11717952D01*
X16090714Y-11708428D01*
X16109762Y-11679857D01*
X16119286Y-11641762D01*
X16119286Y-11565571D01*
X16109762Y-11546524D01*
X16100238Y-11537000D01*
X16081190Y-11527476D01*
X16043095Y-11527476D01*
X16024048Y-11537000D01*
X16014524Y-11546524D01*
X16005000Y-11565571D01*
X16005000Y-11613190D01*
X16014524Y-11632238D01*
X16024048Y-11641762D01*
X16043095Y-11651286D01*
X16081190Y-11651286D01*
X16100238Y-11641762D01*
X16109762Y-11632238D01*
X16119286Y-11613190D01*
X16195476Y-11527476D02*
X16195476Y-11565571D01*
X16271667Y-11527476D02*
X16271667Y-11565571D01*
X16566905Y-11803667D02*
X16557381Y-11794143D01*
X16538333Y-11765571D01*
X16528809Y-11746524D01*
X16519286Y-11717952D01*
X16509762Y-11670333D01*
X16509762Y-11632238D01*
X16519286Y-11584619D01*
X16528809Y-11556048D01*
X16538333Y-11537000D01*
X16557381Y-11508428D01*
X16566905Y-11498905D01*
X16728809Y-11594143D02*
X16728809Y-11727476D01*
X16681190Y-11517952D02*
X16633571Y-11660809D01*
X16757381Y-11660809D01*
X16985952Y-11727476D02*
X16985952Y-11527476D01*
X17071667Y-11727476D02*
X17071667Y-11622714D01*
X17062143Y-11603667D01*
X17043095Y-11594143D01*
X17014524Y-11594143D01*
X16995476Y-11603667D01*
X16985952Y-11613190D01*
X17195476Y-11727476D02*
X17176429Y-11717952D01*
X17166905Y-11708428D01*
X17157381Y-11689381D01*
X17157381Y-11632238D01*
X17166905Y-11613190D01*
X17176429Y-11603667D01*
X17195476Y-11594143D01*
X17224048Y-11594143D01*
X17243095Y-11603667D01*
X17252619Y-11613190D01*
X17262143Y-11632238D01*
X17262143Y-11689381D01*
X17252619Y-11708428D01*
X17243095Y-11717952D01*
X17224048Y-11727476D01*
X17195476Y-11727476D01*
X17376429Y-11727476D02*
X17357381Y-11717952D01*
X17347857Y-11698905D01*
X17347857Y-11527476D01*
X17528810Y-11717952D02*
X17509762Y-11727476D01*
X17471667Y-11727476D01*
X17452619Y-11717952D01*
X17443095Y-11698905D01*
X17443095Y-11622714D01*
X17452619Y-11603667D01*
X17471667Y-11594143D01*
X17509762Y-11594143D01*
X17528810Y-11603667D01*
X17538333Y-11622714D01*
X17538333Y-11641762D01*
X17443095Y-11660809D01*
X17614524Y-11717952D02*
X17633571Y-11727476D01*
X17671667Y-11727476D01*
X17690714Y-11717952D01*
X17700238Y-11698905D01*
X17700238Y-11689381D01*
X17690714Y-11670333D01*
X17671667Y-11660809D01*
X17643095Y-11660809D01*
X17624048Y-11651286D01*
X17614524Y-11632238D01*
X17614524Y-11622714D01*
X17624048Y-11603667D01*
X17643095Y-11594143D01*
X17671667Y-11594143D01*
X17690714Y-11603667D01*
X17766905Y-11803667D02*
X17776429Y-11794143D01*
X17795476Y-11765571D01*
X17805000Y-11746524D01*
X17814524Y-11717952D01*
X17824048Y-11670333D01*
X17824048Y-11632238D01*
X17814524Y-11584619D01*
X17805000Y-11556048D01*
X17795476Y-11537000D01*
X17776429Y-11508428D01*
X17766905Y-11498905D01*
M02*
