G04 #@! TF.GenerationSoftware,KiCad,Pcbnew,(6.0.2)*
G04 #@! TF.CreationDate,2023-11-23T16:59:36-08:00*
G04 #@! TF.ProjectId,phase_shifter_v1,70686173-655f-4736-9869-667465725f76,rev?*
G04 #@! TF.SameCoordinates,Original*
G04 #@! TF.FileFunction,Legend,Top*
G04 #@! TF.FilePolarity,Positive*
%FSLAX46Y46*%
G04 Gerber Fmt 4.6, Leading zero omitted, Abs format (unit mm)*
G04 Created by KiCad (PCBNEW (6.0.2)) date 2023-11-23 16:59:36*
%MOMM*%
%LPD*%
G01*
G04 APERTURE LIST*
G04 Aperture macros list*
%AMRoundRect*
0 Rectangle with rounded corners*
0 $1 Rounding radius*
0 $2 $3 $4 $5 $6 $7 $8 $9 X,Y pos of 4 corners*
0 Add a 4 corners polygon primitive as box body*
4,1,4,$2,$3,$4,$5,$6,$7,$8,$9,$2,$3,0*
0 Add four circle primitives for the rounded corners*
1,1,$1+$1,$2,$3*
1,1,$1+$1,$4,$5*
1,1,$1+$1,$6,$7*
1,1,$1+$1,$8,$9*
0 Add four rect primitives between the rounded corners*
20,1,$1+$1,$2,$3,$4,$5,0*
20,1,$1+$1,$4,$5,$6,$7,0*
20,1,$1+$1,$6,$7,$8,$9,0*
20,1,$1+$1,$8,$9,$2,$3,0*%
%AMFreePoly0*
4,1,25,-1.500000,1.420000,-1.360000,1.280000,-1.205000,1.155000,-1.035000,1.045000,-0.860000,0.950000,-0.675000,0.875000,-0.480000,0.820000,-0.280000,0.780000,-0.085000,0.765000,0.085000,0.765000,0.280000,0.780000,0.480000,0.820000,0.675000,0.875000,0.860000,0.950000,1.035000,1.045000,1.205000,1.155000,1.360000,1.280000,1.500000,1.420000,1.645000,1.595000,3.555000,1.595000,
3.555000,-0.755000,-3.555000,-0.755000,-3.555000,1.595000,-1.645000,1.595000,-1.500000,1.420000,-1.500000,1.420000,$1*%
G04 Aperture macros list end*
%ADD10C,0.160000*%
%ADD11C,0.150000*%
%ADD12C,0.254000*%
%ADD13C,0.120000*%
%ADD14C,0.010000*%
%ADD15C,0.250000*%
%ADD16C,0.546300*%
%ADD17RoundRect,0.140000X-0.170000X0.140000X-0.170000X-0.140000X0.170000X-0.140000X0.170000X0.140000X0*%
%ADD18RoundRect,0.140000X0.140000X0.170000X-0.140000X0.170000X-0.140000X-0.170000X0.140000X-0.170000X0*%
%ADD19R,1.700000X1.700000*%
%ADD20O,1.700000X1.700000*%
%ADD21RoundRect,0.140000X0.170000X-0.140000X0.170000X0.140000X-0.170000X0.140000X-0.170000X-0.140000X0*%
%ADD22RoundRect,0.140000X-0.140000X-0.170000X0.140000X-0.170000X0.140000X0.170000X-0.140000X0.170000X0*%
%ADD23RoundRect,0.135000X0.135000X0.185000X-0.135000X0.185000X-0.135000X-0.185000X0.135000X-0.185000X0*%
%ADD24RoundRect,0.135000X0.185000X-0.135000X0.185000X0.135000X-0.185000X0.135000X-0.185000X-0.135000X0*%
%ADD25R,0.800000X0.300000*%
%ADD26R,0.300000X0.800000*%
%ADD27R,1.750000X1.750000*%
%ADD28C,1.730000*%
%ADD29FreePoly0,0.000000*%
%ADD30FreePoly0,180.000000*%
%ADD31C,1.800000*%
%ADD32C,2.550000*%
G04 APERTURE END LIST*
D10*
X138800000Y-79800000D02*
X140700000Y-79800000D01*
X141300000Y-97800000D02*
X143200000Y-97800000D01*
X162200000Y-96800000D02*
X166400000Y-96800000D01*
X162700000Y-74400000D02*
X165000000Y-74400000D01*
X142300000Y-61000000D02*
X145300000Y-61000000D01*
X172100000Y-85400000D02*
X174400000Y-85400000D01*
X174500000Y-94100000D02*
X176800000Y-94100000D01*
X152700000Y-91000000D02*
X155700000Y-91000000D01*
D11*
X152742857Y-89747619D02*
X152790476Y-89700000D01*
X152885714Y-89652380D01*
X153123809Y-89652380D01*
X153219047Y-89700000D01*
X153266666Y-89747619D01*
X153314285Y-89842857D01*
X153314285Y-89938095D01*
X153266666Y-90080952D01*
X152695238Y-90652380D01*
X153314285Y-90652380D01*
X153695238Y-89747619D02*
X153742857Y-89700000D01*
X153838095Y-89652380D01*
X154076190Y-89652380D01*
X154171428Y-89700000D01*
X154219047Y-89747619D01*
X154266666Y-89842857D01*
X154266666Y-89938095D01*
X154219047Y-90080952D01*
X153647619Y-90652380D01*
X154266666Y-90652380D01*
X154695238Y-90557142D02*
X154742857Y-90604761D01*
X154695238Y-90652380D01*
X154647619Y-90604761D01*
X154695238Y-90557142D01*
X154695238Y-90652380D01*
X155647619Y-89652380D02*
X155171428Y-89652380D01*
X155123809Y-90128571D01*
X155171428Y-90080952D01*
X155266666Y-90033333D01*
X155504761Y-90033333D01*
X155600000Y-90080952D01*
X155647619Y-90128571D01*
X155695238Y-90223809D01*
X155695238Y-90461904D01*
X155647619Y-90557142D01*
X155600000Y-90604761D01*
X155504761Y-90652380D01*
X155266666Y-90652380D01*
X155171428Y-90604761D01*
X155123809Y-90557142D01*
X156266666Y-89652380D02*
X156171428Y-89700000D01*
X156123809Y-89795238D01*
X156171428Y-89890476D01*
X156266666Y-89938095D01*
X156361904Y-89890476D01*
X156409523Y-89795238D01*
X156361904Y-89700000D01*
X156266666Y-89652380D01*
X141833333Y-96885714D02*
X141833333Y-97552380D01*
X141595238Y-96504761D02*
X141357142Y-97219047D01*
X141976190Y-97219047D01*
X142833333Y-96552380D02*
X142357142Y-96552380D01*
X142309523Y-97028571D01*
X142357142Y-96980952D01*
X142452380Y-96933333D01*
X142690476Y-96933333D01*
X142785714Y-96980952D01*
X142833333Y-97028571D01*
X142880952Y-97123809D01*
X142880952Y-97361904D01*
X142833333Y-97457142D01*
X142785714Y-97504761D01*
X142690476Y-97552380D01*
X142452380Y-97552380D01*
X142357142Y-97504761D01*
X142309523Y-97457142D01*
X143452380Y-96552380D02*
X143357142Y-96600000D01*
X143309523Y-96695238D01*
X143357142Y-96790476D01*
X143452380Y-96838095D01*
X143547619Y-96790476D01*
X143595238Y-96695238D01*
X143547619Y-96600000D01*
X143452380Y-96552380D01*
X138952380Y-79552380D02*
X139142857Y-79552380D01*
X139238095Y-79504761D01*
X139285714Y-79457142D01*
X139380952Y-79314285D01*
X139428571Y-79123809D01*
X139428571Y-78742857D01*
X139380952Y-78647619D01*
X139333333Y-78600000D01*
X139238095Y-78552380D01*
X139047619Y-78552380D01*
X138952380Y-78600000D01*
X138904761Y-78647619D01*
X138857142Y-78742857D01*
X138857142Y-78980952D01*
X138904761Y-79076190D01*
X138952380Y-79123809D01*
X139047619Y-79171428D01*
X139238095Y-79171428D01*
X139333333Y-79123809D01*
X139380952Y-79076190D01*
X139428571Y-78980952D01*
X140047619Y-78552380D02*
X140142857Y-78552380D01*
X140238095Y-78600000D01*
X140285714Y-78647619D01*
X140333333Y-78742857D01*
X140380952Y-78933333D01*
X140380952Y-79171428D01*
X140333333Y-79361904D01*
X140285714Y-79457142D01*
X140238095Y-79504761D01*
X140142857Y-79552380D01*
X140047619Y-79552380D01*
X139952380Y-79504761D01*
X139904761Y-79457142D01*
X139857142Y-79361904D01*
X139809523Y-79171428D01*
X139809523Y-78933333D01*
X139857142Y-78742857D01*
X139904761Y-78647619D01*
X139952380Y-78600000D01*
X140047619Y-78552380D01*
X140952380Y-78552380D02*
X140857142Y-78600000D01*
X140809523Y-78695238D01*
X140857142Y-78790476D01*
X140952380Y-78838095D01*
X141047619Y-78790476D01*
X141095238Y-78695238D01*
X141047619Y-78600000D01*
X140952380Y-78552380D01*
X172219047Y-84247619D02*
X172266666Y-84200000D01*
X172361904Y-84152380D01*
X172600000Y-84152380D01*
X172695238Y-84200000D01*
X172742857Y-84247619D01*
X172790476Y-84342857D01*
X172790476Y-84438095D01*
X172742857Y-84580952D01*
X172171428Y-85152380D01*
X172790476Y-85152380D01*
X173219047Y-85057142D02*
X173266666Y-85104761D01*
X173219047Y-85152380D01*
X173171428Y-85104761D01*
X173219047Y-85057142D01*
X173219047Y-85152380D01*
X173838095Y-84580952D02*
X173742857Y-84533333D01*
X173695238Y-84485714D01*
X173647619Y-84390476D01*
X173647619Y-84342857D01*
X173695238Y-84247619D01*
X173742857Y-84200000D01*
X173838095Y-84152380D01*
X174028571Y-84152380D01*
X174123809Y-84200000D01*
X174171428Y-84247619D01*
X174219047Y-84342857D01*
X174219047Y-84390476D01*
X174171428Y-84485714D01*
X174123809Y-84533333D01*
X174028571Y-84580952D01*
X173838095Y-84580952D01*
X173742857Y-84628571D01*
X173695238Y-84676190D01*
X173647619Y-84771428D01*
X173647619Y-84961904D01*
X173695238Y-85057142D01*
X173742857Y-85104761D01*
X173838095Y-85152380D01*
X174028571Y-85152380D01*
X174123809Y-85104761D01*
X174171428Y-85057142D01*
X174219047Y-84961904D01*
X174219047Y-84771428D01*
X174171428Y-84676190D01*
X174123809Y-84628571D01*
X174028571Y-84580952D01*
X174790476Y-84152380D02*
X174695238Y-84200000D01*
X174647619Y-84295238D01*
X174695238Y-84390476D01*
X174790476Y-84438095D01*
X174885714Y-84390476D01*
X174933333Y-84295238D01*
X174885714Y-84200000D01*
X174790476Y-84152380D01*
X162538095Y-96452380D02*
X161966666Y-96452380D01*
X162252380Y-96452380D02*
X162252380Y-95452380D01*
X162157142Y-95595238D01*
X162061904Y-95690476D01*
X161966666Y-95738095D01*
X163490476Y-96452380D02*
X162919047Y-96452380D01*
X163204761Y-96452380D02*
X163204761Y-95452380D01*
X163109523Y-95595238D01*
X163014285Y-95690476D01*
X162919047Y-95738095D01*
X163919047Y-96357142D02*
X163966666Y-96404761D01*
X163919047Y-96452380D01*
X163871428Y-96404761D01*
X163919047Y-96357142D01*
X163919047Y-96452380D01*
X164347619Y-95547619D02*
X164395238Y-95500000D01*
X164490476Y-95452380D01*
X164728571Y-95452380D01*
X164823809Y-95500000D01*
X164871428Y-95547619D01*
X164919047Y-95642857D01*
X164919047Y-95738095D01*
X164871428Y-95880952D01*
X164300000Y-96452380D01*
X164919047Y-96452380D01*
X165823809Y-95452380D02*
X165347619Y-95452380D01*
X165300000Y-95928571D01*
X165347619Y-95880952D01*
X165442857Y-95833333D01*
X165680952Y-95833333D01*
X165776190Y-95880952D01*
X165823809Y-95928571D01*
X165871428Y-96023809D01*
X165871428Y-96261904D01*
X165823809Y-96357142D01*
X165776190Y-96404761D01*
X165680952Y-96452380D01*
X165442857Y-96452380D01*
X165347619Y-96404761D01*
X165300000Y-96357142D01*
X166442857Y-95452380D02*
X166347619Y-95500000D01*
X166300000Y-95595238D01*
X166347619Y-95690476D01*
X166442857Y-95738095D01*
X166538095Y-95690476D01*
X166585714Y-95595238D01*
X166538095Y-95500000D01*
X166442857Y-95452380D01*
X143152380Y-60652380D02*
X142580952Y-60652380D01*
X142866666Y-60652380D02*
X142866666Y-59652380D01*
X142771428Y-59795238D01*
X142676190Y-59890476D01*
X142580952Y-59938095D01*
X143723809Y-60080952D02*
X143628571Y-60033333D01*
X143580952Y-59985714D01*
X143533333Y-59890476D01*
X143533333Y-59842857D01*
X143580952Y-59747619D01*
X143628571Y-59700000D01*
X143723809Y-59652380D01*
X143914285Y-59652380D01*
X144009523Y-59700000D01*
X144057142Y-59747619D01*
X144104761Y-59842857D01*
X144104761Y-59890476D01*
X144057142Y-59985714D01*
X144009523Y-60033333D01*
X143914285Y-60080952D01*
X143723809Y-60080952D01*
X143628571Y-60128571D01*
X143580952Y-60176190D01*
X143533333Y-60271428D01*
X143533333Y-60461904D01*
X143580952Y-60557142D01*
X143628571Y-60604761D01*
X143723809Y-60652380D01*
X143914285Y-60652380D01*
X144009523Y-60604761D01*
X144057142Y-60557142D01*
X144104761Y-60461904D01*
X144104761Y-60271428D01*
X144057142Y-60176190D01*
X144009523Y-60128571D01*
X143914285Y-60080952D01*
X144723809Y-59652380D02*
X144819047Y-59652380D01*
X144914285Y-59700000D01*
X144961904Y-59747619D01*
X145009523Y-59842857D01*
X145057142Y-60033333D01*
X145057142Y-60271428D01*
X145009523Y-60461904D01*
X144961904Y-60557142D01*
X144914285Y-60604761D01*
X144819047Y-60652380D01*
X144723809Y-60652380D01*
X144628571Y-60604761D01*
X144580952Y-60557142D01*
X144533333Y-60461904D01*
X144485714Y-60271428D01*
X144485714Y-60033333D01*
X144533333Y-59842857D01*
X144580952Y-59747619D01*
X144628571Y-59700000D01*
X144723809Y-59652380D01*
X145628571Y-59652380D02*
X145533333Y-59700000D01*
X145485714Y-59795238D01*
X145533333Y-59890476D01*
X145628571Y-59938095D01*
X145723809Y-59890476D01*
X145771428Y-59795238D01*
X145723809Y-59700000D01*
X145628571Y-59652380D01*
X163390476Y-74052380D02*
X162819047Y-74052380D01*
X163104761Y-74052380D02*
X163104761Y-73052380D01*
X163009523Y-73195238D01*
X162914285Y-73290476D01*
X162819047Y-73338095D01*
X163819047Y-73957142D02*
X163866666Y-74004761D01*
X163819047Y-74052380D01*
X163771428Y-74004761D01*
X163819047Y-73957142D01*
X163819047Y-74052380D01*
X164723809Y-73385714D02*
X164723809Y-74052380D01*
X164485714Y-73004761D02*
X164247619Y-73719047D01*
X164866666Y-73719047D01*
X165390476Y-73052380D02*
X165295238Y-73100000D01*
X165247619Y-73195238D01*
X165295238Y-73290476D01*
X165390476Y-73338095D01*
X165485714Y-73290476D01*
X165533333Y-73195238D01*
X165485714Y-73100000D01*
X165390476Y-73052380D01*
X175142857Y-92852380D02*
X174666666Y-92852380D01*
X174619047Y-93328571D01*
X174666666Y-93280952D01*
X174761904Y-93233333D01*
X175000000Y-93233333D01*
X175095238Y-93280952D01*
X175142857Y-93328571D01*
X175190476Y-93423809D01*
X175190476Y-93661904D01*
X175142857Y-93757142D01*
X175095238Y-93804761D01*
X175000000Y-93852380D01*
X174761904Y-93852380D01*
X174666666Y-93804761D01*
X174619047Y-93757142D01*
X175619047Y-93757142D02*
X175666666Y-93804761D01*
X175619047Y-93852380D01*
X175571428Y-93804761D01*
X175619047Y-93757142D01*
X175619047Y-93852380D01*
X176523809Y-92852380D02*
X176333333Y-92852380D01*
X176238095Y-92900000D01*
X176190476Y-92947619D01*
X176095238Y-93090476D01*
X176047619Y-93280952D01*
X176047619Y-93661904D01*
X176095238Y-93757142D01*
X176142857Y-93804761D01*
X176238095Y-93852380D01*
X176428571Y-93852380D01*
X176523809Y-93804761D01*
X176571428Y-93757142D01*
X176619047Y-93661904D01*
X176619047Y-93423809D01*
X176571428Y-93328571D01*
X176523809Y-93280952D01*
X176428571Y-93233333D01*
X176238095Y-93233333D01*
X176142857Y-93280952D01*
X176095238Y-93328571D01*
X176047619Y-93423809D01*
X177190476Y-92852380D02*
X177095238Y-92900000D01*
X177047619Y-92995238D01*
X177095238Y-93090476D01*
X177190476Y-93138095D01*
X177285714Y-93090476D01*
X177333333Y-92995238D01*
X177285714Y-92900000D01*
X177190476Y-92852380D01*
D10*
X160287142Y-91787856D02*
X160334761Y-91835475D01*
X160382380Y-91978332D01*
X160382380Y-92073570D01*
X160334761Y-92216427D01*
X160239523Y-92311665D01*
X160144285Y-92359284D01*
X159953809Y-92406903D01*
X159810952Y-92406903D01*
X159620476Y-92359284D01*
X159525238Y-92311665D01*
X159430000Y-92216427D01*
X159382380Y-92073570D01*
X159382380Y-91978332D01*
X159430000Y-91835475D01*
X159477619Y-91787856D01*
X159477619Y-91406903D02*
X159430000Y-91359284D01*
X159382380Y-91264046D01*
X159382380Y-91025951D01*
X159430000Y-90930713D01*
X159477619Y-90883094D01*
X159572857Y-90835475D01*
X159668095Y-90835475D01*
X159810952Y-90883094D01*
X160382380Y-91454522D01*
X160382380Y-90835475D01*
X159382380Y-90502141D02*
X159382380Y-89883094D01*
X159763333Y-90216427D01*
X159763333Y-90073570D01*
X159810952Y-89978332D01*
X159858571Y-89930713D01*
X159953809Y-89883094D01*
X160191904Y-89883094D01*
X160287142Y-89930713D01*
X160334761Y-89978332D01*
X160382380Y-90073570D01*
X160382380Y-90359284D01*
X160334761Y-90454522D01*
X160287142Y-90502141D01*
X146597142Y-99642857D02*
X146644761Y-99690476D01*
X146692380Y-99833333D01*
X146692380Y-99928571D01*
X146644761Y-100071428D01*
X146549523Y-100166666D01*
X146454285Y-100214285D01*
X146263809Y-100261904D01*
X146120952Y-100261904D01*
X145930476Y-100214285D01*
X145835238Y-100166666D01*
X145740000Y-100071428D01*
X145692380Y-99928571D01*
X145692380Y-99833333D01*
X145740000Y-99690476D01*
X145787619Y-99642857D01*
X145787619Y-99261904D02*
X145740000Y-99214285D01*
X145692380Y-99119047D01*
X145692380Y-98880952D01*
X145740000Y-98785714D01*
X145787619Y-98738095D01*
X145882857Y-98690476D01*
X145978095Y-98690476D01*
X146120952Y-98738095D01*
X146692380Y-99309523D01*
X146692380Y-98690476D01*
X146120952Y-98119047D02*
X146073333Y-98214285D01*
X146025714Y-98261904D01*
X145930476Y-98309523D01*
X145882857Y-98309523D01*
X145787619Y-98261904D01*
X145740000Y-98214285D01*
X145692380Y-98119047D01*
X145692380Y-97928571D01*
X145740000Y-97833333D01*
X145787619Y-97785714D01*
X145882857Y-97738095D01*
X145930476Y-97738095D01*
X146025714Y-97785714D01*
X146073333Y-97833333D01*
X146120952Y-97928571D01*
X146120952Y-98119047D01*
X146168571Y-98214285D01*
X146216190Y-98261904D01*
X146311428Y-98309523D01*
X146501904Y-98309523D01*
X146597142Y-98261904D01*
X146644761Y-98214285D01*
X146692380Y-98119047D01*
X146692380Y-97928571D01*
X146644761Y-97833333D01*
X146597142Y-97785714D01*
X146501904Y-97738095D01*
X146311428Y-97738095D01*
X146216190Y-97785714D01*
X146168571Y-97833333D01*
X146120952Y-97928571D01*
X161317142Y-81566666D02*
X161364761Y-81614285D01*
X161412380Y-81757142D01*
X161412380Y-81852380D01*
X161364761Y-81995238D01*
X161269523Y-82090476D01*
X161174285Y-82138095D01*
X160983809Y-82185714D01*
X160840952Y-82185714D01*
X160650476Y-82138095D01*
X160555238Y-82090476D01*
X160460000Y-81995238D01*
X160412380Y-81852380D01*
X160412380Y-81757142D01*
X160460000Y-81614285D01*
X160507619Y-81566666D01*
X160412380Y-80709523D02*
X160412380Y-80900000D01*
X160460000Y-80995238D01*
X160507619Y-81042857D01*
X160650476Y-81138095D01*
X160840952Y-81185714D01*
X161221904Y-81185714D01*
X161317142Y-81138095D01*
X161364761Y-81090476D01*
X161412380Y-80995238D01*
X161412380Y-80804761D01*
X161364761Y-80709523D01*
X161317142Y-80661904D01*
X161221904Y-80614285D01*
X160983809Y-80614285D01*
X160888571Y-80661904D01*
X160840952Y-80709523D01*
X160793333Y-80804761D01*
X160793333Y-80995238D01*
X160840952Y-81090476D01*
X160888571Y-81138095D01*
X160983809Y-81185714D01*
X161704761Y-91661904D02*
X161752380Y-91519047D01*
X161752380Y-91280952D01*
X161704761Y-91185714D01*
X161657142Y-91138095D01*
X161561904Y-91090476D01*
X161466666Y-91090476D01*
X161371428Y-91138095D01*
X161323809Y-91185714D01*
X161276190Y-91280952D01*
X161228571Y-91471428D01*
X161180952Y-91566666D01*
X161133333Y-91614285D01*
X161038095Y-91661904D01*
X160942857Y-91661904D01*
X160847619Y-91614285D01*
X160800000Y-91566666D01*
X160752380Y-91471428D01*
X160752380Y-91233333D01*
X160800000Y-91090476D01*
X161180952Y-90519047D02*
X161133333Y-90614285D01*
X161085714Y-90661904D01*
X160990476Y-90709523D01*
X160942857Y-90709523D01*
X160847619Y-90661904D01*
X160800000Y-90614285D01*
X160752380Y-90519047D01*
X160752380Y-90328571D01*
X160800000Y-90233333D01*
X160847619Y-90185714D01*
X160942857Y-90138095D01*
X160990476Y-90138095D01*
X161085714Y-90185714D01*
X161133333Y-90233333D01*
X161180952Y-90328571D01*
X161180952Y-90519047D01*
X161228571Y-90614285D01*
X161276190Y-90661904D01*
X161371428Y-90709523D01*
X161561904Y-90709523D01*
X161657142Y-90661904D01*
X161704761Y-90614285D01*
X161752380Y-90519047D01*
X161752380Y-90328571D01*
X161704761Y-90233333D01*
X161657142Y-90185714D01*
X161561904Y-90138095D01*
X161371428Y-90138095D01*
X161276190Y-90185714D01*
X161228571Y-90233333D01*
X161180952Y-90328571D01*
X150457142Y-62857142D02*
X150409523Y-62904761D01*
X150266666Y-62952380D01*
X150171428Y-62952380D01*
X150028571Y-62904761D01*
X149933333Y-62809523D01*
X149885714Y-62714285D01*
X149838095Y-62523809D01*
X149838095Y-62380952D01*
X149885714Y-62190476D01*
X149933333Y-62095238D01*
X150028571Y-62000000D01*
X150171428Y-61952380D01*
X150266666Y-61952380D01*
X150409523Y-62000000D01*
X150457142Y-62047619D01*
X151314285Y-62285714D02*
X151314285Y-62952380D01*
X151076190Y-61904761D02*
X150838095Y-62619047D01*
X151457142Y-62619047D01*
X151742857Y-61952380D02*
X152409523Y-61952380D01*
X151980952Y-62952380D01*
X144161904Y-73904761D02*
X144304761Y-73952380D01*
X144542857Y-73952380D01*
X144638095Y-73904761D01*
X144685714Y-73857142D01*
X144733333Y-73761904D01*
X144733333Y-73666666D01*
X144685714Y-73571428D01*
X144638095Y-73523809D01*
X144542857Y-73476190D01*
X144352380Y-73428571D01*
X144257142Y-73380952D01*
X144209523Y-73333333D01*
X144161904Y-73238095D01*
X144161904Y-73142857D01*
X144209523Y-73047619D01*
X144257142Y-73000000D01*
X144352380Y-72952380D01*
X144590476Y-72952380D01*
X144733333Y-73000000D01*
X145685714Y-73952380D02*
X145114285Y-73952380D01*
X145400000Y-73952380D02*
X145400000Y-72952380D01*
X145304761Y-73095238D01*
X145209523Y-73190476D01*
X145114285Y-73238095D01*
X146542857Y-73285714D02*
X146542857Y-73952380D01*
X146304761Y-72904761D02*
X146066666Y-73619047D01*
X146685714Y-73619047D01*
X169357142Y-90557142D02*
X169309523Y-90604761D01*
X169166666Y-90652380D01*
X169071428Y-90652380D01*
X168928571Y-90604761D01*
X168833333Y-90509523D01*
X168785714Y-90414285D01*
X168738095Y-90223809D01*
X168738095Y-90080952D01*
X168785714Y-89890476D01*
X168833333Y-89795238D01*
X168928571Y-89700000D01*
X169071428Y-89652380D01*
X169166666Y-89652380D01*
X169309523Y-89700000D01*
X169357142Y-89747619D01*
X170309523Y-90652380D02*
X169738095Y-90652380D01*
X170023809Y-90652380D02*
X170023809Y-89652380D01*
X169928571Y-89795238D01*
X169833333Y-89890476D01*
X169738095Y-89938095D01*
X171214285Y-89652380D02*
X170738095Y-89652380D01*
X170690476Y-90128571D01*
X170738095Y-90080952D01*
X170833333Y-90033333D01*
X171071428Y-90033333D01*
X171166666Y-90080952D01*
X171214285Y-90128571D01*
X171261904Y-90223809D01*
X171261904Y-90461904D01*
X171214285Y-90557142D01*
X171166666Y-90604761D01*
X171071428Y-90652380D01*
X170833333Y-90652380D01*
X170738095Y-90604761D01*
X170690476Y-90557142D01*
X133966666Y-72652380D02*
X133966666Y-73366666D01*
X133919047Y-73509523D01*
X133823809Y-73604761D01*
X133680952Y-73652380D01*
X133585714Y-73652380D01*
X134347619Y-72652380D02*
X134966666Y-72652380D01*
X134633333Y-73033333D01*
X134776190Y-73033333D01*
X134871428Y-73080952D01*
X134919047Y-73128571D01*
X134966666Y-73223809D01*
X134966666Y-73461904D01*
X134919047Y-73557142D01*
X134871428Y-73604761D01*
X134776190Y-73652380D01*
X134490476Y-73652380D01*
X134395238Y-73604761D01*
X134347619Y-73557142D01*
X168277142Y-74616666D02*
X168324761Y-74664285D01*
X168372380Y-74807142D01*
X168372380Y-74902380D01*
X168324761Y-75045238D01*
X168229523Y-75140476D01*
X168134285Y-75188095D01*
X167943809Y-75235714D01*
X167800952Y-75235714D01*
X167610476Y-75188095D01*
X167515238Y-75140476D01*
X167420000Y-75045238D01*
X167372380Y-74902380D01*
X167372380Y-74807142D01*
X167420000Y-74664285D01*
X167467619Y-74616666D01*
X167372380Y-73711904D02*
X167372380Y-74188095D01*
X167848571Y-74235714D01*
X167800952Y-74188095D01*
X167753333Y-74092857D01*
X167753333Y-73854761D01*
X167800952Y-73759523D01*
X167848571Y-73711904D01*
X167943809Y-73664285D01*
X168181904Y-73664285D01*
X168277142Y-73711904D01*
X168324761Y-73759523D01*
X168372380Y-73854761D01*
X168372380Y-74092857D01*
X168324761Y-74188095D01*
X168277142Y-74235714D01*
X172913095Y-90229761D02*
X173055952Y-90277380D01*
X173294047Y-90277380D01*
X173389285Y-90229761D01*
X173436904Y-90182142D01*
X173484523Y-90086904D01*
X173484523Y-89991666D01*
X173436904Y-89896428D01*
X173389285Y-89848809D01*
X173294047Y-89801190D01*
X173103571Y-89753571D01*
X173008333Y-89705952D01*
X172960714Y-89658333D01*
X172913095Y-89563095D01*
X172913095Y-89467857D01*
X172960714Y-89372619D01*
X173008333Y-89325000D01*
X173103571Y-89277380D01*
X173341666Y-89277380D01*
X173484523Y-89325000D01*
X174389285Y-89277380D02*
X173913095Y-89277380D01*
X173865476Y-89753571D01*
X173913095Y-89705952D01*
X174008333Y-89658333D01*
X174246428Y-89658333D01*
X174341666Y-89705952D01*
X174389285Y-89753571D01*
X174436904Y-89848809D01*
X174436904Y-90086904D01*
X174389285Y-90182142D01*
X174341666Y-90229761D01*
X174246428Y-90277380D01*
X174008333Y-90277380D01*
X173913095Y-90229761D01*
X173865476Y-90182142D01*
X139066898Y-59367613D02*
X139114517Y-59415232D01*
X139162136Y-59558089D01*
X139162136Y-59653327D01*
X139114517Y-59796184D01*
X139019279Y-59891422D01*
X138924041Y-59939041D01*
X138733565Y-59986660D01*
X138590708Y-59986660D01*
X138400232Y-59939041D01*
X138304994Y-59891422D01*
X138209756Y-59796184D01*
X138162136Y-59653327D01*
X138162136Y-59558089D01*
X138209756Y-59415232D01*
X138257375Y-59367613D01*
X138495470Y-58510470D02*
X139162136Y-58510470D01*
X138114517Y-58748565D02*
X138828803Y-58986660D01*
X138828803Y-58367613D01*
X138162136Y-58081898D02*
X138162136Y-57462851D01*
X138543089Y-57796184D01*
X138543089Y-57653327D01*
X138590708Y-57558089D01*
X138638327Y-57510470D01*
X138733565Y-57462851D01*
X138971660Y-57462851D01*
X139066898Y-57510470D01*
X139114517Y-57558089D01*
X139162136Y-57653327D01*
X139162136Y-57939041D01*
X139114517Y-58034279D01*
X139066898Y-58081898D01*
X137857142Y-85597142D02*
X137809523Y-85644761D01*
X137666666Y-85692380D01*
X137571428Y-85692380D01*
X137428571Y-85644761D01*
X137333333Y-85549523D01*
X137285714Y-85454285D01*
X137238095Y-85263809D01*
X137238095Y-85120952D01*
X137285714Y-84930476D01*
X137333333Y-84835238D01*
X137428571Y-84740000D01*
X137571428Y-84692380D01*
X137666666Y-84692380D01*
X137809523Y-84740000D01*
X137857142Y-84787619D01*
X138190476Y-84692380D02*
X138809523Y-84692380D01*
X138476190Y-85073333D01*
X138619047Y-85073333D01*
X138714285Y-85120952D01*
X138761904Y-85168571D01*
X138809523Y-85263809D01*
X138809523Y-85501904D01*
X138761904Y-85597142D01*
X138714285Y-85644761D01*
X138619047Y-85692380D01*
X138333333Y-85692380D01*
X138238095Y-85644761D01*
X138190476Y-85597142D01*
X139142857Y-84692380D02*
X139761904Y-84692380D01*
X139428571Y-85073333D01*
X139571428Y-85073333D01*
X139666666Y-85120952D01*
X139714285Y-85168571D01*
X139761904Y-85263809D01*
X139761904Y-85501904D01*
X139714285Y-85597142D01*
X139666666Y-85644761D01*
X139571428Y-85692380D01*
X139285714Y-85692380D01*
X139190476Y-85644761D01*
X139142857Y-85597142D01*
X146561904Y-95504761D02*
X146704761Y-95552380D01*
X146942857Y-95552380D01*
X147038095Y-95504761D01*
X147085714Y-95457142D01*
X147133333Y-95361904D01*
X147133333Y-95266666D01*
X147085714Y-95171428D01*
X147038095Y-95123809D01*
X146942857Y-95076190D01*
X146752380Y-95028571D01*
X146657142Y-94980952D01*
X146609523Y-94933333D01*
X146561904Y-94838095D01*
X146561904Y-94742857D01*
X146609523Y-94647619D01*
X146657142Y-94600000D01*
X146752380Y-94552380D01*
X146990476Y-94552380D01*
X147133333Y-94600000D01*
X148085714Y-95552380D02*
X147514285Y-95552380D01*
X147800000Y-95552380D02*
X147800000Y-94552380D01*
X147704761Y-94695238D01*
X147609523Y-94790476D01*
X147514285Y-94838095D01*
X149038095Y-95552380D02*
X148466666Y-95552380D01*
X148752380Y-95552380D02*
X148752380Y-94552380D01*
X148657142Y-94695238D01*
X148561904Y-94790476D01*
X148466666Y-94838095D01*
X135011904Y-95404761D02*
X135154761Y-95452380D01*
X135392857Y-95452380D01*
X135488095Y-95404761D01*
X135535714Y-95357142D01*
X135583333Y-95261904D01*
X135583333Y-95166666D01*
X135535714Y-95071428D01*
X135488095Y-95023809D01*
X135392857Y-94976190D01*
X135202380Y-94928571D01*
X135107142Y-94880952D01*
X135059523Y-94833333D01*
X135011904Y-94738095D01*
X135011904Y-94642857D01*
X135059523Y-94547619D01*
X135107142Y-94500000D01*
X135202380Y-94452380D01*
X135440476Y-94452380D01*
X135583333Y-94500000D01*
X136535714Y-95452380D02*
X135964285Y-95452380D01*
X136250000Y-95452380D02*
X136250000Y-94452380D01*
X136154761Y-94595238D01*
X136059523Y-94690476D01*
X135964285Y-94738095D01*
X136916666Y-94547619D02*
X136964285Y-94500000D01*
X137059523Y-94452380D01*
X137297619Y-94452380D01*
X137392857Y-94500000D01*
X137440476Y-94547619D01*
X137488095Y-94642857D01*
X137488095Y-94738095D01*
X137440476Y-94880952D01*
X136869047Y-95452380D01*
X137488095Y-95452380D01*
X172838095Y-97429761D02*
X172980952Y-97477380D01*
X173219047Y-97477380D01*
X173314285Y-97429761D01*
X173361904Y-97382142D01*
X173409523Y-97286904D01*
X173409523Y-97191666D01*
X173361904Y-97096428D01*
X173314285Y-97048809D01*
X173219047Y-97001190D01*
X173028571Y-96953571D01*
X172933333Y-96905952D01*
X172885714Y-96858333D01*
X172838095Y-96763095D01*
X172838095Y-96667857D01*
X172885714Y-96572619D01*
X172933333Y-96525000D01*
X173028571Y-96477380D01*
X173266666Y-96477380D01*
X173409523Y-96525000D01*
X174266666Y-96477380D02*
X174076190Y-96477380D01*
X173980952Y-96525000D01*
X173933333Y-96572619D01*
X173838095Y-96715476D01*
X173790476Y-96905952D01*
X173790476Y-97286904D01*
X173838095Y-97382142D01*
X173885714Y-97429761D01*
X173980952Y-97477380D01*
X174171428Y-97477380D01*
X174266666Y-97429761D01*
X174314285Y-97382142D01*
X174361904Y-97286904D01*
X174361904Y-97048809D01*
X174314285Y-96953571D01*
X174266666Y-96905952D01*
X174171428Y-96858333D01*
X173980952Y-96858333D01*
X173885714Y-96905952D01*
X173838095Y-96953571D01*
X173790476Y-97048809D01*
X147632142Y-74817143D02*
X147584523Y-74864762D01*
X147441666Y-74912381D01*
X147346428Y-74912381D01*
X147203571Y-74864762D01*
X147108333Y-74769524D01*
X147060714Y-74674286D01*
X147013095Y-74483810D01*
X147013095Y-74340953D01*
X147060714Y-74150477D01*
X147108333Y-74055239D01*
X147203571Y-73960001D01*
X147346428Y-73912381D01*
X147441666Y-73912381D01*
X147584523Y-73960001D01*
X147632142Y-74007620D01*
X147965476Y-73912381D02*
X148584523Y-73912381D01*
X148251190Y-74293334D01*
X148394047Y-74293334D01*
X148489285Y-74340953D01*
X148536904Y-74388572D01*
X148584523Y-74483810D01*
X148584523Y-74721905D01*
X148536904Y-74817143D01*
X148489285Y-74864762D01*
X148394047Y-74912381D01*
X148108333Y-74912381D01*
X148013095Y-74864762D01*
X147965476Y-74817143D01*
X149441666Y-74245715D02*
X149441666Y-74912381D01*
X149203571Y-73864762D02*
X148965476Y-74579048D01*
X149584523Y-74579048D01*
X175983333Y-59352380D02*
X175650000Y-58876190D01*
X175411904Y-59352380D02*
X175411904Y-58352380D01*
X175792857Y-58352380D01*
X175888095Y-58400000D01*
X175935714Y-58447619D01*
X175983333Y-58542857D01*
X175983333Y-58685714D01*
X175935714Y-58780952D01*
X175888095Y-58828571D01*
X175792857Y-58876190D01*
X175411904Y-58876190D01*
X176554761Y-58780952D02*
X176459523Y-58733333D01*
X176411904Y-58685714D01*
X176364285Y-58590476D01*
X176364285Y-58542857D01*
X176411904Y-58447619D01*
X176459523Y-58400000D01*
X176554761Y-58352380D01*
X176745238Y-58352380D01*
X176840476Y-58400000D01*
X176888095Y-58447619D01*
X176935714Y-58542857D01*
X176935714Y-58590476D01*
X176888095Y-58685714D01*
X176840476Y-58733333D01*
X176745238Y-58780952D01*
X176554761Y-58780952D01*
X176459523Y-58828571D01*
X176411904Y-58876190D01*
X176364285Y-58971428D01*
X176364285Y-59161904D01*
X176411904Y-59257142D01*
X176459523Y-59304761D01*
X176554761Y-59352380D01*
X176745238Y-59352380D01*
X176840476Y-59304761D01*
X176888095Y-59257142D01*
X176935714Y-59161904D01*
X176935714Y-58971428D01*
X176888095Y-58876190D01*
X176840476Y-58828571D01*
X176745238Y-58780952D01*
X164952380Y-57966666D02*
X164476190Y-58300000D01*
X164952380Y-58538095D02*
X163952380Y-58538095D01*
X163952380Y-58157142D01*
X164000000Y-58061904D01*
X164047619Y-58014285D01*
X164142857Y-57966666D01*
X164285714Y-57966666D01*
X164380952Y-58014285D01*
X164428571Y-58061904D01*
X164476190Y-58157142D01*
X164476190Y-58538095D01*
X164952380Y-57014285D02*
X164952380Y-57585714D01*
X164952380Y-57300000D02*
X163952380Y-57300000D01*
X164095238Y-57395238D01*
X164190476Y-57490476D01*
X164238095Y-57585714D01*
X160707143Y-97207856D02*
X160754762Y-97255475D01*
X160802381Y-97398332D01*
X160802381Y-97493570D01*
X160754762Y-97636427D01*
X160659524Y-97731665D01*
X160564286Y-97779284D01*
X160373810Y-97826903D01*
X160230953Y-97826903D01*
X160040477Y-97779284D01*
X159945239Y-97731665D01*
X159850001Y-97636427D01*
X159802381Y-97493570D01*
X159802381Y-97398332D01*
X159850001Y-97255475D01*
X159897620Y-97207856D01*
X159897620Y-96826903D02*
X159850001Y-96779284D01*
X159802381Y-96684046D01*
X159802381Y-96445951D01*
X159850001Y-96350713D01*
X159897620Y-96303094D01*
X159992858Y-96255475D01*
X160088096Y-96255475D01*
X160230953Y-96303094D01*
X160802381Y-96874522D01*
X160802381Y-96255475D01*
X160802381Y-95303094D02*
X160802381Y-95874522D01*
X160802381Y-95588808D02*
X159802381Y-95588808D01*
X159945239Y-95684046D01*
X160040477Y-95779284D01*
X160088096Y-95874522D01*
X164107142Y-82242142D02*
X164059523Y-82289761D01*
X163916666Y-82337380D01*
X163821428Y-82337380D01*
X163678571Y-82289761D01*
X163583333Y-82194523D01*
X163535714Y-82099285D01*
X163488095Y-81908809D01*
X163488095Y-81765952D01*
X163535714Y-81575476D01*
X163583333Y-81480238D01*
X163678571Y-81385000D01*
X163821428Y-81337380D01*
X163916666Y-81337380D01*
X164059523Y-81385000D01*
X164107142Y-81432619D01*
X165059523Y-82337380D02*
X164488095Y-82337380D01*
X164773809Y-82337380D02*
X164773809Y-81337380D01*
X164678571Y-81480238D01*
X164583333Y-81575476D01*
X164488095Y-81623095D01*
X165678571Y-81337380D02*
X165773809Y-81337380D01*
X165869047Y-81385000D01*
X165916666Y-81432619D01*
X165964285Y-81527857D01*
X166011904Y-81718333D01*
X166011904Y-81956428D01*
X165964285Y-82146904D01*
X165916666Y-82242142D01*
X165869047Y-82289761D01*
X165773809Y-82337380D01*
X165678571Y-82337380D01*
X165583333Y-82289761D01*
X165535714Y-82242142D01*
X165488095Y-82146904D01*
X165440476Y-81956428D01*
X165440476Y-81718333D01*
X165488095Y-81527857D01*
X165535714Y-81432619D01*
X165583333Y-81385000D01*
X165678571Y-81337380D01*
X146497142Y-89737857D02*
X146544761Y-89785476D01*
X146592380Y-89928333D01*
X146592380Y-90023571D01*
X146544761Y-90166428D01*
X146449523Y-90261666D01*
X146354285Y-90309285D01*
X146163809Y-90356904D01*
X146020952Y-90356904D01*
X145830476Y-90309285D01*
X145735238Y-90261666D01*
X145640000Y-90166428D01*
X145592380Y-90023571D01*
X145592380Y-89928333D01*
X145640000Y-89785476D01*
X145687619Y-89737857D01*
X145592380Y-89404523D02*
X145592380Y-88785476D01*
X145973333Y-89118809D01*
X145973333Y-88975952D01*
X146020952Y-88880714D01*
X146068571Y-88833095D01*
X146163809Y-88785476D01*
X146401904Y-88785476D01*
X146497142Y-88833095D01*
X146544761Y-88880714D01*
X146592380Y-88975952D01*
X146592380Y-89261666D01*
X146544761Y-89356904D01*
X146497142Y-89404523D01*
X145592380Y-88166428D02*
X145592380Y-88071190D01*
X145640000Y-87975952D01*
X145687619Y-87928333D01*
X145782857Y-87880714D01*
X145973333Y-87833095D01*
X146211428Y-87833095D01*
X146401904Y-87880714D01*
X146497142Y-87928333D01*
X146544761Y-87975952D01*
X146592380Y-88071190D01*
X146592380Y-88166428D01*
X146544761Y-88261666D01*
X146497142Y-88309285D01*
X146401904Y-88356904D01*
X146211428Y-88404523D01*
X145973333Y-88404523D01*
X145782857Y-88356904D01*
X145687619Y-88309285D01*
X145640000Y-88261666D01*
X145592380Y-88166428D01*
X170052380Y-54366666D02*
X169576190Y-54700000D01*
X170052380Y-54938095D02*
X169052380Y-54938095D01*
X169052380Y-54557142D01*
X169100000Y-54461904D01*
X169147619Y-54414285D01*
X169242857Y-54366666D01*
X169385714Y-54366666D01*
X169480952Y-54414285D01*
X169528571Y-54461904D01*
X169576190Y-54557142D01*
X169576190Y-54938095D01*
X169052380Y-54033333D02*
X169052380Y-53414285D01*
X169433333Y-53747619D01*
X169433333Y-53604761D01*
X169480952Y-53509523D01*
X169528571Y-53461904D01*
X169623809Y-53414285D01*
X169861904Y-53414285D01*
X169957142Y-53461904D01*
X170004761Y-53509523D01*
X170052380Y-53604761D01*
X170052380Y-53890476D01*
X170004761Y-53985714D01*
X169957142Y-54033333D01*
X172666666Y-70322380D02*
X172666666Y-71036666D01*
X172619047Y-71179523D01*
X172523809Y-71274761D01*
X172380952Y-71322380D01*
X172285714Y-71322380D01*
X173619047Y-70322380D02*
X173142857Y-70322380D01*
X173095238Y-70798571D01*
X173142857Y-70750952D01*
X173238095Y-70703333D01*
X173476190Y-70703333D01*
X173571428Y-70750952D01*
X173619047Y-70798571D01*
X173666666Y-70893809D01*
X173666666Y-71131904D01*
X173619047Y-71227142D01*
X173571428Y-71274761D01*
X173476190Y-71322380D01*
X173238095Y-71322380D01*
X173142857Y-71274761D01*
X173095238Y-71227142D01*
X145107142Y-87107142D02*
X145059523Y-87154761D01*
X144916666Y-87202380D01*
X144821428Y-87202380D01*
X144678571Y-87154761D01*
X144583333Y-87059523D01*
X144535714Y-86964285D01*
X144488095Y-86773809D01*
X144488095Y-86630952D01*
X144535714Y-86440476D01*
X144583333Y-86345238D01*
X144678571Y-86250000D01*
X144821428Y-86202380D01*
X144916666Y-86202380D01*
X145059523Y-86250000D01*
X145107142Y-86297619D01*
X145440476Y-86202380D02*
X146059523Y-86202380D01*
X145726190Y-86583333D01*
X145869047Y-86583333D01*
X145964285Y-86630952D01*
X146011904Y-86678571D01*
X146059523Y-86773809D01*
X146059523Y-87011904D01*
X146011904Y-87107142D01*
X145964285Y-87154761D01*
X145869047Y-87202380D01*
X145583333Y-87202380D01*
X145488095Y-87154761D01*
X145440476Y-87107142D01*
X146964285Y-86202380D02*
X146488095Y-86202380D01*
X146440476Y-86678571D01*
X146488095Y-86630952D01*
X146583333Y-86583333D01*
X146821428Y-86583333D01*
X146916666Y-86630952D01*
X146964285Y-86678571D01*
X147011904Y-86773809D01*
X147011904Y-87011904D01*
X146964285Y-87107142D01*
X146916666Y-87154761D01*
X146821428Y-87202380D01*
X146583333Y-87202380D01*
X146488095Y-87154761D01*
X146440476Y-87107142D01*
X147761904Y-86604761D02*
X147904761Y-86652380D01*
X148142857Y-86652380D01*
X148238095Y-86604761D01*
X148285714Y-86557142D01*
X148333333Y-86461904D01*
X148333333Y-86366666D01*
X148285714Y-86271428D01*
X148238095Y-86223809D01*
X148142857Y-86176190D01*
X147952380Y-86128571D01*
X147857142Y-86080952D01*
X147809523Y-86033333D01*
X147761904Y-85938095D01*
X147761904Y-85842857D01*
X147809523Y-85747619D01*
X147857142Y-85700000D01*
X147952380Y-85652380D01*
X148190476Y-85652380D01*
X148333333Y-85700000D01*
X149285714Y-86652380D02*
X148714285Y-86652380D01*
X149000000Y-86652380D02*
X149000000Y-85652380D01*
X148904761Y-85795238D01*
X148809523Y-85890476D01*
X148714285Y-85938095D01*
X149904761Y-85652380D02*
X150000000Y-85652380D01*
X150095238Y-85700000D01*
X150142857Y-85747619D01*
X150190476Y-85842857D01*
X150238095Y-86033333D01*
X150238095Y-86271428D01*
X150190476Y-86461904D01*
X150142857Y-86557142D01*
X150095238Y-86604761D01*
X150000000Y-86652380D01*
X149904761Y-86652380D01*
X149809523Y-86604761D01*
X149761904Y-86557142D01*
X149714285Y-86461904D01*
X149666666Y-86271428D01*
X149666666Y-86033333D01*
X149714285Y-85842857D01*
X149761904Y-85747619D01*
X149809523Y-85700000D01*
X149904761Y-85652380D01*
X149307385Y-68342857D02*
X149355004Y-68390476D01*
X149402623Y-68533333D01*
X149402623Y-68628571D01*
X149355004Y-68771428D01*
X149259766Y-68866666D01*
X149164528Y-68914285D01*
X148974052Y-68961904D01*
X148831195Y-68961904D01*
X148640719Y-68914285D01*
X148545481Y-68866666D01*
X148450243Y-68771428D01*
X148402623Y-68628571D01*
X148402623Y-68533333D01*
X148450243Y-68390476D01*
X148497862Y-68342857D01*
X148735957Y-67485714D02*
X149402623Y-67485714D01*
X148355004Y-67723809D02*
X149069290Y-67961904D01*
X149069290Y-67342857D01*
X148735957Y-66533333D02*
X149402623Y-66533333D01*
X148355004Y-66771428D02*
X149069290Y-67009523D01*
X149069290Y-66390476D01*
X175657142Y-88287142D02*
X175609523Y-88334761D01*
X175466666Y-88382380D01*
X175371428Y-88382380D01*
X175228571Y-88334761D01*
X175133333Y-88239523D01*
X175085714Y-88144285D01*
X175038095Y-87953809D01*
X175038095Y-87810952D01*
X175085714Y-87620476D01*
X175133333Y-87525238D01*
X175228571Y-87430000D01*
X175371428Y-87382380D01*
X175466666Y-87382380D01*
X175609523Y-87430000D01*
X175657142Y-87477619D01*
X176609523Y-88382380D02*
X176038095Y-88382380D01*
X176323809Y-88382380D02*
X176323809Y-87382380D01*
X176228571Y-87525238D01*
X176133333Y-87620476D01*
X176038095Y-87668095D01*
X177561904Y-88382380D02*
X176990476Y-88382380D01*
X177276190Y-88382380D02*
X177276190Y-87382380D01*
X177180952Y-87525238D01*
X177085714Y-87620476D01*
X176990476Y-87668095D01*
X176452380Y-54366666D02*
X175976190Y-54700000D01*
X176452380Y-54938095D02*
X175452380Y-54938095D01*
X175452380Y-54557142D01*
X175500000Y-54461904D01*
X175547619Y-54414285D01*
X175642857Y-54366666D01*
X175785714Y-54366666D01*
X175880952Y-54414285D01*
X175928571Y-54461904D01*
X175976190Y-54557142D01*
X175976190Y-54938095D01*
X175452380Y-53509523D02*
X175452380Y-53700000D01*
X175500000Y-53795238D01*
X175547619Y-53842857D01*
X175690476Y-53938095D01*
X175880952Y-53985714D01*
X176261904Y-53985714D01*
X176357142Y-53938095D01*
X176404761Y-53890476D01*
X176452380Y-53795238D01*
X176452380Y-53604761D01*
X176404761Y-53509523D01*
X176357142Y-53461904D01*
X176261904Y-53414285D01*
X176023809Y-53414285D01*
X175928571Y-53461904D01*
X175880952Y-53509523D01*
X175833333Y-53604761D01*
X175833333Y-53795238D01*
X175880952Y-53890476D01*
X175928571Y-53938095D01*
X176023809Y-53985714D01*
X175983333Y-58177380D02*
X175650000Y-57701190D01*
X175411904Y-58177380D02*
X175411904Y-57177380D01*
X175792857Y-57177380D01*
X175888095Y-57225000D01*
X175935714Y-57272619D01*
X175983333Y-57367857D01*
X175983333Y-57510714D01*
X175935714Y-57605952D01*
X175888095Y-57653571D01*
X175792857Y-57701190D01*
X175411904Y-57701190D01*
X176316666Y-57177380D02*
X176983333Y-57177380D01*
X176554761Y-58177380D01*
X160247142Y-73716666D02*
X160294761Y-73764285D01*
X160342380Y-73907142D01*
X160342380Y-74002380D01*
X160294761Y-74145238D01*
X160199523Y-74240476D01*
X160104285Y-74288095D01*
X159913809Y-74335714D01*
X159770952Y-74335714D01*
X159580476Y-74288095D01*
X159485238Y-74240476D01*
X159390000Y-74145238D01*
X159342380Y-74002380D01*
X159342380Y-73907142D01*
X159390000Y-73764285D01*
X159437619Y-73716666D01*
X159342380Y-73383333D02*
X159342380Y-72764285D01*
X159723333Y-73097619D01*
X159723333Y-72954761D01*
X159770952Y-72859523D01*
X159818571Y-72811904D01*
X159913809Y-72764285D01*
X160151904Y-72764285D01*
X160247142Y-72811904D01*
X160294761Y-72859523D01*
X160342380Y-72954761D01*
X160342380Y-73240476D01*
X160294761Y-73335714D01*
X160247142Y-73383333D01*
X167238095Y-78604761D02*
X167380952Y-78652380D01*
X167619047Y-78652380D01*
X167714285Y-78604761D01*
X167761904Y-78557142D01*
X167809523Y-78461904D01*
X167809523Y-78366666D01*
X167761904Y-78271428D01*
X167714285Y-78223809D01*
X167619047Y-78176190D01*
X167428571Y-78128571D01*
X167333333Y-78080952D01*
X167285714Y-78033333D01*
X167238095Y-77938095D01*
X167238095Y-77842857D01*
X167285714Y-77747619D01*
X167333333Y-77700000D01*
X167428571Y-77652380D01*
X167666666Y-77652380D01*
X167809523Y-77700000D01*
X168190476Y-77747619D02*
X168238095Y-77700000D01*
X168333333Y-77652380D01*
X168571428Y-77652380D01*
X168666666Y-77700000D01*
X168714285Y-77747619D01*
X168761904Y-77842857D01*
X168761904Y-77938095D01*
X168714285Y-78080952D01*
X168142857Y-78652380D01*
X168761904Y-78652380D01*
D12*
X169985238Y-60549523D02*
X169985238Y-59279523D01*
X171315714Y-60428571D02*
X171255238Y-60489047D01*
X171073809Y-60549523D01*
X170952857Y-60549523D01*
X170771428Y-60489047D01*
X170650476Y-60368095D01*
X170590000Y-60247142D01*
X170529523Y-60005238D01*
X170529523Y-59823809D01*
X170590000Y-59581904D01*
X170650476Y-59460952D01*
X170771428Y-59340000D01*
X170952857Y-59279523D01*
X171073809Y-59279523D01*
X171255238Y-59340000D01*
X171315714Y-59400476D01*
X172525238Y-60549523D02*
X171799523Y-60549523D01*
X172162380Y-60549523D02*
X172162380Y-59279523D01*
X172041428Y-59460952D01*
X171920476Y-59581904D01*
X171799523Y-59642380D01*
D10*
X171352380Y-54366666D02*
X170876190Y-54700000D01*
X171352380Y-54938095D02*
X170352380Y-54938095D01*
X170352380Y-54557142D01*
X170400000Y-54461904D01*
X170447619Y-54414285D01*
X170542857Y-54366666D01*
X170685714Y-54366666D01*
X170780952Y-54414285D01*
X170828571Y-54461904D01*
X170876190Y-54557142D01*
X170876190Y-54938095D01*
X170685714Y-53509523D02*
X171352380Y-53509523D01*
X170304761Y-53747619D02*
X171019047Y-53985714D01*
X171019047Y-53366666D01*
X158466666Y-97052380D02*
X158466666Y-97766666D01*
X158419047Y-97909523D01*
X158323809Y-98004761D01*
X158180952Y-98052380D01*
X158085714Y-98052380D01*
X159371428Y-97052380D02*
X159180952Y-97052380D01*
X159085714Y-97100000D01*
X159038095Y-97147619D01*
X158942857Y-97290476D01*
X158895238Y-97480952D01*
X158895238Y-97861904D01*
X158942857Y-97957142D01*
X158990476Y-98004761D01*
X159085714Y-98052380D01*
X159276190Y-98052380D01*
X159371428Y-98004761D01*
X159419047Y-97957142D01*
X159466666Y-97861904D01*
X159466666Y-97623809D01*
X159419047Y-97528571D01*
X159371428Y-97480952D01*
X159276190Y-97433333D01*
X159085714Y-97433333D01*
X158990476Y-97480952D01*
X158942857Y-97528571D01*
X158895238Y-97623809D01*
X175857142Y-95857142D02*
X175809523Y-95904761D01*
X175666666Y-95952380D01*
X175571428Y-95952380D01*
X175428571Y-95904761D01*
X175333333Y-95809523D01*
X175285714Y-95714285D01*
X175238095Y-95523809D01*
X175238095Y-95380952D01*
X175285714Y-95190476D01*
X175333333Y-95095238D01*
X175428571Y-95000000D01*
X175571428Y-94952380D01*
X175666666Y-94952380D01*
X175809523Y-95000000D01*
X175857142Y-95047619D01*
X176809523Y-95952380D02*
X176238095Y-95952380D01*
X176523809Y-95952380D02*
X176523809Y-94952380D01*
X176428571Y-95095238D01*
X176333333Y-95190476D01*
X176238095Y-95238095D01*
X177666666Y-94952380D02*
X177476190Y-94952380D01*
X177380952Y-95000000D01*
X177333333Y-95047619D01*
X177238095Y-95190476D01*
X177190476Y-95380952D01*
X177190476Y-95761904D01*
X177238095Y-95857142D01*
X177285714Y-95904761D01*
X177380952Y-95952380D01*
X177571428Y-95952380D01*
X177666666Y-95904761D01*
X177714285Y-95857142D01*
X177761904Y-95761904D01*
X177761904Y-95523809D01*
X177714285Y-95428571D01*
X177666666Y-95380952D01*
X177571428Y-95333333D01*
X177380952Y-95333333D01*
X177285714Y-95380952D01*
X177238095Y-95428571D01*
X177190476Y-95523809D01*
X170538095Y-88504761D02*
X170680952Y-88552380D01*
X170919047Y-88552380D01*
X171014285Y-88504761D01*
X171061904Y-88457142D01*
X171109523Y-88361904D01*
X171109523Y-88266666D01*
X171061904Y-88171428D01*
X171014285Y-88123809D01*
X170919047Y-88076190D01*
X170728571Y-88028571D01*
X170633333Y-87980952D01*
X170585714Y-87933333D01*
X170538095Y-87838095D01*
X170538095Y-87742857D01*
X170585714Y-87647619D01*
X170633333Y-87600000D01*
X170728571Y-87552380D01*
X170966666Y-87552380D01*
X171109523Y-87600000D01*
X171966666Y-87885714D02*
X171966666Y-88552380D01*
X171728571Y-87504761D02*
X171490476Y-88219047D01*
X172109523Y-88219047D01*
X169857142Y-97157142D02*
X169809523Y-97204761D01*
X169666666Y-97252380D01*
X169571428Y-97252380D01*
X169428571Y-97204761D01*
X169333333Y-97109523D01*
X169285714Y-97014285D01*
X169238095Y-96823809D01*
X169238095Y-96680952D01*
X169285714Y-96490476D01*
X169333333Y-96395238D01*
X169428571Y-96300000D01*
X169571428Y-96252380D01*
X169666666Y-96252380D01*
X169809523Y-96300000D01*
X169857142Y-96347619D01*
X170809523Y-97252380D02*
X170238095Y-97252380D01*
X170523809Y-97252380D02*
X170523809Y-96252380D01*
X170428571Y-96395238D01*
X170333333Y-96490476D01*
X170238095Y-96538095D01*
X171666666Y-96585714D02*
X171666666Y-97252380D01*
X171428571Y-96204761D02*
X171190476Y-96919047D01*
X171809523Y-96919047D01*
X176808333Y-60402380D02*
X176475000Y-59926190D01*
X176236904Y-60402380D02*
X176236904Y-59402380D01*
X176617857Y-59402380D01*
X176713095Y-59450000D01*
X176760714Y-59497619D01*
X176808333Y-59592857D01*
X176808333Y-59735714D01*
X176760714Y-59830952D01*
X176713095Y-59878571D01*
X176617857Y-59926190D01*
X176236904Y-59926190D01*
X177284523Y-60402380D02*
X177475000Y-60402380D01*
X177570238Y-60354761D01*
X177617857Y-60307142D01*
X177713095Y-60164285D01*
X177760714Y-59973809D01*
X177760714Y-59592857D01*
X177713095Y-59497619D01*
X177665476Y-59450000D01*
X177570238Y-59402380D01*
X177379761Y-59402380D01*
X177284523Y-59450000D01*
X177236904Y-59497619D01*
X177189285Y-59592857D01*
X177189285Y-59830952D01*
X177236904Y-59926190D01*
X177284523Y-59973809D01*
X177379761Y-60021428D01*
X177570238Y-60021428D01*
X177665476Y-59973809D01*
X177713095Y-59926190D01*
X177760714Y-59830952D01*
X176557142Y-91117142D02*
X176509523Y-91164761D01*
X176366666Y-91212380D01*
X176271428Y-91212380D01*
X176128571Y-91164761D01*
X176033333Y-91069523D01*
X175985714Y-90974285D01*
X175938095Y-90783809D01*
X175938095Y-90640952D01*
X175985714Y-90450476D01*
X176033333Y-90355238D01*
X176128571Y-90260000D01*
X176271428Y-90212380D01*
X176366666Y-90212380D01*
X176509523Y-90260000D01*
X176557142Y-90307619D01*
X177509523Y-91212380D02*
X176938095Y-91212380D01*
X177223809Y-91212380D02*
X177223809Y-90212380D01*
X177128571Y-90355238D01*
X177033333Y-90450476D01*
X176938095Y-90498095D01*
X177842857Y-90212380D02*
X178461904Y-90212380D01*
X178128571Y-90593333D01*
X178271428Y-90593333D01*
X178366666Y-90640952D01*
X178414285Y-90688571D01*
X178461904Y-90783809D01*
X178461904Y-91021904D01*
X178414285Y-91117142D01*
X178366666Y-91164761D01*
X178271428Y-91212380D01*
X177985714Y-91212380D01*
X177890476Y-91164761D01*
X177842857Y-91117142D01*
X138992142Y-69142613D02*
X139039761Y-69190232D01*
X139087380Y-69333089D01*
X139087380Y-69428327D01*
X139039761Y-69571184D01*
X138944523Y-69666422D01*
X138849285Y-69714041D01*
X138658809Y-69761660D01*
X138515952Y-69761660D01*
X138325476Y-69714041D01*
X138230238Y-69666422D01*
X138135000Y-69571184D01*
X138087380Y-69428327D01*
X138087380Y-69333089D01*
X138135000Y-69190232D01*
X138182619Y-69142613D01*
X138420714Y-68285470D02*
X139087380Y-68285470D01*
X138039761Y-68523565D02*
X138754047Y-68761660D01*
X138754047Y-68142613D01*
X138087380Y-67285470D02*
X138087380Y-67761660D01*
X138563571Y-67809279D01*
X138515952Y-67761660D01*
X138468333Y-67666422D01*
X138468333Y-67428327D01*
X138515952Y-67333089D01*
X138563571Y-67285470D01*
X138658809Y-67237851D01*
X138896904Y-67237851D01*
X138992142Y-67285470D01*
X139039761Y-67333089D01*
X139087380Y-67428327D01*
X139087380Y-67666422D01*
X139039761Y-67761660D01*
X138992142Y-67809279D01*
X159247142Y-82787856D02*
X159294761Y-82835475D01*
X159342380Y-82978332D01*
X159342380Y-83073570D01*
X159294761Y-83216427D01*
X159199523Y-83311665D01*
X159104285Y-83359284D01*
X158913809Y-83406903D01*
X158770952Y-83406903D01*
X158580476Y-83359284D01*
X158485238Y-83311665D01*
X158390000Y-83216427D01*
X158342380Y-83073570D01*
X158342380Y-82978332D01*
X158390000Y-82835475D01*
X158437619Y-82787856D01*
X158437619Y-82406903D02*
X158390000Y-82359284D01*
X158342380Y-82264046D01*
X158342380Y-82025951D01*
X158390000Y-81930713D01*
X158437619Y-81883094D01*
X158532857Y-81835475D01*
X158628095Y-81835475D01*
X158770952Y-81883094D01*
X159342380Y-82454522D01*
X159342380Y-81835475D01*
X158342380Y-80930713D02*
X158342380Y-81406903D01*
X158818571Y-81454522D01*
X158770952Y-81406903D01*
X158723333Y-81311665D01*
X158723333Y-81073570D01*
X158770952Y-80978332D01*
X158818571Y-80930713D01*
X158913809Y-80883094D01*
X159151904Y-80883094D01*
X159247142Y-80930713D01*
X159294761Y-80978332D01*
X159342380Y-81073570D01*
X159342380Y-81311665D01*
X159294761Y-81406903D01*
X159247142Y-81454522D01*
X172332142Y-56532142D02*
X172284523Y-56579761D01*
X172141666Y-56627380D01*
X172046428Y-56627380D01*
X171903571Y-56579761D01*
X171808333Y-56484523D01*
X171760714Y-56389285D01*
X171713095Y-56198809D01*
X171713095Y-56055952D01*
X171760714Y-55865476D01*
X171808333Y-55770238D01*
X171903571Y-55675000D01*
X172046428Y-55627380D01*
X172141666Y-55627380D01*
X172284523Y-55675000D01*
X172332142Y-55722619D01*
X173189285Y-55960714D02*
X173189285Y-56627380D01*
X172951190Y-55579761D02*
X172713095Y-56294047D01*
X173332142Y-56294047D01*
X174236904Y-56627380D02*
X173665476Y-56627380D01*
X173951190Y-56627380D02*
X173951190Y-55627380D01*
X173855952Y-55770238D01*
X173760714Y-55865476D01*
X173665476Y-55913095D01*
X171204761Y-81761904D02*
X171252380Y-81619047D01*
X171252380Y-81380952D01*
X171204761Y-81285714D01*
X171157142Y-81238095D01*
X171061904Y-81190476D01*
X170966666Y-81190476D01*
X170871428Y-81238095D01*
X170823809Y-81285714D01*
X170776190Y-81380952D01*
X170728571Y-81571428D01*
X170680952Y-81666666D01*
X170633333Y-81714285D01*
X170538095Y-81761904D01*
X170442857Y-81761904D01*
X170347619Y-81714285D01*
X170300000Y-81666666D01*
X170252380Y-81571428D01*
X170252380Y-81333333D01*
X170300000Y-81190476D01*
X170252380Y-80857142D02*
X170252380Y-80238095D01*
X170633333Y-80571428D01*
X170633333Y-80428571D01*
X170680952Y-80333333D01*
X170728571Y-80285714D01*
X170823809Y-80238095D01*
X171061904Y-80238095D01*
X171157142Y-80285714D01*
X171204761Y-80333333D01*
X171252380Y-80428571D01*
X171252380Y-80714285D01*
X171204761Y-80809523D01*
X171157142Y-80857142D01*
X158466666Y-61052380D02*
X158466666Y-61766666D01*
X158419047Y-61909523D01*
X158323809Y-62004761D01*
X158180952Y-62052380D01*
X158085714Y-62052380D01*
X159371428Y-61385714D02*
X159371428Y-62052380D01*
X159133333Y-61004761D02*
X158895238Y-61719047D01*
X159514285Y-61719047D01*
X150604761Y-66638095D02*
X150652380Y-66495238D01*
X150652380Y-66257142D01*
X150604761Y-66161904D01*
X150557142Y-66114285D01*
X150461904Y-66066666D01*
X150366666Y-66066666D01*
X150271428Y-66114285D01*
X150223809Y-66161904D01*
X150176190Y-66257142D01*
X150128571Y-66447619D01*
X150080952Y-66542857D01*
X150033333Y-66590476D01*
X149938095Y-66638095D01*
X149842857Y-66638095D01*
X149747619Y-66590476D01*
X149700000Y-66542857D01*
X149652380Y-66447619D01*
X149652380Y-66209523D01*
X149700000Y-66066666D01*
X150652380Y-65114285D02*
X150652380Y-65685714D01*
X150652380Y-65400000D02*
X149652380Y-65400000D01*
X149795238Y-65495238D01*
X149890476Y-65590476D01*
X149938095Y-65685714D01*
X149652380Y-64257142D02*
X149652380Y-64447619D01*
X149700000Y-64542857D01*
X149747619Y-64590476D01*
X149890476Y-64685714D01*
X150080952Y-64733333D01*
X150461904Y-64733333D01*
X150557142Y-64685714D01*
X150604761Y-64638095D01*
X150652380Y-64542857D01*
X150652380Y-64352380D01*
X150604761Y-64257142D01*
X150557142Y-64209523D01*
X150461904Y-64161904D01*
X150223809Y-64161904D01*
X150128571Y-64209523D01*
X150080952Y-64257142D01*
X150033333Y-64352380D01*
X150033333Y-64542857D01*
X150080952Y-64638095D01*
X150128571Y-64685714D01*
X150223809Y-64733333D01*
X159238095Y-76304761D02*
X159380952Y-76352380D01*
X159619047Y-76352380D01*
X159714285Y-76304761D01*
X159761904Y-76257142D01*
X159809523Y-76161904D01*
X159809523Y-76066666D01*
X159761904Y-75971428D01*
X159714285Y-75923809D01*
X159619047Y-75876190D01*
X159428571Y-75828571D01*
X159333333Y-75780952D01*
X159285714Y-75733333D01*
X159238095Y-75638095D01*
X159238095Y-75542857D01*
X159285714Y-75447619D01*
X159333333Y-75400000D01*
X159428571Y-75352380D01*
X159666666Y-75352380D01*
X159809523Y-75400000D01*
X160761904Y-76352380D02*
X160190476Y-76352380D01*
X160476190Y-76352380D02*
X160476190Y-75352380D01*
X160380952Y-75495238D01*
X160285714Y-75590476D01*
X160190476Y-75638095D01*
X167033333Y-86757142D02*
X166985714Y-86804761D01*
X166842857Y-86852380D01*
X166747619Y-86852380D01*
X166604761Y-86804761D01*
X166509523Y-86709523D01*
X166461904Y-86614285D01*
X166414285Y-86423809D01*
X166414285Y-86280952D01*
X166461904Y-86090476D01*
X166509523Y-85995238D01*
X166604761Y-85900000D01*
X166747619Y-85852380D01*
X166842857Y-85852380D01*
X166985714Y-85900000D01*
X167033333Y-85947619D01*
X167509523Y-86852380D02*
X167700000Y-86852380D01*
X167795238Y-86804761D01*
X167842857Y-86757142D01*
X167938095Y-86614285D01*
X167985714Y-86423809D01*
X167985714Y-86042857D01*
X167938095Y-85947619D01*
X167890476Y-85900000D01*
X167795238Y-85852380D01*
X167604761Y-85852380D01*
X167509523Y-85900000D01*
X167461904Y-85947619D01*
X167414285Y-86042857D01*
X167414285Y-86280952D01*
X167461904Y-86376190D01*
X167509523Y-86423809D01*
X167604761Y-86471428D01*
X167795238Y-86471428D01*
X167890476Y-86423809D01*
X167938095Y-86376190D01*
X167985714Y-86280952D01*
X165957142Y-79766666D02*
X166004761Y-79814285D01*
X166052380Y-79957142D01*
X166052380Y-80052380D01*
X166004761Y-80195238D01*
X165909523Y-80290476D01*
X165814285Y-80338095D01*
X165623809Y-80385714D01*
X165480952Y-80385714D01*
X165290476Y-80338095D01*
X165195238Y-80290476D01*
X165100000Y-80195238D01*
X165052380Y-80052380D01*
X165052380Y-79957142D01*
X165100000Y-79814285D01*
X165147619Y-79766666D01*
X165385714Y-78909523D02*
X166052380Y-78909523D01*
X165004761Y-79147619D02*
X165719047Y-79385714D01*
X165719047Y-78766666D01*
X135461904Y-62904761D02*
X135604761Y-62952380D01*
X135842857Y-62952380D01*
X135938095Y-62904761D01*
X135985714Y-62857142D01*
X136033333Y-62761904D01*
X136033333Y-62666666D01*
X135985714Y-62571428D01*
X135938095Y-62523809D01*
X135842857Y-62476190D01*
X135652380Y-62428571D01*
X135557142Y-62380952D01*
X135509523Y-62333333D01*
X135461904Y-62238095D01*
X135461904Y-62142857D01*
X135509523Y-62047619D01*
X135557142Y-62000000D01*
X135652380Y-61952380D01*
X135890476Y-61952380D01*
X136033333Y-62000000D01*
X136985714Y-62952380D02*
X136414285Y-62952380D01*
X136700000Y-62952380D02*
X136700000Y-61952380D01*
X136604761Y-62095238D01*
X136509523Y-62190476D01*
X136414285Y-62238095D01*
X137890476Y-61952380D02*
X137414285Y-61952380D01*
X137366666Y-62428571D01*
X137414285Y-62380952D01*
X137509523Y-62333333D01*
X137747619Y-62333333D01*
X137842857Y-62380952D01*
X137890476Y-62428571D01*
X137938095Y-62523809D01*
X137938095Y-62761904D01*
X137890476Y-62857142D01*
X137842857Y-62904761D01*
X137747619Y-62952380D01*
X137509523Y-62952380D01*
X137414285Y-62904761D01*
X137366666Y-62857142D01*
X159438095Y-86504761D02*
X159580952Y-86552380D01*
X159819047Y-86552380D01*
X159914285Y-86504761D01*
X159961904Y-86457142D01*
X160009523Y-86361904D01*
X160009523Y-86266666D01*
X159961904Y-86171428D01*
X159914285Y-86123809D01*
X159819047Y-86076190D01*
X159628571Y-86028571D01*
X159533333Y-85980952D01*
X159485714Y-85933333D01*
X159438095Y-85838095D01*
X159438095Y-85742857D01*
X159485714Y-85647619D01*
X159533333Y-85600000D01*
X159628571Y-85552380D01*
X159866666Y-85552380D01*
X160009523Y-85600000D01*
X160485714Y-86552380D02*
X160676190Y-86552380D01*
X160771428Y-86504761D01*
X160819047Y-86457142D01*
X160914285Y-86314285D01*
X160961904Y-86123809D01*
X160961904Y-85742857D01*
X160914285Y-85647619D01*
X160866666Y-85600000D01*
X160771428Y-85552380D01*
X160580952Y-85552380D01*
X160485714Y-85600000D01*
X160438095Y-85647619D01*
X160390476Y-85742857D01*
X160390476Y-85980952D01*
X160438095Y-86076190D01*
X160485714Y-86123809D01*
X160580952Y-86171428D01*
X160771428Y-86171428D01*
X160866666Y-86123809D01*
X160914285Y-86076190D01*
X160961904Y-85980952D01*
X166557142Y-90442857D02*
X166604761Y-90490476D01*
X166652380Y-90633333D01*
X166652380Y-90728571D01*
X166604761Y-90871428D01*
X166509523Y-90966666D01*
X166414285Y-91014285D01*
X166223809Y-91061904D01*
X166080952Y-91061904D01*
X165890476Y-91014285D01*
X165795238Y-90966666D01*
X165700000Y-90871428D01*
X165652380Y-90728571D01*
X165652380Y-90633333D01*
X165700000Y-90490476D01*
X165747619Y-90442857D01*
X165747619Y-90061904D02*
X165700000Y-90014285D01*
X165652380Y-89919047D01*
X165652380Y-89680952D01*
X165700000Y-89585714D01*
X165747619Y-89538095D01*
X165842857Y-89490476D01*
X165938095Y-89490476D01*
X166080952Y-89538095D01*
X166652380Y-90109523D01*
X166652380Y-89490476D01*
X165652380Y-88871428D02*
X165652380Y-88776190D01*
X165700000Y-88680952D01*
X165747619Y-88633333D01*
X165842857Y-88585714D01*
X166033333Y-88538095D01*
X166271428Y-88538095D01*
X166461904Y-88585714D01*
X166557142Y-88633333D01*
X166604761Y-88680952D01*
X166652380Y-88776190D01*
X166652380Y-88871428D01*
X166604761Y-88966666D01*
X166557142Y-89014285D01*
X166461904Y-89061904D01*
X166271428Y-89109523D01*
X166033333Y-89109523D01*
X165842857Y-89061904D01*
X165747619Y-89014285D01*
X165700000Y-88966666D01*
X165652380Y-88871428D01*
X138592142Y-99117857D02*
X138639761Y-99165476D01*
X138687380Y-99308333D01*
X138687380Y-99403571D01*
X138639761Y-99546428D01*
X138544523Y-99641666D01*
X138449285Y-99689285D01*
X138258809Y-99736904D01*
X138115952Y-99736904D01*
X137925476Y-99689285D01*
X137830238Y-99641666D01*
X137735000Y-99546428D01*
X137687380Y-99403571D01*
X137687380Y-99308333D01*
X137735000Y-99165476D01*
X137782619Y-99117857D01*
X137687380Y-98784523D02*
X137687380Y-98165476D01*
X138068333Y-98498809D01*
X138068333Y-98355952D01*
X138115952Y-98260714D01*
X138163571Y-98213095D01*
X138258809Y-98165476D01*
X138496904Y-98165476D01*
X138592142Y-98213095D01*
X138639761Y-98260714D01*
X138687380Y-98355952D01*
X138687380Y-98641666D01*
X138639761Y-98736904D01*
X138592142Y-98784523D01*
X138687380Y-97213095D02*
X138687380Y-97784523D01*
X138687380Y-97498809D02*
X137687380Y-97498809D01*
X137830238Y-97594047D01*
X137925476Y-97689285D01*
X137973095Y-97784523D01*
X151607386Y-61496898D02*
X151559767Y-61544517D01*
X151416910Y-61592136D01*
X151321672Y-61592136D01*
X151178815Y-61544517D01*
X151083577Y-61449279D01*
X151035958Y-61354041D01*
X150988339Y-61163565D01*
X150988339Y-61020708D01*
X151035958Y-60830232D01*
X151083577Y-60734994D01*
X151178815Y-60639756D01*
X151321672Y-60592136D01*
X151416910Y-60592136D01*
X151559767Y-60639756D01*
X151607386Y-60687375D01*
X152464529Y-60925470D02*
X152464529Y-61592136D01*
X152226434Y-60544517D02*
X151988339Y-61258803D01*
X152607386Y-61258803D01*
X153416910Y-60592136D02*
X153226434Y-60592136D01*
X153131196Y-60639756D01*
X153083577Y-60687375D01*
X152988339Y-60830232D01*
X152940720Y-61020708D01*
X152940720Y-61401660D01*
X152988339Y-61496898D01*
X153035958Y-61544517D01*
X153131196Y-61592136D01*
X153321672Y-61592136D01*
X153416910Y-61544517D01*
X153464529Y-61496898D01*
X153512148Y-61401660D01*
X153512148Y-61163565D01*
X153464529Y-61068327D01*
X153416910Y-61020708D01*
X153321672Y-60973089D01*
X153131196Y-60973089D01*
X153035958Y-61020708D01*
X152988339Y-61068327D01*
X152940720Y-61163565D01*
X167438095Y-91904761D02*
X167580952Y-91952380D01*
X167819047Y-91952380D01*
X167914285Y-91904761D01*
X167961904Y-91857142D01*
X168009523Y-91761904D01*
X168009523Y-91666666D01*
X167961904Y-91571428D01*
X167914285Y-91523809D01*
X167819047Y-91476190D01*
X167628571Y-91428571D01*
X167533333Y-91380952D01*
X167485714Y-91333333D01*
X167438095Y-91238095D01*
X167438095Y-91142857D01*
X167485714Y-91047619D01*
X167533333Y-91000000D01*
X167628571Y-90952380D01*
X167866666Y-90952380D01*
X168009523Y-91000000D01*
X168342857Y-90952380D02*
X169009523Y-90952380D01*
X168580952Y-91952380D01*
X167557142Y-98242857D02*
X167604761Y-98290476D01*
X167652380Y-98433333D01*
X167652380Y-98528571D01*
X167604761Y-98671428D01*
X167509523Y-98766666D01*
X167414285Y-98814285D01*
X167223809Y-98861904D01*
X167080952Y-98861904D01*
X166890476Y-98814285D01*
X166795238Y-98766666D01*
X166700000Y-98671428D01*
X166652380Y-98528571D01*
X166652380Y-98433333D01*
X166700000Y-98290476D01*
X166747619Y-98242857D01*
X167652380Y-97290476D02*
X167652380Y-97861904D01*
X167652380Y-97576190D02*
X166652380Y-97576190D01*
X166795238Y-97671428D01*
X166890476Y-97766666D01*
X166938095Y-97861904D01*
X167080952Y-96719047D02*
X167033333Y-96814285D01*
X166985714Y-96861904D01*
X166890476Y-96909523D01*
X166842857Y-96909523D01*
X166747619Y-96861904D01*
X166700000Y-96814285D01*
X166652380Y-96719047D01*
X166652380Y-96528571D01*
X166700000Y-96433333D01*
X166747619Y-96385714D01*
X166842857Y-96338095D01*
X166890476Y-96338095D01*
X166985714Y-96385714D01*
X167033333Y-96433333D01*
X167080952Y-96528571D01*
X167080952Y-96719047D01*
X167128571Y-96814285D01*
X167176190Y-96861904D01*
X167271428Y-96909523D01*
X167461904Y-96909523D01*
X167557142Y-96861904D01*
X167604761Y-96814285D01*
X167652380Y-96719047D01*
X167652380Y-96528571D01*
X167604761Y-96433333D01*
X167557142Y-96385714D01*
X167461904Y-96338095D01*
X167271428Y-96338095D01*
X167176190Y-96385714D01*
X167128571Y-96433333D01*
X167080952Y-96528571D01*
X175152380Y-54366666D02*
X174676190Y-54700000D01*
X175152380Y-54938095D02*
X174152380Y-54938095D01*
X174152380Y-54557142D01*
X174200000Y-54461904D01*
X174247619Y-54414285D01*
X174342857Y-54366666D01*
X174485714Y-54366666D01*
X174580952Y-54414285D01*
X174628571Y-54461904D01*
X174676190Y-54557142D01*
X174676190Y-54938095D01*
X174152380Y-53461904D02*
X174152380Y-53938095D01*
X174628571Y-53985714D01*
X174580952Y-53938095D01*
X174533333Y-53842857D01*
X174533333Y-53604761D01*
X174580952Y-53509523D01*
X174628571Y-53461904D01*
X174723809Y-53414285D01*
X174961904Y-53414285D01*
X175057142Y-53461904D01*
X175104761Y-53509523D01*
X175152380Y-53604761D01*
X175152380Y-53842857D01*
X175104761Y-53938095D01*
X175057142Y-53985714D01*
X159833333Y-78557142D02*
X159785714Y-78604761D01*
X159642857Y-78652380D01*
X159547619Y-78652380D01*
X159404761Y-78604761D01*
X159309523Y-78509523D01*
X159261904Y-78414285D01*
X159214285Y-78223809D01*
X159214285Y-78080952D01*
X159261904Y-77890476D01*
X159309523Y-77795238D01*
X159404761Y-77700000D01*
X159547619Y-77652380D01*
X159642857Y-77652380D01*
X159785714Y-77700000D01*
X159833333Y-77747619D01*
X160785714Y-78652380D02*
X160214285Y-78652380D01*
X160500000Y-78652380D02*
X160500000Y-77652380D01*
X160404761Y-77795238D01*
X160309523Y-77890476D01*
X160214285Y-77938095D01*
X154666666Y-71702380D02*
X154666666Y-72416666D01*
X154619047Y-72559523D01*
X154523809Y-72654761D01*
X154380952Y-72702380D01*
X154285714Y-72702380D01*
X155666666Y-72702380D02*
X155095238Y-72702380D01*
X155380952Y-72702380D02*
X155380952Y-71702380D01*
X155285714Y-71845238D01*
X155190476Y-71940476D01*
X155095238Y-71988095D01*
X144511904Y-84904761D02*
X144654761Y-84952380D01*
X144892857Y-84952380D01*
X144988095Y-84904761D01*
X145035714Y-84857142D01*
X145083333Y-84761904D01*
X145083333Y-84666666D01*
X145035714Y-84571428D01*
X144988095Y-84523809D01*
X144892857Y-84476190D01*
X144702380Y-84428571D01*
X144607142Y-84380952D01*
X144559523Y-84333333D01*
X144511904Y-84238095D01*
X144511904Y-84142857D01*
X144559523Y-84047619D01*
X144607142Y-84000000D01*
X144702380Y-83952380D01*
X144940476Y-83952380D01*
X145083333Y-84000000D01*
X146035714Y-84952380D02*
X145464285Y-84952380D01*
X145750000Y-84952380D02*
X145750000Y-83952380D01*
X145654761Y-84095238D01*
X145559523Y-84190476D01*
X145464285Y-84238095D01*
X146369047Y-83952380D02*
X146988095Y-83952380D01*
X146654761Y-84333333D01*
X146797619Y-84333333D01*
X146892857Y-84380952D01*
X146940476Y-84428571D01*
X146988095Y-84523809D01*
X146988095Y-84761904D01*
X146940476Y-84857142D01*
X146892857Y-84904761D01*
X146797619Y-84952380D01*
X146511904Y-84952380D01*
X146416666Y-84904761D01*
X146369047Y-84857142D01*
X137607142Y-90357142D02*
X137559523Y-90404761D01*
X137416666Y-90452380D01*
X137321428Y-90452380D01*
X137178571Y-90404761D01*
X137083333Y-90309523D01*
X137035714Y-90214285D01*
X136988095Y-90023809D01*
X136988095Y-89880952D01*
X137035714Y-89690476D01*
X137083333Y-89595238D01*
X137178571Y-89500000D01*
X137321428Y-89452380D01*
X137416666Y-89452380D01*
X137559523Y-89500000D01*
X137607142Y-89547619D01*
X137988095Y-89547619D02*
X138035714Y-89500000D01*
X138130952Y-89452380D01*
X138369047Y-89452380D01*
X138464285Y-89500000D01*
X138511904Y-89547619D01*
X138559523Y-89642857D01*
X138559523Y-89738095D01*
X138511904Y-89880952D01*
X137940476Y-90452380D01*
X138559523Y-90452380D01*
X139035714Y-90452380D02*
X139226190Y-90452380D01*
X139321428Y-90404761D01*
X139369047Y-90357142D01*
X139464285Y-90214285D01*
X139511904Y-90023809D01*
X139511904Y-89642857D01*
X139464285Y-89547619D01*
X139416666Y-89500000D01*
X139321428Y-89452380D01*
X139130952Y-89452380D01*
X139035714Y-89500000D01*
X138988095Y-89547619D01*
X138940476Y-89642857D01*
X138940476Y-89880952D01*
X138988095Y-89976190D01*
X139035714Y-90023809D01*
X139130952Y-90071428D01*
X139321428Y-90071428D01*
X139416666Y-90023809D01*
X139464285Y-89976190D01*
X139511904Y-89880952D01*
X140132142Y-73457142D02*
X140084523Y-73504761D01*
X139941666Y-73552380D01*
X139846428Y-73552380D01*
X139703571Y-73504761D01*
X139608333Y-73409523D01*
X139560714Y-73314285D01*
X139513095Y-73123809D01*
X139513095Y-72980952D01*
X139560714Y-72790476D01*
X139608333Y-72695238D01*
X139703571Y-72600000D01*
X139846428Y-72552380D01*
X139941666Y-72552380D01*
X140084523Y-72600000D01*
X140132142Y-72647619D01*
X140465476Y-72552380D02*
X141084523Y-72552380D01*
X140751190Y-72933333D01*
X140894047Y-72933333D01*
X140989285Y-72980952D01*
X141036904Y-73028571D01*
X141084523Y-73123809D01*
X141084523Y-73361904D01*
X141036904Y-73457142D01*
X140989285Y-73504761D01*
X140894047Y-73552380D01*
X140608333Y-73552380D01*
X140513095Y-73504761D01*
X140465476Y-73457142D01*
X141941666Y-72552380D02*
X141751190Y-72552380D01*
X141655952Y-72600000D01*
X141608333Y-72647619D01*
X141513095Y-72790476D01*
X141465476Y-72980952D01*
X141465476Y-73361904D01*
X141513095Y-73457142D01*
X141560714Y-73504761D01*
X141655952Y-73552380D01*
X141846428Y-73552380D01*
X141941666Y-73504761D01*
X141989285Y-73457142D01*
X142036904Y-73361904D01*
X142036904Y-73123809D01*
X141989285Y-73028571D01*
X141941666Y-72980952D01*
X141846428Y-72933333D01*
X141655952Y-72933333D01*
X141560714Y-72980952D01*
X141513095Y-73028571D01*
X141465476Y-73123809D01*
X162532143Y-87857856D02*
X162579762Y-87905475D01*
X162627381Y-88048332D01*
X162627381Y-88143570D01*
X162579762Y-88286427D01*
X162484524Y-88381665D01*
X162389286Y-88429284D01*
X162198810Y-88476903D01*
X162055953Y-88476903D01*
X161865477Y-88429284D01*
X161770239Y-88381665D01*
X161675001Y-88286427D01*
X161627381Y-88143570D01*
X161627381Y-88048332D01*
X161675001Y-87905475D01*
X161722620Y-87857856D01*
X162627381Y-86905475D02*
X162627381Y-87476903D01*
X162627381Y-87191189D02*
X161627381Y-87191189D01*
X161770239Y-87286427D01*
X161865477Y-87381665D01*
X161913096Y-87476903D01*
X162627381Y-86429284D02*
X162627381Y-86238808D01*
X162579762Y-86143570D01*
X162532143Y-86095951D01*
X162389286Y-86000713D01*
X162198810Y-85953094D01*
X161817858Y-85953094D01*
X161722620Y-86000713D01*
X161675001Y-86048332D01*
X161627381Y-86143570D01*
X161627381Y-86334046D01*
X161675001Y-86429284D01*
X161722620Y-86476903D01*
X161817858Y-86524522D01*
X162055953Y-86524522D01*
X162151191Y-86476903D01*
X162198810Y-86429284D01*
X162246429Y-86334046D01*
X162246429Y-86143570D01*
X162198810Y-86048332D01*
X162151191Y-86000713D01*
X162055953Y-85953094D01*
X150692143Y-82687856D02*
X150739762Y-82735475D01*
X150787381Y-82878332D01*
X150787381Y-82973570D01*
X150739762Y-83116427D01*
X150644524Y-83211665D01*
X150549286Y-83259284D01*
X150358810Y-83306903D01*
X150215953Y-83306903D01*
X150025477Y-83259284D01*
X149930239Y-83211665D01*
X149835001Y-83116427D01*
X149787381Y-82973570D01*
X149787381Y-82878332D01*
X149835001Y-82735475D01*
X149882620Y-82687856D01*
X149882620Y-82306903D02*
X149835001Y-82259284D01*
X149787381Y-82164046D01*
X149787381Y-81925951D01*
X149835001Y-81830713D01*
X149882620Y-81783094D01*
X149977858Y-81735475D01*
X150073096Y-81735475D01*
X150215953Y-81783094D01*
X150787381Y-82354522D01*
X150787381Y-81735475D01*
X150120715Y-80878332D02*
X150787381Y-80878332D01*
X149739762Y-81116427D02*
X150454048Y-81354522D01*
X150454048Y-80735475D01*
X149467142Y-91812856D02*
X149514761Y-91860475D01*
X149562380Y-92003332D01*
X149562380Y-92098570D01*
X149514761Y-92241427D01*
X149419523Y-92336665D01*
X149324285Y-92384284D01*
X149133809Y-92431903D01*
X148990952Y-92431903D01*
X148800476Y-92384284D01*
X148705238Y-92336665D01*
X148610000Y-92241427D01*
X148562380Y-92098570D01*
X148562380Y-92003332D01*
X148610000Y-91860475D01*
X148657619Y-91812856D01*
X148657619Y-91431903D02*
X148610000Y-91384284D01*
X148562380Y-91289046D01*
X148562380Y-91050951D01*
X148610000Y-90955713D01*
X148657619Y-90908094D01*
X148752857Y-90860475D01*
X148848095Y-90860475D01*
X148990952Y-90908094D01*
X149562380Y-91479522D01*
X149562380Y-90860475D01*
X148562380Y-90003332D02*
X148562380Y-90193808D01*
X148610000Y-90289046D01*
X148657619Y-90336665D01*
X148800476Y-90431903D01*
X148990952Y-90479522D01*
X149371904Y-90479522D01*
X149467142Y-90431903D01*
X149514761Y-90384284D01*
X149562380Y-90289046D01*
X149562380Y-90098570D01*
X149514761Y-90003332D01*
X149467142Y-89955713D01*
X149371904Y-89908094D01*
X149133809Y-89908094D01*
X149038571Y-89955713D01*
X148990952Y-90003332D01*
X148943333Y-90098570D01*
X148943333Y-90289046D01*
X148990952Y-90384284D01*
X149038571Y-90431903D01*
X149133809Y-90479522D01*
X166252380Y-57966666D02*
X165776190Y-58300000D01*
X166252380Y-58538095D02*
X165252380Y-58538095D01*
X165252380Y-58157142D01*
X165300000Y-58061904D01*
X165347619Y-58014285D01*
X165442857Y-57966666D01*
X165585714Y-57966666D01*
X165680952Y-58014285D01*
X165728571Y-58061904D01*
X165776190Y-58157142D01*
X165776190Y-58538095D01*
X165347619Y-57585714D02*
X165300000Y-57538095D01*
X165252380Y-57442857D01*
X165252380Y-57204761D01*
X165300000Y-57109523D01*
X165347619Y-57061904D01*
X165442857Y-57014285D01*
X165538095Y-57014285D01*
X165680952Y-57061904D01*
X166252380Y-57633333D01*
X166252380Y-57014285D01*
D13*
X158280000Y-89592164D02*
X158280000Y-89807836D01*
X159000000Y-89592164D02*
X159000000Y-89807836D01*
X145840000Y-96467164D02*
X145840000Y-96682836D01*
X146560000Y-96467164D02*
X146560000Y-96682836D01*
X161335000Y-79442164D02*
X161335000Y-79657836D01*
X160615000Y-79442164D02*
X160615000Y-79657836D01*
D11*
X162774999Y-93140001D02*
X162974999Y-93140001D01*
X161874999Y-91780001D02*
X162074999Y-91780001D01*
X161874999Y-93140001D02*
X162074999Y-93140001D01*
X162674999Y-91780001D02*
X162874999Y-91780001D01*
D14*
X162574999Y-93360001D02*
X162574999Y-93060001D01*
X162574999Y-93060001D02*
X162874999Y-93060001D01*
X162874999Y-93060001D02*
X162874999Y-93360001D01*
X162874999Y-93360001D02*
X162574999Y-93360001D01*
G36*
X162874999Y-93360001D02*
G01*
X162574999Y-93360001D01*
X162574999Y-93060001D01*
X162874999Y-93060001D01*
X162874999Y-93360001D01*
G37*
X162874999Y-93360001D02*
X162574999Y-93360001D01*
X162574999Y-93060001D01*
X162874999Y-93060001D01*
X162874999Y-93360001D01*
D13*
X150957836Y-63860000D02*
X150742164Y-63860000D01*
X150957836Y-63140000D02*
X150742164Y-63140000D01*
D11*
X144080000Y-74500000D02*
X144080000Y-74700000D01*
X142720000Y-74500000D02*
X142720000Y-74700000D01*
X144080000Y-75300000D02*
X144080000Y-75500000D01*
X142720000Y-75400000D02*
X142720000Y-75600000D01*
D14*
X142500000Y-75200000D02*
X142800000Y-75200000D01*
X142800000Y-75200000D02*
X142800000Y-75500000D01*
X142800000Y-75500000D02*
X142500000Y-75500000D01*
X142500000Y-75500000D02*
X142500000Y-75200000D01*
G36*
X142800000Y-75500000D02*
G01*
X142500000Y-75500000D01*
X142500000Y-75200000D01*
X142800000Y-75200000D01*
X142800000Y-75500000D01*
G37*
X142800000Y-75500000D02*
X142500000Y-75500000D01*
X142500000Y-75200000D01*
X142800000Y-75200000D01*
X142800000Y-75500000D01*
D13*
X170632836Y-91700000D02*
X170417164Y-91700000D01*
X170632836Y-90980000D02*
X170417164Y-90980000D01*
X135670000Y-74470000D02*
X138330000Y-74470000D01*
X138330000Y-74470000D02*
X138330000Y-82150000D01*
X135670000Y-82150000D02*
X138330000Y-82150000D01*
X135670000Y-74470000D02*
X135670000Y-82150000D01*
X135670000Y-73200000D02*
X135670000Y-71870000D01*
X135670000Y-71870000D02*
X137000000Y-71870000D01*
X166415000Y-74557836D02*
X166415000Y-74342164D01*
X167135000Y-74557836D02*
X167135000Y-74342164D01*
D11*
X171645000Y-90840000D02*
X171645000Y-91040000D01*
X173005000Y-90840000D02*
X173005000Y-91040000D01*
X171645000Y-91740000D02*
X171645000Y-91940000D01*
X173005000Y-91640000D02*
X173005000Y-91840000D01*
D14*
X171425000Y-91540000D02*
X171725000Y-91540000D01*
X171725000Y-91540000D02*
X171725000Y-91840000D01*
X171725000Y-91840000D02*
X171425000Y-91840000D01*
X171425000Y-91840000D02*
X171425000Y-91540000D01*
G36*
X171725000Y-91840000D02*
G01*
X171425000Y-91840000D01*
X171425000Y-91540000D01*
X171725000Y-91540000D01*
X171725000Y-91840000D01*
G37*
X171725000Y-91840000D02*
X171425000Y-91840000D01*
X171425000Y-91540000D01*
X171725000Y-91540000D01*
X171725000Y-91840000D01*
D13*
X138315000Y-61232836D02*
X138315000Y-61017164D01*
X139035000Y-61232836D02*
X139035000Y-61017164D01*
X140907836Y-85585000D02*
X140692164Y-85585000D01*
X140907836Y-84865000D02*
X140692164Y-84865000D01*
D11*
X145360000Y-94655000D02*
X145160000Y-94655000D01*
X146160000Y-94655000D02*
X145960000Y-94655000D01*
X146160000Y-93295000D02*
X145960000Y-93295000D01*
X145260000Y-93295000D02*
X145060000Y-93295000D01*
D14*
X145460000Y-93075000D02*
X145460000Y-93375000D01*
X145460000Y-93375000D02*
X145160000Y-93375000D01*
X145160000Y-93375000D02*
X145160000Y-93075000D01*
X145160000Y-93075000D02*
X145460000Y-93075000D01*
G36*
X145460000Y-93375000D02*
G01*
X145160000Y-93375000D01*
X145160000Y-93075000D01*
X145460000Y-93075000D01*
X145460000Y-93375000D01*
G37*
X145460000Y-93375000D02*
X145160000Y-93375000D01*
X145160000Y-93075000D01*
X145460000Y-93075000D01*
X145460000Y-93375000D01*
D11*
X139090000Y-94655000D02*
X139290000Y-94655000D01*
X138190000Y-93295000D02*
X138390000Y-93295000D01*
X138190000Y-94655000D02*
X138390000Y-94655000D01*
X138990000Y-93295000D02*
X139190000Y-93295000D01*
D14*
X138890000Y-94875000D02*
X138890000Y-94575000D01*
X138890000Y-94575000D02*
X139190000Y-94575000D01*
X139190000Y-94575000D02*
X139190000Y-94875000D01*
X139190000Y-94875000D02*
X138890000Y-94875000D01*
G36*
X139190000Y-94875000D02*
G01*
X138890000Y-94875000D01*
X138890000Y-94575000D01*
X139190000Y-94575000D01*
X139190000Y-94875000D01*
G37*
X139190000Y-94875000D02*
X138890000Y-94875000D01*
X138890000Y-94575000D01*
X139190000Y-94575000D01*
X139190000Y-94875000D01*
D11*
X171645000Y-96010000D02*
X171645000Y-95810000D01*
X173005000Y-96010000D02*
X173005000Y-95810000D01*
X171645000Y-95210000D02*
X171645000Y-95010000D01*
X173005000Y-95110000D02*
X173005000Y-94910000D01*
D14*
X173225000Y-95310000D02*
X172925000Y-95310000D01*
X172925000Y-95310000D02*
X172925000Y-95010000D01*
X172925000Y-95010000D02*
X173225000Y-95010000D01*
X173225000Y-95010000D02*
X173225000Y-95310000D01*
G36*
X173225000Y-95310000D02*
G01*
X172925000Y-95310000D01*
X172925000Y-95010000D01*
X173225000Y-95010000D01*
X173225000Y-95310000D01*
G37*
X173225000Y-95310000D02*
X172925000Y-95310000D01*
X172925000Y-95010000D01*
X173225000Y-95010000D01*
X173225000Y-95310000D01*
D13*
X145867164Y-74115000D02*
X146082836Y-74115000D01*
X145867164Y-74835000D02*
X146082836Y-74835000D01*
X174478641Y-58595000D02*
X174171359Y-58595000D01*
X174478641Y-59355000D02*
X174171359Y-59355000D01*
X164145000Y-56103641D02*
X164145000Y-55796359D01*
X164905000Y-56103641D02*
X164905000Y-55796359D01*
X161065000Y-94917164D02*
X161065000Y-95132836D01*
X161785000Y-94917164D02*
X161785000Y-95132836D01*
X167307836Y-82260000D02*
X167092164Y-82260000D01*
X167307836Y-81540000D02*
X167092164Y-81540000D01*
X145765000Y-91577836D02*
X145765000Y-91362164D01*
X146485000Y-91577836D02*
X146485000Y-91362164D01*
X169220000Y-56103641D02*
X169220000Y-55796359D01*
X169980000Y-56103641D02*
X169980000Y-55796359D01*
X171670000Y-74470000D02*
X171670000Y-82150000D01*
X174330000Y-74470000D02*
X174330000Y-82150000D01*
X171670000Y-73200000D02*
X171670000Y-71870000D01*
X171670000Y-74470000D02*
X174330000Y-74470000D01*
X171670000Y-82150000D02*
X174330000Y-82150000D01*
X171670000Y-71870000D02*
X173000000Y-71870000D01*
X145892164Y-85215000D02*
X146107836Y-85215000D01*
X145892164Y-85935000D02*
X146107836Y-85935000D01*
D11*
X150640000Y-87735001D02*
X150840000Y-87735001D01*
X151540000Y-87735001D02*
X151740000Y-87735001D01*
X150640000Y-86375001D02*
X150840000Y-86375001D01*
X151440000Y-86375001D02*
X151640000Y-86375001D01*
D14*
X151340000Y-87955001D02*
X151340000Y-87655001D01*
X151340000Y-87655001D02*
X151640000Y-87655001D01*
X151640000Y-87655001D02*
X151640000Y-87955001D01*
X151640000Y-87955001D02*
X151340000Y-87955001D01*
G36*
X151640000Y-87955001D02*
G01*
X151340000Y-87955001D01*
X151340000Y-87655001D01*
X151640000Y-87655001D01*
X151640000Y-87955001D01*
G37*
X151640000Y-87955001D02*
X151340000Y-87955001D01*
X151340000Y-87655001D01*
X151640000Y-87655001D01*
X151640000Y-87955001D01*
D13*
X149295244Y-65192408D02*
X149295244Y-65408080D01*
X148575244Y-65192408D02*
X148575244Y-65408080D01*
X173842164Y-87540000D02*
X174057836Y-87540000D01*
X173842164Y-88260000D02*
X174057836Y-88260000D01*
X176355000Y-56103641D02*
X176355000Y-55796359D01*
X175595000Y-56103641D02*
X175595000Y-55796359D01*
X174478641Y-57320000D02*
X174171359Y-57320000D01*
X174478641Y-58080000D02*
X174171359Y-58080000D01*
X161335000Y-74557836D02*
X161335000Y-74342164D01*
X160615000Y-74557836D02*
X160615000Y-74342164D01*
D11*
X165655000Y-77680000D02*
X165455000Y-77680000D01*
X166455000Y-76320000D02*
X166255000Y-76320000D01*
X166455000Y-77680000D02*
X166255000Y-77680000D01*
X165555000Y-76320000D02*
X165355000Y-76320000D01*
D14*
X165755000Y-76100000D02*
X165755000Y-76400000D01*
X165755000Y-76400000D02*
X165455000Y-76400000D01*
X165455000Y-76400000D02*
X165455000Y-76100000D01*
X165455000Y-76100000D02*
X165755000Y-76100000D01*
G36*
X165755000Y-76400000D02*
G01*
X165455000Y-76400000D01*
X165455000Y-76100000D01*
X165755000Y-76100000D01*
X165755000Y-76400000D01*
G37*
X165755000Y-76400000D02*
X165455000Y-76400000D01*
X165455000Y-76100000D01*
X165755000Y-76100000D01*
X165755000Y-76400000D01*
D15*
X169450000Y-58475000D02*
G75*
G03*
X169450000Y-58475000I-125000J0D01*
G01*
D13*
X171255000Y-56103641D02*
X171255000Y-55796359D01*
X170495000Y-56103641D02*
X170495000Y-55796359D01*
X157530000Y-93670000D02*
X157530000Y-96330000D01*
X158800000Y-93670000D02*
X160130000Y-93670000D01*
X157530000Y-96330000D02*
X149850000Y-96330000D01*
X157530000Y-93670000D02*
X149850000Y-93670000D01*
X149850000Y-93670000D02*
X149850000Y-96330000D01*
X160130000Y-93670000D02*
X160130000Y-95000000D01*
X174017164Y-95870000D02*
X174232836Y-95870000D01*
X174017164Y-95150000D02*
X174232836Y-95150000D01*
D11*
X169070000Y-86570000D02*
X169070000Y-86370000D01*
X170430000Y-87370000D02*
X170430000Y-87170000D01*
X169070000Y-87370000D02*
X169070000Y-87170000D01*
X170430000Y-86470000D02*
X170430000Y-86270000D01*
D14*
X170650000Y-86670000D02*
X170350000Y-86670000D01*
X170350000Y-86670000D02*
X170350000Y-86370000D01*
X170350000Y-86370000D02*
X170650000Y-86370000D01*
X170650000Y-86370000D02*
X170650000Y-86670000D01*
G36*
X170650000Y-86670000D02*
G01*
X170350000Y-86670000D01*
X170350000Y-86370000D01*
X170650000Y-86370000D01*
X170650000Y-86670000D01*
G37*
X170650000Y-86670000D02*
X170350000Y-86670000D01*
X170350000Y-86370000D01*
X170650000Y-86370000D01*
X170650000Y-86670000D01*
D13*
X170632836Y-95150000D02*
X170417164Y-95150000D01*
X170632836Y-95870000D02*
X170417164Y-95870000D01*
X175303641Y-60305000D02*
X174996359Y-60305000D01*
X175303641Y-59545000D02*
X174996359Y-59545000D01*
X174717164Y-90440000D02*
X174932836Y-90440000D01*
X174717164Y-91160000D02*
X174932836Y-91160000D01*
X139010000Y-65992164D02*
X139010000Y-66207836D01*
X138290000Y-65992164D02*
X138290000Y-66207836D01*
X158540000Y-84607836D02*
X158540000Y-84392164D01*
X159260000Y-84607836D02*
X159260000Y-84392164D01*
X172292164Y-56840000D02*
X172507836Y-56840000D01*
X172292164Y-57560000D02*
X172507836Y-57560000D01*
D11*
X169070000Y-82200000D02*
X169070000Y-82400000D01*
X169070000Y-83100000D02*
X169070000Y-83300000D01*
X170430000Y-82200000D02*
X170430000Y-82400000D01*
X170430000Y-83000000D02*
X170430000Y-83200000D01*
D14*
X168850000Y-82900000D02*
X169150000Y-82900000D01*
X169150000Y-82900000D02*
X169150000Y-83200000D01*
X169150000Y-83200000D02*
X168850000Y-83200000D01*
X168850000Y-83200000D02*
X168850000Y-82900000D01*
G36*
X169150000Y-83200000D02*
G01*
X168850000Y-83200000D01*
X168850000Y-82900000D01*
X169150000Y-82900000D01*
X169150000Y-83200000D01*
G37*
X169150000Y-83200000D02*
X168850000Y-83200000D01*
X168850000Y-82900000D01*
X169150000Y-82900000D01*
X169150000Y-83200000D01*
D13*
X157530000Y-57670000D02*
X149850000Y-57670000D01*
X149850000Y-57670000D02*
X149850000Y-60330000D01*
X160130000Y-57670000D02*
X160130000Y-59000000D01*
X157530000Y-60330000D02*
X149850000Y-60330000D01*
X158800000Y-57670000D02*
X160130000Y-57670000D01*
X157530000Y-57670000D02*
X157530000Y-60330000D01*
D11*
X149435244Y-62820244D02*
X149235244Y-62820244D01*
X149435244Y-64180244D02*
X149235244Y-64180244D01*
X148635244Y-64180244D02*
X148435244Y-64180244D01*
X148535244Y-62820244D02*
X148335244Y-62820244D01*
D14*
X148735244Y-62600244D02*
X148735244Y-62900244D01*
X148735244Y-62900244D02*
X148435244Y-62900244D01*
X148435244Y-62900244D02*
X148435244Y-62600244D01*
X148435244Y-62600244D02*
X148735244Y-62600244D01*
G36*
X148735244Y-62900244D02*
G01*
X148435244Y-62900244D01*
X148435244Y-62600244D01*
X148735244Y-62600244D01*
X148735244Y-62900244D01*
G37*
X148735244Y-62900244D02*
X148435244Y-62900244D01*
X148435244Y-62600244D01*
X148735244Y-62600244D01*
X148735244Y-62900244D01*
D11*
X161285000Y-76320000D02*
X161485000Y-76320000D01*
X161285000Y-77680000D02*
X161485000Y-77680000D01*
X162185000Y-77680000D02*
X162385000Y-77680000D01*
X162085000Y-76320000D02*
X162285000Y-76320000D01*
D14*
X161985000Y-77900000D02*
X161985000Y-77600000D01*
X161985000Y-77600000D02*
X162285000Y-77600000D01*
X162285000Y-77600000D02*
X162285000Y-77900000D01*
X162285000Y-77900000D02*
X161985000Y-77900000D01*
G36*
X162285000Y-77900000D02*
G01*
X161985000Y-77900000D01*
X161985000Y-77600000D01*
X162285000Y-77600000D01*
X162285000Y-77900000D01*
G37*
X162285000Y-77900000D02*
X161985000Y-77900000D01*
X161985000Y-77600000D01*
X162285000Y-77600000D01*
X162285000Y-77900000D01*
D13*
X167282836Y-87315000D02*
X167067164Y-87315000D01*
X167282836Y-88035000D02*
X167067164Y-88035000D01*
X166390000Y-79442164D02*
X166390000Y-79657836D01*
X167110000Y-79442164D02*
X167110000Y-79657836D01*
D11*
X139465244Y-62820244D02*
X139665244Y-62820244D01*
X139565244Y-64180244D02*
X139765244Y-64180244D01*
X138665244Y-62820244D02*
X138865244Y-62820244D01*
X138665244Y-64180244D02*
X138865244Y-64180244D01*
D14*
X139365244Y-64400244D02*
X139365244Y-64100244D01*
X139365244Y-64100244D02*
X139665244Y-64100244D01*
X139665244Y-64100244D02*
X139665244Y-64400244D01*
X139665244Y-64400244D02*
X139365244Y-64400244D01*
G36*
X139665244Y-64400244D02*
G01*
X139365244Y-64400244D01*
X139365244Y-64100244D01*
X139665244Y-64100244D01*
X139665244Y-64400244D01*
G37*
X139665244Y-64400244D02*
X139365244Y-64400244D01*
X139365244Y-64100244D01*
X139665244Y-64100244D01*
X139665244Y-64400244D01*
D11*
X157810000Y-87735001D02*
X157610000Y-87735001D01*
X158610000Y-87735001D02*
X158410000Y-87735001D01*
X158610000Y-86375001D02*
X158410000Y-86375001D01*
X157710000Y-86375001D02*
X157510000Y-86375001D01*
D14*
X157910000Y-86155001D02*
X157910000Y-86455001D01*
X157910000Y-86455001D02*
X157610000Y-86455001D01*
X157610000Y-86455001D02*
X157610000Y-86155001D01*
X157610000Y-86155001D02*
X157910000Y-86155001D01*
G36*
X157910000Y-86455001D02*
G01*
X157610000Y-86455001D01*
X157610000Y-86155001D01*
X157910000Y-86155001D01*
X157910000Y-86455001D01*
G37*
X157910000Y-86455001D02*
X157610000Y-86455001D01*
X157610000Y-86155001D01*
X157910000Y-86155001D01*
X157910000Y-86455001D01*
D13*
X166990000Y-90032836D02*
X166990000Y-89817164D01*
X167710000Y-90032836D02*
X167710000Y-89817164D01*
X137865000Y-96142164D02*
X137865000Y-96357836D01*
X138585000Y-96142164D02*
X138585000Y-96357836D01*
X149742164Y-61735000D02*
X149957836Y-61735000D01*
X149742164Y-61015000D02*
X149957836Y-61015000D01*
D11*
X166144999Y-91780001D02*
X165944999Y-91780001D01*
X166244999Y-93140001D02*
X166044999Y-93140001D01*
X167044999Y-91780001D02*
X166844999Y-91780001D01*
X167044999Y-93140001D02*
X166844999Y-93140001D01*
D14*
X166344999Y-91560001D02*
X166344999Y-91860001D01*
X166344999Y-91860001D02*
X166044999Y-91860001D01*
X166044999Y-91860001D02*
X166044999Y-91560001D01*
X166044999Y-91560001D02*
X166344999Y-91560001D01*
G36*
X166344999Y-91860001D02*
G01*
X166044999Y-91860001D01*
X166044999Y-91560001D01*
X166344999Y-91560001D01*
X166344999Y-91860001D01*
G37*
X166344999Y-91860001D02*
X166044999Y-91860001D01*
X166044999Y-91560001D01*
X166344999Y-91560001D01*
X166344999Y-91860001D01*
D13*
X166590000Y-95147164D02*
X166590000Y-95362836D01*
X167310000Y-95147164D02*
X167310000Y-95362836D01*
X175055000Y-56103641D02*
X175055000Y-55796359D01*
X174295000Y-56103641D02*
X174295000Y-55796359D01*
X159892164Y-77360000D02*
X160107836Y-77360000D01*
X159892164Y-76640000D02*
X160107836Y-76640000D01*
X151645000Y-76060000D02*
X151645000Y-77940000D01*
X158355000Y-76060000D02*
X158355000Y-77940000D01*
D11*
X144080000Y-84370000D02*
X144080000Y-84170000D01*
X144080000Y-85270000D02*
X144080000Y-85070000D01*
X142720000Y-84470000D02*
X142720000Y-84270000D01*
X142720000Y-85270000D02*
X142720000Y-85070000D01*
D14*
X144300000Y-84570000D02*
X144000000Y-84570000D01*
X144000000Y-84570000D02*
X144000000Y-84270000D01*
X144000000Y-84270000D02*
X144300000Y-84270000D01*
X144300000Y-84270000D02*
X144300000Y-84570000D01*
G36*
X144300000Y-84570000D02*
G01*
X144000000Y-84570000D01*
X144000000Y-84270000D01*
X144300000Y-84270000D01*
X144300000Y-84570000D01*
G37*
X144300000Y-84570000D02*
X144000000Y-84570000D01*
X144000000Y-84270000D01*
X144300000Y-84270000D01*
X144300000Y-84570000D01*
D13*
X137815000Y-91582836D02*
X137815000Y-91367164D01*
X138535000Y-91582836D02*
X138535000Y-91367164D01*
X140982836Y-74140000D02*
X140767164Y-74140000D01*
X140982836Y-74860000D02*
X140767164Y-74860000D01*
X161790000Y-89782836D02*
X161790000Y-89567164D01*
X162510000Y-89782836D02*
X162510000Y-89567164D01*
X149990000Y-84607836D02*
X149990000Y-84392164D01*
X150710000Y-84607836D02*
X150710000Y-84392164D01*
X149990000Y-89517164D02*
X149990000Y-89732836D01*
X150710000Y-89517164D02*
X150710000Y-89732836D01*
X165395000Y-56103641D02*
X165395000Y-55796359D01*
X166155000Y-56103641D02*
X166155000Y-55796359D01*
%LPC*%
D16*
X152525000Y-86005001D02*
X152525000Y-85280001D01*
X146915600Y-83385000D02*
G75*
G03*
X147615600Y-82685000I-3J700003D01*
G01*
X172325000Y-90200000D02*
G75*
G03*
X171325000Y-89200000I-1000003J-3D01*
G01*
X147615600Y-77085000D02*
G75*
G03*
X146915600Y-76385000I-700003J-3D01*
G01*
X146915600Y-77785000D02*
G75*
G03*
X147615600Y-77085000I-3J700003D01*
G01*
X169750000Y-88200000D02*
G75*
G03*
X170750000Y-89200000I1000003J3D01*
G01*
X136250000Y-92975000D02*
X136250000Y-89950000D01*
X147550244Y-62450244D02*
G75*
G03*
X146850244Y-61750244I-700003J-3D01*
G01*
X144450000Y-79185000D02*
X146915600Y-79185000D01*
X164459999Y-94210001D02*
G75*
G03*
X165159999Y-93510001I-3J700003D01*
G01*
X170750000Y-89200000D02*
X171325000Y-89200000D01*
X143750000Y-78485000D02*
G75*
G03*
X144450000Y-79185000I700003J3D01*
G01*
X170100000Y-86385000D02*
X170100000Y-86185000D01*
X168750000Y-93460001D02*
G75*
G03*
X167750000Y-92460001I-1000003J-3D01*
G01*
X140550244Y-64550244D02*
G75*
G03*
X139850244Y-63850244I-700003J-3D01*
G01*
X143050000Y-84085000D02*
G75*
G03*
X142350000Y-83385000I-700003J-3D01*
G01*
X171325000Y-98250000D02*
G75*
G03*
X172325000Y-97250000I-3J1000003D01*
G01*
X144450000Y-80585000D02*
X146915600Y-80585000D01*
X170100000Y-83185000D02*
X170100000Y-83385000D01*
X167720000Y-84785000D02*
G75*
G03*
X168420000Y-85485000I700003J3D01*
G01*
X169400000Y-86185000D02*
G75*
G03*
X168700000Y-85485000I-700003J-3D01*
G01*
X171975000Y-91825000D02*
X171975000Y-92025000D01*
X143400000Y-74515000D02*
X143400000Y-72950000D01*
X147200000Y-93975000D02*
G75*
G03*
X148200000Y-92975000I-3J1000003D01*
G01*
X151625000Y-87405001D02*
X151825000Y-87405001D01*
X145450244Y-63850244D02*
G75*
G03*
X144750244Y-64550244I3J-700003D01*
G01*
X164459999Y-89590001D02*
G75*
G03*
X163759999Y-90290001I3J-700003D01*
G01*
X143350244Y-64550244D02*
X143350244Y-70012544D01*
X165159999Y-91410001D02*
X165159999Y-90290001D01*
X141250244Y-61750244D02*
X146850244Y-61750244D01*
X171975000Y-94825000D02*
G75*
G03*
X171275000Y-94125000I-700003J-3D01*
G01*
X143750000Y-84085000D02*
X143750000Y-84285000D01*
X140075000Y-95025000D02*
G75*
G03*
X140775000Y-95725000I700003J3D01*
G01*
X155000000Y-65500244D02*
G75*
G03*
X153000000Y-63500244I-1999999J1D01*
G01*
X169750000Y-88200000D02*
X169750000Y-87355000D01*
X140550244Y-70012544D02*
G75*
G03*
X141250244Y-70712544I700003J3D01*
G01*
X170015000Y-93425000D02*
G75*
G03*
X170715000Y-94125000I700003J3D01*
G01*
X157625000Y-86705001D02*
X157425000Y-86705001D01*
X143350244Y-70012544D02*
G75*
G03*
X144050244Y-70712544I700003J3D01*
G01*
X148250244Y-63850244D02*
G75*
G03*
X147550244Y-64550244I3J-700003D01*
G01*
X139175000Y-94325000D02*
X139375000Y-94325000D01*
X173375000Y-94125000D02*
G75*
G03*
X172675000Y-94825000I3J-700003D01*
G01*
X140075000Y-92925000D02*
X140075000Y-91077000D01*
X143575000Y-95725000D02*
G75*
G03*
X144275000Y-95025000I-3J700003D01*
G01*
X139375000Y-93625000D02*
G75*
G03*
X140075000Y-92925000I-3J700003D01*
G01*
X143400000Y-72950000D02*
G75*
G03*
X142400000Y-71950000I-1000003J-3D01*
G01*
X153000000Y-63500244D02*
X151330244Y-63500244D01*
X144975000Y-94325000D02*
X145175000Y-94325000D01*
X159520000Y-77000000D02*
X155000000Y-77000000D01*
X162859999Y-92810001D02*
X163059999Y-92810001D01*
X141475000Y-92925000D02*
G75*
G03*
X142175000Y-93625000I700003J3D01*
G01*
X163759999Y-91410001D02*
X163759999Y-90290001D01*
X144275000Y-92925000D02*
G75*
G03*
X144975000Y-93625000I700003J3D01*
G01*
X165159999Y-90290001D02*
G75*
G03*
X164459999Y-89590001I-700003J-3D01*
G01*
X140550244Y-64550244D02*
X140550244Y-70012544D01*
X155325000Y-86005001D02*
X155325000Y-85280001D01*
X163170000Y-78190000D02*
G75*
G03*
X163870000Y-78890000I700003J3D01*
G01*
X169750000Y-78000000D02*
X169750000Y-82215000D01*
X149200000Y-87055001D02*
G75*
G03*
X148200000Y-88055001I-1J-999999D01*
G01*
X136549999Y-67690000D02*
G75*
G03*
X137257106Y-69397106I2414211J0D01*
G01*
X143350244Y-64550244D02*
G75*
G03*
X142650244Y-63850244I-700003J-3D01*
G01*
X139650244Y-63850244D02*
X139850244Y-63850244D01*
X168700000Y-84085000D02*
X168420000Y-84085000D01*
X144975000Y-93625000D02*
X145175000Y-93625000D01*
X142650244Y-63850244D02*
G75*
G03*
X141950244Y-64550244I3J-700003D01*
G01*
X143750000Y-81285000D02*
G75*
G03*
X144450000Y-81985000I700003J3D01*
G01*
X157625000Y-87405001D02*
X157425000Y-87405001D01*
X173375000Y-94125000D02*
G75*
G03*
X174075000Y-93425000I-3J700003D01*
G01*
X139102893Y-71242893D02*
X137257106Y-69397106D01*
X147615600Y-79885000D02*
G75*
G03*
X146915600Y-79185000I-700003J-3D01*
G01*
X146150244Y-70012544D02*
G75*
G03*
X146850244Y-70712544I700003J3D01*
G01*
X163170000Y-78050000D02*
X163170000Y-78190000D01*
X159400000Y-87055001D02*
X158595000Y-87055001D01*
X170800000Y-85485000D02*
G75*
G03*
X170100000Y-86185000I3J-700003D01*
G01*
X142350000Y-76385000D02*
G75*
G03*
X143050000Y-75685000I-3J700003D01*
G01*
X153225000Y-84580001D02*
G75*
G03*
X152525000Y-85280001I3J-700003D01*
G01*
X165270000Y-77350000D02*
G75*
G03*
X164570000Y-78050000I3J-700003D01*
G01*
X171325000Y-98250000D02*
X169750000Y-98250000D01*
X139650244Y-63150244D02*
X139850244Y-63150244D01*
X139102893Y-71242893D02*
G75*
G03*
X140810000Y-71949999I1707109J1707114D01*
G01*
X163870000Y-78890000D02*
G75*
G03*
X164570000Y-78190000I-3J700003D01*
G01*
X156025000Y-88805001D02*
G75*
G03*
X156725000Y-88105001I-3J700003D01*
G01*
X163870000Y-75250000D02*
G75*
G03*
X163170000Y-75950000I3J-700003D01*
G01*
X143400000Y-85950000D02*
X143400000Y-85255000D01*
X147615600Y-82685000D02*
G75*
G03*
X146915600Y-81985000I-700003J-3D01*
G01*
X143050000Y-84285000D02*
X143050000Y-84085000D01*
X147550244Y-64550244D02*
X147550244Y-70012544D01*
X140775000Y-90377000D02*
G75*
G03*
X140075000Y-91077000I3J-700003D01*
G01*
X162470000Y-76650000D02*
G75*
G03*
X163170000Y-75950000I-3J700003D01*
G01*
X142350000Y-76385000D02*
G75*
G03*
X141650000Y-77085000I3J-700003D01*
G01*
X151825000Y-86705001D02*
X151625000Y-86705001D01*
X141400000Y-87950000D02*
G75*
G03*
X143400000Y-85950000I-2J2000002D01*
G01*
X140810000Y-71950000D02*
X142400000Y-71950000D01*
X170100000Y-83385000D02*
G75*
G03*
X170800000Y-84085000I700003J3D01*
G01*
X163170000Y-78050000D02*
G75*
G03*
X162470000Y-77350000I-700003J-3D01*
G01*
X170800000Y-85485000D02*
G75*
G03*
X171500000Y-84785000I-3J700003D01*
G01*
X141250244Y-70712544D02*
G75*
G03*
X141950244Y-70012544I-3J700003D01*
G01*
X168700000Y-85485000D02*
X168420000Y-85485000D01*
X165470000Y-76650000D02*
X165270000Y-76650000D01*
X160400000Y-91460001D02*
G75*
G03*
X161400000Y-92460001I1000003J3D01*
G01*
X141650000Y-82685000D02*
X141650000Y-81425000D01*
X137550000Y-63500244D02*
G75*
G03*
X136550000Y-64500244I-1J-999999D01*
G01*
X146150244Y-64550244D02*
X146150244Y-70012544D01*
X138250000Y-87950000D02*
G75*
G03*
X136250000Y-89950000I-1J-1999999D01*
G01*
X146150244Y-64550244D02*
G75*
G03*
X145450244Y-63850244I-700003J-3D01*
G01*
X165859999Y-92810001D02*
G75*
G03*
X165159999Y-93510001I3J-700003D01*
G01*
X167750000Y-92460001D02*
X167029999Y-92460001D01*
X168750000Y-77000000D02*
X166440000Y-77000000D01*
X165270000Y-77350000D02*
X165470000Y-77350000D01*
X136250000Y-92975000D02*
G75*
G03*
X137250000Y-93975000I1000003J3D01*
G01*
X143750000Y-75685000D02*
G75*
G03*
X144450000Y-76385000I700003J3D01*
G01*
X144450000Y-83385000D02*
X146915600Y-83385000D01*
X152525000Y-88105001D02*
G75*
G03*
X153225000Y-88805001I700003J3D01*
G01*
X153925000Y-86005001D02*
G75*
G03*
X154625000Y-86705001I700003J3D01*
G01*
X141475000Y-91077000D02*
G75*
G03*
X140775000Y-90377000I-700003J-3D01*
G01*
X161400000Y-92460001D02*
X161889999Y-92460001D01*
X148450244Y-63150244D02*
X148250244Y-63150244D01*
X172675000Y-92025000D02*
G75*
G03*
X173375000Y-92725000I700003J3D01*
G01*
X166059999Y-92810001D02*
X165859999Y-92810001D01*
X143050000Y-75685000D02*
X143050000Y-75485000D01*
X165159999Y-91410001D02*
G75*
G03*
X165859999Y-92110001I700003J3D01*
G01*
X139175000Y-93625000D02*
X139375000Y-93625000D01*
X166059999Y-92110001D02*
X165859999Y-92110001D01*
X169400000Y-83185000D02*
X169400000Y-83385000D01*
X142175000Y-93625000D02*
G75*
G03*
X142875000Y-92925000I-3J700003D01*
G01*
X149200000Y-87055001D02*
X150655000Y-87055001D01*
X143750000Y-75485000D02*
X143750000Y-75685000D01*
X144450000Y-83385000D02*
G75*
G03*
X143750000Y-84085000I3J-700003D01*
G01*
X156025000Y-88805001D02*
X153225000Y-88805001D01*
X156725000Y-85280001D02*
G75*
G03*
X156025000Y-84580001I-700003J-3D01*
G01*
X153925000Y-85280001D02*
G75*
G03*
X153225000Y-84580001I-700003J-3D01*
G01*
X156725000Y-86005001D02*
G75*
G03*
X157425000Y-86705001I700003J3D01*
G01*
X160400000Y-88055001D02*
X160400000Y-91460001D01*
X137250000Y-93975000D02*
X138205000Y-93975000D01*
X168750000Y-97250000D02*
G75*
G03*
X169750000Y-98250000I1000003J3D01*
G01*
X144975000Y-94325000D02*
G75*
G03*
X144275000Y-95025000I3J-700003D01*
G01*
X137550000Y-63500244D02*
X138680244Y-63500244D01*
X143575000Y-90377000D02*
G75*
G03*
X142875000Y-91077000I3J-700003D01*
G01*
X154625000Y-86705001D02*
G75*
G03*
X155325000Y-86005001I-3J700003D01*
G01*
X144450000Y-81985000D02*
X146915600Y-81985000D01*
X140075000Y-95025000D02*
G75*
G03*
X139375000Y-94325000I-700003J-3D01*
G01*
X169750000Y-78000000D02*
G75*
G03*
X168750000Y-77000000I-1000003J-3D01*
G01*
X141250244Y-61750244D02*
G75*
G03*
X140550244Y-62450244I3J-700003D01*
G01*
X162270000Y-77350000D02*
X162470000Y-77350000D01*
X153925000Y-86005001D02*
X153925000Y-85280001D01*
X172675000Y-91825000D02*
X172675000Y-92025000D01*
X144750244Y-64550244D02*
X144750244Y-70012544D01*
X138250000Y-87950000D02*
X141400000Y-87950000D01*
X156725000Y-86005001D02*
X156725000Y-85280001D01*
X151825000Y-86705001D02*
G75*
G03*
X152525000Y-86005001I-3J700003D01*
G01*
X171275000Y-94125000D02*
X170715000Y-94125000D01*
X144275000Y-92925000D02*
X144275000Y-91077000D01*
X163759999Y-93510001D02*
G75*
G03*
X164459999Y-94210001I700003J3D01*
G01*
X146915600Y-80585000D02*
G75*
G03*
X147615600Y-79885000I-3J700003D01*
G01*
X164570000Y-75950000D02*
G75*
G03*
X165270000Y-76650000I700003J3D01*
G01*
X170715000Y-92725000D02*
G75*
G03*
X170015000Y-93425000I3J-700003D01*
G01*
X141650000Y-81425000D02*
X141650000Y-77085000D01*
X164570000Y-78050000D02*
X164570000Y-78190000D01*
X146850244Y-70712544D02*
G75*
G03*
X147550244Y-70012544I-3J700003D01*
G01*
X157425000Y-87405001D02*
G75*
G03*
X156725000Y-88105001I3J-700003D01*
G01*
X136550000Y-67690000D02*
X136550000Y-64500244D01*
X141650000Y-82685000D02*
G75*
G03*
X142350000Y-83385000I700003J3D01*
G01*
X141950244Y-64550244D02*
X141950244Y-70012544D01*
X169400000Y-86185000D02*
X169400000Y-86385000D01*
X144050244Y-70712544D02*
G75*
G03*
X144750244Y-70012544I-3J700003D01*
G01*
X144450000Y-77785000D02*
G75*
G03*
X143750000Y-78485000I3J-700003D01*
G01*
X171275000Y-92725000D02*
X170715000Y-92725000D01*
X144450000Y-76385000D02*
X146915600Y-76385000D01*
X171975000Y-94825000D02*
X171975000Y-95025000D01*
X162270000Y-76650000D02*
X162470000Y-76650000D01*
X156025000Y-84580001D02*
G75*
G03*
X155325000Y-85280001I3J-700003D01*
G01*
X148200000Y-88055001D02*
X148200000Y-92975000D01*
X144275000Y-91077000D02*
G75*
G03*
X143575000Y-90377000I-700003J-3D01*
G01*
X164570000Y-75950000D02*
G75*
G03*
X163870000Y-75250000I-700003J-3D01*
G01*
X147200000Y-93975000D02*
X146145000Y-93975000D01*
X152525000Y-88105001D02*
G75*
G03*
X151825000Y-87405001I-700003J-3D01*
G01*
X160400000Y-88055001D02*
G75*
G03*
X159400000Y-87055001I-1000003J-3D01*
G01*
X172325000Y-97250000D02*
X172325000Y-95995000D01*
X171275000Y-92725000D02*
G75*
G03*
X171975000Y-92025000I-3J700003D01*
G01*
X172325000Y-90200000D02*
X172325000Y-90855000D01*
X142875000Y-92925000D02*
X142875000Y-91077000D01*
X171500000Y-84785000D02*
G75*
G03*
X170800000Y-84085000I-700003J-3D01*
G01*
X168700000Y-84085000D02*
G75*
G03*
X169400000Y-83385000I-3J700003D01*
G01*
X163059999Y-92110001D02*
G75*
G03*
X163759999Y-91410001I-3J700003D01*
G01*
X155000000Y-65500244D02*
X155000000Y-68750000D01*
X147550244Y-62450244D02*
G75*
G03*
X148250244Y-63150244I700003J3D01*
G01*
X163759999Y-93510001D02*
G75*
G03*
X163059999Y-92810001I-700003J-3D01*
G01*
X144450000Y-77785000D02*
X146915600Y-77785000D01*
X144450000Y-80585000D02*
G75*
G03*
X143750000Y-81285000I3J-700003D01*
G01*
X139850244Y-63150244D02*
G75*
G03*
X140550244Y-62450244I-3J700003D01*
G01*
X163059999Y-92110001D02*
X162859999Y-92110001D01*
X174075000Y-93425000D02*
G75*
G03*
X173375000Y-92725000I-700003J-3D01*
G01*
X148250244Y-63850244D02*
X148450244Y-63850244D01*
X141475000Y-92925000D02*
X141475000Y-91077000D01*
X172675000Y-95025000D02*
X172675000Y-94825000D01*
X143300000Y-95725000D02*
X143575000Y-95725000D01*
X168420000Y-84085000D02*
G75*
G03*
X167720000Y-84785000I3J-700003D01*
G01*
X168750000Y-97250000D02*
X168750000Y-93460001D01*
X140775000Y-95725000D02*
X143300000Y-95725000D01*
D14*
X162649999Y-92585001D02*
X162649999Y-92335001D01*
X162649999Y-92335001D02*
X163074999Y-92335001D01*
X163074999Y-92335001D02*
X163074999Y-92585001D01*
X163074999Y-92585001D02*
X162649999Y-92585001D01*
G36*
X163074999Y-92585001D02*
G01*
X162649999Y-92585001D01*
X162649999Y-92335001D01*
X163074999Y-92335001D01*
X163074999Y-92585001D01*
G37*
X163074999Y-92585001D02*
X162649999Y-92585001D01*
X162649999Y-92335001D01*
X163074999Y-92335001D01*
X163074999Y-92585001D01*
X162464999Y-92690001D02*
X162574999Y-92580001D01*
X162574999Y-92580001D02*
X162654999Y-92580001D01*
X162654999Y-92580001D02*
X162654999Y-92340001D01*
X162654999Y-92340001D02*
X162574999Y-92340001D01*
X162574999Y-92340001D02*
X162464999Y-92230001D01*
X162464999Y-92230001D02*
X162464999Y-92690001D01*
G36*
X162574999Y-92340001D02*
G01*
X162654999Y-92340001D01*
X162654999Y-92580001D01*
X162574999Y-92580001D01*
X162464999Y-92690001D01*
X162464999Y-92230001D01*
X162574999Y-92340001D01*
G37*
X162574999Y-92340001D02*
X162654999Y-92340001D01*
X162654999Y-92580001D01*
X162574999Y-92580001D01*
X162464999Y-92690001D01*
X162464999Y-92230001D01*
X162574999Y-92340001D01*
X162224999Y-92710001D02*
X162224999Y-92210001D01*
X162224999Y-92210001D02*
X162274999Y-92210001D01*
X162274999Y-92210001D02*
X162274999Y-92710001D01*
X162274999Y-92710001D02*
X162224999Y-92710001D01*
G36*
X162274999Y-92710001D02*
G01*
X162224999Y-92710001D01*
X162224999Y-92210001D01*
X162274999Y-92210001D01*
X162274999Y-92710001D01*
G37*
X162274999Y-92710001D02*
X162224999Y-92710001D01*
X162224999Y-92210001D01*
X162274999Y-92210001D01*
X162274999Y-92710001D01*
X162649999Y-92935001D02*
X162649999Y-92685001D01*
X162649999Y-92685001D02*
X163074999Y-92685001D01*
X163074999Y-92685001D02*
X163074999Y-92935001D01*
X163074999Y-92935001D02*
X162649999Y-92935001D01*
G36*
X163074999Y-92935001D02*
G01*
X162649999Y-92935001D01*
X162649999Y-92685001D01*
X163074999Y-92685001D01*
X163074999Y-92935001D01*
G37*
X163074999Y-92935001D02*
X162649999Y-92935001D01*
X162649999Y-92685001D01*
X163074999Y-92685001D01*
X163074999Y-92935001D01*
X162274999Y-93110001D02*
X162274999Y-91810001D01*
X162274999Y-91810001D02*
X162474999Y-91810001D01*
X162474999Y-91810001D02*
X162474999Y-93110001D01*
X162474999Y-93110001D02*
X162274999Y-93110001D01*
G36*
X162474999Y-93110001D02*
G01*
X162274999Y-93110001D01*
X162274999Y-91810001D01*
X162474999Y-91810001D01*
X162474999Y-93110001D01*
G37*
X162474999Y-93110001D02*
X162274999Y-93110001D01*
X162274999Y-91810001D01*
X162474999Y-91810001D01*
X162474999Y-93110001D01*
X161674999Y-92235001D02*
X161674999Y-91985001D01*
X161674999Y-91985001D02*
X162099999Y-91985001D01*
X162099999Y-91985001D02*
X162099999Y-92235001D01*
X162099999Y-92235001D02*
X161674999Y-92235001D01*
G36*
X162099999Y-92235001D02*
G01*
X161674999Y-92235001D01*
X161674999Y-91985001D01*
X162099999Y-91985001D01*
X162099999Y-92235001D01*
G37*
X162099999Y-92235001D02*
X161674999Y-92235001D01*
X161674999Y-91985001D01*
X162099999Y-91985001D01*
X162099999Y-92235001D01*
X162649999Y-92235001D02*
X162649999Y-91985001D01*
X162649999Y-91985001D02*
X163074999Y-91985001D01*
X163074999Y-91985001D02*
X163074999Y-92235001D01*
X163074999Y-92235001D02*
X162649999Y-92235001D01*
G36*
X163074999Y-92235001D02*
G01*
X162649999Y-92235001D01*
X162649999Y-91985001D01*
X163074999Y-91985001D01*
X163074999Y-92235001D01*
G37*
X163074999Y-92235001D02*
X162649999Y-92235001D01*
X162649999Y-91985001D01*
X163074999Y-91985001D01*
X163074999Y-92235001D01*
X161674999Y-92585001D02*
X161674999Y-92335001D01*
X161674999Y-92335001D02*
X162099999Y-92335001D01*
X162099999Y-92335001D02*
X162099999Y-92585001D01*
X162099999Y-92585001D02*
X161674999Y-92585001D01*
G36*
X162099999Y-92585001D02*
G01*
X161674999Y-92585001D01*
X161674999Y-92335001D01*
X162099999Y-92335001D01*
X162099999Y-92585001D01*
G37*
X162099999Y-92585001D02*
X161674999Y-92585001D01*
X161674999Y-92335001D01*
X162099999Y-92335001D01*
X162099999Y-92585001D01*
X161674999Y-92935001D02*
X161674999Y-92685001D01*
X161674999Y-92685001D02*
X162099999Y-92685001D01*
X162099999Y-92685001D02*
X162099999Y-92935001D01*
X162099999Y-92935001D02*
X161674999Y-92935001D01*
G36*
X162099999Y-92935001D02*
G01*
X161674999Y-92935001D01*
X161674999Y-92685001D01*
X162099999Y-92685001D01*
X162099999Y-92935001D01*
G37*
X162099999Y-92935001D02*
X161674999Y-92935001D01*
X161674999Y-92685001D01*
X162099999Y-92685001D01*
X162099999Y-92935001D01*
X143275000Y-74300000D02*
X143525000Y-74300000D01*
X143525000Y-74300000D02*
X143525000Y-74725000D01*
X143525000Y-74725000D02*
X143275000Y-74725000D01*
X143275000Y-74725000D02*
X143275000Y-74300000D01*
G36*
X143525000Y-74725000D02*
G01*
X143275000Y-74725000D01*
X143275000Y-74300000D01*
X143525000Y-74300000D01*
X143525000Y-74725000D01*
G37*
X143525000Y-74725000D02*
X143275000Y-74725000D01*
X143275000Y-74300000D01*
X143525000Y-74300000D01*
X143525000Y-74725000D01*
X143625000Y-75275000D02*
X143875000Y-75275000D01*
X143875000Y-75275000D02*
X143875000Y-75700000D01*
X143875000Y-75700000D02*
X143625000Y-75700000D01*
X143625000Y-75700000D02*
X143625000Y-75275000D01*
G36*
X143875000Y-75700000D02*
G01*
X143625000Y-75700000D01*
X143625000Y-75275000D01*
X143875000Y-75275000D01*
X143875000Y-75700000D01*
G37*
X143875000Y-75700000D02*
X143625000Y-75700000D01*
X143625000Y-75275000D01*
X143875000Y-75275000D01*
X143875000Y-75700000D01*
X143150000Y-74850000D02*
X143650000Y-74850000D01*
X143650000Y-74850000D02*
X143650000Y-74900000D01*
X143650000Y-74900000D02*
X143150000Y-74900000D01*
X143150000Y-74900000D02*
X143150000Y-74850000D01*
G36*
X143650000Y-74900000D02*
G01*
X143150000Y-74900000D01*
X143150000Y-74850000D01*
X143650000Y-74850000D01*
X143650000Y-74900000D01*
G37*
X143650000Y-74900000D02*
X143150000Y-74900000D01*
X143150000Y-74850000D01*
X143650000Y-74850000D01*
X143650000Y-74900000D01*
X142750000Y-74900000D02*
X144050000Y-74900000D01*
X144050000Y-74900000D02*
X144050000Y-75100000D01*
X144050000Y-75100000D02*
X142750000Y-75100000D01*
X142750000Y-75100000D02*
X142750000Y-74900000D01*
G36*
X144050000Y-75100000D02*
G01*
X142750000Y-75100000D01*
X142750000Y-74900000D01*
X144050000Y-74900000D01*
X144050000Y-75100000D01*
G37*
X144050000Y-75100000D02*
X142750000Y-75100000D01*
X142750000Y-74900000D01*
X144050000Y-74900000D01*
X144050000Y-75100000D01*
X143275000Y-75275000D02*
X143525000Y-75275000D01*
X143525000Y-75275000D02*
X143525000Y-75700000D01*
X143525000Y-75700000D02*
X143275000Y-75700000D01*
X143275000Y-75700000D02*
X143275000Y-75275000D01*
G36*
X143525000Y-75700000D02*
G01*
X143275000Y-75700000D01*
X143275000Y-75275000D01*
X143525000Y-75275000D01*
X143525000Y-75700000D01*
G37*
X143525000Y-75700000D02*
X143275000Y-75700000D01*
X143275000Y-75275000D01*
X143525000Y-75275000D01*
X143525000Y-75700000D01*
X142925000Y-74300000D02*
X143175000Y-74300000D01*
X143175000Y-74300000D02*
X143175000Y-74725000D01*
X143175000Y-74725000D02*
X142925000Y-74725000D01*
X142925000Y-74725000D02*
X142925000Y-74300000D01*
G36*
X143175000Y-74725000D02*
G01*
X142925000Y-74725000D01*
X142925000Y-74300000D01*
X143175000Y-74300000D01*
X143175000Y-74725000D01*
G37*
X143175000Y-74725000D02*
X142925000Y-74725000D01*
X142925000Y-74300000D01*
X143175000Y-74300000D01*
X143175000Y-74725000D01*
X142925000Y-75275000D02*
X143175000Y-75275000D01*
X143175000Y-75275000D02*
X143175000Y-75700000D01*
X143175000Y-75700000D02*
X142925000Y-75700000D01*
X142925000Y-75700000D02*
X142925000Y-75275000D01*
G36*
X143175000Y-75700000D02*
G01*
X142925000Y-75700000D01*
X142925000Y-75275000D01*
X143175000Y-75275000D01*
X143175000Y-75700000D01*
G37*
X143175000Y-75700000D02*
X142925000Y-75700000D01*
X142925000Y-75275000D01*
X143175000Y-75275000D01*
X143175000Y-75700000D01*
X143625000Y-74300000D02*
X143875000Y-74300000D01*
X143875000Y-74300000D02*
X143875000Y-74725000D01*
X143875000Y-74725000D02*
X143625000Y-74725000D01*
X143625000Y-74725000D02*
X143625000Y-74300000D01*
G36*
X143875000Y-74725000D02*
G01*
X143625000Y-74725000D01*
X143625000Y-74300000D01*
X143875000Y-74300000D01*
X143875000Y-74725000D01*
G37*
X143875000Y-74725000D02*
X143625000Y-74725000D01*
X143625000Y-74300000D01*
X143875000Y-74300000D01*
X143875000Y-74725000D01*
X143170000Y-75090000D02*
X143280000Y-75200000D01*
X143280000Y-75200000D02*
X143280000Y-75280000D01*
X143280000Y-75280000D02*
X143520000Y-75280000D01*
X143520000Y-75280000D02*
X143520000Y-75200000D01*
X143520000Y-75200000D02*
X143630000Y-75090000D01*
X143630000Y-75090000D02*
X143170000Y-75090000D01*
G36*
X143520000Y-75200000D02*
G01*
X143520000Y-75280000D01*
X143280000Y-75280000D01*
X143280000Y-75200000D01*
X143170000Y-75090000D01*
X143630000Y-75090000D01*
X143520000Y-75200000D01*
G37*
X143520000Y-75200000D02*
X143520000Y-75280000D01*
X143280000Y-75280000D01*
X143280000Y-75200000D01*
X143170000Y-75090000D01*
X143630000Y-75090000D01*
X143520000Y-75200000D01*
X171850000Y-91615000D02*
X172100000Y-91615000D01*
X172100000Y-91615000D02*
X172100000Y-92040000D01*
X172100000Y-92040000D02*
X171850000Y-92040000D01*
X171850000Y-92040000D02*
X171850000Y-91615000D01*
G36*
X172100000Y-92040000D02*
G01*
X171850000Y-92040000D01*
X171850000Y-91615000D01*
X172100000Y-91615000D01*
X172100000Y-92040000D01*
G37*
X172100000Y-92040000D02*
X171850000Y-92040000D01*
X171850000Y-91615000D01*
X172100000Y-91615000D01*
X172100000Y-92040000D01*
X171675000Y-91240000D02*
X172975000Y-91240000D01*
X172975000Y-91240000D02*
X172975000Y-91440000D01*
X172975000Y-91440000D02*
X171675000Y-91440000D01*
X171675000Y-91440000D02*
X171675000Y-91240000D01*
G36*
X172975000Y-91440000D02*
G01*
X171675000Y-91440000D01*
X171675000Y-91240000D01*
X172975000Y-91240000D01*
X172975000Y-91440000D01*
G37*
X172975000Y-91440000D02*
X171675000Y-91440000D01*
X171675000Y-91240000D01*
X172975000Y-91240000D01*
X172975000Y-91440000D01*
X172550000Y-90640000D02*
X172800000Y-90640000D01*
X172800000Y-90640000D02*
X172800000Y-91065000D01*
X172800000Y-91065000D02*
X172550000Y-91065000D01*
X172550000Y-91065000D02*
X172550000Y-90640000D01*
G36*
X172800000Y-91065000D02*
G01*
X172550000Y-91065000D01*
X172550000Y-90640000D01*
X172800000Y-90640000D01*
X172800000Y-91065000D01*
G37*
X172800000Y-91065000D02*
X172550000Y-91065000D01*
X172550000Y-90640000D01*
X172800000Y-90640000D01*
X172800000Y-91065000D01*
X172095000Y-91430000D02*
X172205000Y-91540000D01*
X172205000Y-91540000D02*
X172205000Y-91620000D01*
X172205000Y-91620000D02*
X172445000Y-91620000D01*
X172445000Y-91620000D02*
X172445000Y-91540000D01*
X172445000Y-91540000D02*
X172555000Y-91430000D01*
X172555000Y-91430000D02*
X172095000Y-91430000D01*
G36*
X172445000Y-91540000D02*
G01*
X172445000Y-91620000D01*
X172205000Y-91620000D01*
X172205000Y-91540000D01*
X172095000Y-91430000D01*
X172555000Y-91430000D01*
X172445000Y-91540000D01*
G37*
X172445000Y-91540000D02*
X172445000Y-91620000D01*
X172205000Y-91620000D01*
X172205000Y-91540000D01*
X172095000Y-91430000D01*
X172555000Y-91430000D01*
X172445000Y-91540000D01*
X172200000Y-90640000D02*
X172450000Y-90640000D01*
X172450000Y-90640000D02*
X172450000Y-91065000D01*
X172450000Y-91065000D02*
X172200000Y-91065000D01*
X172200000Y-91065000D02*
X172200000Y-90640000D01*
G36*
X172450000Y-91065000D02*
G01*
X172200000Y-91065000D01*
X172200000Y-90640000D01*
X172450000Y-90640000D01*
X172450000Y-91065000D01*
G37*
X172450000Y-91065000D02*
X172200000Y-91065000D01*
X172200000Y-90640000D01*
X172450000Y-90640000D01*
X172450000Y-91065000D01*
X172550000Y-91615000D02*
X172800000Y-91615000D01*
X172800000Y-91615000D02*
X172800000Y-92040000D01*
X172800000Y-92040000D02*
X172550000Y-92040000D01*
X172550000Y-92040000D02*
X172550000Y-91615000D01*
G36*
X172800000Y-92040000D02*
G01*
X172550000Y-92040000D01*
X172550000Y-91615000D01*
X172800000Y-91615000D01*
X172800000Y-92040000D01*
G37*
X172800000Y-92040000D02*
X172550000Y-92040000D01*
X172550000Y-91615000D01*
X172800000Y-91615000D01*
X172800000Y-92040000D01*
X172200000Y-91615000D02*
X172450000Y-91615000D01*
X172450000Y-91615000D02*
X172450000Y-92040000D01*
X172450000Y-92040000D02*
X172200000Y-92040000D01*
X172200000Y-92040000D02*
X172200000Y-91615000D01*
G36*
X172450000Y-92040000D02*
G01*
X172200000Y-92040000D01*
X172200000Y-91615000D01*
X172450000Y-91615000D01*
X172450000Y-92040000D01*
G37*
X172450000Y-92040000D02*
X172200000Y-92040000D01*
X172200000Y-91615000D01*
X172450000Y-91615000D01*
X172450000Y-92040000D01*
X171850000Y-90640000D02*
X172100000Y-90640000D01*
X172100000Y-90640000D02*
X172100000Y-91065000D01*
X172100000Y-91065000D02*
X171850000Y-91065000D01*
X171850000Y-91065000D02*
X171850000Y-90640000D01*
G36*
X172100000Y-91065000D02*
G01*
X171850000Y-91065000D01*
X171850000Y-90640000D01*
X172100000Y-90640000D01*
X172100000Y-91065000D01*
G37*
X172100000Y-91065000D02*
X171850000Y-91065000D01*
X171850000Y-90640000D01*
X172100000Y-90640000D01*
X172100000Y-91065000D01*
X172075000Y-91190000D02*
X172575000Y-91190000D01*
X172575000Y-91190000D02*
X172575000Y-91240000D01*
X172575000Y-91240000D02*
X172075000Y-91240000D01*
X172075000Y-91240000D02*
X172075000Y-91190000D01*
G36*
X172575000Y-91240000D02*
G01*
X172075000Y-91240000D01*
X172075000Y-91190000D01*
X172575000Y-91190000D01*
X172575000Y-91240000D01*
G37*
X172575000Y-91240000D02*
X172075000Y-91240000D01*
X172075000Y-91190000D01*
X172575000Y-91190000D01*
X172575000Y-91240000D01*
X145810000Y-93725000D02*
X145810000Y-94225000D01*
X145810000Y-94225000D02*
X145760000Y-94225000D01*
X145760000Y-94225000D02*
X145760000Y-93725000D01*
X145760000Y-93725000D02*
X145810000Y-93725000D01*
G36*
X145810000Y-94225000D02*
G01*
X145760000Y-94225000D01*
X145760000Y-93725000D01*
X145810000Y-93725000D01*
X145810000Y-94225000D01*
G37*
X145810000Y-94225000D02*
X145760000Y-94225000D01*
X145760000Y-93725000D01*
X145810000Y-93725000D01*
X145810000Y-94225000D01*
X145385000Y-93500000D02*
X145385000Y-93750000D01*
X145385000Y-93750000D02*
X144960000Y-93750000D01*
X144960000Y-93750000D02*
X144960000Y-93500000D01*
X144960000Y-93500000D02*
X145385000Y-93500000D01*
G36*
X145385000Y-93750000D02*
G01*
X144960000Y-93750000D01*
X144960000Y-93500000D01*
X145385000Y-93500000D01*
X145385000Y-93750000D01*
G37*
X145385000Y-93750000D02*
X144960000Y-93750000D01*
X144960000Y-93500000D01*
X145385000Y-93500000D01*
X145385000Y-93750000D01*
X145385000Y-94200000D02*
X145385000Y-94450000D01*
X145385000Y-94450000D02*
X144960000Y-94450000D01*
X144960000Y-94450000D02*
X144960000Y-94200000D01*
X144960000Y-94200000D02*
X145385000Y-94200000D01*
G36*
X145385000Y-94450000D02*
G01*
X144960000Y-94450000D01*
X144960000Y-94200000D01*
X145385000Y-94200000D01*
X145385000Y-94450000D01*
G37*
X145385000Y-94450000D02*
X144960000Y-94450000D01*
X144960000Y-94200000D01*
X145385000Y-94200000D01*
X145385000Y-94450000D01*
X146360000Y-94200000D02*
X146360000Y-94450000D01*
X146360000Y-94450000D02*
X145935000Y-94450000D01*
X145935000Y-94450000D02*
X145935000Y-94200000D01*
X145935000Y-94200000D02*
X146360000Y-94200000D01*
G36*
X146360000Y-94450000D02*
G01*
X145935000Y-94450000D01*
X145935000Y-94200000D01*
X146360000Y-94200000D01*
X146360000Y-94450000D01*
G37*
X146360000Y-94450000D02*
X145935000Y-94450000D01*
X145935000Y-94200000D01*
X146360000Y-94200000D01*
X146360000Y-94450000D01*
X146360000Y-93850000D02*
X146360000Y-94100000D01*
X146360000Y-94100000D02*
X145935000Y-94100000D01*
X145935000Y-94100000D02*
X145935000Y-93850000D01*
X145935000Y-93850000D02*
X146360000Y-93850000D01*
G36*
X146360000Y-94100000D02*
G01*
X145935000Y-94100000D01*
X145935000Y-93850000D01*
X146360000Y-93850000D01*
X146360000Y-94100000D01*
G37*
X146360000Y-94100000D02*
X145935000Y-94100000D01*
X145935000Y-93850000D01*
X146360000Y-93850000D01*
X146360000Y-94100000D01*
X145760000Y-93325000D02*
X145760000Y-94625000D01*
X145760000Y-94625000D02*
X145560000Y-94625000D01*
X145560000Y-94625000D02*
X145560000Y-93325000D01*
X145560000Y-93325000D02*
X145760000Y-93325000D01*
G36*
X145760000Y-94625000D02*
G01*
X145560000Y-94625000D01*
X145560000Y-93325000D01*
X145760000Y-93325000D01*
X145760000Y-94625000D01*
G37*
X145760000Y-94625000D02*
X145560000Y-94625000D01*
X145560000Y-93325000D01*
X145760000Y-93325000D01*
X145760000Y-94625000D01*
X146360000Y-93500000D02*
X146360000Y-93750000D01*
X146360000Y-93750000D02*
X145935000Y-93750000D01*
X145935000Y-93750000D02*
X145935000Y-93500000D01*
X145935000Y-93500000D02*
X146360000Y-93500000D01*
G36*
X146360000Y-93750000D02*
G01*
X145935000Y-93750000D01*
X145935000Y-93500000D01*
X146360000Y-93500000D01*
X146360000Y-93750000D01*
G37*
X146360000Y-93750000D02*
X145935000Y-93750000D01*
X145935000Y-93500000D01*
X146360000Y-93500000D01*
X146360000Y-93750000D01*
X145385000Y-93850000D02*
X145385000Y-94100000D01*
X145385000Y-94100000D02*
X144960000Y-94100000D01*
X144960000Y-94100000D02*
X144960000Y-93850000D01*
X144960000Y-93850000D02*
X145385000Y-93850000D01*
G36*
X145385000Y-94100000D02*
G01*
X144960000Y-94100000D01*
X144960000Y-93850000D01*
X145385000Y-93850000D01*
X145385000Y-94100000D01*
G37*
X145385000Y-94100000D02*
X144960000Y-94100000D01*
X144960000Y-93850000D01*
X145385000Y-93850000D01*
X145385000Y-94100000D01*
X145570000Y-93745000D02*
X145460000Y-93855000D01*
X145460000Y-93855000D02*
X145380000Y-93855000D01*
X145380000Y-93855000D02*
X145380000Y-94095000D01*
X145380000Y-94095000D02*
X145460000Y-94095000D01*
X145460000Y-94095000D02*
X145570000Y-94205000D01*
X145570000Y-94205000D02*
X145570000Y-93745000D01*
G36*
X145570000Y-94205000D02*
G01*
X145460000Y-94095000D01*
X145380000Y-94095000D01*
X145380000Y-93855000D01*
X145460000Y-93855000D01*
X145570000Y-93745000D01*
X145570000Y-94205000D01*
G37*
X145570000Y-94205000D02*
X145460000Y-94095000D01*
X145380000Y-94095000D01*
X145380000Y-93855000D01*
X145460000Y-93855000D01*
X145570000Y-93745000D01*
X145570000Y-94205000D01*
X138590000Y-94625000D02*
X138590000Y-93325000D01*
X138590000Y-93325000D02*
X138790000Y-93325000D01*
X138790000Y-93325000D02*
X138790000Y-94625000D01*
X138790000Y-94625000D02*
X138590000Y-94625000D01*
G36*
X138790000Y-94625000D02*
G01*
X138590000Y-94625000D01*
X138590000Y-93325000D01*
X138790000Y-93325000D01*
X138790000Y-94625000D01*
G37*
X138790000Y-94625000D02*
X138590000Y-94625000D01*
X138590000Y-93325000D01*
X138790000Y-93325000D01*
X138790000Y-94625000D01*
X138540000Y-94225000D02*
X138540000Y-93725000D01*
X138540000Y-93725000D02*
X138590000Y-93725000D01*
X138590000Y-93725000D02*
X138590000Y-94225000D01*
X138590000Y-94225000D02*
X138540000Y-94225000D01*
G36*
X138590000Y-94225000D02*
G01*
X138540000Y-94225000D01*
X138540000Y-93725000D01*
X138590000Y-93725000D01*
X138590000Y-94225000D01*
G37*
X138590000Y-94225000D02*
X138540000Y-94225000D01*
X138540000Y-93725000D01*
X138590000Y-93725000D01*
X138590000Y-94225000D01*
X138780000Y-94205000D02*
X138890000Y-94095000D01*
X138890000Y-94095000D02*
X138970000Y-94095000D01*
X138970000Y-94095000D02*
X138970000Y-93855000D01*
X138970000Y-93855000D02*
X138890000Y-93855000D01*
X138890000Y-93855000D02*
X138780000Y-93745000D01*
X138780000Y-93745000D02*
X138780000Y-94205000D01*
G36*
X138890000Y-93855000D02*
G01*
X138970000Y-93855000D01*
X138970000Y-94095000D01*
X138890000Y-94095000D01*
X138780000Y-94205000D01*
X138780000Y-93745000D01*
X138890000Y-93855000D01*
G37*
X138890000Y-93855000D02*
X138970000Y-93855000D01*
X138970000Y-94095000D01*
X138890000Y-94095000D01*
X138780000Y-94205000D01*
X138780000Y-93745000D01*
X138890000Y-93855000D01*
X137990000Y-93750000D02*
X137990000Y-93500000D01*
X137990000Y-93500000D02*
X138415000Y-93500000D01*
X138415000Y-93500000D02*
X138415000Y-93750000D01*
X138415000Y-93750000D02*
X137990000Y-93750000D01*
G36*
X138415000Y-93750000D02*
G01*
X137990000Y-93750000D01*
X137990000Y-93500000D01*
X138415000Y-93500000D01*
X138415000Y-93750000D01*
G37*
X138415000Y-93750000D02*
X137990000Y-93750000D01*
X137990000Y-93500000D01*
X138415000Y-93500000D01*
X138415000Y-93750000D01*
X138965000Y-94450000D02*
X138965000Y-94200000D01*
X138965000Y-94200000D02*
X139390000Y-94200000D01*
X139390000Y-94200000D02*
X139390000Y-94450000D01*
X139390000Y-94450000D02*
X138965000Y-94450000D01*
G36*
X139390000Y-94450000D02*
G01*
X138965000Y-94450000D01*
X138965000Y-94200000D01*
X139390000Y-94200000D01*
X139390000Y-94450000D01*
G37*
X139390000Y-94450000D02*
X138965000Y-94450000D01*
X138965000Y-94200000D01*
X139390000Y-94200000D01*
X139390000Y-94450000D01*
X137990000Y-94450000D02*
X137990000Y-94200000D01*
X137990000Y-94200000D02*
X138415000Y-94200000D01*
X138415000Y-94200000D02*
X138415000Y-94450000D01*
X138415000Y-94450000D02*
X137990000Y-94450000D01*
G36*
X138415000Y-94450000D02*
G01*
X137990000Y-94450000D01*
X137990000Y-94200000D01*
X138415000Y-94200000D01*
X138415000Y-94450000D01*
G37*
X138415000Y-94450000D02*
X137990000Y-94450000D01*
X137990000Y-94200000D01*
X138415000Y-94200000D01*
X138415000Y-94450000D01*
X137990000Y-94100000D02*
X137990000Y-93850000D01*
X137990000Y-93850000D02*
X138415000Y-93850000D01*
X138415000Y-93850000D02*
X138415000Y-94100000D01*
X138415000Y-94100000D02*
X137990000Y-94100000D01*
G36*
X138415000Y-94100000D02*
G01*
X137990000Y-94100000D01*
X137990000Y-93850000D01*
X138415000Y-93850000D01*
X138415000Y-94100000D01*
G37*
X138415000Y-94100000D02*
X137990000Y-94100000D01*
X137990000Y-93850000D01*
X138415000Y-93850000D01*
X138415000Y-94100000D01*
X138965000Y-94100000D02*
X138965000Y-93850000D01*
X138965000Y-93850000D02*
X139390000Y-93850000D01*
X139390000Y-93850000D02*
X139390000Y-94100000D01*
X139390000Y-94100000D02*
X138965000Y-94100000D01*
G36*
X139390000Y-94100000D02*
G01*
X138965000Y-94100000D01*
X138965000Y-93850000D01*
X139390000Y-93850000D01*
X139390000Y-94100000D01*
G37*
X139390000Y-94100000D02*
X138965000Y-94100000D01*
X138965000Y-93850000D01*
X139390000Y-93850000D01*
X139390000Y-94100000D01*
X138965000Y-93750000D02*
X138965000Y-93500000D01*
X138965000Y-93500000D02*
X139390000Y-93500000D01*
X139390000Y-93500000D02*
X139390000Y-93750000D01*
X139390000Y-93750000D02*
X138965000Y-93750000D01*
G36*
X139390000Y-93750000D02*
G01*
X138965000Y-93750000D01*
X138965000Y-93500000D01*
X139390000Y-93500000D01*
X139390000Y-93750000D01*
G37*
X139390000Y-93750000D02*
X138965000Y-93750000D01*
X138965000Y-93500000D01*
X139390000Y-93500000D01*
X139390000Y-93750000D01*
X172450000Y-96210000D02*
X172200000Y-96210000D01*
X172200000Y-96210000D02*
X172200000Y-95785000D01*
X172200000Y-95785000D02*
X172450000Y-95785000D01*
X172450000Y-95785000D02*
X172450000Y-96210000D01*
G36*
X172450000Y-96210000D02*
G01*
X172200000Y-96210000D01*
X172200000Y-95785000D01*
X172450000Y-95785000D01*
X172450000Y-96210000D01*
G37*
X172450000Y-96210000D02*
X172200000Y-96210000D01*
X172200000Y-95785000D01*
X172450000Y-95785000D01*
X172450000Y-96210000D01*
X172800000Y-96210000D02*
X172550000Y-96210000D01*
X172550000Y-96210000D02*
X172550000Y-95785000D01*
X172550000Y-95785000D02*
X172800000Y-95785000D01*
X172800000Y-95785000D02*
X172800000Y-96210000D01*
G36*
X172800000Y-96210000D02*
G01*
X172550000Y-96210000D01*
X172550000Y-95785000D01*
X172800000Y-95785000D01*
X172800000Y-96210000D01*
G37*
X172800000Y-96210000D02*
X172550000Y-96210000D01*
X172550000Y-95785000D01*
X172800000Y-95785000D01*
X172800000Y-96210000D01*
X172555000Y-95420000D02*
X172445000Y-95310000D01*
X172445000Y-95310000D02*
X172445000Y-95230000D01*
X172445000Y-95230000D02*
X172205000Y-95230000D01*
X172205000Y-95230000D02*
X172205000Y-95310000D01*
X172205000Y-95310000D02*
X172095000Y-95420000D01*
X172095000Y-95420000D02*
X172555000Y-95420000D01*
G36*
X172445000Y-95310000D02*
G01*
X172555000Y-95420000D01*
X172095000Y-95420000D01*
X172205000Y-95310000D01*
X172205000Y-95230000D01*
X172445000Y-95230000D01*
X172445000Y-95310000D01*
G37*
X172445000Y-95310000D02*
X172555000Y-95420000D01*
X172095000Y-95420000D01*
X172205000Y-95310000D01*
X172205000Y-95230000D01*
X172445000Y-95230000D01*
X172445000Y-95310000D01*
X172975000Y-95610000D02*
X171675000Y-95610000D01*
X171675000Y-95610000D02*
X171675000Y-95410000D01*
X171675000Y-95410000D02*
X172975000Y-95410000D01*
X172975000Y-95410000D02*
X172975000Y-95610000D01*
G36*
X172975000Y-95610000D02*
G01*
X171675000Y-95610000D01*
X171675000Y-95410000D01*
X172975000Y-95410000D01*
X172975000Y-95610000D01*
G37*
X172975000Y-95610000D02*
X171675000Y-95610000D01*
X171675000Y-95410000D01*
X172975000Y-95410000D01*
X172975000Y-95610000D01*
X172575000Y-95660000D02*
X172075000Y-95660000D01*
X172075000Y-95660000D02*
X172075000Y-95610000D01*
X172075000Y-95610000D02*
X172575000Y-95610000D01*
X172575000Y-95610000D02*
X172575000Y-95660000D01*
G36*
X172575000Y-95660000D02*
G01*
X172075000Y-95660000D01*
X172075000Y-95610000D01*
X172575000Y-95610000D01*
X172575000Y-95660000D01*
G37*
X172575000Y-95660000D02*
X172075000Y-95660000D01*
X172075000Y-95610000D01*
X172575000Y-95610000D01*
X172575000Y-95660000D01*
X172100000Y-96210000D02*
X171850000Y-96210000D01*
X171850000Y-96210000D02*
X171850000Y-95785000D01*
X171850000Y-95785000D02*
X172100000Y-95785000D01*
X172100000Y-95785000D02*
X172100000Y-96210000D01*
G36*
X172100000Y-96210000D02*
G01*
X171850000Y-96210000D01*
X171850000Y-95785000D01*
X172100000Y-95785000D01*
X172100000Y-96210000D01*
G37*
X172100000Y-96210000D02*
X171850000Y-96210000D01*
X171850000Y-95785000D01*
X172100000Y-95785000D01*
X172100000Y-96210000D01*
X172800000Y-95235000D02*
X172550000Y-95235000D01*
X172550000Y-95235000D02*
X172550000Y-94810000D01*
X172550000Y-94810000D02*
X172800000Y-94810000D01*
X172800000Y-94810000D02*
X172800000Y-95235000D01*
G36*
X172800000Y-95235000D02*
G01*
X172550000Y-95235000D01*
X172550000Y-94810000D01*
X172800000Y-94810000D01*
X172800000Y-95235000D01*
G37*
X172800000Y-95235000D02*
X172550000Y-95235000D01*
X172550000Y-94810000D01*
X172800000Y-94810000D01*
X172800000Y-95235000D01*
X172450000Y-95235000D02*
X172200000Y-95235000D01*
X172200000Y-95235000D02*
X172200000Y-94810000D01*
X172200000Y-94810000D02*
X172450000Y-94810000D01*
X172450000Y-94810000D02*
X172450000Y-95235000D01*
G36*
X172450000Y-95235000D02*
G01*
X172200000Y-95235000D01*
X172200000Y-94810000D01*
X172450000Y-94810000D01*
X172450000Y-95235000D01*
G37*
X172450000Y-95235000D02*
X172200000Y-95235000D01*
X172200000Y-94810000D01*
X172450000Y-94810000D01*
X172450000Y-95235000D01*
X172100000Y-95235000D02*
X171850000Y-95235000D01*
X171850000Y-95235000D02*
X171850000Y-94810000D01*
X171850000Y-94810000D02*
X172100000Y-94810000D01*
X172100000Y-94810000D02*
X172100000Y-95235000D01*
G36*
X172100000Y-95235000D02*
G01*
X171850000Y-95235000D01*
X171850000Y-94810000D01*
X172100000Y-94810000D01*
X172100000Y-95235000D01*
G37*
X172100000Y-95235000D02*
X171850000Y-95235000D01*
X171850000Y-94810000D01*
X172100000Y-94810000D01*
X172100000Y-95235000D01*
X150440000Y-87530001D02*
X150440000Y-87280001D01*
X150440000Y-87280001D02*
X150865000Y-87280001D01*
X150865000Y-87280001D02*
X150865000Y-87530001D01*
X150865000Y-87530001D02*
X150440000Y-87530001D01*
G36*
X150865000Y-87530001D02*
G01*
X150440000Y-87530001D01*
X150440000Y-87280001D01*
X150865000Y-87280001D01*
X150865000Y-87530001D01*
G37*
X150865000Y-87530001D02*
X150440000Y-87530001D01*
X150440000Y-87280001D01*
X150865000Y-87280001D01*
X150865000Y-87530001D01*
X150440000Y-86830001D02*
X150440000Y-86580001D01*
X150440000Y-86580001D02*
X150865000Y-86580001D01*
X150865000Y-86580001D02*
X150865000Y-86830001D01*
X150865000Y-86830001D02*
X150440000Y-86830001D01*
G36*
X150865000Y-86830001D02*
G01*
X150440000Y-86830001D01*
X150440000Y-86580001D01*
X150865000Y-86580001D01*
X150865000Y-86830001D01*
G37*
X150865000Y-86830001D02*
X150440000Y-86830001D01*
X150440000Y-86580001D01*
X150865000Y-86580001D01*
X150865000Y-86830001D01*
X150440000Y-87180001D02*
X150440000Y-86930001D01*
X150440000Y-86930001D02*
X150865000Y-86930001D01*
X150865000Y-86930001D02*
X150865000Y-87180001D01*
X150865000Y-87180001D02*
X150440000Y-87180001D01*
G36*
X150865000Y-87180001D02*
G01*
X150440000Y-87180001D01*
X150440000Y-86930001D01*
X150865000Y-86930001D01*
X150865000Y-87180001D01*
G37*
X150865000Y-87180001D02*
X150440000Y-87180001D01*
X150440000Y-86930001D01*
X150865000Y-86930001D01*
X150865000Y-87180001D01*
X151415000Y-87530001D02*
X151415000Y-87280001D01*
X151415000Y-87280001D02*
X151840000Y-87280001D01*
X151840000Y-87280001D02*
X151840000Y-87530001D01*
X151840000Y-87530001D02*
X151415000Y-87530001D01*
G36*
X151840000Y-87530001D02*
G01*
X151415000Y-87530001D01*
X151415000Y-87280001D01*
X151840000Y-87280001D01*
X151840000Y-87530001D01*
G37*
X151840000Y-87530001D02*
X151415000Y-87530001D01*
X151415000Y-87280001D01*
X151840000Y-87280001D01*
X151840000Y-87530001D01*
X151230000Y-87285001D02*
X151340000Y-87175001D01*
X151340000Y-87175001D02*
X151420000Y-87175001D01*
X151420000Y-87175001D02*
X151420000Y-86935001D01*
X151420000Y-86935001D02*
X151340000Y-86935001D01*
X151340000Y-86935001D02*
X151230000Y-86825001D01*
X151230000Y-86825001D02*
X151230000Y-87285001D01*
G36*
X151340000Y-86935001D02*
G01*
X151420000Y-86935001D01*
X151420000Y-87175001D01*
X151340000Y-87175001D01*
X151230000Y-87285001D01*
X151230000Y-86825001D01*
X151340000Y-86935001D01*
G37*
X151340000Y-86935001D02*
X151420000Y-86935001D01*
X151420000Y-87175001D01*
X151340000Y-87175001D01*
X151230000Y-87285001D01*
X151230000Y-86825001D01*
X151340000Y-86935001D01*
X151415000Y-86830001D02*
X151415000Y-86580001D01*
X151415000Y-86580001D02*
X151840000Y-86580001D01*
X151840000Y-86580001D02*
X151840000Y-86830001D01*
X151840000Y-86830001D02*
X151415000Y-86830001D01*
G36*
X151840000Y-86830001D02*
G01*
X151415000Y-86830001D01*
X151415000Y-86580001D01*
X151840000Y-86580001D01*
X151840000Y-86830001D01*
G37*
X151840000Y-86830001D02*
X151415000Y-86830001D01*
X151415000Y-86580001D01*
X151840000Y-86580001D01*
X151840000Y-86830001D01*
X150990000Y-87305001D02*
X150990000Y-86805001D01*
X150990000Y-86805001D02*
X151040000Y-86805001D01*
X151040000Y-86805001D02*
X151040000Y-87305001D01*
X151040000Y-87305001D02*
X150990000Y-87305001D01*
G36*
X151040000Y-87305001D02*
G01*
X150990000Y-87305001D01*
X150990000Y-86805001D01*
X151040000Y-86805001D01*
X151040000Y-87305001D01*
G37*
X151040000Y-87305001D02*
X150990000Y-87305001D01*
X150990000Y-86805001D01*
X151040000Y-86805001D01*
X151040000Y-87305001D01*
X151040000Y-87705001D02*
X151040000Y-86405001D01*
X151040000Y-86405001D02*
X151240000Y-86405001D01*
X151240000Y-86405001D02*
X151240000Y-87705001D01*
X151240000Y-87705001D02*
X151040000Y-87705001D01*
G36*
X151240000Y-87705001D02*
G01*
X151040000Y-87705001D01*
X151040000Y-86405001D01*
X151240000Y-86405001D01*
X151240000Y-87705001D01*
G37*
X151240000Y-87705001D02*
X151040000Y-87705001D01*
X151040000Y-86405001D01*
X151240000Y-86405001D01*
X151240000Y-87705001D01*
X151415000Y-87180001D02*
X151415000Y-86930001D01*
X151415000Y-86930001D02*
X151840000Y-86930001D01*
X151840000Y-86930001D02*
X151840000Y-87180001D01*
X151840000Y-87180001D02*
X151415000Y-87180001D01*
G36*
X151840000Y-87180001D02*
G01*
X151415000Y-87180001D01*
X151415000Y-86930001D01*
X151840000Y-86930001D01*
X151840000Y-87180001D01*
G37*
X151840000Y-87180001D02*
X151415000Y-87180001D01*
X151415000Y-86930001D01*
X151840000Y-86930001D01*
X151840000Y-87180001D01*
X166655000Y-76875000D02*
X166655000Y-77125000D01*
X166655000Y-77125000D02*
X166230000Y-77125000D01*
X166230000Y-77125000D02*
X166230000Y-76875000D01*
X166230000Y-76875000D02*
X166655000Y-76875000D01*
G36*
X166655000Y-77125000D02*
G01*
X166230000Y-77125000D01*
X166230000Y-76875000D01*
X166655000Y-76875000D01*
X166655000Y-77125000D01*
G37*
X166655000Y-77125000D02*
X166230000Y-77125000D01*
X166230000Y-76875000D01*
X166655000Y-76875000D01*
X166655000Y-77125000D01*
X166055000Y-76350000D02*
X166055000Y-77650000D01*
X166055000Y-77650000D02*
X165855000Y-77650000D01*
X165855000Y-77650000D02*
X165855000Y-76350000D01*
X165855000Y-76350000D02*
X166055000Y-76350000D01*
G36*
X166055000Y-77650000D02*
G01*
X165855000Y-77650000D01*
X165855000Y-76350000D01*
X166055000Y-76350000D01*
X166055000Y-77650000D01*
G37*
X166055000Y-77650000D02*
X165855000Y-77650000D01*
X165855000Y-76350000D01*
X166055000Y-76350000D01*
X166055000Y-77650000D01*
X165680000Y-76525000D02*
X165680000Y-76775000D01*
X165680000Y-76775000D02*
X165255000Y-76775000D01*
X165255000Y-76775000D02*
X165255000Y-76525000D01*
X165255000Y-76525000D02*
X165680000Y-76525000D01*
G36*
X165680000Y-76775000D02*
G01*
X165255000Y-76775000D01*
X165255000Y-76525000D01*
X165680000Y-76525000D01*
X165680000Y-76775000D01*
G37*
X165680000Y-76775000D02*
X165255000Y-76775000D01*
X165255000Y-76525000D01*
X165680000Y-76525000D01*
X165680000Y-76775000D01*
X165680000Y-76875000D02*
X165680000Y-77125000D01*
X165680000Y-77125000D02*
X165255000Y-77125000D01*
X165255000Y-77125000D02*
X165255000Y-76875000D01*
X165255000Y-76875000D02*
X165680000Y-76875000D01*
G36*
X165680000Y-77125000D02*
G01*
X165255000Y-77125000D01*
X165255000Y-76875000D01*
X165680000Y-76875000D01*
X165680000Y-77125000D01*
G37*
X165680000Y-77125000D02*
X165255000Y-77125000D01*
X165255000Y-76875000D01*
X165680000Y-76875000D01*
X165680000Y-77125000D01*
X166655000Y-77225000D02*
X166655000Y-77475000D01*
X166655000Y-77475000D02*
X166230000Y-77475000D01*
X166230000Y-77475000D02*
X166230000Y-77225000D01*
X166230000Y-77225000D02*
X166655000Y-77225000D01*
G36*
X166655000Y-77475000D02*
G01*
X166230000Y-77475000D01*
X166230000Y-77225000D01*
X166655000Y-77225000D01*
X166655000Y-77475000D01*
G37*
X166655000Y-77475000D02*
X166230000Y-77475000D01*
X166230000Y-77225000D01*
X166655000Y-77225000D01*
X166655000Y-77475000D01*
X166105000Y-76750000D02*
X166105000Y-77250000D01*
X166105000Y-77250000D02*
X166055000Y-77250000D01*
X166055000Y-77250000D02*
X166055000Y-76750000D01*
X166055000Y-76750000D02*
X166105000Y-76750000D01*
G36*
X166105000Y-77250000D02*
G01*
X166055000Y-77250000D01*
X166055000Y-76750000D01*
X166105000Y-76750000D01*
X166105000Y-77250000D01*
G37*
X166105000Y-77250000D02*
X166055000Y-77250000D01*
X166055000Y-76750000D01*
X166105000Y-76750000D01*
X166105000Y-77250000D01*
X165680000Y-77225000D02*
X165680000Y-77475000D01*
X165680000Y-77475000D02*
X165255000Y-77475000D01*
X165255000Y-77475000D02*
X165255000Y-77225000D01*
X165255000Y-77225000D02*
X165680000Y-77225000D01*
G36*
X165680000Y-77475000D02*
G01*
X165255000Y-77475000D01*
X165255000Y-77225000D01*
X165680000Y-77225000D01*
X165680000Y-77475000D01*
G37*
X165680000Y-77475000D02*
X165255000Y-77475000D01*
X165255000Y-77225000D01*
X165680000Y-77225000D01*
X165680000Y-77475000D01*
X166655000Y-76525000D02*
X166655000Y-76775000D01*
X166655000Y-76775000D02*
X166230000Y-76775000D01*
X166230000Y-76775000D02*
X166230000Y-76525000D01*
X166230000Y-76525000D02*
X166655000Y-76525000D01*
G36*
X166655000Y-76775000D02*
G01*
X166230000Y-76775000D01*
X166230000Y-76525000D01*
X166655000Y-76525000D01*
X166655000Y-76775000D01*
G37*
X166655000Y-76775000D02*
X166230000Y-76775000D01*
X166230000Y-76525000D01*
X166655000Y-76525000D01*
X166655000Y-76775000D01*
X165865000Y-76770000D02*
X165755000Y-76880000D01*
X165755000Y-76880000D02*
X165675000Y-76880000D01*
X165675000Y-76880000D02*
X165675000Y-77120000D01*
X165675000Y-77120000D02*
X165755000Y-77120000D01*
X165755000Y-77120000D02*
X165865000Y-77230000D01*
X165865000Y-77230000D02*
X165865000Y-76770000D01*
G36*
X165865000Y-77230000D02*
G01*
X165755000Y-77120000D01*
X165675000Y-77120000D01*
X165675000Y-76880000D01*
X165755000Y-76880000D01*
X165865000Y-76770000D01*
X165865000Y-77230000D01*
G37*
X165865000Y-77230000D02*
X165755000Y-77120000D01*
X165675000Y-77120000D01*
X165675000Y-76880000D01*
X165755000Y-76880000D01*
X165865000Y-76770000D01*
X165865000Y-77230000D01*
X170000000Y-87020000D02*
X169500000Y-87020000D01*
X169500000Y-87020000D02*
X169500000Y-86970000D01*
X169500000Y-86970000D02*
X170000000Y-86970000D01*
X170000000Y-86970000D02*
X170000000Y-87020000D01*
G36*
X170000000Y-87020000D02*
G01*
X169500000Y-87020000D01*
X169500000Y-86970000D01*
X170000000Y-86970000D01*
X170000000Y-87020000D01*
G37*
X170000000Y-87020000D02*
X169500000Y-87020000D01*
X169500000Y-86970000D01*
X170000000Y-86970000D01*
X170000000Y-87020000D01*
X169875000Y-87570000D02*
X169625000Y-87570000D01*
X169625000Y-87570000D02*
X169625000Y-87145000D01*
X169625000Y-87145000D02*
X169875000Y-87145000D01*
X169875000Y-87145000D02*
X169875000Y-87570000D01*
G36*
X169875000Y-87570000D02*
G01*
X169625000Y-87570000D01*
X169625000Y-87145000D01*
X169875000Y-87145000D01*
X169875000Y-87570000D01*
G37*
X169875000Y-87570000D02*
X169625000Y-87570000D01*
X169625000Y-87145000D01*
X169875000Y-87145000D01*
X169875000Y-87570000D01*
X170400000Y-86970000D02*
X169100000Y-86970000D01*
X169100000Y-86970000D02*
X169100000Y-86770000D01*
X169100000Y-86770000D02*
X170400000Y-86770000D01*
X170400000Y-86770000D02*
X170400000Y-86970000D01*
G36*
X170400000Y-86970000D02*
G01*
X169100000Y-86970000D01*
X169100000Y-86770000D01*
X170400000Y-86770000D01*
X170400000Y-86970000D01*
G37*
X170400000Y-86970000D02*
X169100000Y-86970000D01*
X169100000Y-86770000D01*
X170400000Y-86770000D01*
X170400000Y-86970000D01*
X169525000Y-87570000D02*
X169275000Y-87570000D01*
X169275000Y-87570000D02*
X169275000Y-87145000D01*
X169275000Y-87145000D02*
X169525000Y-87145000D01*
X169525000Y-87145000D02*
X169525000Y-87570000D01*
G36*
X169525000Y-87570000D02*
G01*
X169275000Y-87570000D01*
X169275000Y-87145000D01*
X169525000Y-87145000D01*
X169525000Y-87570000D01*
G37*
X169525000Y-87570000D02*
X169275000Y-87570000D01*
X169275000Y-87145000D01*
X169525000Y-87145000D01*
X169525000Y-87570000D01*
X170225000Y-87570000D02*
X169975000Y-87570000D01*
X169975000Y-87570000D02*
X169975000Y-87145000D01*
X169975000Y-87145000D02*
X170225000Y-87145000D01*
X170225000Y-87145000D02*
X170225000Y-87570000D01*
G36*
X170225000Y-87570000D02*
G01*
X169975000Y-87570000D01*
X169975000Y-87145000D01*
X170225000Y-87145000D01*
X170225000Y-87570000D01*
G37*
X170225000Y-87570000D02*
X169975000Y-87570000D01*
X169975000Y-87145000D01*
X170225000Y-87145000D01*
X170225000Y-87570000D01*
X169525000Y-86595000D02*
X169275000Y-86595000D01*
X169275000Y-86595000D02*
X169275000Y-86170000D01*
X169275000Y-86170000D02*
X169525000Y-86170000D01*
X169525000Y-86170000D02*
X169525000Y-86595000D01*
G36*
X169525000Y-86595000D02*
G01*
X169275000Y-86595000D01*
X169275000Y-86170000D01*
X169525000Y-86170000D01*
X169525000Y-86595000D01*
G37*
X169525000Y-86595000D02*
X169275000Y-86595000D01*
X169275000Y-86170000D01*
X169525000Y-86170000D01*
X169525000Y-86595000D01*
X169980000Y-86780000D02*
X169870000Y-86670000D01*
X169870000Y-86670000D02*
X169870000Y-86590000D01*
X169870000Y-86590000D02*
X169630000Y-86590000D01*
X169630000Y-86590000D02*
X169630000Y-86670000D01*
X169630000Y-86670000D02*
X169520000Y-86780000D01*
X169520000Y-86780000D02*
X169980000Y-86780000D01*
G36*
X169870000Y-86670000D02*
G01*
X169980000Y-86780000D01*
X169520000Y-86780000D01*
X169630000Y-86670000D01*
X169630000Y-86590000D01*
X169870000Y-86590000D01*
X169870000Y-86670000D01*
G37*
X169870000Y-86670000D02*
X169980000Y-86780000D01*
X169520000Y-86780000D01*
X169630000Y-86670000D01*
X169630000Y-86590000D01*
X169870000Y-86590000D01*
X169870000Y-86670000D01*
X170225000Y-86595000D02*
X169975000Y-86595000D01*
X169975000Y-86595000D02*
X169975000Y-86170000D01*
X169975000Y-86170000D02*
X170225000Y-86170000D01*
X170225000Y-86170000D02*
X170225000Y-86595000D01*
G36*
X170225000Y-86595000D02*
G01*
X169975000Y-86595000D01*
X169975000Y-86170000D01*
X170225000Y-86170000D01*
X170225000Y-86595000D01*
G37*
X170225000Y-86595000D02*
X169975000Y-86595000D01*
X169975000Y-86170000D01*
X170225000Y-86170000D01*
X170225000Y-86595000D01*
X169875000Y-86595000D02*
X169625000Y-86595000D01*
X169625000Y-86595000D02*
X169625000Y-86170000D01*
X169625000Y-86170000D02*
X169875000Y-86170000D01*
X169875000Y-86170000D02*
X169875000Y-86595000D01*
G36*
X169875000Y-86595000D02*
G01*
X169625000Y-86595000D01*
X169625000Y-86170000D01*
X169875000Y-86170000D01*
X169875000Y-86595000D01*
G37*
X169875000Y-86595000D02*
X169625000Y-86595000D01*
X169625000Y-86170000D01*
X169875000Y-86170000D01*
X169875000Y-86595000D01*
X169520000Y-82790000D02*
X169630000Y-82900000D01*
X169630000Y-82900000D02*
X169630000Y-82980000D01*
X169630000Y-82980000D02*
X169870000Y-82980000D01*
X169870000Y-82980000D02*
X169870000Y-82900000D01*
X169870000Y-82900000D02*
X169980000Y-82790000D01*
X169980000Y-82790000D02*
X169520000Y-82790000D01*
G36*
X169870000Y-82900000D02*
G01*
X169870000Y-82980000D01*
X169630000Y-82980000D01*
X169630000Y-82900000D01*
X169520000Y-82790000D01*
X169980000Y-82790000D01*
X169870000Y-82900000D01*
G37*
X169870000Y-82900000D02*
X169870000Y-82980000D01*
X169630000Y-82980000D01*
X169630000Y-82900000D01*
X169520000Y-82790000D01*
X169980000Y-82790000D01*
X169870000Y-82900000D01*
X169625000Y-82975000D02*
X169875000Y-82975000D01*
X169875000Y-82975000D02*
X169875000Y-83400000D01*
X169875000Y-83400000D02*
X169625000Y-83400000D01*
X169625000Y-83400000D02*
X169625000Y-82975000D01*
G36*
X169875000Y-83400000D02*
G01*
X169625000Y-83400000D01*
X169625000Y-82975000D01*
X169875000Y-82975000D01*
X169875000Y-83400000D01*
G37*
X169875000Y-83400000D02*
X169625000Y-83400000D01*
X169625000Y-82975000D01*
X169875000Y-82975000D01*
X169875000Y-83400000D01*
X169975000Y-82000000D02*
X170225000Y-82000000D01*
X170225000Y-82000000D02*
X170225000Y-82425000D01*
X170225000Y-82425000D02*
X169975000Y-82425000D01*
X169975000Y-82425000D02*
X169975000Y-82000000D01*
G36*
X170225000Y-82425000D02*
G01*
X169975000Y-82425000D01*
X169975000Y-82000000D01*
X170225000Y-82000000D01*
X170225000Y-82425000D01*
G37*
X170225000Y-82425000D02*
X169975000Y-82425000D01*
X169975000Y-82000000D01*
X170225000Y-82000000D01*
X170225000Y-82425000D01*
X169100000Y-82600000D02*
X170400000Y-82600000D01*
X170400000Y-82600000D02*
X170400000Y-82800000D01*
X170400000Y-82800000D02*
X169100000Y-82800000D01*
X169100000Y-82800000D02*
X169100000Y-82600000D01*
G36*
X170400000Y-82800000D02*
G01*
X169100000Y-82800000D01*
X169100000Y-82600000D01*
X170400000Y-82600000D01*
X170400000Y-82800000D01*
G37*
X170400000Y-82800000D02*
X169100000Y-82800000D01*
X169100000Y-82600000D01*
X170400000Y-82600000D01*
X170400000Y-82800000D01*
X169275000Y-82975000D02*
X169525000Y-82975000D01*
X169525000Y-82975000D02*
X169525000Y-83400000D01*
X169525000Y-83400000D02*
X169275000Y-83400000D01*
X169275000Y-83400000D02*
X169275000Y-82975000D01*
G36*
X169525000Y-83400000D02*
G01*
X169275000Y-83400000D01*
X169275000Y-82975000D01*
X169525000Y-82975000D01*
X169525000Y-83400000D01*
G37*
X169525000Y-83400000D02*
X169275000Y-83400000D01*
X169275000Y-82975000D01*
X169525000Y-82975000D01*
X169525000Y-83400000D01*
X169500000Y-82550000D02*
X170000000Y-82550000D01*
X170000000Y-82550000D02*
X170000000Y-82600000D01*
X170000000Y-82600000D02*
X169500000Y-82600000D01*
X169500000Y-82600000D02*
X169500000Y-82550000D01*
G36*
X170000000Y-82600000D02*
G01*
X169500000Y-82600000D01*
X169500000Y-82550000D01*
X170000000Y-82550000D01*
X170000000Y-82600000D01*
G37*
X170000000Y-82600000D02*
X169500000Y-82600000D01*
X169500000Y-82550000D01*
X170000000Y-82550000D01*
X170000000Y-82600000D01*
X169625000Y-82000000D02*
X169875000Y-82000000D01*
X169875000Y-82000000D02*
X169875000Y-82425000D01*
X169875000Y-82425000D02*
X169625000Y-82425000D01*
X169625000Y-82425000D02*
X169625000Y-82000000D01*
G36*
X169875000Y-82425000D02*
G01*
X169625000Y-82425000D01*
X169625000Y-82000000D01*
X169875000Y-82000000D01*
X169875000Y-82425000D01*
G37*
X169875000Y-82425000D02*
X169625000Y-82425000D01*
X169625000Y-82000000D01*
X169875000Y-82000000D01*
X169875000Y-82425000D01*
X169275000Y-82000000D02*
X169525000Y-82000000D01*
X169525000Y-82000000D02*
X169525000Y-82425000D01*
X169525000Y-82425000D02*
X169275000Y-82425000D01*
X169275000Y-82425000D02*
X169275000Y-82000000D01*
G36*
X169525000Y-82425000D02*
G01*
X169275000Y-82425000D01*
X169275000Y-82000000D01*
X169525000Y-82000000D01*
X169525000Y-82425000D01*
G37*
X169525000Y-82425000D02*
X169275000Y-82425000D01*
X169275000Y-82000000D01*
X169525000Y-82000000D01*
X169525000Y-82425000D01*
X169975000Y-82975000D02*
X170225000Y-82975000D01*
X170225000Y-82975000D02*
X170225000Y-83400000D01*
X170225000Y-83400000D02*
X169975000Y-83400000D01*
X169975000Y-83400000D02*
X169975000Y-82975000D01*
G36*
X170225000Y-83400000D02*
G01*
X169975000Y-83400000D01*
X169975000Y-82975000D01*
X170225000Y-82975000D01*
X170225000Y-83400000D01*
G37*
X170225000Y-83400000D02*
X169975000Y-83400000D01*
X169975000Y-82975000D01*
X170225000Y-82975000D01*
X170225000Y-83400000D01*
X148660244Y-63375244D02*
X148660244Y-63625244D01*
X148660244Y-63625244D02*
X148235244Y-63625244D01*
X148235244Y-63625244D02*
X148235244Y-63375244D01*
X148235244Y-63375244D02*
X148660244Y-63375244D01*
G36*
X148660244Y-63625244D02*
G01*
X148235244Y-63625244D01*
X148235244Y-63375244D01*
X148660244Y-63375244D01*
X148660244Y-63625244D01*
G37*
X148660244Y-63625244D02*
X148235244Y-63625244D01*
X148235244Y-63375244D01*
X148660244Y-63375244D01*
X148660244Y-63625244D01*
X148845244Y-63270244D02*
X148735244Y-63380244D01*
X148735244Y-63380244D02*
X148655244Y-63380244D01*
X148655244Y-63380244D02*
X148655244Y-63620244D01*
X148655244Y-63620244D02*
X148735244Y-63620244D01*
X148735244Y-63620244D02*
X148845244Y-63730244D01*
X148845244Y-63730244D02*
X148845244Y-63270244D01*
G36*
X148845244Y-63730244D02*
G01*
X148735244Y-63620244D01*
X148655244Y-63620244D01*
X148655244Y-63380244D01*
X148735244Y-63380244D01*
X148845244Y-63270244D01*
X148845244Y-63730244D01*
G37*
X148845244Y-63730244D02*
X148735244Y-63620244D01*
X148655244Y-63620244D01*
X148655244Y-63380244D01*
X148735244Y-63380244D01*
X148845244Y-63270244D01*
X148845244Y-63730244D01*
X148660244Y-63725244D02*
X148660244Y-63975244D01*
X148660244Y-63975244D02*
X148235244Y-63975244D01*
X148235244Y-63975244D02*
X148235244Y-63725244D01*
X148235244Y-63725244D02*
X148660244Y-63725244D01*
G36*
X148660244Y-63975244D02*
G01*
X148235244Y-63975244D01*
X148235244Y-63725244D01*
X148660244Y-63725244D01*
X148660244Y-63975244D01*
G37*
X148660244Y-63975244D02*
X148235244Y-63975244D01*
X148235244Y-63725244D01*
X148660244Y-63725244D01*
X148660244Y-63975244D01*
X149635244Y-63025244D02*
X149635244Y-63275244D01*
X149635244Y-63275244D02*
X149210244Y-63275244D01*
X149210244Y-63275244D02*
X149210244Y-63025244D01*
X149210244Y-63025244D02*
X149635244Y-63025244D01*
G36*
X149635244Y-63275244D02*
G01*
X149210244Y-63275244D01*
X149210244Y-63025244D01*
X149635244Y-63025244D01*
X149635244Y-63275244D01*
G37*
X149635244Y-63275244D02*
X149210244Y-63275244D01*
X149210244Y-63025244D01*
X149635244Y-63025244D01*
X149635244Y-63275244D01*
X149635244Y-63725244D02*
X149635244Y-63975244D01*
X149635244Y-63975244D02*
X149210244Y-63975244D01*
X149210244Y-63975244D02*
X149210244Y-63725244D01*
X149210244Y-63725244D02*
X149635244Y-63725244D01*
G36*
X149635244Y-63975244D02*
G01*
X149210244Y-63975244D01*
X149210244Y-63725244D01*
X149635244Y-63725244D01*
X149635244Y-63975244D01*
G37*
X149635244Y-63975244D02*
X149210244Y-63975244D01*
X149210244Y-63725244D01*
X149635244Y-63725244D01*
X149635244Y-63975244D01*
X149635244Y-63375244D02*
X149635244Y-63625244D01*
X149635244Y-63625244D02*
X149210244Y-63625244D01*
X149210244Y-63625244D02*
X149210244Y-63375244D01*
X149210244Y-63375244D02*
X149635244Y-63375244D01*
G36*
X149635244Y-63625244D02*
G01*
X149210244Y-63625244D01*
X149210244Y-63375244D01*
X149635244Y-63375244D01*
X149635244Y-63625244D01*
G37*
X149635244Y-63625244D02*
X149210244Y-63625244D01*
X149210244Y-63375244D01*
X149635244Y-63375244D01*
X149635244Y-63625244D01*
X149085244Y-63250244D02*
X149085244Y-63750244D01*
X149085244Y-63750244D02*
X149035244Y-63750244D01*
X149035244Y-63750244D02*
X149035244Y-63250244D01*
X149035244Y-63250244D02*
X149085244Y-63250244D01*
G36*
X149085244Y-63750244D02*
G01*
X149035244Y-63750244D01*
X149035244Y-63250244D01*
X149085244Y-63250244D01*
X149085244Y-63750244D01*
G37*
X149085244Y-63750244D02*
X149035244Y-63750244D01*
X149035244Y-63250244D01*
X149085244Y-63250244D01*
X149085244Y-63750244D01*
X149035244Y-62850244D02*
X149035244Y-64150244D01*
X149035244Y-64150244D02*
X148835244Y-64150244D01*
X148835244Y-64150244D02*
X148835244Y-62850244D01*
X148835244Y-62850244D02*
X149035244Y-62850244D01*
G36*
X149035244Y-64150244D02*
G01*
X148835244Y-64150244D01*
X148835244Y-62850244D01*
X149035244Y-62850244D01*
X149035244Y-64150244D01*
G37*
X149035244Y-64150244D02*
X148835244Y-64150244D01*
X148835244Y-62850244D01*
X149035244Y-62850244D01*
X149035244Y-64150244D01*
X148660244Y-63025244D02*
X148660244Y-63275244D01*
X148660244Y-63275244D02*
X148235244Y-63275244D01*
X148235244Y-63275244D02*
X148235244Y-63025244D01*
X148235244Y-63025244D02*
X148660244Y-63025244D01*
G36*
X148660244Y-63275244D02*
G01*
X148235244Y-63275244D01*
X148235244Y-63025244D01*
X148660244Y-63025244D01*
X148660244Y-63275244D01*
G37*
X148660244Y-63275244D02*
X148235244Y-63275244D01*
X148235244Y-63025244D01*
X148660244Y-63025244D01*
X148660244Y-63275244D01*
X162060000Y-77475000D02*
X162060000Y-77225000D01*
X162060000Y-77225000D02*
X162485000Y-77225000D01*
X162485000Y-77225000D02*
X162485000Y-77475000D01*
X162485000Y-77475000D02*
X162060000Y-77475000D01*
G36*
X162485000Y-77475000D02*
G01*
X162060000Y-77475000D01*
X162060000Y-77225000D01*
X162485000Y-77225000D01*
X162485000Y-77475000D01*
G37*
X162485000Y-77475000D02*
X162060000Y-77475000D01*
X162060000Y-77225000D01*
X162485000Y-77225000D01*
X162485000Y-77475000D01*
X161085000Y-77475000D02*
X161085000Y-77225000D01*
X161085000Y-77225000D02*
X161510000Y-77225000D01*
X161510000Y-77225000D02*
X161510000Y-77475000D01*
X161510000Y-77475000D02*
X161085000Y-77475000D01*
G36*
X161510000Y-77475000D02*
G01*
X161085000Y-77475000D01*
X161085000Y-77225000D01*
X161510000Y-77225000D01*
X161510000Y-77475000D01*
G37*
X161510000Y-77475000D02*
X161085000Y-77475000D01*
X161085000Y-77225000D01*
X161510000Y-77225000D01*
X161510000Y-77475000D01*
X162060000Y-76775000D02*
X162060000Y-76525000D01*
X162060000Y-76525000D02*
X162485000Y-76525000D01*
X162485000Y-76525000D02*
X162485000Y-76775000D01*
X162485000Y-76775000D02*
X162060000Y-76775000D01*
G36*
X162485000Y-76775000D02*
G01*
X162060000Y-76775000D01*
X162060000Y-76525000D01*
X162485000Y-76525000D01*
X162485000Y-76775000D01*
G37*
X162485000Y-76775000D02*
X162060000Y-76775000D01*
X162060000Y-76525000D01*
X162485000Y-76525000D01*
X162485000Y-76775000D01*
X162060000Y-77125000D02*
X162060000Y-76875000D01*
X162060000Y-76875000D02*
X162485000Y-76875000D01*
X162485000Y-76875000D02*
X162485000Y-77125000D01*
X162485000Y-77125000D02*
X162060000Y-77125000D01*
G36*
X162485000Y-77125000D02*
G01*
X162060000Y-77125000D01*
X162060000Y-76875000D01*
X162485000Y-76875000D01*
X162485000Y-77125000D01*
G37*
X162485000Y-77125000D02*
X162060000Y-77125000D01*
X162060000Y-76875000D01*
X162485000Y-76875000D01*
X162485000Y-77125000D01*
X161085000Y-76775000D02*
X161085000Y-76525000D01*
X161085000Y-76525000D02*
X161510000Y-76525000D01*
X161510000Y-76525000D02*
X161510000Y-76775000D01*
X161510000Y-76775000D02*
X161085000Y-76775000D01*
G36*
X161510000Y-76775000D02*
G01*
X161085000Y-76775000D01*
X161085000Y-76525000D01*
X161510000Y-76525000D01*
X161510000Y-76775000D01*
G37*
X161510000Y-76775000D02*
X161085000Y-76775000D01*
X161085000Y-76525000D01*
X161510000Y-76525000D01*
X161510000Y-76775000D01*
X161635000Y-77250000D02*
X161635000Y-76750000D01*
X161635000Y-76750000D02*
X161685000Y-76750000D01*
X161685000Y-76750000D02*
X161685000Y-77250000D01*
X161685000Y-77250000D02*
X161635000Y-77250000D01*
G36*
X161685000Y-77250000D02*
G01*
X161635000Y-77250000D01*
X161635000Y-76750000D01*
X161685000Y-76750000D01*
X161685000Y-77250000D01*
G37*
X161685000Y-77250000D02*
X161635000Y-77250000D01*
X161635000Y-76750000D01*
X161685000Y-76750000D01*
X161685000Y-77250000D01*
X161875000Y-77230000D02*
X161985000Y-77120000D01*
X161985000Y-77120000D02*
X162065000Y-77120000D01*
X162065000Y-77120000D02*
X162065000Y-76880000D01*
X162065000Y-76880000D02*
X161985000Y-76880000D01*
X161985000Y-76880000D02*
X161875000Y-76770000D01*
X161875000Y-76770000D02*
X161875000Y-77230000D01*
G36*
X161985000Y-76880000D02*
G01*
X162065000Y-76880000D01*
X162065000Y-77120000D01*
X161985000Y-77120000D01*
X161875000Y-77230000D01*
X161875000Y-76770000D01*
X161985000Y-76880000D01*
G37*
X161985000Y-76880000D02*
X162065000Y-76880000D01*
X162065000Y-77120000D01*
X161985000Y-77120000D01*
X161875000Y-77230000D01*
X161875000Y-76770000D01*
X161985000Y-76880000D01*
X161085000Y-77125000D02*
X161085000Y-76875000D01*
X161085000Y-76875000D02*
X161510000Y-76875000D01*
X161510000Y-76875000D02*
X161510000Y-77125000D01*
X161510000Y-77125000D02*
X161085000Y-77125000D01*
G36*
X161510000Y-77125000D02*
G01*
X161085000Y-77125000D01*
X161085000Y-76875000D01*
X161510000Y-76875000D01*
X161510000Y-77125000D01*
G37*
X161510000Y-77125000D02*
X161085000Y-77125000D01*
X161085000Y-76875000D01*
X161510000Y-76875000D01*
X161510000Y-77125000D01*
X161685000Y-77650000D02*
X161685000Y-76350000D01*
X161685000Y-76350000D02*
X161885000Y-76350000D01*
X161885000Y-76350000D02*
X161885000Y-77650000D01*
X161885000Y-77650000D02*
X161685000Y-77650000D01*
G36*
X161885000Y-77650000D02*
G01*
X161685000Y-77650000D01*
X161685000Y-76350000D01*
X161885000Y-76350000D01*
X161885000Y-77650000D01*
G37*
X161885000Y-77650000D02*
X161685000Y-77650000D01*
X161685000Y-76350000D01*
X161885000Y-76350000D01*
X161885000Y-77650000D01*
X139255244Y-63730244D02*
X139365244Y-63620244D01*
X139365244Y-63620244D02*
X139445244Y-63620244D01*
X139445244Y-63620244D02*
X139445244Y-63380244D01*
X139445244Y-63380244D02*
X139365244Y-63380244D01*
X139365244Y-63380244D02*
X139255244Y-63270244D01*
X139255244Y-63270244D02*
X139255244Y-63730244D01*
G36*
X139365244Y-63380244D02*
G01*
X139445244Y-63380244D01*
X139445244Y-63620244D01*
X139365244Y-63620244D01*
X139255244Y-63730244D01*
X139255244Y-63270244D01*
X139365244Y-63380244D01*
G37*
X139365244Y-63380244D02*
X139445244Y-63380244D01*
X139445244Y-63620244D01*
X139365244Y-63620244D01*
X139255244Y-63730244D01*
X139255244Y-63270244D01*
X139365244Y-63380244D01*
X139440244Y-63975244D02*
X139440244Y-63725244D01*
X139440244Y-63725244D02*
X139865244Y-63725244D01*
X139865244Y-63725244D02*
X139865244Y-63975244D01*
X139865244Y-63975244D02*
X139440244Y-63975244D01*
G36*
X139865244Y-63975244D02*
G01*
X139440244Y-63975244D01*
X139440244Y-63725244D01*
X139865244Y-63725244D01*
X139865244Y-63975244D01*
G37*
X139865244Y-63975244D02*
X139440244Y-63975244D01*
X139440244Y-63725244D01*
X139865244Y-63725244D01*
X139865244Y-63975244D01*
X138465244Y-63975244D02*
X138465244Y-63725244D01*
X138465244Y-63725244D02*
X138890244Y-63725244D01*
X138890244Y-63725244D02*
X138890244Y-63975244D01*
X138890244Y-63975244D02*
X138465244Y-63975244D01*
G36*
X138890244Y-63975244D02*
G01*
X138465244Y-63975244D01*
X138465244Y-63725244D01*
X138890244Y-63725244D01*
X138890244Y-63975244D01*
G37*
X138890244Y-63975244D02*
X138465244Y-63975244D01*
X138465244Y-63725244D01*
X138890244Y-63725244D01*
X138890244Y-63975244D01*
X139065244Y-64150244D02*
X139065244Y-62850244D01*
X139065244Y-62850244D02*
X139265244Y-62850244D01*
X139265244Y-62850244D02*
X139265244Y-64150244D01*
X139265244Y-64150244D02*
X139065244Y-64150244D01*
G36*
X139265244Y-64150244D02*
G01*
X139065244Y-64150244D01*
X139065244Y-62850244D01*
X139265244Y-62850244D01*
X139265244Y-64150244D01*
G37*
X139265244Y-64150244D02*
X139065244Y-64150244D01*
X139065244Y-62850244D01*
X139265244Y-62850244D01*
X139265244Y-64150244D01*
X139440244Y-63625244D02*
X139440244Y-63375244D01*
X139440244Y-63375244D02*
X139865244Y-63375244D01*
X139865244Y-63375244D02*
X139865244Y-63625244D01*
X139865244Y-63625244D02*
X139440244Y-63625244D01*
G36*
X139865244Y-63625244D02*
G01*
X139440244Y-63625244D01*
X139440244Y-63375244D01*
X139865244Y-63375244D01*
X139865244Y-63625244D01*
G37*
X139865244Y-63625244D02*
X139440244Y-63625244D01*
X139440244Y-63375244D01*
X139865244Y-63375244D01*
X139865244Y-63625244D01*
X139440244Y-63275244D02*
X139440244Y-63025244D01*
X139440244Y-63025244D02*
X139865244Y-63025244D01*
X139865244Y-63025244D02*
X139865244Y-63275244D01*
X139865244Y-63275244D02*
X139440244Y-63275244D01*
G36*
X139865244Y-63275244D02*
G01*
X139440244Y-63275244D01*
X139440244Y-63025244D01*
X139865244Y-63025244D01*
X139865244Y-63275244D01*
G37*
X139865244Y-63275244D02*
X139440244Y-63275244D01*
X139440244Y-63025244D01*
X139865244Y-63025244D01*
X139865244Y-63275244D01*
X138465244Y-63625244D02*
X138465244Y-63375244D01*
X138465244Y-63375244D02*
X138890244Y-63375244D01*
X138890244Y-63375244D02*
X138890244Y-63625244D01*
X138890244Y-63625244D02*
X138465244Y-63625244D01*
G36*
X138890244Y-63625244D02*
G01*
X138465244Y-63625244D01*
X138465244Y-63375244D01*
X138890244Y-63375244D01*
X138890244Y-63625244D01*
G37*
X138890244Y-63625244D02*
X138465244Y-63625244D01*
X138465244Y-63375244D01*
X138890244Y-63375244D01*
X138890244Y-63625244D01*
X139015244Y-63750244D02*
X139015244Y-63250244D01*
X139015244Y-63250244D02*
X139065244Y-63250244D01*
X139065244Y-63250244D02*
X139065244Y-63750244D01*
X139065244Y-63750244D02*
X139015244Y-63750244D01*
G36*
X139065244Y-63750244D02*
G01*
X139015244Y-63750244D01*
X139015244Y-63250244D01*
X139065244Y-63250244D01*
X139065244Y-63750244D01*
G37*
X139065244Y-63750244D02*
X139015244Y-63750244D01*
X139015244Y-63250244D01*
X139065244Y-63250244D01*
X139065244Y-63750244D01*
X138465244Y-63275244D02*
X138465244Y-63025244D01*
X138465244Y-63025244D02*
X138890244Y-63025244D01*
X138890244Y-63025244D02*
X138890244Y-63275244D01*
X138890244Y-63275244D02*
X138465244Y-63275244D01*
G36*
X138890244Y-63275244D02*
G01*
X138465244Y-63275244D01*
X138465244Y-63025244D01*
X138890244Y-63025244D01*
X138890244Y-63275244D01*
G37*
X138890244Y-63275244D02*
X138465244Y-63275244D01*
X138465244Y-63025244D01*
X138890244Y-63025244D01*
X138890244Y-63275244D01*
X158020000Y-86825001D02*
X157910000Y-86935001D01*
X157910000Y-86935001D02*
X157830000Y-86935001D01*
X157830000Y-86935001D02*
X157830000Y-87175001D01*
X157830000Y-87175001D02*
X157910000Y-87175001D01*
X157910000Y-87175001D02*
X158020000Y-87285001D01*
X158020000Y-87285001D02*
X158020000Y-86825001D01*
G36*
X158020000Y-87285001D02*
G01*
X157910000Y-87175001D01*
X157830000Y-87175001D01*
X157830000Y-86935001D01*
X157910000Y-86935001D01*
X158020000Y-86825001D01*
X158020000Y-87285001D01*
G37*
X158020000Y-87285001D02*
X157910000Y-87175001D01*
X157830000Y-87175001D01*
X157830000Y-86935001D01*
X157910000Y-86935001D01*
X158020000Y-86825001D01*
X158020000Y-87285001D01*
X157835000Y-87280001D02*
X157835000Y-87530001D01*
X157835000Y-87530001D02*
X157410000Y-87530001D01*
X157410000Y-87530001D02*
X157410000Y-87280001D01*
X157410000Y-87280001D02*
X157835000Y-87280001D01*
G36*
X157835000Y-87530001D02*
G01*
X157410000Y-87530001D01*
X157410000Y-87280001D01*
X157835000Y-87280001D01*
X157835000Y-87530001D01*
G37*
X157835000Y-87530001D02*
X157410000Y-87530001D01*
X157410000Y-87280001D01*
X157835000Y-87280001D01*
X157835000Y-87530001D01*
X157835000Y-86930001D02*
X157835000Y-87180001D01*
X157835000Y-87180001D02*
X157410000Y-87180001D01*
X157410000Y-87180001D02*
X157410000Y-86930001D01*
X157410000Y-86930001D02*
X157835000Y-86930001D01*
G36*
X157835000Y-87180001D02*
G01*
X157410000Y-87180001D01*
X157410000Y-86930001D01*
X157835000Y-86930001D01*
X157835000Y-87180001D01*
G37*
X157835000Y-87180001D02*
X157410000Y-87180001D01*
X157410000Y-86930001D01*
X157835000Y-86930001D01*
X157835000Y-87180001D01*
X157835000Y-86580001D02*
X157835000Y-86830001D01*
X157835000Y-86830001D02*
X157410000Y-86830001D01*
X157410000Y-86830001D02*
X157410000Y-86580001D01*
X157410000Y-86580001D02*
X157835000Y-86580001D01*
G36*
X157835000Y-86830001D02*
G01*
X157410000Y-86830001D01*
X157410000Y-86580001D01*
X157835000Y-86580001D01*
X157835000Y-86830001D01*
G37*
X157835000Y-86830001D02*
X157410000Y-86830001D01*
X157410000Y-86580001D01*
X157835000Y-86580001D01*
X157835000Y-86830001D01*
X158810000Y-86580001D02*
X158810000Y-86830001D01*
X158810000Y-86830001D02*
X158385000Y-86830001D01*
X158385000Y-86830001D02*
X158385000Y-86580001D01*
X158385000Y-86580001D02*
X158810000Y-86580001D01*
G36*
X158810000Y-86830001D02*
G01*
X158385000Y-86830001D01*
X158385000Y-86580001D01*
X158810000Y-86580001D01*
X158810000Y-86830001D01*
G37*
X158810000Y-86830001D02*
X158385000Y-86830001D01*
X158385000Y-86580001D01*
X158810000Y-86580001D01*
X158810000Y-86830001D01*
X158260000Y-86805001D02*
X158260000Y-87305001D01*
X158260000Y-87305001D02*
X158210000Y-87305001D01*
X158210000Y-87305001D02*
X158210000Y-86805001D01*
X158210000Y-86805001D02*
X158260000Y-86805001D01*
G36*
X158260000Y-87305001D02*
G01*
X158210000Y-87305001D01*
X158210000Y-86805001D01*
X158260000Y-86805001D01*
X158260000Y-87305001D01*
G37*
X158260000Y-87305001D02*
X158210000Y-87305001D01*
X158210000Y-86805001D01*
X158260000Y-86805001D01*
X158260000Y-87305001D01*
X158810000Y-86930001D02*
X158810000Y-87180001D01*
X158810000Y-87180001D02*
X158385000Y-87180001D01*
X158385000Y-87180001D02*
X158385000Y-86930001D01*
X158385000Y-86930001D02*
X158810000Y-86930001D01*
G36*
X158810000Y-87180001D02*
G01*
X158385000Y-87180001D01*
X158385000Y-86930001D01*
X158810000Y-86930001D01*
X158810000Y-87180001D01*
G37*
X158810000Y-87180001D02*
X158385000Y-87180001D01*
X158385000Y-86930001D01*
X158810000Y-86930001D01*
X158810000Y-87180001D01*
X158210000Y-86405001D02*
X158210000Y-87705001D01*
X158210000Y-87705001D02*
X158010000Y-87705001D01*
X158010000Y-87705001D02*
X158010000Y-86405001D01*
X158010000Y-86405001D02*
X158210000Y-86405001D01*
G36*
X158210000Y-87705001D02*
G01*
X158010000Y-87705001D01*
X158010000Y-86405001D01*
X158210000Y-86405001D01*
X158210000Y-87705001D01*
G37*
X158210000Y-87705001D02*
X158010000Y-87705001D01*
X158010000Y-86405001D01*
X158210000Y-86405001D01*
X158210000Y-87705001D01*
X158810000Y-87280001D02*
X158810000Y-87530001D01*
X158810000Y-87530001D02*
X158385000Y-87530001D01*
X158385000Y-87530001D02*
X158385000Y-87280001D01*
X158385000Y-87280001D02*
X158810000Y-87280001D01*
G36*
X158810000Y-87530001D02*
G01*
X158385000Y-87530001D01*
X158385000Y-87280001D01*
X158810000Y-87280001D01*
X158810000Y-87530001D01*
G37*
X158810000Y-87530001D02*
X158385000Y-87530001D01*
X158385000Y-87280001D01*
X158810000Y-87280001D01*
X158810000Y-87530001D01*
X166694999Y-92210001D02*
X166694999Y-92710001D01*
X166694999Y-92710001D02*
X166644999Y-92710001D01*
X166644999Y-92710001D02*
X166644999Y-92210001D01*
X166644999Y-92210001D02*
X166694999Y-92210001D01*
G36*
X166694999Y-92710001D02*
G01*
X166644999Y-92710001D01*
X166644999Y-92210001D01*
X166694999Y-92210001D01*
X166694999Y-92710001D01*
G37*
X166694999Y-92710001D02*
X166644999Y-92710001D01*
X166644999Y-92210001D01*
X166694999Y-92210001D01*
X166694999Y-92710001D01*
X167244999Y-92685001D02*
X167244999Y-92935001D01*
X167244999Y-92935001D02*
X166819999Y-92935001D01*
X166819999Y-92935001D02*
X166819999Y-92685001D01*
X166819999Y-92685001D02*
X167244999Y-92685001D01*
G36*
X167244999Y-92935001D02*
G01*
X166819999Y-92935001D01*
X166819999Y-92685001D01*
X167244999Y-92685001D01*
X167244999Y-92935001D01*
G37*
X167244999Y-92935001D02*
X166819999Y-92935001D01*
X166819999Y-92685001D01*
X167244999Y-92685001D01*
X167244999Y-92935001D01*
X167244999Y-91985001D02*
X167244999Y-92235001D01*
X167244999Y-92235001D02*
X166819999Y-92235001D01*
X166819999Y-92235001D02*
X166819999Y-91985001D01*
X166819999Y-91985001D02*
X167244999Y-91985001D01*
G36*
X167244999Y-92235001D02*
G01*
X166819999Y-92235001D01*
X166819999Y-91985001D01*
X167244999Y-91985001D01*
X167244999Y-92235001D01*
G37*
X167244999Y-92235001D02*
X166819999Y-92235001D01*
X166819999Y-91985001D01*
X167244999Y-91985001D01*
X167244999Y-92235001D01*
X166454999Y-92230001D02*
X166344999Y-92340001D01*
X166344999Y-92340001D02*
X166264999Y-92340001D01*
X166264999Y-92340001D02*
X166264999Y-92580001D01*
X166264999Y-92580001D02*
X166344999Y-92580001D01*
X166344999Y-92580001D02*
X166454999Y-92690001D01*
X166454999Y-92690001D02*
X166454999Y-92230001D01*
G36*
X166454999Y-92690001D02*
G01*
X166344999Y-92580001D01*
X166264999Y-92580001D01*
X166264999Y-92340001D01*
X166344999Y-92340001D01*
X166454999Y-92230001D01*
X166454999Y-92690001D01*
G37*
X166454999Y-92690001D02*
X166344999Y-92580001D01*
X166264999Y-92580001D01*
X166264999Y-92340001D01*
X166344999Y-92340001D01*
X166454999Y-92230001D01*
X166454999Y-92690001D01*
X167244999Y-92335001D02*
X167244999Y-92585001D01*
X167244999Y-92585001D02*
X166819999Y-92585001D01*
X166819999Y-92585001D02*
X166819999Y-92335001D01*
X166819999Y-92335001D02*
X167244999Y-92335001D01*
G36*
X167244999Y-92585001D02*
G01*
X166819999Y-92585001D01*
X166819999Y-92335001D01*
X167244999Y-92335001D01*
X167244999Y-92585001D01*
G37*
X167244999Y-92585001D02*
X166819999Y-92585001D01*
X166819999Y-92335001D01*
X167244999Y-92335001D01*
X167244999Y-92585001D01*
X166269999Y-92685001D02*
X166269999Y-92935001D01*
X166269999Y-92935001D02*
X165844999Y-92935001D01*
X165844999Y-92935001D02*
X165844999Y-92685001D01*
X165844999Y-92685001D02*
X166269999Y-92685001D01*
G36*
X166269999Y-92935001D02*
G01*
X165844999Y-92935001D01*
X165844999Y-92685001D01*
X166269999Y-92685001D01*
X166269999Y-92935001D01*
G37*
X166269999Y-92935001D02*
X165844999Y-92935001D01*
X165844999Y-92685001D01*
X166269999Y-92685001D01*
X166269999Y-92935001D01*
X166269999Y-91985001D02*
X166269999Y-92235001D01*
X166269999Y-92235001D02*
X165844999Y-92235001D01*
X165844999Y-92235001D02*
X165844999Y-91985001D01*
X165844999Y-91985001D02*
X166269999Y-91985001D01*
G36*
X166269999Y-92235001D02*
G01*
X165844999Y-92235001D01*
X165844999Y-91985001D01*
X166269999Y-91985001D01*
X166269999Y-92235001D01*
G37*
X166269999Y-92235001D02*
X165844999Y-92235001D01*
X165844999Y-91985001D01*
X166269999Y-91985001D01*
X166269999Y-92235001D01*
X166269999Y-92335001D02*
X166269999Y-92585001D01*
X166269999Y-92585001D02*
X165844999Y-92585001D01*
X165844999Y-92585001D02*
X165844999Y-92335001D01*
X165844999Y-92335001D02*
X166269999Y-92335001D01*
G36*
X166269999Y-92585001D02*
G01*
X165844999Y-92585001D01*
X165844999Y-92335001D01*
X166269999Y-92335001D01*
X166269999Y-92585001D01*
G37*
X166269999Y-92585001D02*
X165844999Y-92585001D01*
X165844999Y-92335001D01*
X166269999Y-92335001D01*
X166269999Y-92585001D01*
X166644999Y-91810001D02*
X166644999Y-93110001D01*
X166644999Y-93110001D02*
X166444999Y-93110001D01*
X166444999Y-93110001D02*
X166444999Y-91810001D01*
X166444999Y-91810001D02*
X166644999Y-91810001D01*
G36*
X166644999Y-93110001D02*
G01*
X166444999Y-93110001D01*
X166444999Y-91810001D01*
X166644999Y-91810001D01*
X166644999Y-93110001D01*
G37*
X166644999Y-93110001D02*
X166444999Y-93110001D01*
X166444999Y-91810001D01*
X166644999Y-91810001D01*
X166644999Y-93110001D01*
X143650000Y-84920000D02*
X143150000Y-84920000D01*
X143150000Y-84920000D02*
X143150000Y-84870000D01*
X143150000Y-84870000D02*
X143650000Y-84870000D01*
X143650000Y-84870000D02*
X143650000Y-84920000D01*
G36*
X143650000Y-84920000D02*
G01*
X143150000Y-84920000D01*
X143150000Y-84870000D01*
X143650000Y-84870000D01*
X143650000Y-84920000D01*
G37*
X143650000Y-84920000D02*
X143150000Y-84920000D01*
X143150000Y-84870000D01*
X143650000Y-84870000D01*
X143650000Y-84920000D01*
X144050000Y-84870000D02*
X142750000Y-84870000D01*
X142750000Y-84870000D02*
X142750000Y-84670000D01*
X142750000Y-84670000D02*
X144050000Y-84670000D01*
X144050000Y-84670000D02*
X144050000Y-84870000D01*
G36*
X144050000Y-84870000D02*
G01*
X142750000Y-84870000D01*
X142750000Y-84670000D01*
X144050000Y-84670000D01*
X144050000Y-84870000D01*
G37*
X144050000Y-84870000D02*
X142750000Y-84870000D01*
X142750000Y-84670000D01*
X144050000Y-84670000D01*
X144050000Y-84870000D01*
X143875000Y-84495000D02*
X143625000Y-84495000D01*
X143625000Y-84495000D02*
X143625000Y-84070000D01*
X143625000Y-84070000D02*
X143875000Y-84070000D01*
X143875000Y-84070000D02*
X143875000Y-84495000D01*
G36*
X143875000Y-84495000D02*
G01*
X143625000Y-84495000D01*
X143625000Y-84070000D01*
X143875000Y-84070000D01*
X143875000Y-84495000D01*
G37*
X143875000Y-84495000D02*
X143625000Y-84495000D01*
X143625000Y-84070000D01*
X143875000Y-84070000D01*
X143875000Y-84495000D01*
X143525000Y-84495000D02*
X143275000Y-84495000D01*
X143275000Y-84495000D02*
X143275000Y-84070000D01*
X143275000Y-84070000D02*
X143525000Y-84070000D01*
X143525000Y-84070000D02*
X143525000Y-84495000D01*
G36*
X143525000Y-84495000D02*
G01*
X143275000Y-84495000D01*
X143275000Y-84070000D01*
X143525000Y-84070000D01*
X143525000Y-84495000D01*
G37*
X143525000Y-84495000D02*
X143275000Y-84495000D01*
X143275000Y-84070000D01*
X143525000Y-84070000D01*
X143525000Y-84495000D01*
X143630000Y-84680000D02*
X143520000Y-84570000D01*
X143520000Y-84570000D02*
X143520000Y-84490000D01*
X143520000Y-84490000D02*
X143280000Y-84490000D01*
X143280000Y-84490000D02*
X143280000Y-84570000D01*
X143280000Y-84570000D02*
X143170000Y-84680000D01*
X143170000Y-84680000D02*
X143630000Y-84680000D01*
G36*
X143520000Y-84570000D02*
G01*
X143630000Y-84680000D01*
X143170000Y-84680000D01*
X143280000Y-84570000D01*
X143280000Y-84490000D01*
X143520000Y-84490000D01*
X143520000Y-84570000D01*
G37*
X143520000Y-84570000D02*
X143630000Y-84680000D01*
X143170000Y-84680000D01*
X143280000Y-84570000D01*
X143280000Y-84490000D01*
X143520000Y-84490000D01*
X143520000Y-84570000D01*
X143175000Y-84495000D02*
X142925000Y-84495000D01*
X142925000Y-84495000D02*
X142925000Y-84070000D01*
X142925000Y-84070000D02*
X143175000Y-84070000D01*
X143175000Y-84070000D02*
X143175000Y-84495000D01*
G36*
X143175000Y-84495000D02*
G01*
X142925000Y-84495000D01*
X142925000Y-84070000D01*
X143175000Y-84070000D01*
X143175000Y-84495000D01*
G37*
X143175000Y-84495000D02*
X142925000Y-84495000D01*
X142925000Y-84070000D01*
X143175000Y-84070000D01*
X143175000Y-84495000D01*
X143525000Y-85470000D02*
X143275000Y-85470000D01*
X143275000Y-85470000D02*
X143275000Y-85045000D01*
X143275000Y-85045000D02*
X143525000Y-85045000D01*
X143525000Y-85045000D02*
X143525000Y-85470000D01*
G36*
X143525000Y-85470000D02*
G01*
X143275000Y-85470000D01*
X143275000Y-85045000D01*
X143525000Y-85045000D01*
X143525000Y-85470000D01*
G37*
X143525000Y-85470000D02*
X143275000Y-85470000D01*
X143275000Y-85045000D01*
X143525000Y-85045000D01*
X143525000Y-85470000D01*
X143875000Y-85470000D02*
X143625000Y-85470000D01*
X143625000Y-85470000D02*
X143625000Y-85045000D01*
X143625000Y-85045000D02*
X143875000Y-85045000D01*
X143875000Y-85045000D02*
X143875000Y-85470000D01*
G36*
X143875000Y-85470000D02*
G01*
X143625000Y-85470000D01*
X143625000Y-85045000D01*
X143875000Y-85045000D01*
X143875000Y-85470000D01*
G37*
X143875000Y-85470000D02*
X143625000Y-85470000D01*
X143625000Y-85045000D01*
X143875000Y-85045000D01*
X143875000Y-85470000D01*
X143175000Y-85470000D02*
X142925000Y-85470000D01*
X142925000Y-85470000D02*
X142925000Y-85045000D01*
X142925000Y-85045000D02*
X143175000Y-85045000D01*
X143175000Y-85045000D02*
X143175000Y-85470000D01*
G36*
X143175000Y-85470000D02*
G01*
X142925000Y-85470000D01*
X142925000Y-85045000D01*
X143175000Y-85045000D01*
X143175000Y-85470000D01*
G37*
X143175000Y-85470000D02*
X142925000Y-85470000D01*
X142925000Y-85045000D01*
X143175000Y-85045000D01*
X143175000Y-85470000D01*
D17*
X158640000Y-89220000D03*
X158640000Y-90180000D03*
X146200000Y-96095000D03*
X146200000Y-97055000D03*
X160975000Y-79070000D03*
X160975000Y-80030000D03*
D18*
X151330000Y-63500000D03*
X150370000Y-63500000D03*
X171005000Y-91340000D03*
X170045000Y-91340000D03*
D19*
X137000000Y-73200000D03*
D20*
X137000000Y-75740000D03*
X137000000Y-78280000D03*
X137000000Y-80820000D03*
D21*
X166775000Y-74930000D03*
X166775000Y-73970000D03*
X138675000Y-61605000D03*
X138675000Y-60645000D03*
D18*
X141280000Y-85225000D03*
X140320000Y-85225000D03*
D22*
X145495000Y-74475000D03*
X146455000Y-74475000D03*
D23*
X174835000Y-58975000D03*
X173815000Y-58975000D03*
D24*
X164525000Y-56460000D03*
X164525000Y-55440000D03*
D17*
X161425000Y-94545000D03*
X161425000Y-95505000D03*
D18*
X167680000Y-81900000D03*
X166720000Y-81900000D03*
D21*
X146125000Y-91950000D03*
X146125000Y-90990000D03*
D24*
X169600000Y-56460000D03*
X169600000Y-55440000D03*
D19*
X173000000Y-73200000D03*
D20*
X173000000Y-75740000D03*
X173000000Y-78280000D03*
X173000000Y-80820000D03*
D22*
X145520000Y-85575000D03*
X146480000Y-85575000D03*
D17*
X148935244Y-64820244D03*
X148935244Y-65780244D03*
D22*
X173470000Y-87900000D03*
X174430000Y-87900000D03*
D24*
X175975000Y-56460000D03*
X175975000Y-55440000D03*
D23*
X174835000Y-57700000D03*
X173815000Y-57700000D03*
D21*
X160975000Y-74930000D03*
X160975000Y-73970000D03*
D25*
X169725000Y-59225000D03*
X169725000Y-59725000D03*
X169725000Y-60225000D03*
X169725000Y-60725000D03*
D26*
X170475000Y-61475000D03*
X170975000Y-61475000D03*
X171475000Y-61475000D03*
X171975000Y-61475000D03*
D25*
X172725000Y-60725000D03*
X172725000Y-60225000D03*
X172725000Y-59725000D03*
X172725000Y-59225000D03*
D26*
X171975000Y-58475000D03*
X171475000Y-58475000D03*
X170975000Y-58475000D03*
X170475000Y-58475000D03*
D27*
X171225000Y-59975000D03*
D24*
X170875000Y-56460000D03*
X170875000Y-55440000D03*
D19*
X158800000Y-95000000D03*
D20*
X156260000Y-95000000D03*
X153720000Y-95000000D03*
X151180000Y-95000000D03*
D22*
X173645000Y-95510000D03*
X174605000Y-95510000D03*
D18*
X171005000Y-95510000D03*
X170045000Y-95510000D03*
D23*
X175660000Y-59925000D03*
X174640000Y-59925000D03*
D22*
X174345000Y-90800000D03*
X175305000Y-90800000D03*
D17*
X138650000Y-65620000D03*
X138650000Y-66580000D03*
D21*
X158900000Y-84980000D03*
X158900000Y-84020000D03*
D22*
X171920000Y-57200000D03*
X172880000Y-57200000D03*
D19*
X158800000Y-59000000D03*
D20*
X156260000Y-59000000D03*
X153720000Y-59000000D03*
X151180000Y-59000000D03*
D18*
X167655000Y-87675000D03*
X166695000Y-87675000D03*
D17*
X166750000Y-79070000D03*
X166750000Y-80030000D03*
D21*
X167350000Y-90405000D03*
X167350000Y-89445000D03*
D17*
X138225000Y-95770000D03*
X138225000Y-96730000D03*
D22*
X149370000Y-61375000D03*
X150330000Y-61375000D03*
D17*
X166950000Y-94775000D03*
X166950000Y-95735000D03*
D24*
X174675000Y-56460000D03*
X174675000Y-55440000D03*
D22*
X159520000Y-77000000D03*
X160480000Y-77000000D03*
D28*
X155000000Y-77000000D03*
D29*
X155000000Y-79800000D03*
D30*
X155000000Y-74200000D03*
D21*
X138175000Y-91955000D03*
X138175000Y-90995000D03*
D18*
X141355000Y-74500000D03*
X140395000Y-74500000D03*
D21*
X162150000Y-90155000D03*
X162150000Y-89195000D03*
X150350000Y-84980000D03*
X150350000Y-84020000D03*
D17*
X150350000Y-89145000D03*
X150350000Y-90105000D03*
D24*
X165775000Y-56460000D03*
X165775000Y-55440000D03*
D31*
X155000000Y-68750000D03*
D32*
X157540000Y-71290000D03*
X157540000Y-66210000D03*
X152460000Y-66210000D03*
X152460000Y-71290000D03*
M02*
