G04 #@! TF.GenerationSoftware,KiCad,Pcbnew,(6.0.2)*
G04 #@! TF.CreationDate,2023-11-23T16:59:36-08:00*
G04 #@! TF.ProjectId,phase_shifter_v1,70686173-655f-4736-9869-667465725f76,rev?*
G04 #@! TF.SameCoordinates,Original*
G04 #@! TF.FileFunction,Soldermask,Top*
G04 #@! TF.FilePolarity,Negative*
%FSLAX46Y46*%
G04 Gerber Fmt 4.6, Leading zero omitted, Abs format (unit mm)*
G04 Created by KiCad (PCBNEW (6.0.2)) date 2023-11-23 16:59:36*
%MOMM*%
%LPD*%
G01*
G04 APERTURE LIST*
G04 Aperture macros list*
%AMRoundRect*
0 Rectangle with rounded corners*
0 $1 Rounding radius*
0 $2 $3 $4 $5 $6 $7 $8 $9 X,Y pos of 4 corners*
0 Add a 4 corners polygon primitive as box body*
4,1,4,$2,$3,$4,$5,$6,$7,$8,$9,$2,$3,0*
0 Add four circle primitives for the rounded corners*
1,1,$1+$1,$2,$3*
1,1,$1+$1,$4,$5*
1,1,$1+$1,$6,$7*
1,1,$1+$1,$8,$9*
0 Add four rect primitives between the rounded corners*
20,1,$1+$1,$2,$3,$4,$5,0*
20,1,$1+$1,$4,$5,$6,$7,0*
20,1,$1+$1,$6,$7,$8,$9,0*
20,1,$1+$1,$8,$9,$2,$3,0*%
%AMFreePoly0*
4,1,25,-1.500000,1.420000,-1.360000,1.280000,-1.205000,1.155000,-1.035000,1.045000,-0.860000,0.950000,-0.675000,0.875000,-0.480000,0.820000,-0.280000,0.780000,-0.085000,0.765000,0.085000,0.765000,0.280000,0.780000,0.480000,0.820000,0.675000,0.875000,0.860000,0.950000,1.035000,1.045000,1.205000,1.155000,1.360000,1.280000,1.500000,1.420000,1.645000,1.595000,3.555000,1.595000,
3.555000,-0.755000,-3.555000,-0.755000,-3.555000,1.595000,-1.645000,1.595000,-1.500000,1.420000,-1.500000,1.420000,$1*%
G04 Aperture macros list end*
%ADD10C,0.546300*%
%ADD11C,0.010000*%
%ADD12RoundRect,0.140000X-0.170000X0.140000X-0.170000X-0.140000X0.170000X-0.140000X0.170000X0.140000X0*%
%ADD13RoundRect,0.140000X0.140000X0.170000X-0.140000X0.170000X-0.140000X-0.170000X0.140000X-0.170000X0*%
%ADD14R,1.700000X1.700000*%
%ADD15O,1.700000X1.700000*%
%ADD16RoundRect,0.140000X0.170000X-0.140000X0.170000X0.140000X-0.170000X0.140000X-0.170000X-0.140000X0*%
%ADD17RoundRect,0.140000X-0.140000X-0.170000X0.140000X-0.170000X0.140000X0.170000X-0.140000X0.170000X0*%
%ADD18RoundRect,0.135000X0.135000X0.185000X-0.135000X0.185000X-0.135000X-0.185000X0.135000X-0.185000X0*%
%ADD19RoundRect,0.135000X0.185000X-0.135000X0.185000X0.135000X-0.185000X0.135000X-0.185000X-0.135000X0*%
%ADD20R,0.800000X0.300000*%
%ADD21R,0.300000X0.800000*%
%ADD22R,1.750000X1.750000*%
%ADD23C,1.730000*%
%ADD24FreePoly0,0.000000*%
%ADD25FreePoly0,180.000000*%
%ADD26C,1.800000*%
%ADD27C,2.550000*%
G04 APERTURE END LIST*
D10*
X152525000Y-86005001D02*
X152525000Y-85280001D01*
X146915600Y-83385000D02*
G75*
G03*
X147615600Y-82685000I-3J700003D01*
G01*
X172325000Y-90200000D02*
G75*
G03*
X171325000Y-89200000I-1000003J-3D01*
G01*
X147615600Y-77085000D02*
G75*
G03*
X146915600Y-76385000I-700003J-3D01*
G01*
X146915600Y-77785000D02*
G75*
G03*
X147615600Y-77085000I-3J700003D01*
G01*
X169750000Y-88200000D02*
G75*
G03*
X170750000Y-89200000I1000003J3D01*
G01*
X136250000Y-92975000D02*
X136250000Y-89950000D01*
X147550244Y-62450244D02*
G75*
G03*
X146850244Y-61750244I-700003J-3D01*
G01*
X144450000Y-79185000D02*
X146915600Y-79185000D01*
X164459999Y-94210001D02*
G75*
G03*
X165159999Y-93510001I-3J700003D01*
G01*
X170750000Y-89200000D02*
X171325000Y-89200000D01*
X143750000Y-78485000D02*
G75*
G03*
X144450000Y-79185000I700003J3D01*
G01*
X170100000Y-86385000D02*
X170100000Y-86185000D01*
X168750000Y-93460001D02*
G75*
G03*
X167750000Y-92460001I-1000003J-3D01*
G01*
X140550244Y-64550244D02*
G75*
G03*
X139850244Y-63850244I-700003J-3D01*
G01*
X143050000Y-84085000D02*
G75*
G03*
X142350000Y-83385000I-700003J-3D01*
G01*
X171325000Y-98250000D02*
G75*
G03*
X172325000Y-97250000I-3J1000003D01*
G01*
X144450000Y-80585000D02*
X146915600Y-80585000D01*
X170100000Y-83185000D02*
X170100000Y-83385000D01*
X167720000Y-84785000D02*
G75*
G03*
X168420000Y-85485000I700003J3D01*
G01*
X169400000Y-86185000D02*
G75*
G03*
X168700000Y-85485000I-700003J-3D01*
G01*
X171975000Y-91825000D02*
X171975000Y-92025000D01*
X143400000Y-74515000D02*
X143400000Y-72950000D01*
X147200000Y-93975000D02*
G75*
G03*
X148200000Y-92975000I-3J1000003D01*
G01*
X151625000Y-87405001D02*
X151825000Y-87405001D01*
X145450244Y-63850244D02*
G75*
G03*
X144750244Y-64550244I3J-700003D01*
G01*
X164459999Y-89590001D02*
G75*
G03*
X163759999Y-90290001I3J-700003D01*
G01*
X143350244Y-64550244D02*
X143350244Y-70012544D01*
X165159999Y-91410001D02*
X165159999Y-90290001D01*
X141250244Y-61750244D02*
X146850244Y-61750244D01*
X171975000Y-94825000D02*
G75*
G03*
X171275000Y-94125000I-700003J-3D01*
G01*
X143750000Y-84085000D02*
X143750000Y-84285000D01*
X140075000Y-95025000D02*
G75*
G03*
X140775000Y-95725000I700003J3D01*
G01*
X155000000Y-65500244D02*
G75*
G03*
X153000000Y-63500244I-1999999J1D01*
G01*
X169750000Y-88200000D02*
X169750000Y-87355000D01*
X140550244Y-70012544D02*
G75*
G03*
X141250244Y-70712544I700003J3D01*
G01*
X170015000Y-93425000D02*
G75*
G03*
X170715000Y-94125000I700003J3D01*
G01*
X157625000Y-86705001D02*
X157425000Y-86705001D01*
X143350244Y-70012544D02*
G75*
G03*
X144050244Y-70712544I700003J3D01*
G01*
X148250244Y-63850244D02*
G75*
G03*
X147550244Y-64550244I3J-700003D01*
G01*
X139175000Y-94325000D02*
X139375000Y-94325000D01*
X173375000Y-94125000D02*
G75*
G03*
X172675000Y-94825000I3J-700003D01*
G01*
X140075000Y-92925000D02*
X140075000Y-91077000D01*
X143575000Y-95725000D02*
G75*
G03*
X144275000Y-95025000I-3J700003D01*
G01*
X139375000Y-93625000D02*
G75*
G03*
X140075000Y-92925000I-3J700003D01*
G01*
X143400000Y-72950000D02*
G75*
G03*
X142400000Y-71950000I-1000003J-3D01*
G01*
X153000000Y-63500244D02*
X151330244Y-63500244D01*
X144975000Y-94325000D02*
X145175000Y-94325000D01*
X159520000Y-77000000D02*
X155000000Y-77000000D01*
X162859999Y-92810001D02*
X163059999Y-92810001D01*
X141475000Y-92925000D02*
G75*
G03*
X142175000Y-93625000I700003J3D01*
G01*
X163759999Y-91410001D02*
X163759999Y-90290001D01*
X144275000Y-92925000D02*
G75*
G03*
X144975000Y-93625000I700003J3D01*
G01*
X165159999Y-90290001D02*
G75*
G03*
X164459999Y-89590001I-700003J-3D01*
G01*
X140550244Y-64550244D02*
X140550244Y-70012544D01*
X155325000Y-86005001D02*
X155325000Y-85280001D01*
X163170000Y-78190000D02*
G75*
G03*
X163870000Y-78890000I700003J3D01*
G01*
X169750000Y-78000000D02*
X169750000Y-82215000D01*
X149200000Y-87055001D02*
G75*
G03*
X148200000Y-88055001I-1J-999999D01*
G01*
X136549999Y-67690000D02*
G75*
G03*
X137257106Y-69397106I2414211J0D01*
G01*
X143350244Y-64550244D02*
G75*
G03*
X142650244Y-63850244I-700003J-3D01*
G01*
X139650244Y-63850244D02*
X139850244Y-63850244D01*
X168700000Y-84085000D02*
X168420000Y-84085000D01*
X144975000Y-93625000D02*
X145175000Y-93625000D01*
X142650244Y-63850244D02*
G75*
G03*
X141950244Y-64550244I3J-700003D01*
G01*
X143750000Y-81285000D02*
G75*
G03*
X144450000Y-81985000I700003J3D01*
G01*
X157625000Y-87405001D02*
X157425000Y-87405001D01*
X173375000Y-94125000D02*
G75*
G03*
X174075000Y-93425000I-3J700003D01*
G01*
X139102893Y-71242893D02*
X137257106Y-69397106D01*
X147615600Y-79885000D02*
G75*
G03*
X146915600Y-79185000I-700003J-3D01*
G01*
X146150244Y-70012544D02*
G75*
G03*
X146850244Y-70712544I700003J3D01*
G01*
X163170000Y-78050000D02*
X163170000Y-78190000D01*
X159400000Y-87055001D02*
X158595000Y-87055001D01*
X170800000Y-85485000D02*
G75*
G03*
X170100000Y-86185000I3J-700003D01*
G01*
X142350000Y-76385000D02*
G75*
G03*
X143050000Y-75685000I-3J700003D01*
G01*
X153225000Y-84580001D02*
G75*
G03*
X152525000Y-85280001I3J-700003D01*
G01*
X165270000Y-77350000D02*
G75*
G03*
X164570000Y-78050000I3J-700003D01*
G01*
X171325000Y-98250000D02*
X169750000Y-98250000D01*
X139650244Y-63150244D02*
X139850244Y-63150244D01*
X139102893Y-71242893D02*
G75*
G03*
X140810000Y-71949999I1707109J1707114D01*
G01*
X163870000Y-78890000D02*
G75*
G03*
X164570000Y-78190000I-3J700003D01*
G01*
X156025000Y-88805001D02*
G75*
G03*
X156725000Y-88105001I-3J700003D01*
G01*
X163870000Y-75250000D02*
G75*
G03*
X163170000Y-75950000I3J-700003D01*
G01*
X143400000Y-85950000D02*
X143400000Y-85255000D01*
X147615600Y-82685000D02*
G75*
G03*
X146915600Y-81985000I-700003J-3D01*
G01*
X143050000Y-84285000D02*
X143050000Y-84085000D01*
X147550244Y-64550244D02*
X147550244Y-70012544D01*
X140775000Y-90377000D02*
G75*
G03*
X140075000Y-91077000I3J-700003D01*
G01*
X162470000Y-76650000D02*
G75*
G03*
X163170000Y-75950000I-3J700003D01*
G01*
X142350000Y-76385000D02*
G75*
G03*
X141650000Y-77085000I3J-700003D01*
G01*
X151825000Y-86705001D02*
X151625000Y-86705001D01*
X141400000Y-87950000D02*
G75*
G03*
X143400000Y-85950000I-2J2000002D01*
G01*
X140810000Y-71950000D02*
X142400000Y-71950000D01*
X170100000Y-83385000D02*
G75*
G03*
X170800000Y-84085000I700003J3D01*
G01*
X163170000Y-78050000D02*
G75*
G03*
X162470000Y-77350000I-700003J-3D01*
G01*
X170800000Y-85485000D02*
G75*
G03*
X171500000Y-84785000I-3J700003D01*
G01*
X141250244Y-70712544D02*
G75*
G03*
X141950244Y-70012544I-3J700003D01*
G01*
X168700000Y-85485000D02*
X168420000Y-85485000D01*
X165470000Y-76650000D02*
X165270000Y-76650000D01*
X160400000Y-91460001D02*
G75*
G03*
X161400000Y-92460001I1000003J3D01*
G01*
X141650000Y-82685000D02*
X141650000Y-81425000D01*
X137550000Y-63500244D02*
G75*
G03*
X136550000Y-64500244I-1J-999999D01*
G01*
X146150244Y-64550244D02*
X146150244Y-70012544D01*
X138250000Y-87950000D02*
G75*
G03*
X136250000Y-89950000I-1J-1999999D01*
G01*
X146150244Y-64550244D02*
G75*
G03*
X145450244Y-63850244I-700003J-3D01*
G01*
X165859999Y-92810001D02*
G75*
G03*
X165159999Y-93510001I3J-700003D01*
G01*
X167750000Y-92460001D02*
X167029999Y-92460001D01*
X168750000Y-77000000D02*
X166440000Y-77000000D01*
X165270000Y-77350000D02*
X165470000Y-77350000D01*
X136250000Y-92975000D02*
G75*
G03*
X137250000Y-93975000I1000003J3D01*
G01*
X143750000Y-75685000D02*
G75*
G03*
X144450000Y-76385000I700003J3D01*
G01*
X144450000Y-83385000D02*
X146915600Y-83385000D01*
X152525000Y-88105001D02*
G75*
G03*
X153225000Y-88805001I700003J3D01*
G01*
X153925000Y-86005001D02*
G75*
G03*
X154625000Y-86705001I700003J3D01*
G01*
X141475000Y-91077000D02*
G75*
G03*
X140775000Y-90377000I-700003J-3D01*
G01*
X161400000Y-92460001D02*
X161889999Y-92460001D01*
X148450244Y-63150244D02*
X148250244Y-63150244D01*
X172675000Y-92025000D02*
G75*
G03*
X173375000Y-92725000I700003J3D01*
G01*
X166059999Y-92810001D02*
X165859999Y-92810001D01*
X143050000Y-75685000D02*
X143050000Y-75485000D01*
X165159999Y-91410001D02*
G75*
G03*
X165859999Y-92110001I700003J3D01*
G01*
X139175000Y-93625000D02*
X139375000Y-93625000D01*
X166059999Y-92110001D02*
X165859999Y-92110001D01*
X169400000Y-83185000D02*
X169400000Y-83385000D01*
X142175000Y-93625000D02*
G75*
G03*
X142875000Y-92925000I-3J700003D01*
G01*
X149200000Y-87055001D02*
X150655000Y-87055001D01*
X143750000Y-75485000D02*
X143750000Y-75685000D01*
X144450000Y-83385000D02*
G75*
G03*
X143750000Y-84085000I3J-700003D01*
G01*
X156025000Y-88805001D02*
X153225000Y-88805001D01*
X156725000Y-85280001D02*
G75*
G03*
X156025000Y-84580001I-700003J-3D01*
G01*
X153925000Y-85280001D02*
G75*
G03*
X153225000Y-84580001I-700003J-3D01*
G01*
X156725000Y-86005001D02*
G75*
G03*
X157425000Y-86705001I700003J3D01*
G01*
X160400000Y-88055001D02*
X160400000Y-91460001D01*
X137250000Y-93975000D02*
X138205000Y-93975000D01*
X168750000Y-97250000D02*
G75*
G03*
X169750000Y-98250000I1000003J3D01*
G01*
X144975000Y-94325000D02*
G75*
G03*
X144275000Y-95025000I3J-700003D01*
G01*
X137550000Y-63500244D02*
X138680244Y-63500244D01*
X143575000Y-90377000D02*
G75*
G03*
X142875000Y-91077000I3J-700003D01*
G01*
X154625000Y-86705001D02*
G75*
G03*
X155325000Y-86005001I-3J700003D01*
G01*
X144450000Y-81985000D02*
X146915600Y-81985000D01*
X140075000Y-95025000D02*
G75*
G03*
X139375000Y-94325000I-700003J-3D01*
G01*
X169750000Y-78000000D02*
G75*
G03*
X168750000Y-77000000I-1000003J-3D01*
G01*
X141250244Y-61750244D02*
G75*
G03*
X140550244Y-62450244I3J-700003D01*
G01*
X162270000Y-77350000D02*
X162470000Y-77350000D01*
X153925000Y-86005001D02*
X153925000Y-85280001D01*
X172675000Y-91825000D02*
X172675000Y-92025000D01*
X144750244Y-64550244D02*
X144750244Y-70012544D01*
X138250000Y-87950000D02*
X141400000Y-87950000D01*
X156725000Y-86005001D02*
X156725000Y-85280001D01*
X151825000Y-86705001D02*
G75*
G03*
X152525000Y-86005001I-3J700003D01*
G01*
X171275000Y-94125000D02*
X170715000Y-94125000D01*
X144275000Y-92925000D02*
X144275000Y-91077000D01*
X163759999Y-93510001D02*
G75*
G03*
X164459999Y-94210001I700003J3D01*
G01*
X146915600Y-80585000D02*
G75*
G03*
X147615600Y-79885000I-3J700003D01*
G01*
X164570000Y-75950000D02*
G75*
G03*
X165270000Y-76650000I700003J3D01*
G01*
X170715000Y-92725000D02*
G75*
G03*
X170015000Y-93425000I3J-700003D01*
G01*
X141650000Y-81425000D02*
X141650000Y-77085000D01*
X164570000Y-78050000D02*
X164570000Y-78190000D01*
X146850244Y-70712544D02*
G75*
G03*
X147550244Y-70012544I-3J700003D01*
G01*
X157425000Y-87405001D02*
G75*
G03*
X156725000Y-88105001I3J-700003D01*
G01*
X136550000Y-67690000D02*
X136550000Y-64500244D01*
X141650000Y-82685000D02*
G75*
G03*
X142350000Y-83385000I700003J3D01*
G01*
X141950244Y-64550244D02*
X141950244Y-70012544D01*
X169400000Y-86185000D02*
X169400000Y-86385000D01*
X144050244Y-70712544D02*
G75*
G03*
X144750244Y-70012544I-3J700003D01*
G01*
X144450000Y-77785000D02*
G75*
G03*
X143750000Y-78485000I3J-700003D01*
G01*
X171275000Y-92725000D02*
X170715000Y-92725000D01*
X144450000Y-76385000D02*
X146915600Y-76385000D01*
X171975000Y-94825000D02*
X171975000Y-95025000D01*
X162270000Y-76650000D02*
X162470000Y-76650000D01*
X156025000Y-84580001D02*
G75*
G03*
X155325000Y-85280001I3J-700003D01*
G01*
X148200000Y-88055001D02*
X148200000Y-92975000D01*
X144275000Y-91077000D02*
G75*
G03*
X143575000Y-90377000I-700003J-3D01*
G01*
X164570000Y-75950000D02*
G75*
G03*
X163870000Y-75250000I-700003J-3D01*
G01*
X147200000Y-93975000D02*
X146145000Y-93975000D01*
X152525000Y-88105001D02*
G75*
G03*
X151825000Y-87405001I-700003J-3D01*
G01*
X160400000Y-88055001D02*
G75*
G03*
X159400000Y-87055001I-1000003J-3D01*
G01*
X172325000Y-97250000D02*
X172325000Y-95995000D01*
X171275000Y-92725000D02*
G75*
G03*
X171975000Y-92025000I-3J700003D01*
G01*
X172325000Y-90200000D02*
X172325000Y-90855000D01*
X142875000Y-92925000D02*
X142875000Y-91077000D01*
X171500000Y-84785000D02*
G75*
G03*
X170800000Y-84085000I-700003J-3D01*
G01*
X168700000Y-84085000D02*
G75*
G03*
X169400000Y-83385000I-3J700003D01*
G01*
X163059999Y-92110001D02*
G75*
G03*
X163759999Y-91410001I-3J700003D01*
G01*
X155000000Y-65500244D02*
X155000000Y-68750000D01*
X147550244Y-62450244D02*
G75*
G03*
X148250244Y-63150244I700003J3D01*
G01*
X163759999Y-93510001D02*
G75*
G03*
X163059999Y-92810001I-700003J-3D01*
G01*
X144450000Y-77785000D02*
X146915600Y-77785000D01*
X144450000Y-80585000D02*
G75*
G03*
X143750000Y-81285000I3J-700003D01*
G01*
X139850244Y-63150244D02*
G75*
G03*
X140550244Y-62450244I-3J700003D01*
G01*
X163059999Y-92110001D02*
X162859999Y-92110001D01*
X174075000Y-93425000D02*
G75*
G03*
X173375000Y-92725000I-700003J-3D01*
G01*
X148250244Y-63850244D02*
X148450244Y-63850244D01*
X141475000Y-92925000D02*
X141475000Y-91077000D01*
X172675000Y-95025000D02*
X172675000Y-94825000D01*
X143300000Y-95725000D02*
X143575000Y-95725000D01*
X168420000Y-84085000D02*
G75*
G03*
X167720000Y-84785000I3J-700003D01*
G01*
X168750000Y-97250000D02*
X168750000Y-93460001D01*
X140775000Y-95725000D02*
X143300000Y-95725000D01*
D11*
X162649999Y-92585001D02*
X162649999Y-92335001D01*
X162649999Y-92335001D02*
X163074999Y-92335001D01*
X163074999Y-92335001D02*
X163074999Y-92585001D01*
X163074999Y-92585001D02*
X162649999Y-92585001D01*
G36*
X163074999Y-92585001D02*
G01*
X162649999Y-92585001D01*
X162649999Y-92335001D01*
X163074999Y-92335001D01*
X163074999Y-92585001D01*
G37*
X163074999Y-92585001D02*
X162649999Y-92585001D01*
X162649999Y-92335001D01*
X163074999Y-92335001D01*
X163074999Y-92585001D01*
X162464999Y-92690001D02*
X162574999Y-92580001D01*
X162574999Y-92580001D02*
X162654999Y-92580001D01*
X162654999Y-92580001D02*
X162654999Y-92340001D01*
X162654999Y-92340001D02*
X162574999Y-92340001D01*
X162574999Y-92340001D02*
X162464999Y-92230001D01*
X162464999Y-92230001D02*
X162464999Y-92690001D01*
G36*
X162574999Y-92340001D02*
G01*
X162654999Y-92340001D01*
X162654999Y-92580001D01*
X162574999Y-92580001D01*
X162464999Y-92690001D01*
X162464999Y-92230001D01*
X162574999Y-92340001D01*
G37*
X162574999Y-92340001D02*
X162654999Y-92340001D01*
X162654999Y-92580001D01*
X162574999Y-92580001D01*
X162464999Y-92690001D01*
X162464999Y-92230001D01*
X162574999Y-92340001D01*
X162224999Y-92710001D02*
X162224999Y-92210001D01*
X162224999Y-92210001D02*
X162274999Y-92210001D01*
X162274999Y-92210001D02*
X162274999Y-92710001D01*
X162274999Y-92710001D02*
X162224999Y-92710001D01*
G36*
X162274999Y-92710001D02*
G01*
X162224999Y-92710001D01*
X162224999Y-92210001D01*
X162274999Y-92210001D01*
X162274999Y-92710001D01*
G37*
X162274999Y-92710001D02*
X162224999Y-92710001D01*
X162224999Y-92210001D01*
X162274999Y-92210001D01*
X162274999Y-92710001D01*
X162649999Y-92935001D02*
X162649999Y-92685001D01*
X162649999Y-92685001D02*
X163074999Y-92685001D01*
X163074999Y-92685001D02*
X163074999Y-92935001D01*
X163074999Y-92935001D02*
X162649999Y-92935001D01*
G36*
X163074999Y-92935001D02*
G01*
X162649999Y-92935001D01*
X162649999Y-92685001D01*
X163074999Y-92685001D01*
X163074999Y-92935001D01*
G37*
X163074999Y-92935001D02*
X162649999Y-92935001D01*
X162649999Y-92685001D01*
X163074999Y-92685001D01*
X163074999Y-92935001D01*
X162274999Y-93110001D02*
X162274999Y-91810001D01*
X162274999Y-91810001D02*
X162474999Y-91810001D01*
X162474999Y-91810001D02*
X162474999Y-93110001D01*
X162474999Y-93110001D02*
X162274999Y-93110001D01*
G36*
X162474999Y-93110001D02*
G01*
X162274999Y-93110001D01*
X162274999Y-91810001D01*
X162474999Y-91810001D01*
X162474999Y-93110001D01*
G37*
X162474999Y-93110001D02*
X162274999Y-93110001D01*
X162274999Y-91810001D01*
X162474999Y-91810001D01*
X162474999Y-93110001D01*
X161674999Y-92235001D02*
X161674999Y-91985001D01*
X161674999Y-91985001D02*
X162099999Y-91985001D01*
X162099999Y-91985001D02*
X162099999Y-92235001D01*
X162099999Y-92235001D02*
X161674999Y-92235001D01*
G36*
X162099999Y-92235001D02*
G01*
X161674999Y-92235001D01*
X161674999Y-91985001D01*
X162099999Y-91985001D01*
X162099999Y-92235001D01*
G37*
X162099999Y-92235001D02*
X161674999Y-92235001D01*
X161674999Y-91985001D01*
X162099999Y-91985001D01*
X162099999Y-92235001D01*
X162649999Y-92235001D02*
X162649999Y-91985001D01*
X162649999Y-91985001D02*
X163074999Y-91985001D01*
X163074999Y-91985001D02*
X163074999Y-92235001D01*
X163074999Y-92235001D02*
X162649999Y-92235001D01*
G36*
X163074999Y-92235001D02*
G01*
X162649999Y-92235001D01*
X162649999Y-91985001D01*
X163074999Y-91985001D01*
X163074999Y-92235001D01*
G37*
X163074999Y-92235001D02*
X162649999Y-92235001D01*
X162649999Y-91985001D01*
X163074999Y-91985001D01*
X163074999Y-92235001D01*
X161674999Y-92585001D02*
X161674999Y-92335001D01*
X161674999Y-92335001D02*
X162099999Y-92335001D01*
X162099999Y-92335001D02*
X162099999Y-92585001D01*
X162099999Y-92585001D02*
X161674999Y-92585001D01*
G36*
X162099999Y-92585001D02*
G01*
X161674999Y-92585001D01*
X161674999Y-92335001D01*
X162099999Y-92335001D01*
X162099999Y-92585001D01*
G37*
X162099999Y-92585001D02*
X161674999Y-92585001D01*
X161674999Y-92335001D01*
X162099999Y-92335001D01*
X162099999Y-92585001D01*
X161674999Y-92935001D02*
X161674999Y-92685001D01*
X161674999Y-92685001D02*
X162099999Y-92685001D01*
X162099999Y-92685001D02*
X162099999Y-92935001D01*
X162099999Y-92935001D02*
X161674999Y-92935001D01*
G36*
X162099999Y-92935001D02*
G01*
X161674999Y-92935001D01*
X161674999Y-92685001D01*
X162099999Y-92685001D01*
X162099999Y-92935001D01*
G37*
X162099999Y-92935001D02*
X161674999Y-92935001D01*
X161674999Y-92685001D01*
X162099999Y-92685001D01*
X162099999Y-92935001D01*
X143275000Y-74300000D02*
X143525000Y-74300000D01*
X143525000Y-74300000D02*
X143525000Y-74725000D01*
X143525000Y-74725000D02*
X143275000Y-74725000D01*
X143275000Y-74725000D02*
X143275000Y-74300000D01*
G36*
X143525000Y-74725000D02*
G01*
X143275000Y-74725000D01*
X143275000Y-74300000D01*
X143525000Y-74300000D01*
X143525000Y-74725000D01*
G37*
X143525000Y-74725000D02*
X143275000Y-74725000D01*
X143275000Y-74300000D01*
X143525000Y-74300000D01*
X143525000Y-74725000D01*
X143625000Y-75275000D02*
X143875000Y-75275000D01*
X143875000Y-75275000D02*
X143875000Y-75700000D01*
X143875000Y-75700000D02*
X143625000Y-75700000D01*
X143625000Y-75700000D02*
X143625000Y-75275000D01*
G36*
X143875000Y-75700000D02*
G01*
X143625000Y-75700000D01*
X143625000Y-75275000D01*
X143875000Y-75275000D01*
X143875000Y-75700000D01*
G37*
X143875000Y-75700000D02*
X143625000Y-75700000D01*
X143625000Y-75275000D01*
X143875000Y-75275000D01*
X143875000Y-75700000D01*
X143150000Y-74850000D02*
X143650000Y-74850000D01*
X143650000Y-74850000D02*
X143650000Y-74900000D01*
X143650000Y-74900000D02*
X143150000Y-74900000D01*
X143150000Y-74900000D02*
X143150000Y-74850000D01*
G36*
X143650000Y-74900000D02*
G01*
X143150000Y-74900000D01*
X143150000Y-74850000D01*
X143650000Y-74850000D01*
X143650000Y-74900000D01*
G37*
X143650000Y-74900000D02*
X143150000Y-74900000D01*
X143150000Y-74850000D01*
X143650000Y-74850000D01*
X143650000Y-74900000D01*
X142750000Y-74900000D02*
X144050000Y-74900000D01*
X144050000Y-74900000D02*
X144050000Y-75100000D01*
X144050000Y-75100000D02*
X142750000Y-75100000D01*
X142750000Y-75100000D02*
X142750000Y-74900000D01*
G36*
X144050000Y-75100000D02*
G01*
X142750000Y-75100000D01*
X142750000Y-74900000D01*
X144050000Y-74900000D01*
X144050000Y-75100000D01*
G37*
X144050000Y-75100000D02*
X142750000Y-75100000D01*
X142750000Y-74900000D01*
X144050000Y-74900000D01*
X144050000Y-75100000D01*
X143275000Y-75275000D02*
X143525000Y-75275000D01*
X143525000Y-75275000D02*
X143525000Y-75700000D01*
X143525000Y-75700000D02*
X143275000Y-75700000D01*
X143275000Y-75700000D02*
X143275000Y-75275000D01*
G36*
X143525000Y-75700000D02*
G01*
X143275000Y-75700000D01*
X143275000Y-75275000D01*
X143525000Y-75275000D01*
X143525000Y-75700000D01*
G37*
X143525000Y-75700000D02*
X143275000Y-75700000D01*
X143275000Y-75275000D01*
X143525000Y-75275000D01*
X143525000Y-75700000D01*
X142925000Y-74300000D02*
X143175000Y-74300000D01*
X143175000Y-74300000D02*
X143175000Y-74725000D01*
X143175000Y-74725000D02*
X142925000Y-74725000D01*
X142925000Y-74725000D02*
X142925000Y-74300000D01*
G36*
X143175000Y-74725000D02*
G01*
X142925000Y-74725000D01*
X142925000Y-74300000D01*
X143175000Y-74300000D01*
X143175000Y-74725000D01*
G37*
X143175000Y-74725000D02*
X142925000Y-74725000D01*
X142925000Y-74300000D01*
X143175000Y-74300000D01*
X143175000Y-74725000D01*
X142925000Y-75275000D02*
X143175000Y-75275000D01*
X143175000Y-75275000D02*
X143175000Y-75700000D01*
X143175000Y-75700000D02*
X142925000Y-75700000D01*
X142925000Y-75700000D02*
X142925000Y-75275000D01*
G36*
X143175000Y-75700000D02*
G01*
X142925000Y-75700000D01*
X142925000Y-75275000D01*
X143175000Y-75275000D01*
X143175000Y-75700000D01*
G37*
X143175000Y-75700000D02*
X142925000Y-75700000D01*
X142925000Y-75275000D01*
X143175000Y-75275000D01*
X143175000Y-75700000D01*
X143625000Y-74300000D02*
X143875000Y-74300000D01*
X143875000Y-74300000D02*
X143875000Y-74725000D01*
X143875000Y-74725000D02*
X143625000Y-74725000D01*
X143625000Y-74725000D02*
X143625000Y-74300000D01*
G36*
X143875000Y-74725000D02*
G01*
X143625000Y-74725000D01*
X143625000Y-74300000D01*
X143875000Y-74300000D01*
X143875000Y-74725000D01*
G37*
X143875000Y-74725000D02*
X143625000Y-74725000D01*
X143625000Y-74300000D01*
X143875000Y-74300000D01*
X143875000Y-74725000D01*
X143170000Y-75090000D02*
X143280000Y-75200000D01*
X143280000Y-75200000D02*
X143280000Y-75280000D01*
X143280000Y-75280000D02*
X143520000Y-75280000D01*
X143520000Y-75280000D02*
X143520000Y-75200000D01*
X143520000Y-75200000D02*
X143630000Y-75090000D01*
X143630000Y-75090000D02*
X143170000Y-75090000D01*
G36*
X143520000Y-75200000D02*
G01*
X143520000Y-75280000D01*
X143280000Y-75280000D01*
X143280000Y-75200000D01*
X143170000Y-75090000D01*
X143630000Y-75090000D01*
X143520000Y-75200000D01*
G37*
X143520000Y-75200000D02*
X143520000Y-75280000D01*
X143280000Y-75280000D01*
X143280000Y-75200000D01*
X143170000Y-75090000D01*
X143630000Y-75090000D01*
X143520000Y-75200000D01*
X171850000Y-91615000D02*
X172100000Y-91615000D01*
X172100000Y-91615000D02*
X172100000Y-92040000D01*
X172100000Y-92040000D02*
X171850000Y-92040000D01*
X171850000Y-92040000D02*
X171850000Y-91615000D01*
G36*
X172100000Y-92040000D02*
G01*
X171850000Y-92040000D01*
X171850000Y-91615000D01*
X172100000Y-91615000D01*
X172100000Y-92040000D01*
G37*
X172100000Y-92040000D02*
X171850000Y-92040000D01*
X171850000Y-91615000D01*
X172100000Y-91615000D01*
X172100000Y-92040000D01*
X171675000Y-91240000D02*
X172975000Y-91240000D01*
X172975000Y-91240000D02*
X172975000Y-91440000D01*
X172975000Y-91440000D02*
X171675000Y-91440000D01*
X171675000Y-91440000D02*
X171675000Y-91240000D01*
G36*
X172975000Y-91440000D02*
G01*
X171675000Y-91440000D01*
X171675000Y-91240000D01*
X172975000Y-91240000D01*
X172975000Y-91440000D01*
G37*
X172975000Y-91440000D02*
X171675000Y-91440000D01*
X171675000Y-91240000D01*
X172975000Y-91240000D01*
X172975000Y-91440000D01*
X172550000Y-90640000D02*
X172800000Y-90640000D01*
X172800000Y-90640000D02*
X172800000Y-91065000D01*
X172800000Y-91065000D02*
X172550000Y-91065000D01*
X172550000Y-91065000D02*
X172550000Y-90640000D01*
G36*
X172800000Y-91065000D02*
G01*
X172550000Y-91065000D01*
X172550000Y-90640000D01*
X172800000Y-90640000D01*
X172800000Y-91065000D01*
G37*
X172800000Y-91065000D02*
X172550000Y-91065000D01*
X172550000Y-90640000D01*
X172800000Y-90640000D01*
X172800000Y-91065000D01*
X172095000Y-91430000D02*
X172205000Y-91540000D01*
X172205000Y-91540000D02*
X172205000Y-91620000D01*
X172205000Y-91620000D02*
X172445000Y-91620000D01*
X172445000Y-91620000D02*
X172445000Y-91540000D01*
X172445000Y-91540000D02*
X172555000Y-91430000D01*
X172555000Y-91430000D02*
X172095000Y-91430000D01*
G36*
X172445000Y-91540000D02*
G01*
X172445000Y-91620000D01*
X172205000Y-91620000D01*
X172205000Y-91540000D01*
X172095000Y-91430000D01*
X172555000Y-91430000D01*
X172445000Y-91540000D01*
G37*
X172445000Y-91540000D02*
X172445000Y-91620000D01*
X172205000Y-91620000D01*
X172205000Y-91540000D01*
X172095000Y-91430000D01*
X172555000Y-91430000D01*
X172445000Y-91540000D01*
X172200000Y-90640000D02*
X172450000Y-90640000D01*
X172450000Y-90640000D02*
X172450000Y-91065000D01*
X172450000Y-91065000D02*
X172200000Y-91065000D01*
X172200000Y-91065000D02*
X172200000Y-90640000D01*
G36*
X172450000Y-91065000D02*
G01*
X172200000Y-91065000D01*
X172200000Y-90640000D01*
X172450000Y-90640000D01*
X172450000Y-91065000D01*
G37*
X172450000Y-91065000D02*
X172200000Y-91065000D01*
X172200000Y-90640000D01*
X172450000Y-90640000D01*
X172450000Y-91065000D01*
X172550000Y-91615000D02*
X172800000Y-91615000D01*
X172800000Y-91615000D02*
X172800000Y-92040000D01*
X172800000Y-92040000D02*
X172550000Y-92040000D01*
X172550000Y-92040000D02*
X172550000Y-91615000D01*
G36*
X172800000Y-92040000D02*
G01*
X172550000Y-92040000D01*
X172550000Y-91615000D01*
X172800000Y-91615000D01*
X172800000Y-92040000D01*
G37*
X172800000Y-92040000D02*
X172550000Y-92040000D01*
X172550000Y-91615000D01*
X172800000Y-91615000D01*
X172800000Y-92040000D01*
X172200000Y-91615000D02*
X172450000Y-91615000D01*
X172450000Y-91615000D02*
X172450000Y-92040000D01*
X172450000Y-92040000D02*
X172200000Y-92040000D01*
X172200000Y-92040000D02*
X172200000Y-91615000D01*
G36*
X172450000Y-92040000D02*
G01*
X172200000Y-92040000D01*
X172200000Y-91615000D01*
X172450000Y-91615000D01*
X172450000Y-92040000D01*
G37*
X172450000Y-92040000D02*
X172200000Y-92040000D01*
X172200000Y-91615000D01*
X172450000Y-91615000D01*
X172450000Y-92040000D01*
X171850000Y-90640000D02*
X172100000Y-90640000D01*
X172100000Y-90640000D02*
X172100000Y-91065000D01*
X172100000Y-91065000D02*
X171850000Y-91065000D01*
X171850000Y-91065000D02*
X171850000Y-90640000D01*
G36*
X172100000Y-91065000D02*
G01*
X171850000Y-91065000D01*
X171850000Y-90640000D01*
X172100000Y-90640000D01*
X172100000Y-91065000D01*
G37*
X172100000Y-91065000D02*
X171850000Y-91065000D01*
X171850000Y-90640000D01*
X172100000Y-90640000D01*
X172100000Y-91065000D01*
X172075000Y-91190000D02*
X172575000Y-91190000D01*
X172575000Y-91190000D02*
X172575000Y-91240000D01*
X172575000Y-91240000D02*
X172075000Y-91240000D01*
X172075000Y-91240000D02*
X172075000Y-91190000D01*
G36*
X172575000Y-91240000D02*
G01*
X172075000Y-91240000D01*
X172075000Y-91190000D01*
X172575000Y-91190000D01*
X172575000Y-91240000D01*
G37*
X172575000Y-91240000D02*
X172075000Y-91240000D01*
X172075000Y-91190000D01*
X172575000Y-91190000D01*
X172575000Y-91240000D01*
X145810000Y-93725000D02*
X145810000Y-94225000D01*
X145810000Y-94225000D02*
X145760000Y-94225000D01*
X145760000Y-94225000D02*
X145760000Y-93725000D01*
X145760000Y-93725000D02*
X145810000Y-93725000D01*
G36*
X145810000Y-94225000D02*
G01*
X145760000Y-94225000D01*
X145760000Y-93725000D01*
X145810000Y-93725000D01*
X145810000Y-94225000D01*
G37*
X145810000Y-94225000D02*
X145760000Y-94225000D01*
X145760000Y-93725000D01*
X145810000Y-93725000D01*
X145810000Y-94225000D01*
X145385000Y-93500000D02*
X145385000Y-93750000D01*
X145385000Y-93750000D02*
X144960000Y-93750000D01*
X144960000Y-93750000D02*
X144960000Y-93500000D01*
X144960000Y-93500000D02*
X145385000Y-93500000D01*
G36*
X145385000Y-93750000D02*
G01*
X144960000Y-93750000D01*
X144960000Y-93500000D01*
X145385000Y-93500000D01*
X145385000Y-93750000D01*
G37*
X145385000Y-93750000D02*
X144960000Y-93750000D01*
X144960000Y-93500000D01*
X145385000Y-93500000D01*
X145385000Y-93750000D01*
X145385000Y-94200000D02*
X145385000Y-94450000D01*
X145385000Y-94450000D02*
X144960000Y-94450000D01*
X144960000Y-94450000D02*
X144960000Y-94200000D01*
X144960000Y-94200000D02*
X145385000Y-94200000D01*
G36*
X145385000Y-94450000D02*
G01*
X144960000Y-94450000D01*
X144960000Y-94200000D01*
X145385000Y-94200000D01*
X145385000Y-94450000D01*
G37*
X145385000Y-94450000D02*
X144960000Y-94450000D01*
X144960000Y-94200000D01*
X145385000Y-94200000D01*
X145385000Y-94450000D01*
X146360000Y-94200000D02*
X146360000Y-94450000D01*
X146360000Y-94450000D02*
X145935000Y-94450000D01*
X145935000Y-94450000D02*
X145935000Y-94200000D01*
X145935000Y-94200000D02*
X146360000Y-94200000D01*
G36*
X146360000Y-94450000D02*
G01*
X145935000Y-94450000D01*
X145935000Y-94200000D01*
X146360000Y-94200000D01*
X146360000Y-94450000D01*
G37*
X146360000Y-94450000D02*
X145935000Y-94450000D01*
X145935000Y-94200000D01*
X146360000Y-94200000D01*
X146360000Y-94450000D01*
X146360000Y-93850000D02*
X146360000Y-94100000D01*
X146360000Y-94100000D02*
X145935000Y-94100000D01*
X145935000Y-94100000D02*
X145935000Y-93850000D01*
X145935000Y-93850000D02*
X146360000Y-93850000D01*
G36*
X146360000Y-94100000D02*
G01*
X145935000Y-94100000D01*
X145935000Y-93850000D01*
X146360000Y-93850000D01*
X146360000Y-94100000D01*
G37*
X146360000Y-94100000D02*
X145935000Y-94100000D01*
X145935000Y-93850000D01*
X146360000Y-93850000D01*
X146360000Y-94100000D01*
X145760000Y-93325000D02*
X145760000Y-94625000D01*
X145760000Y-94625000D02*
X145560000Y-94625000D01*
X145560000Y-94625000D02*
X145560000Y-93325000D01*
X145560000Y-93325000D02*
X145760000Y-93325000D01*
G36*
X145760000Y-94625000D02*
G01*
X145560000Y-94625000D01*
X145560000Y-93325000D01*
X145760000Y-93325000D01*
X145760000Y-94625000D01*
G37*
X145760000Y-94625000D02*
X145560000Y-94625000D01*
X145560000Y-93325000D01*
X145760000Y-93325000D01*
X145760000Y-94625000D01*
X146360000Y-93500000D02*
X146360000Y-93750000D01*
X146360000Y-93750000D02*
X145935000Y-93750000D01*
X145935000Y-93750000D02*
X145935000Y-93500000D01*
X145935000Y-93500000D02*
X146360000Y-93500000D01*
G36*
X146360000Y-93750000D02*
G01*
X145935000Y-93750000D01*
X145935000Y-93500000D01*
X146360000Y-93500000D01*
X146360000Y-93750000D01*
G37*
X146360000Y-93750000D02*
X145935000Y-93750000D01*
X145935000Y-93500000D01*
X146360000Y-93500000D01*
X146360000Y-93750000D01*
X145385000Y-93850000D02*
X145385000Y-94100000D01*
X145385000Y-94100000D02*
X144960000Y-94100000D01*
X144960000Y-94100000D02*
X144960000Y-93850000D01*
X144960000Y-93850000D02*
X145385000Y-93850000D01*
G36*
X145385000Y-94100000D02*
G01*
X144960000Y-94100000D01*
X144960000Y-93850000D01*
X145385000Y-93850000D01*
X145385000Y-94100000D01*
G37*
X145385000Y-94100000D02*
X144960000Y-94100000D01*
X144960000Y-93850000D01*
X145385000Y-93850000D01*
X145385000Y-94100000D01*
X145570000Y-93745000D02*
X145460000Y-93855000D01*
X145460000Y-93855000D02*
X145380000Y-93855000D01*
X145380000Y-93855000D02*
X145380000Y-94095000D01*
X145380000Y-94095000D02*
X145460000Y-94095000D01*
X145460000Y-94095000D02*
X145570000Y-94205000D01*
X145570000Y-94205000D02*
X145570000Y-93745000D01*
G36*
X145570000Y-94205000D02*
G01*
X145460000Y-94095000D01*
X145380000Y-94095000D01*
X145380000Y-93855000D01*
X145460000Y-93855000D01*
X145570000Y-93745000D01*
X145570000Y-94205000D01*
G37*
X145570000Y-94205000D02*
X145460000Y-94095000D01*
X145380000Y-94095000D01*
X145380000Y-93855000D01*
X145460000Y-93855000D01*
X145570000Y-93745000D01*
X145570000Y-94205000D01*
X138590000Y-94625000D02*
X138590000Y-93325000D01*
X138590000Y-93325000D02*
X138790000Y-93325000D01*
X138790000Y-93325000D02*
X138790000Y-94625000D01*
X138790000Y-94625000D02*
X138590000Y-94625000D01*
G36*
X138790000Y-94625000D02*
G01*
X138590000Y-94625000D01*
X138590000Y-93325000D01*
X138790000Y-93325000D01*
X138790000Y-94625000D01*
G37*
X138790000Y-94625000D02*
X138590000Y-94625000D01*
X138590000Y-93325000D01*
X138790000Y-93325000D01*
X138790000Y-94625000D01*
X138540000Y-94225000D02*
X138540000Y-93725000D01*
X138540000Y-93725000D02*
X138590000Y-93725000D01*
X138590000Y-93725000D02*
X138590000Y-94225000D01*
X138590000Y-94225000D02*
X138540000Y-94225000D01*
G36*
X138590000Y-94225000D02*
G01*
X138540000Y-94225000D01*
X138540000Y-93725000D01*
X138590000Y-93725000D01*
X138590000Y-94225000D01*
G37*
X138590000Y-94225000D02*
X138540000Y-94225000D01*
X138540000Y-93725000D01*
X138590000Y-93725000D01*
X138590000Y-94225000D01*
X138780000Y-94205000D02*
X138890000Y-94095000D01*
X138890000Y-94095000D02*
X138970000Y-94095000D01*
X138970000Y-94095000D02*
X138970000Y-93855000D01*
X138970000Y-93855000D02*
X138890000Y-93855000D01*
X138890000Y-93855000D02*
X138780000Y-93745000D01*
X138780000Y-93745000D02*
X138780000Y-94205000D01*
G36*
X138890000Y-93855000D02*
G01*
X138970000Y-93855000D01*
X138970000Y-94095000D01*
X138890000Y-94095000D01*
X138780000Y-94205000D01*
X138780000Y-93745000D01*
X138890000Y-93855000D01*
G37*
X138890000Y-93855000D02*
X138970000Y-93855000D01*
X138970000Y-94095000D01*
X138890000Y-94095000D01*
X138780000Y-94205000D01*
X138780000Y-93745000D01*
X138890000Y-93855000D01*
X137990000Y-93750000D02*
X137990000Y-93500000D01*
X137990000Y-93500000D02*
X138415000Y-93500000D01*
X138415000Y-93500000D02*
X138415000Y-93750000D01*
X138415000Y-93750000D02*
X137990000Y-93750000D01*
G36*
X138415000Y-93750000D02*
G01*
X137990000Y-93750000D01*
X137990000Y-93500000D01*
X138415000Y-93500000D01*
X138415000Y-93750000D01*
G37*
X138415000Y-93750000D02*
X137990000Y-93750000D01*
X137990000Y-93500000D01*
X138415000Y-93500000D01*
X138415000Y-93750000D01*
X138965000Y-94450000D02*
X138965000Y-94200000D01*
X138965000Y-94200000D02*
X139390000Y-94200000D01*
X139390000Y-94200000D02*
X139390000Y-94450000D01*
X139390000Y-94450000D02*
X138965000Y-94450000D01*
G36*
X139390000Y-94450000D02*
G01*
X138965000Y-94450000D01*
X138965000Y-94200000D01*
X139390000Y-94200000D01*
X139390000Y-94450000D01*
G37*
X139390000Y-94450000D02*
X138965000Y-94450000D01*
X138965000Y-94200000D01*
X139390000Y-94200000D01*
X139390000Y-94450000D01*
X137990000Y-94450000D02*
X137990000Y-94200000D01*
X137990000Y-94200000D02*
X138415000Y-94200000D01*
X138415000Y-94200000D02*
X138415000Y-94450000D01*
X138415000Y-94450000D02*
X137990000Y-94450000D01*
G36*
X138415000Y-94450000D02*
G01*
X137990000Y-94450000D01*
X137990000Y-94200000D01*
X138415000Y-94200000D01*
X138415000Y-94450000D01*
G37*
X138415000Y-94450000D02*
X137990000Y-94450000D01*
X137990000Y-94200000D01*
X138415000Y-94200000D01*
X138415000Y-94450000D01*
X137990000Y-94100000D02*
X137990000Y-93850000D01*
X137990000Y-93850000D02*
X138415000Y-93850000D01*
X138415000Y-93850000D02*
X138415000Y-94100000D01*
X138415000Y-94100000D02*
X137990000Y-94100000D01*
G36*
X138415000Y-94100000D02*
G01*
X137990000Y-94100000D01*
X137990000Y-93850000D01*
X138415000Y-93850000D01*
X138415000Y-94100000D01*
G37*
X138415000Y-94100000D02*
X137990000Y-94100000D01*
X137990000Y-93850000D01*
X138415000Y-93850000D01*
X138415000Y-94100000D01*
X138965000Y-94100000D02*
X138965000Y-93850000D01*
X138965000Y-93850000D02*
X139390000Y-93850000D01*
X139390000Y-93850000D02*
X139390000Y-94100000D01*
X139390000Y-94100000D02*
X138965000Y-94100000D01*
G36*
X139390000Y-94100000D02*
G01*
X138965000Y-94100000D01*
X138965000Y-93850000D01*
X139390000Y-93850000D01*
X139390000Y-94100000D01*
G37*
X139390000Y-94100000D02*
X138965000Y-94100000D01*
X138965000Y-93850000D01*
X139390000Y-93850000D01*
X139390000Y-94100000D01*
X138965000Y-93750000D02*
X138965000Y-93500000D01*
X138965000Y-93500000D02*
X139390000Y-93500000D01*
X139390000Y-93500000D02*
X139390000Y-93750000D01*
X139390000Y-93750000D02*
X138965000Y-93750000D01*
G36*
X139390000Y-93750000D02*
G01*
X138965000Y-93750000D01*
X138965000Y-93500000D01*
X139390000Y-93500000D01*
X139390000Y-93750000D01*
G37*
X139390000Y-93750000D02*
X138965000Y-93750000D01*
X138965000Y-93500000D01*
X139390000Y-93500000D01*
X139390000Y-93750000D01*
X172450000Y-96210000D02*
X172200000Y-96210000D01*
X172200000Y-96210000D02*
X172200000Y-95785000D01*
X172200000Y-95785000D02*
X172450000Y-95785000D01*
X172450000Y-95785000D02*
X172450000Y-96210000D01*
G36*
X172450000Y-96210000D02*
G01*
X172200000Y-96210000D01*
X172200000Y-95785000D01*
X172450000Y-95785000D01*
X172450000Y-96210000D01*
G37*
X172450000Y-96210000D02*
X172200000Y-96210000D01*
X172200000Y-95785000D01*
X172450000Y-95785000D01*
X172450000Y-96210000D01*
X172800000Y-96210000D02*
X172550000Y-96210000D01*
X172550000Y-96210000D02*
X172550000Y-95785000D01*
X172550000Y-95785000D02*
X172800000Y-95785000D01*
X172800000Y-95785000D02*
X172800000Y-96210000D01*
G36*
X172800000Y-96210000D02*
G01*
X172550000Y-96210000D01*
X172550000Y-95785000D01*
X172800000Y-95785000D01*
X172800000Y-96210000D01*
G37*
X172800000Y-96210000D02*
X172550000Y-96210000D01*
X172550000Y-95785000D01*
X172800000Y-95785000D01*
X172800000Y-96210000D01*
X172555000Y-95420000D02*
X172445000Y-95310000D01*
X172445000Y-95310000D02*
X172445000Y-95230000D01*
X172445000Y-95230000D02*
X172205000Y-95230000D01*
X172205000Y-95230000D02*
X172205000Y-95310000D01*
X172205000Y-95310000D02*
X172095000Y-95420000D01*
X172095000Y-95420000D02*
X172555000Y-95420000D01*
G36*
X172445000Y-95310000D02*
G01*
X172555000Y-95420000D01*
X172095000Y-95420000D01*
X172205000Y-95310000D01*
X172205000Y-95230000D01*
X172445000Y-95230000D01*
X172445000Y-95310000D01*
G37*
X172445000Y-95310000D02*
X172555000Y-95420000D01*
X172095000Y-95420000D01*
X172205000Y-95310000D01*
X172205000Y-95230000D01*
X172445000Y-95230000D01*
X172445000Y-95310000D01*
X172975000Y-95610000D02*
X171675000Y-95610000D01*
X171675000Y-95610000D02*
X171675000Y-95410000D01*
X171675000Y-95410000D02*
X172975000Y-95410000D01*
X172975000Y-95410000D02*
X172975000Y-95610000D01*
G36*
X172975000Y-95610000D02*
G01*
X171675000Y-95610000D01*
X171675000Y-95410000D01*
X172975000Y-95410000D01*
X172975000Y-95610000D01*
G37*
X172975000Y-95610000D02*
X171675000Y-95610000D01*
X171675000Y-95410000D01*
X172975000Y-95410000D01*
X172975000Y-95610000D01*
X172575000Y-95660000D02*
X172075000Y-95660000D01*
X172075000Y-95660000D02*
X172075000Y-95610000D01*
X172075000Y-95610000D02*
X172575000Y-95610000D01*
X172575000Y-95610000D02*
X172575000Y-95660000D01*
G36*
X172575000Y-95660000D02*
G01*
X172075000Y-95660000D01*
X172075000Y-95610000D01*
X172575000Y-95610000D01*
X172575000Y-95660000D01*
G37*
X172575000Y-95660000D02*
X172075000Y-95660000D01*
X172075000Y-95610000D01*
X172575000Y-95610000D01*
X172575000Y-95660000D01*
X172100000Y-96210000D02*
X171850000Y-96210000D01*
X171850000Y-96210000D02*
X171850000Y-95785000D01*
X171850000Y-95785000D02*
X172100000Y-95785000D01*
X172100000Y-95785000D02*
X172100000Y-96210000D01*
G36*
X172100000Y-96210000D02*
G01*
X171850000Y-96210000D01*
X171850000Y-95785000D01*
X172100000Y-95785000D01*
X172100000Y-96210000D01*
G37*
X172100000Y-96210000D02*
X171850000Y-96210000D01*
X171850000Y-95785000D01*
X172100000Y-95785000D01*
X172100000Y-96210000D01*
X172800000Y-95235000D02*
X172550000Y-95235000D01*
X172550000Y-95235000D02*
X172550000Y-94810000D01*
X172550000Y-94810000D02*
X172800000Y-94810000D01*
X172800000Y-94810000D02*
X172800000Y-95235000D01*
G36*
X172800000Y-95235000D02*
G01*
X172550000Y-95235000D01*
X172550000Y-94810000D01*
X172800000Y-94810000D01*
X172800000Y-95235000D01*
G37*
X172800000Y-95235000D02*
X172550000Y-95235000D01*
X172550000Y-94810000D01*
X172800000Y-94810000D01*
X172800000Y-95235000D01*
X172450000Y-95235000D02*
X172200000Y-95235000D01*
X172200000Y-95235000D02*
X172200000Y-94810000D01*
X172200000Y-94810000D02*
X172450000Y-94810000D01*
X172450000Y-94810000D02*
X172450000Y-95235000D01*
G36*
X172450000Y-95235000D02*
G01*
X172200000Y-95235000D01*
X172200000Y-94810000D01*
X172450000Y-94810000D01*
X172450000Y-95235000D01*
G37*
X172450000Y-95235000D02*
X172200000Y-95235000D01*
X172200000Y-94810000D01*
X172450000Y-94810000D01*
X172450000Y-95235000D01*
X172100000Y-95235000D02*
X171850000Y-95235000D01*
X171850000Y-95235000D02*
X171850000Y-94810000D01*
X171850000Y-94810000D02*
X172100000Y-94810000D01*
X172100000Y-94810000D02*
X172100000Y-95235000D01*
G36*
X172100000Y-95235000D02*
G01*
X171850000Y-95235000D01*
X171850000Y-94810000D01*
X172100000Y-94810000D01*
X172100000Y-95235000D01*
G37*
X172100000Y-95235000D02*
X171850000Y-95235000D01*
X171850000Y-94810000D01*
X172100000Y-94810000D01*
X172100000Y-95235000D01*
X150440000Y-87530001D02*
X150440000Y-87280001D01*
X150440000Y-87280001D02*
X150865000Y-87280001D01*
X150865000Y-87280001D02*
X150865000Y-87530001D01*
X150865000Y-87530001D02*
X150440000Y-87530001D01*
G36*
X150865000Y-87530001D02*
G01*
X150440000Y-87530001D01*
X150440000Y-87280001D01*
X150865000Y-87280001D01*
X150865000Y-87530001D01*
G37*
X150865000Y-87530001D02*
X150440000Y-87530001D01*
X150440000Y-87280001D01*
X150865000Y-87280001D01*
X150865000Y-87530001D01*
X150440000Y-86830001D02*
X150440000Y-86580001D01*
X150440000Y-86580001D02*
X150865000Y-86580001D01*
X150865000Y-86580001D02*
X150865000Y-86830001D01*
X150865000Y-86830001D02*
X150440000Y-86830001D01*
G36*
X150865000Y-86830001D02*
G01*
X150440000Y-86830001D01*
X150440000Y-86580001D01*
X150865000Y-86580001D01*
X150865000Y-86830001D01*
G37*
X150865000Y-86830001D02*
X150440000Y-86830001D01*
X150440000Y-86580001D01*
X150865000Y-86580001D01*
X150865000Y-86830001D01*
X150440000Y-87180001D02*
X150440000Y-86930001D01*
X150440000Y-86930001D02*
X150865000Y-86930001D01*
X150865000Y-86930001D02*
X150865000Y-87180001D01*
X150865000Y-87180001D02*
X150440000Y-87180001D01*
G36*
X150865000Y-87180001D02*
G01*
X150440000Y-87180001D01*
X150440000Y-86930001D01*
X150865000Y-86930001D01*
X150865000Y-87180001D01*
G37*
X150865000Y-87180001D02*
X150440000Y-87180001D01*
X150440000Y-86930001D01*
X150865000Y-86930001D01*
X150865000Y-87180001D01*
X151415000Y-87530001D02*
X151415000Y-87280001D01*
X151415000Y-87280001D02*
X151840000Y-87280001D01*
X151840000Y-87280001D02*
X151840000Y-87530001D01*
X151840000Y-87530001D02*
X151415000Y-87530001D01*
G36*
X151840000Y-87530001D02*
G01*
X151415000Y-87530001D01*
X151415000Y-87280001D01*
X151840000Y-87280001D01*
X151840000Y-87530001D01*
G37*
X151840000Y-87530001D02*
X151415000Y-87530001D01*
X151415000Y-87280001D01*
X151840000Y-87280001D01*
X151840000Y-87530001D01*
X151230000Y-87285001D02*
X151340000Y-87175001D01*
X151340000Y-87175001D02*
X151420000Y-87175001D01*
X151420000Y-87175001D02*
X151420000Y-86935001D01*
X151420000Y-86935001D02*
X151340000Y-86935001D01*
X151340000Y-86935001D02*
X151230000Y-86825001D01*
X151230000Y-86825001D02*
X151230000Y-87285001D01*
G36*
X151340000Y-86935001D02*
G01*
X151420000Y-86935001D01*
X151420000Y-87175001D01*
X151340000Y-87175001D01*
X151230000Y-87285001D01*
X151230000Y-86825001D01*
X151340000Y-86935001D01*
G37*
X151340000Y-86935001D02*
X151420000Y-86935001D01*
X151420000Y-87175001D01*
X151340000Y-87175001D01*
X151230000Y-87285001D01*
X151230000Y-86825001D01*
X151340000Y-86935001D01*
X151415000Y-86830001D02*
X151415000Y-86580001D01*
X151415000Y-86580001D02*
X151840000Y-86580001D01*
X151840000Y-86580001D02*
X151840000Y-86830001D01*
X151840000Y-86830001D02*
X151415000Y-86830001D01*
G36*
X151840000Y-86830001D02*
G01*
X151415000Y-86830001D01*
X151415000Y-86580001D01*
X151840000Y-86580001D01*
X151840000Y-86830001D01*
G37*
X151840000Y-86830001D02*
X151415000Y-86830001D01*
X151415000Y-86580001D01*
X151840000Y-86580001D01*
X151840000Y-86830001D01*
X150990000Y-87305001D02*
X150990000Y-86805001D01*
X150990000Y-86805001D02*
X151040000Y-86805001D01*
X151040000Y-86805001D02*
X151040000Y-87305001D01*
X151040000Y-87305001D02*
X150990000Y-87305001D01*
G36*
X151040000Y-87305001D02*
G01*
X150990000Y-87305001D01*
X150990000Y-86805001D01*
X151040000Y-86805001D01*
X151040000Y-87305001D01*
G37*
X151040000Y-87305001D02*
X150990000Y-87305001D01*
X150990000Y-86805001D01*
X151040000Y-86805001D01*
X151040000Y-87305001D01*
X151040000Y-87705001D02*
X151040000Y-86405001D01*
X151040000Y-86405001D02*
X151240000Y-86405001D01*
X151240000Y-86405001D02*
X151240000Y-87705001D01*
X151240000Y-87705001D02*
X151040000Y-87705001D01*
G36*
X151240000Y-87705001D02*
G01*
X151040000Y-87705001D01*
X151040000Y-86405001D01*
X151240000Y-86405001D01*
X151240000Y-87705001D01*
G37*
X151240000Y-87705001D02*
X151040000Y-87705001D01*
X151040000Y-86405001D01*
X151240000Y-86405001D01*
X151240000Y-87705001D01*
X151415000Y-87180001D02*
X151415000Y-86930001D01*
X151415000Y-86930001D02*
X151840000Y-86930001D01*
X151840000Y-86930001D02*
X151840000Y-87180001D01*
X151840000Y-87180001D02*
X151415000Y-87180001D01*
G36*
X151840000Y-87180001D02*
G01*
X151415000Y-87180001D01*
X151415000Y-86930001D01*
X151840000Y-86930001D01*
X151840000Y-87180001D01*
G37*
X151840000Y-87180001D02*
X151415000Y-87180001D01*
X151415000Y-86930001D01*
X151840000Y-86930001D01*
X151840000Y-87180001D01*
X166655000Y-76875000D02*
X166655000Y-77125000D01*
X166655000Y-77125000D02*
X166230000Y-77125000D01*
X166230000Y-77125000D02*
X166230000Y-76875000D01*
X166230000Y-76875000D02*
X166655000Y-76875000D01*
G36*
X166655000Y-77125000D02*
G01*
X166230000Y-77125000D01*
X166230000Y-76875000D01*
X166655000Y-76875000D01*
X166655000Y-77125000D01*
G37*
X166655000Y-77125000D02*
X166230000Y-77125000D01*
X166230000Y-76875000D01*
X166655000Y-76875000D01*
X166655000Y-77125000D01*
X166055000Y-76350000D02*
X166055000Y-77650000D01*
X166055000Y-77650000D02*
X165855000Y-77650000D01*
X165855000Y-77650000D02*
X165855000Y-76350000D01*
X165855000Y-76350000D02*
X166055000Y-76350000D01*
G36*
X166055000Y-77650000D02*
G01*
X165855000Y-77650000D01*
X165855000Y-76350000D01*
X166055000Y-76350000D01*
X166055000Y-77650000D01*
G37*
X166055000Y-77650000D02*
X165855000Y-77650000D01*
X165855000Y-76350000D01*
X166055000Y-76350000D01*
X166055000Y-77650000D01*
X165680000Y-76525000D02*
X165680000Y-76775000D01*
X165680000Y-76775000D02*
X165255000Y-76775000D01*
X165255000Y-76775000D02*
X165255000Y-76525000D01*
X165255000Y-76525000D02*
X165680000Y-76525000D01*
G36*
X165680000Y-76775000D02*
G01*
X165255000Y-76775000D01*
X165255000Y-76525000D01*
X165680000Y-76525000D01*
X165680000Y-76775000D01*
G37*
X165680000Y-76775000D02*
X165255000Y-76775000D01*
X165255000Y-76525000D01*
X165680000Y-76525000D01*
X165680000Y-76775000D01*
X165680000Y-76875000D02*
X165680000Y-77125000D01*
X165680000Y-77125000D02*
X165255000Y-77125000D01*
X165255000Y-77125000D02*
X165255000Y-76875000D01*
X165255000Y-76875000D02*
X165680000Y-76875000D01*
G36*
X165680000Y-77125000D02*
G01*
X165255000Y-77125000D01*
X165255000Y-76875000D01*
X165680000Y-76875000D01*
X165680000Y-77125000D01*
G37*
X165680000Y-77125000D02*
X165255000Y-77125000D01*
X165255000Y-76875000D01*
X165680000Y-76875000D01*
X165680000Y-77125000D01*
X166655000Y-77225000D02*
X166655000Y-77475000D01*
X166655000Y-77475000D02*
X166230000Y-77475000D01*
X166230000Y-77475000D02*
X166230000Y-77225000D01*
X166230000Y-77225000D02*
X166655000Y-77225000D01*
G36*
X166655000Y-77475000D02*
G01*
X166230000Y-77475000D01*
X166230000Y-77225000D01*
X166655000Y-77225000D01*
X166655000Y-77475000D01*
G37*
X166655000Y-77475000D02*
X166230000Y-77475000D01*
X166230000Y-77225000D01*
X166655000Y-77225000D01*
X166655000Y-77475000D01*
X166105000Y-76750000D02*
X166105000Y-77250000D01*
X166105000Y-77250000D02*
X166055000Y-77250000D01*
X166055000Y-77250000D02*
X166055000Y-76750000D01*
X166055000Y-76750000D02*
X166105000Y-76750000D01*
G36*
X166105000Y-77250000D02*
G01*
X166055000Y-77250000D01*
X166055000Y-76750000D01*
X166105000Y-76750000D01*
X166105000Y-77250000D01*
G37*
X166105000Y-77250000D02*
X166055000Y-77250000D01*
X166055000Y-76750000D01*
X166105000Y-76750000D01*
X166105000Y-77250000D01*
X165680000Y-77225000D02*
X165680000Y-77475000D01*
X165680000Y-77475000D02*
X165255000Y-77475000D01*
X165255000Y-77475000D02*
X165255000Y-77225000D01*
X165255000Y-77225000D02*
X165680000Y-77225000D01*
G36*
X165680000Y-77475000D02*
G01*
X165255000Y-77475000D01*
X165255000Y-77225000D01*
X165680000Y-77225000D01*
X165680000Y-77475000D01*
G37*
X165680000Y-77475000D02*
X165255000Y-77475000D01*
X165255000Y-77225000D01*
X165680000Y-77225000D01*
X165680000Y-77475000D01*
X166655000Y-76525000D02*
X166655000Y-76775000D01*
X166655000Y-76775000D02*
X166230000Y-76775000D01*
X166230000Y-76775000D02*
X166230000Y-76525000D01*
X166230000Y-76525000D02*
X166655000Y-76525000D01*
G36*
X166655000Y-76775000D02*
G01*
X166230000Y-76775000D01*
X166230000Y-76525000D01*
X166655000Y-76525000D01*
X166655000Y-76775000D01*
G37*
X166655000Y-76775000D02*
X166230000Y-76775000D01*
X166230000Y-76525000D01*
X166655000Y-76525000D01*
X166655000Y-76775000D01*
X165865000Y-76770000D02*
X165755000Y-76880000D01*
X165755000Y-76880000D02*
X165675000Y-76880000D01*
X165675000Y-76880000D02*
X165675000Y-77120000D01*
X165675000Y-77120000D02*
X165755000Y-77120000D01*
X165755000Y-77120000D02*
X165865000Y-77230000D01*
X165865000Y-77230000D02*
X165865000Y-76770000D01*
G36*
X165865000Y-77230000D02*
G01*
X165755000Y-77120000D01*
X165675000Y-77120000D01*
X165675000Y-76880000D01*
X165755000Y-76880000D01*
X165865000Y-76770000D01*
X165865000Y-77230000D01*
G37*
X165865000Y-77230000D02*
X165755000Y-77120000D01*
X165675000Y-77120000D01*
X165675000Y-76880000D01*
X165755000Y-76880000D01*
X165865000Y-76770000D01*
X165865000Y-77230000D01*
X170000000Y-87020000D02*
X169500000Y-87020000D01*
X169500000Y-87020000D02*
X169500000Y-86970000D01*
X169500000Y-86970000D02*
X170000000Y-86970000D01*
X170000000Y-86970000D02*
X170000000Y-87020000D01*
G36*
X170000000Y-87020000D02*
G01*
X169500000Y-87020000D01*
X169500000Y-86970000D01*
X170000000Y-86970000D01*
X170000000Y-87020000D01*
G37*
X170000000Y-87020000D02*
X169500000Y-87020000D01*
X169500000Y-86970000D01*
X170000000Y-86970000D01*
X170000000Y-87020000D01*
X169875000Y-87570000D02*
X169625000Y-87570000D01*
X169625000Y-87570000D02*
X169625000Y-87145000D01*
X169625000Y-87145000D02*
X169875000Y-87145000D01*
X169875000Y-87145000D02*
X169875000Y-87570000D01*
G36*
X169875000Y-87570000D02*
G01*
X169625000Y-87570000D01*
X169625000Y-87145000D01*
X169875000Y-87145000D01*
X169875000Y-87570000D01*
G37*
X169875000Y-87570000D02*
X169625000Y-87570000D01*
X169625000Y-87145000D01*
X169875000Y-87145000D01*
X169875000Y-87570000D01*
X170400000Y-86970000D02*
X169100000Y-86970000D01*
X169100000Y-86970000D02*
X169100000Y-86770000D01*
X169100000Y-86770000D02*
X170400000Y-86770000D01*
X170400000Y-86770000D02*
X170400000Y-86970000D01*
G36*
X170400000Y-86970000D02*
G01*
X169100000Y-86970000D01*
X169100000Y-86770000D01*
X170400000Y-86770000D01*
X170400000Y-86970000D01*
G37*
X170400000Y-86970000D02*
X169100000Y-86970000D01*
X169100000Y-86770000D01*
X170400000Y-86770000D01*
X170400000Y-86970000D01*
X169525000Y-87570000D02*
X169275000Y-87570000D01*
X169275000Y-87570000D02*
X169275000Y-87145000D01*
X169275000Y-87145000D02*
X169525000Y-87145000D01*
X169525000Y-87145000D02*
X169525000Y-87570000D01*
G36*
X169525000Y-87570000D02*
G01*
X169275000Y-87570000D01*
X169275000Y-87145000D01*
X169525000Y-87145000D01*
X169525000Y-87570000D01*
G37*
X169525000Y-87570000D02*
X169275000Y-87570000D01*
X169275000Y-87145000D01*
X169525000Y-87145000D01*
X169525000Y-87570000D01*
X170225000Y-87570000D02*
X169975000Y-87570000D01*
X169975000Y-87570000D02*
X169975000Y-87145000D01*
X169975000Y-87145000D02*
X170225000Y-87145000D01*
X170225000Y-87145000D02*
X170225000Y-87570000D01*
G36*
X170225000Y-87570000D02*
G01*
X169975000Y-87570000D01*
X169975000Y-87145000D01*
X170225000Y-87145000D01*
X170225000Y-87570000D01*
G37*
X170225000Y-87570000D02*
X169975000Y-87570000D01*
X169975000Y-87145000D01*
X170225000Y-87145000D01*
X170225000Y-87570000D01*
X169525000Y-86595000D02*
X169275000Y-86595000D01*
X169275000Y-86595000D02*
X169275000Y-86170000D01*
X169275000Y-86170000D02*
X169525000Y-86170000D01*
X169525000Y-86170000D02*
X169525000Y-86595000D01*
G36*
X169525000Y-86595000D02*
G01*
X169275000Y-86595000D01*
X169275000Y-86170000D01*
X169525000Y-86170000D01*
X169525000Y-86595000D01*
G37*
X169525000Y-86595000D02*
X169275000Y-86595000D01*
X169275000Y-86170000D01*
X169525000Y-86170000D01*
X169525000Y-86595000D01*
X169980000Y-86780000D02*
X169870000Y-86670000D01*
X169870000Y-86670000D02*
X169870000Y-86590000D01*
X169870000Y-86590000D02*
X169630000Y-86590000D01*
X169630000Y-86590000D02*
X169630000Y-86670000D01*
X169630000Y-86670000D02*
X169520000Y-86780000D01*
X169520000Y-86780000D02*
X169980000Y-86780000D01*
G36*
X169870000Y-86670000D02*
G01*
X169980000Y-86780000D01*
X169520000Y-86780000D01*
X169630000Y-86670000D01*
X169630000Y-86590000D01*
X169870000Y-86590000D01*
X169870000Y-86670000D01*
G37*
X169870000Y-86670000D02*
X169980000Y-86780000D01*
X169520000Y-86780000D01*
X169630000Y-86670000D01*
X169630000Y-86590000D01*
X169870000Y-86590000D01*
X169870000Y-86670000D01*
X170225000Y-86595000D02*
X169975000Y-86595000D01*
X169975000Y-86595000D02*
X169975000Y-86170000D01*
X169975000Y-86170000D02*
X170225000Y-86170000D01*
X170225000Y-86170000D02*
X170225000Y-86595000D01*
G36*
X170225000Y-86595000D02*
G01*
X169975000Y-86595000D01*
X169975000Y-86170000D01*
X170225000Y-86170000D01*
X170225000Y-86595000D01*
G37*
X170225000Y-86595000D02*
X169975000Y-86595000D01*
X169975000Y-86170000D01*
X170225000Y-86170000D01*
X170225000Y-86595000D01*
X169875000Y-86595000D02*
X169625000Y-86595000D01*
X169625000Y-86595000D02*
X169625000Y-86170000D01*
X169625000Y-86170000D02*
X169875000Y-86170000D01*
X169875000Y-86170000D02*
X169875000Y-86595000D01*
G36*
X169875000Y-86595000D02*
G01*
X169625000Y-86595000D01*
X169625000Y-86170000D01*
X169875000Y-86170000D01*
X169875000Y-86595000D01*
G37*
X169875000Y-86595000D02*
X169625000Y-86595000D01*
X169625000Y-86170000D01*
X169875000Y-86170000D01*
X169875000Y-86595000D01*
X169520000Y-82790000D02*
X169630000Y-82900000D01*
X169630000Y-82900000D02*
X169630000Y-82980000D01*
X169630000Y-82980000D02*
X169870000Y-82980000D01*
X169870000Y-82980000D02*
X169870000Y-82900000D01*
X169870000Y-82900000D02*
X169980000Y-82790000D01*
X169980000Y-82790000D02*
X169520000Y-82790000D01*
G36*
X169870000Y-82900000D02*
G01*
X169870000Y-82980000D01*
X169630000Y-82980000D01*
X169630000Y-82900000D01*
X169520000Y-82790000D01*
X169980000Y-82790000D01*
X169870000Y-82900000D01*
G37*
X169870000Y-82900000D02*
X169870000Y-82980000D01*
X169630000Y-82980000D01*
X169630000Y-82900000D01*
X169520000Y-82790000D01*
X169980000Y-82790000D01*
X169870000Y-82900000D01*
X169625000Y-82975000D02*
X169875000Y-82975000D01*
X169875000Y-82975000D02*
X169875000Y-83400000D01*
X169875000Y-83400000D02*
X169625000Y-83400000D01*
X169625000Y-83400000D02*
X169625000Y-82975000D01*
G36*
X169875000Y-83400000D02*
G01*
X169625000Y-83400000D01*
X169625000Y-82975000D01*
X169875000Y-82975000D01*
X169875000Y-83400000D01*
G37*
X169875000Y-83400000D02*
X169625000Y-83400000D01*
X169625000Y-82975000D01*
X169875000Y-82975000D01*
X169875000Y-83400000D01*
X169975000Y-82000000D02*
X170225000Y-82000000D01*
X170225000Y-82000000D02*
X170225000Y-82425000D01*
X170225000Y-82425000D02*
X169975000Y-82425000D01*
X169975000Y-82425000D02*
X169975000Y-82000000D01*
G36*
X170225000Y-82425000D02*
G01*
X169975000Y-82425000D01*
X169975000Y-82000000D01*
X170225000Y-82000000D01*
X170225000Y-82425000D01*
G37*
X170225000Y-82425000D02*
X169975000Y-82425000D01*
X169975000Y-82000000D01*
X170225000Y-82000000D01*
X170225000Y-82425000D01*
X169100000Y-82600000D02*
X170400000Y-82600000D01*
X170400000Y-82600000D02*
X170400000Y-82800000D01*
X170400000Y-82800000D02*
X169100000Y-82800000D01*
X169100000Y-82800000D02*
X169100000Y-82600000D01*
G36*
X170400000Y-82800000D02*
G01*
X169100000Y-82800000D01*
X169100000Y-82600000D01*
X170400000Y-82600000D01*
X170400000Y-82800000D01*
G37*
X170400000Y-82800000D02*
X169100000Y-82800000D01*
X169100000Y-82600000D01*
X170400000Y-82600000D01*
X170400000Y-82800000D01*
X169275000Y-82975000D02*
X169525000Y-82975000D01*
X169525000Y-82975000D02*
X169525000Y-83400000D01*
X169525000Y-83400000D02*
X169275000Y-83400000D01*
X169275000Y-83400000D02*
X169275000Y-82975000D01*
G36*
X169525000Y-83400000D02*
G01*
X169275000Y-83400000D01*
X169275000Y-82975000D01*
X169525000Y-82975000D01*
X169525000Y-83400000D01*
G37*
X169525000Y-83400000D02*
X169275000Y-83400000D01*
X169275000Y-82975000D01*
X169525000Y-82975000D01*
X169525000Y-83400000D01*
X169500000Y-82550000D02*
X170000000Y-82550000D01*
X170000000Y-82550000D02*
X170000000Y-82600000D01*
X170000000Y-82600000D02*
X169500000Y-82600000D01*
X169500000Y-82600000D02*
X169500000Y-82550000D01*
G36*
X170000000Y-82600000D02*
G01*
X169500000Y-82600000D01*
X169500000Y-82550000D01*
X170000000Y-82550000D01*
X170000000Y-82600000D01*
G37*
X170000000Y-82600000D02*
X169500000Y-82600000D01*
X169500000Y-82550000D01*
X170000000Y-82550000D01*
X170000000Y-82600000D01*
X169625000Y-82000000D02*
X169875000Y-82000000D01*
X169875000Y-82000000D02*
X169875000Y-82425000D01*
X169875000Y-82425000D02*
X169625000Y-82425000D01*
X169625000Y-82425000D02*
X169625000Y-82000000D01*
G36*
X169875000Y-82425000D02*
G01*
X169625000Y-82425000D01*
X169625000Y-82000000D01*
X169875000Y-82000000D01*
X169875000Y-82425000D01*
G37*
X169875000Y-82425000D02*
X169625000Y-82425000D01*
X169625000Y-82000000D01*
X169875000Y-82000000D01*
X169875000Y-82425000D01*
X169275000Y-82000000D02*
X169525000Y-82000000D01*
X169525000Y-82000000D02*
X169525000Y-82425000D01*
X169525000Y-82425000D02*
X169275000Y-82425000D01*
X169275000Y-82425000D02*
X169275000Y-82000000D01*
G36*
X169525000Y-82425000D02*
G01*
X169275000Y-82425000D01*
X169275000Y-82000000D01*
X169525000Y-82000000D01*
X169525000Y-82425000D01*
G37*
X169525000Y-82425000D02*
X169275000Y-82425000D01*
X169275000Y-82000000D01*
X169525000Y-82000000D01*
X169525000Y-82425000D01*
X169975000Y-82975000D02*
X170225000Y-82975000D01*
X170225000Y-82975000D02*
X170225000Y-83400000D01*
X170225000Y-83400000D02*
X169975000Y-83400000D01*
X169975000Y-83400000D02*
X169975000Y-82975000D01*
G36*
X170225000Y-83400000D02*
G01*
X169975000Y-83400000D01*
X169975000Y-82975000D01*
X170225000Y-82975000D01*
X170225000Y-83400000D01*
G37*
X170225000Y-83400000D02*
X169975000Y-83400000D01*
X169975000Y-82975000D01*
X170225000Y-82975000D01*
X170225000Y-83400000D01*
X148660244Y-63375244D02*
X148660244Y-63625244D01*
X148660244Y-63625244D02*
X148235244Y-63625244D01*
X148235244Y-63625244D02*
X148235244Y-63375244D01*
X148235244Y-63375244D02*
X148660244Y-63375244D01*
G36*
X148660244Y-63625244D02*
G01*
X148235244Y-63625244D01*
X148235244Y-63375244D01*
X148660244Y-63375244D01*
X148660244Y-63625244D01*
G37*
X148660244Y-63625244D02*
X148235244Y-63625244D01*
X148235244Y-63375244D01*
X148660244Y-63375244D01*
X148660244Y-63625244D01*
X148845244Y-63270244D02*
X148735244Y-63380244D01*
X148735244Y-63380244D02*
X148655244Y-63380244D01*
X148655244Y-63380244D02*
X148655244Y-63620244D01*
X148655244Y-63620244D02*
X148735244Y-63620244D01*
X148735244Y-63620244D02*
X148845244Y-63730244D01*
X148845244Y-63730244D02*
X148845244Y-63270244D01*
G36*
X148845244Y-63730244D02*
G01*
X148735244Y-63620244D01*
X148655244Y-63620244D01*
X148655244Y-63380244D01*
X148735244Y-63380244D01*
X148845244Y-63270244D01*
X148845244Y-63730244D01*
G37*
X148845244Y-63730244D02*
X148735244Y-63620244D01*
X148655244Y-63620244D01*
X148655244Y-63380244D01*
X148735244Y-63380244D01*
X148845244Y-63270244D01*
X148845244Y-63730244D01*
X148660244Y-63725244D02*
X148660244Y-63975244D01*
X148660244Y-63975244D02*
X148235244Y-63975244D01*
X148235244Y-63975244D02*
X148235244Y-63725244D01*
X148235244Y-63725244D02*
X148660244Y-63725244D01*
G36*
X148660244Y-63975244D02*
G01*
X148235244Y-63975244D01*
X148235244Y-63725244D01*
X148660244Y-63725244D01*
X148660244Y-63975244D01*
G37*
X148660244Y-63975244D02*
X148235244Y-63975244D01*
X148235244Y-63725244D01*
X148660244Y-63725244D01*
X148660244Y-63975244D01*
X149635244Y-63025244D02*
X149635244Y-63275244D01*
X149635244Y-63275244D02*
X149210244Y-63275244D01*
X149210244Y-63275244D02*
X149210244Y-63025244D01*
X149210244Y-63025244D02*
X149635244Y-63025244D01*
G36*
X149635244Y-63275244D02*
G01*
X149210244Y-63275244D01*
X149210244Y-63025244D01*
X149635244Y-63025244D01*
X149635244Y-63275244D01*
G37*
X149635244Y-63275244D02*
X149210244Y-63275244D01*
X149210244Y-63025244D01*
X149635244Y-63025244D01*
X149635244Y-63275244D01*
X149635244Y-63725244D02*
X149635244Y-63975244D01*
X149635244Y-63975244D02*
X149210244Y-63975244D01*
X149210244Y-63975244D02*
X149210244Y-63725244D01*
X149210244Y-63725244D02*
X149635244Y-63725244D01*
G36*
X149635244Y-63975244D02*
G01*
X149210244Y-63975244D01*
X149210244Y-63725244D01*
X149635244Y-63725244D01*
X149635244Y-63975244D01*
G37*
X149635244Y-63975244D02*
X149210244Y-63975244D01*
X149210244Y-63725244D01*
X149635244Y-63725244D01*
X149635244Y-63975244D01*
X149635244Y-63375244D02*
X149635244Y-63625244D01*
X149635244Y-63625244D02*
X149210244Y-63625244D01*
X149210244Y-63625244D02*
X149210244Y-63375244D01*
X149210244Y-63375244D02*
X149635244Y-63375244D01*
G36*
X149635244Y-63625244D02*
G01*
X149210244Y-63625244D01*
X149210244Y-63375244D01*
X149635244Y-63375244D01*
X149635244Y-63625244D01*
G37*
X149635244Y-63625244D02*
X149210244Y-63625244D01*
X149210244Y-63375244D01*
X149635244Y-63375244D01*
X149635244Y-63625244D01*
X149085244Y-63250244D02*
X149085244Y-63750244D01*
X149085244Y-63750244D02*
X149035244Y-63750244D01*
X149035244Y-63750244D02*
X149035244Y-63250244D01*
X149035244Y-63250244D02*
X149085244Y-63250244D01*
G36*
X149085244Y-63750244D02*
G01*
X149035244Y-63750244D01*
X149035244Y-63250244D01*
X149085244Y-63250244D01*
X149085244Y-63750244D01*
G37*
X149085244Y-63750244D02*
X149035244Y-63750244D01*
X149035244Y-63250244D01*
X149085244Y-63250244D01*
X149085244Y-63750244D01*
X149035244Y-62850244D02*
X149035244Y-64150244D01*
X149035244Y-64150244D02*
X148835244Y-64150244D01*
X148835244Y-64150244D02*
X148835244Y-62850244D01*
X148835244Y-62850244D02*
X149035244Y-62850244D01*
G36*
X149035244Y-64150244D02*
G01*
X148835244Y-64150244D01*
X148835244Y-62850244D01*
X149035244Y-62850244D01*
X149035244Y-64150244D01*
G37*
X149035244Y-64150244D02*
X148835244Y-64150244D01*
X148835244Y-62850244D01*
X149035244Y-62850244D01*
X149035244Y-64150244D01*
X148660244Y-63025244D02*
X148660244Y-63275244D01*
X148660244Y-63275244D02*
X148235244Y-63275244D01*
X148235244Y-63275244D02*
X148235244Y-63025244D01*
X148235244Y-63025244D02*
X148660244Y-63025244D01*
G36*
X148660244Y-63275244D02*
G01*
X148235244Y-63275244D01*
X148235244Y-63025244D01*
X148660244Y-63025244D01*
X148660244Y-63275244D01*
G37*
X148660244Y-63275244D02*
X148235244Y-63275244D01*
X148235244Y-63025244D01*
X148660244Y-63025244D01*
X148660244Y-63275244D01*
X162060000Y-77475000D02*
X162060000Y-77225000D01*
X162060000Y-77225000D02*
X162485000Y-77225000D01*
X162485000Y-77225000D02*
X162485000Y-77475000D01*
X162485000Y-77475000D02*
X162060000Y-77475000D01*
G36*
X162485000Y-77475000D02*
G01*
X162060000Y-77475000D01*
X162060000Y-77225000D01*
X162485000Y-77225000D01*
X162485000Y-77475000D01*
G37*
X162485000Y-77475000D02*
X162060000Y-77475000D01*
X162060000Y-77225000D01*
X162485000Y-77225000D01*
X162485000Y-77475000D01*
X161085000Y-77475000D02*
X161085000Y-77225000D01*
X161085000Y-77225000D02*
X161510000Y-77225000D01*
X161510000Y-77225000D02*
X161510000Y-77475000D01*
X161510000Y-77475000D02*
X161085000Y-77475000D01*
G36*
X161510000Y-77475000D02*
G01*
X161085000Y-77475000D01*
X161085000Y-77225000D01*
X161510000Y-77225000D01*
X161510000Y-77475000D01*
G37*
X161510000Y-77475000D02*
X161085000Y-77475000D01*
X161085000Y-77225000D01*
X161510000Y-77225000D01*
X161510000Y-77475000D01*
X162060000Y-76775000D02*
X162060000Y-76525000D01*
X162060000Y-76525000D02*
X162485000Y-76525000D01*
X162485000Y-76525000D02*
X162485000Y-76775000D01*
X162485000Y-76775000D02*
X162060000Y-76775000D01*
G36*
X162485000Y-76775000D02*
G01*
X162060000Y-76775000D01*
X162060000Y-76525000D01*
X162485000Y-76525000D01*
X162485000Y-76775000D01*
G37*
X162485000Y-76775000D02*
X162060000Y-76775000D01*
X162060000Y-76525000D01*
X162485000Y-76525000D01*
X162485000Y-76775000D01*
X162060000Y-77125000D02*
X162060000Y-76875000D01*
X162060000Y-76875000D02*
X162485000Y-76875000D01*
X162485000Y-76875000D02*
X162485000Y-77125000D01*
X162485000Y-77125000D02*
X162060000Y-77125000D01*
G36*
X162485000Y-77125000D02*
G01*
X162060000Y-77125000D01*
X162060000Y-76875000D01*
X162485000Y-76875000D01*
X162485000Y-77125000D01*
G37*
X162485000Y-77125000D02*
X162060000Y-77125000D01*
X162060000Y-76875000D01*
X162485000Y-76875000D01*
X162485000Y-77125000D01*
X161085000Y-76775000D02*
X161085000Y-76525000D01*
X161085000Y-76525000D02*
X161510000Y-76525000D01*
X161510000Y-76525000D02*
X161510000Y-76775000D01*
X161510000Y-76775000D02*
X161085000Y-76775000D01*
G36*
X161510000Y-76775000D02*
G01*
X161085000Y-76775000D01*
X161085000Y-76525000D01*
X161510000Y-76525000D01*
X161510000Y-76775000D01*
G37*
X161510000Y-76775000D02*
X161085000Y-76775000D01*
X161085000Y-76525000D01*
X161510000Y-76525000D01*
X161510000Y-76775000D01*
X161635000Y-77250000D02*
X161635000Y-76750000D01*
X161635000Y-76750000D02*
X161685000Y-76750000D01*
X161685000Y-76750000D02*
X161685000Y-77250000D01*
X161685000Y-77250000D02*
X161635000Y-77250000D01*
G36*
X161685000Y-77250000D02*
G01*
X161635000Y-77250000D01*
X161635000Y-76750000D01*
X161685000Y-76750000D01*
X161685000Y-77250000D01*
G37*
X161685000Y-77250000D02*
X161635000Y-77250000D01*
X161635000Y-76750000D01*
X161685000Y-76750000D01*
X161685000Y-77250000D01*
X161875000Y-77230000D02*
X161985000Y-77120000D01*
X161985000Y-77120000D02*
X162065000Y-77120000D01*
X162065000Y-77120000D02*
X162065000Y-76880000D01*
X162065000Y-76880000D02*
X161985000Y-76880000D01*
X161985000Y-76880000D02*
X161875000Y-76770000D01*
X161875000Y-76770000D02*
X161875000Y-77230000D01*
G36*
X161985000Y-76880000D02*
G01*
X162065000Y-76880000D01*
X162065000Y-77120000D01*
X161985000Y-77120000D01*
X161875000Y-77230000D01*
X161875000Y-76770000D01*
X161985000Y-76880000D01*
G37*
X161985000Y-76880000D02*
X162065000Y-76880000D01*
X162065000Y-77120000D01*
X161985000Y-77120000D01*
X161875000Y-77230000D01*
X161875000Y-76770000D01*
X161985000Y-76880000D01*
X161085000Y-77125000D02*
X161085000Y-76875000D01*
X161085000Y-76875000D02*
X161510000Y-76875000D01*
X161510000Y-76875000D02*
X161510000Y-77125000D01*
X161510000Y-77125000D02*
X161085000Y-77125000D01*
G36*
X161510000Y-77125000D02*
G01*
X161085000Y-77125000D01*
X161085000Y-76875000D01*
X161510000Y-76875000D01*
X161510000Y-77125000D01*
G37*
X161510000Y-77125000D02*
X161085000Y-77125000D01*
X161085000Y-76875000D01*
X161510000Y-76875000D01*
X161510000Y-77125000D01*
X161685000Y-77650000D02*
X161685000Y-76350000D01*
X161685000Y-76350000D02*
X161885000Y-76350000D01*
X161885000Y-76350000D02*
X161885000Y-77650000D01*
X161885000Y-77650000D02*
X161685000Y-77650000D01*
G36*
X161885000Y-77650000D02*
G01*
X161685000Y-77650000D01*
X161685000Y-76350000D01*
X161885000Y-76350000D01*
X161885000Y-77650000D01*
G37*
X161885000Y-77650000D02*
X161685000Y-77650000D01*
X161685000Y-76350000D01*
X161885000Y-76350000D01*
X161885000Y-77650000D01*
X139255244Y-63730244D02*
X139365244Y-63620244D01*
X139365244Y-63620244D02*
X139445244Y-63620244D01*
X139445244Y-63620244D02*
X139445244Y-63380244D01*
X139445244Y-63380244D02*
X139365244Y-63380244D01*
X139365244Y-63380244D02*
X139255244Y-63270244D01*
X139255244Y-63270244D02*
X139255244Y-63730244D01*
G36*
X139365244Y-63380244D02*
G01*
X139445244Y-63380244D01*
X139445244Y-63620244D01*
X139365244Y-63620244D01*
X139255244Y-63730244D01*
X139255244Y-63270244D01*
X139365244Y-63380244D01*
G37*
X139365244Y-63380244D02*
X139445244Y-63380244D01*
X139445244Y-63620244D01*
X139365244Y-63620244D01*
X139255244Y-63730244D01*
X139255244Y-63270244D01*
X139365244Y-63380244D01*
X139440244Y-63975244D02*
X139440244Y-63725244D01*
X139440244Y-63725244D02*
X139865244Y-63725244D01*
X139865244Y-63725244D02*
X139865244Y-63975244D01*
X139865244Y-63975244D02*
X139440244Y-63975244D01*
G36*
X139865244Y-63975244D02*
G01*
X139440244Y-63975244D01*
X139440244Y-63725244D01*
X139865244Y-63725244D01*
X139865244Y-63975244D01*
G37*
X139865244Y-63975244D02*
X139440244Y-63975244D01*
X139440244Y-63725244D01*
X139865244Y-63725244D01*
X139865244Y-63975244D01*
X138465244Y-63975244D02*
X138465244Y-63725244D01*
X138465244Y-63725244D02*
X138890244Y-63725244D01*
X138890244Y-63725244D02*
X138890244Y-63975244D01*
X138890244Y-63975244D02*
X138465244Y-63975244D01*
G36*
X138890244Y-63975244D02*
G01*
X138465244Y-63975244D01*
X138465244Y-63725244D01*
X138890244Y-63725244D01*
X138890244Y-63975244D01*
G37*
X138890244Y-63975244D02*
X138465244Y-63975244D01*
X138465244Y-63725244D01*
X138890244Y-63725244D01*
X138890244Y-63975244D01*
X139065244Y-64150244D02*
X139065244Y-62850244D01*
X139065244Y-62850244D02*
X139265244Y-62850244D01*
X139265244Y-62850244D02*
X139265244Y-64150244D01*
X139265244Y-64150244D02*
X139065244Y-64150244D01*
G36*
X139265244Y-64150244D02*
G01*
X139065244Y-64150244D01*
X139065244Y-62850244D01*
X139265244Y-62850244D01*
X139265244Y-64150244D01*
G37*
X139265244Y-64150244D02*
X139065244Y-64150244D01*
X139065244Y-62850244D01*
X139265244Y-62850244D01*
X139265244Y-64150244D01*
X139440244Y-63625244D02*
X139440244Y-63375244D01*
X139440244Y-63375244D02*
X139865244Y-63375244D01*
X139865244Y-63375244D02*
X139865244Y-63625244D01*
X139865244Y-63625244D02*
X139440244Y-63625244D01*
G36*
X139865244Y-63625244D02*
G01*
X139440244Y-63625244D01*
X139440244Y-63375244D01*
X139865244Y-63375244D01*
X139865244Y-63625244D01*
G37*
X139865244Y-63625244D02*
X139440244Y-63625244D01*
X139440244Y-63375244D01*
X139865244Y-63375244D01*
X139865244Y-63625244D01*
X139440244Y-63275244D02*
X139440244Y-63025244D01*
X139440244Y-63025244D02*
X139865244Y-63025244D01*
X139865244Y-63025244D02*
X139865244Y-63275244D01*
X139865244Y-63275244D02*
X139440244Y-63275244D01*
G36*
X139865244Y-63275244D02*
G01*
X139440244Y-63275244D01*
X139440244Y-63025244D01*
X139865244Y-63025244D01*
X139865244Y-63275244D01*
G37*
X139865244Y-63275244D02*
X139440244Y-63275244D01*
X139440244Y-63025244D01*
X139865244Y-63025244D01*
X139865244Y-63275244D01*
X138465244Y-63625244D02*
X138465244Y-63375244D01*
X138465244Y-63375244D02*
X138890244Y-63375244D01*
X138890244Y-63375244D02*
X138890244Y-63625244D01*
X138890244Y-63625244D02*
X138465244Y-63625244D01*
G36*
X138890244Y-63625244D02*
G01*
X138465244Y-63625244D01*
X138465244Y-63375244D01*
X138890244Y-63375244D01*
X138890244Y-63625244D01*
G37*
X138890244Y-63625244D02*
X138465244Y-63625244D01*
X138465244Y-63375244D01*
X138890244Y-63375244D01*
X138890244Y-63625244D01*
X139015244Y-63750244D02*
X139015244Y-63250244D01*
X139015244Y-63250244D02*
X139065244Y-63250244D01*
X139065244Y-63250244D02*
X139065244Y-63750244D01*
X139065244Y-63750244D02*
X139015244Y-63750244D01*
G36*
X139065244Y-63750244D02*
G01*
X139015244Y-63750244D01*
X139015244Y-63250244D01*
X139065244Y-63250244D01*
X139065244Y-63750244D01*
G37*
X139065244Y-63750244D02*
X139015244Y-63750244D01*
X139015244Y-63250244D01*
X139065244Y-63250244D01*
X139065244Y-63750244D01*
X138465244Y-63275244D02*
X138465244Y-63025244D01*
X138465244Y-63025244D02*
X138890244Y-63025244D01*
X138890244Y-63025244D02*
X138890244Y-63275244D01*
X138890244Y-63275244D02*
X138465244Y-63275244D01*
G36*
X138890244Y-63275244D02*
G01*
X138465244Y-63275244D01*
X138465244Y-63025244D01*
X138890244Y-63025244D01*
X138890244Y-63275244D01*
G37*
X138890244Y-63275244D02*
X138465244Y-63275244D01*
X138465244Y-63025244D01*
X138890244Y-63025244D01*
X138890244Y-63275244D01*
X158020000Y-86825001D02*
X157910000Y-86935001D01*
X157910000Y-86935001D02*
X157830000Y-86935001D01*
X157830000Y-86935001D02*
X157830000Y-87175001D01*
X157830000Y-87175001D02*
X157910000Y-87175001D01*
X157910000Y-87175001D02*
X158020000Y-87285001D01*
X158020000Y-87285001D02*
X158020000Y-86825001D01*
G36*
X158020000Y-87285001D02*
G01*
X157910000Y-87175001D01*
X157830000Y-87175001D01*
X157830000Y-86935001D01*
X157910000Y-86935001D01*
X158020000Y-86825001D01*
X158020000Y-87285001D01*
G37*
X158020000Y-87285001D02*
X157910000Y-87175001D01*
X157830000Y-87175001D01*
X157830000Y-86935001D01*
X157910000Y-86935001D01*
X158020000Y-86825001D01*
X158020000Y-87285001D01*
X157835000Y-87280001D02*
X157835000Y-87530001D01*
X157835000Y-87530001D02*
X157410000Y-87530001D01*
X157410000Y-87530001D02*
X157410000Y-87280001D01*
X157410000Y-87280001D02*
X157835000Y-87280001D01*
G36*
X157835000Y-87530001D02*
G01*
X157410000Y-87530001D01*
X157410000Y-87280001D01*
X157835000Y-87280001D01*
X157835000Y-87530001D01*
G37*
X157835000Y-87530001D02*
X157410000Y-87530001D01*
X157410000Y-87280001D01*
X157835000Y-87280001D01*
X157835000Y-87530001D01*
X157835000Y-86930001D02*
X157835000Y-87180001D01*
X157835000Y-87180001D02*
X157410000Y-87180001D01*
X157410000Y-87180001D02*
X157410000Y-86930001D01*
X157410000Y-86930001D02*
X157835000Y-86930001D01*
G36*
X157835000Y-87180001D02*
G01*
X157410000Y-87180001D01*
X157410000Y-86930001D01*
X157835000Y-86930001D01*
X157835000Y-87180001D01*
G37*
X157835000Y-87180001D02*
X157410000Y-87180001D01*
X157410000Y-86930001D01*
X157835000Y-86930001D01*
X157835000Y-87180001D01*
X157835000Y-86580001D02*
X157835000Y-86830001D01*
X157835000Y-86830001D02*
X157410000Y-86830001D01*
X157410000Y-86830001D02*
X157410000Y-86580001D01*
X157410000Y-86580001D02*
X157835000Y-86580001D01*
G36*
X157835000Y-86830001D02*
G01*
X157410000Y-86830001D01*
X157410000Y-86580001D01*
X157835000Y-86580001D01*
X157835000Y-86830001D01*
G37*
X157835000Y-86830001D02*
X157410000Y-86830001D01*
X157410000Y-86580001D01*
X157835000Y-86580001D01*
X157835000Y-86830001D01*
X158810000Y-86580001D02*
X158810000Y-86830001D01*
X158810000Y-86830001D02*
X158385000Y-86830001D01*
X158385000Y-86830001D02*
X158385000Y-86580001D01*
X158385000Y-86580001D02*
X158810000Y-86580001D01*
G36*
X158810000Y-86830001D02*
G01*
X158385000Y-86830001D01*
X158385000Y-86580001D01*
X158810000Y-86580001D01*
X158810000Y-86830001D01*
G37*
X158810000Y-86830001D02*
X158385000Y-86830001D01*
X158385000Y-86580001D01*
X158810000Y-86580001D01*
X158810000Y-86830001D01*
X158260000Y-86805001D02*
X158260000Y-87305001D01*
X158260000Y-87305001D02*
X158210000Y-87305001D01*
X158210000Y-87305001D02*
X158210000Y-86805001D01*
X158210000Y-86805001D02*
X158260000Y-86805001D01*
G36*
X158260000Y-87305001D02*
G01*
X158210000Y-87305001D01*
X158210000Y-86805001D01*
X158260000Y-86805001D01*
X158260000Y-87305001D01*
G37*
X158260000Y-87305001D02*
X158210000Y-87305001D01*
X158210000Y-86805001D01*
X158260000Y-86805001D01*
X158260000Y-87305001D01*
X158810000Y-86930001D02*
X158810000Y-87180001D01*
X158810000Y-87180001D02*
X158385000Y-87180001D01*
X158385000Y-87180001D02*
X158385000Y-86930001D01*
X158385000Y-86930001D02*
X158810000Y-86930001D01*
G36*
X158810000Y-87180001D02*
G01*
X158385000Y-87180001D01*
X158385000Y-86930001D01*
X158810000Y-86930001D01*
X158810000Y-87180001D01*
G37*
X158810000Y-87180001D02*
X158385000Y-87180001D01*
X158385000Y-86930001D01*
X158810000Y-86930001D01*
X158810000Y-87180001D01*
X158210000Y-86405001D02*
X158210000Y-87705001D01*
X158210000Y-87705001D02*
X158010000Y-87705001D01*
X158010000Y-87705001D02*
X158010000Y-86405001D01*
X158010000Y-86405001D02*
X158210000Y-86405001D01*
G36*
X158210000Y-87705001D02*
G01*
X158010000Y-87705001D01*
X158010000Y-86405001D01*
X158210000Y-86405001D01*
X158210000Y-87705001D01*
G37*
X158210000Y-87705001D02*
X158010000Y-87705001D01*
X158010000Y-86405001D01*
X158210000Y-86405001D01*
X158210000Y-87705001D01*
X158810000Y-87280001D02*
X158810000Y-87530001D01*
X158810000Y-87530001D02*
X158385000Y-87530001D01*
X158385000Y-87530001D02*
X158385000Y-87280001D01*
X158385000Y-87280001D02*
X158810000Y-87280001D01*
G36*
X158810000Y-87530001D02*
G01*
X158385000Y-87530001D01*
X158385000Y-87280001D01*
X158810000Y-87280001D01*
X158810000Y-87530001D01*
G37*
X158810000Y-87530001D02*
X158385000Y-87530001D01*
X158385000Y-87280001D01*
X158810000Y-87280001D01*
X158810000Y-87530001D01*
X166694999Y-92210001D02*
X166694999Y-92710001D01*
X166694999Y-92710001D02*
X166644999Y-92710001D01*
X166644999Y-92710001D02*
X166644999Y-92210001D01*
X166644999Y-92210001D02*
X166694999Y-92210001D01*
G36*
X166694999Y-92710001D02*
G01*
X166644999Y-92710001D01*
X166644999Y-92210001D01*
X166694999Y-92210001D01*
X166694999Y-92710001D01*
G37*
X166694999Y-92710001D02*
X166644999Y-92710001D01*
X166644999Y-92210001D01*
X166694999Y-92210001D01*
X166694999Y-92710001D01*
X167244999Y-92685001D02*
X167244999Y-92935001D01*
X167244999Y-92935001D02*
X166819999Y-92935001D01*
X166819999Y-92935001D02*
X166819999Y-92685001D01*
X166819999Y-92685001D02*
X167244999Y-92685001D01*
G36*
X167244999Y-92935001D02*
G01*
X166819999Y-92935001D01*
X166819999Y-92685001D01*
X167244999Y-92685001D01*
X167244999Y-92935001D01*
G37*
X167244999Y-92935001D02*
X166819999Y-92935001D01*
X166819999Y-92685001D01*
X167244999Y-92685001D01*
X167244999Y-92935001D01*
X167244999Y-91985001D02*
X167244999Y-92235001D01*
X167244999Y-92235001D02*
X166819999Y-92235001D01*
X166819999Y-92235001D02*
X166819999Y-91985001D01*
X166819999Y-91985001D02*
X167244999Y-91985001D01*
G36*
X167244999Y-92235001D02*
G01*
X166819999Y-92235001D01*
X166819999Y-91985001D01*
X167244999Y-91985001D01*
X167244999Y-92235001D01*
G37*
X167244999Y-92235001D02*
X166819999Y-92235001D01*
X166819999Y-91985001D01*
X167244999Y-91985001D01*
X167244999Y-92235001D01*
X166454999Y-92230001D02*
X166344999Y-92340001D01*
X166344999Y-92340001D02*
X166264999Y-92340001D01*
X166264999Y-92340001D02*
X166264999Y-92580001D01*
X166264999Y-92580001D02*
X166344999Y-92580001D01*
X166344999Y-92580001D02*
X166454999Y-92690001D01*
X166454999Y-92690001D02*
X166454999Y-92230001D01*
G36*
X166454999Y-92690001D02*
G01*
X166344999Y-92580001D01*
X166264999Y-92580001D01*
X166264999Y-92340001D01*
X166344999Y-92340001D01*
X166454999Y-92230001D01*
X166454999Y-92690001D01*
G37*
X166454999Y-92690001D02*
X166344999Y-92580001D01*
X166264999Y-92580001D01*
X166264999Y-92340001D01*
X166344999Y-92340001D01*
X166454999Y-92230001D01*
X166454999Y-92690001D01*
X167244999Y-92335001D02*
X167244999Y-92585001D01*
X167244999Y-92585001D02*
X166819999Y-92585001D01*
X166819999Y-92585001D02*
X166819999Y-92335001D01*
X166819999Y-92335001D02*
X167244999Y-92335001D01*
G36*
X167244999Y-92585001D02*
G01*
X166819999Y-92585001D01*
X166819999Y-92335001D01*
X167244999Y-92335001D01*
X167244999Y-92585001D01*
G37*
X167244999Y-92585001D02*
X166819999Y-92585001D01*
X166819999Y-92335001D01*
X167244999Y-92335001D01*
X167244999Y-92585001D01*
X166269999Y-92685001D02*
X166269999Y-92935001D01*
X166269999Y-92935001D02*
X165844999Y-92935001D01*
X165844999Y-92935001D02*
X165844999Y-92685001D01*
X165844999Y-92685001D02*
X166269999Y-92685001D01*
G36*
X166269999Y-92935001D02*
G01*
X165844999Y-92935001D01*
X165844999Y-92685001D01*
X166269999Y-92685001D01*
X166269999Y-92935001D01*
G37*
X166269999Y-92935001D02*
X165844999Y-92935001D01*
X165844999Y-92685001D01*
X166269999Y-92685001D01*
X166269999Y-92935001D01*
X166269999Y-91985001D02*
X166269999Y-92235001D01*
X166269999Y-92235001D02*
X165844999Y-92235001D01*
X165844999Y-92235001D02*
X165844999Y-91985001D01*
X165844999Y-91985001D02*
X166269999Y-91985001D01*
G36*
X166269999Y-92235001D02*
G01*
X165844999Y-92235001D01*
X165844999Y-91985001D01*
X166269999Y-91985001D01*
X166269999Y-92235001D01*
G37*
X166269999Y-92235001D02*
X165844999Y-92235001D01*
X165844999Y-91985001D01*
X166269999Y-91985001D01*
X166269999Y-92235001D01*
X166269999Y-92335001D02*
X166269999Y-92585001D01*
X166269999Y-92585001D02*
X165844999Y-92585001D01*
X165844999Y-92585001D02*
X165844999Y-92335001D01*
X165844999Y-92335001D02*
X166269999Y-92335001D01*
G36*
X166269999Y-92585001D02*
G01*
X165844999Y-92585001D01*
X165844999Y-92335001D01*
X166269999Y-92335001D01*
X166269999Y-92585001D01*
G37*
X166269999Y-92585001D02*
X165844999Y-92585001D01*
X165844999Y-92335001D01*
X166269999Y-92335001D01*
X166269999Y-92585001D01*
X166644999Y-91810001D02*
X166644999Y-93110001D01*
X166644999Y-93110001D02*
X166444999Y-93110001D01*
X166444999Y-93110001D02*
X166444999Y-91810001D01*
X166444999Y-91810001D02*
X166644999Y-91810001D01*
G36*
X166644999Y-93110001D02*
G01*
X166444999Y-93110001D01*
X166444999Y-91810001D01*
X166644999Y-91810001D01*
X166644999Y-93110001D01*
G37*
X166644999Y-93110001D02*
X166444999Y-93110001D01*
X166444999Y-91810001D01*
X166644999Y-91810001D01*
X166644999Y-93110001D01*
X143650000Y-84920000D02*
X143150000Y-84920000D01*
X143150000Y-84920000D02*
X143150000Y-84870000D01*
X143150000Y-84870000D02*
X143650000Y-84870000D01*
X143650000Y-84870000D02*
X143650000Y-84920000D01*
G36*
X143650000Y-84920000D02*
G01*
X143150000Y-84920000D01*
X143150000Y-84870000D01*
X143650000Y-84870000D01*
X143650000Y-84920000D01*
G37*
X143650000Y-84920000D02*
X143150000Y-84920000D01*
X143150000Y-84870000D01*
X143650000Y-84870000D01*
X143650000Y-84920000D01*
X144050000Y-84870000D02*
X142750000Y-84870000D01*
X142750000Y-84870000D02*
X142750000Y-84670000D01*
X142750000Y-84670000D02*
X144050000Y-84670000D01*
X144050000Y-84670000D02*
X144050000Y-84870000D01*
G36*
X144050000Y-84870000D02*
G01*
X142750000Y-84870000D01*
X142750000Y-84670000D01*
X144050000Y-84670000D01*
X144050000Y-84870000D01*
G37*
X144050000Y-84870000D02*
X142750000Y-84870000D01*
X142750000Y-84670000D01*
X144050000Y-84670000D01*
X144050000Y-84870000D01*
X143875000Y-84495000D02*
X143625000Y-84495000D01*
X143625000Y-84495000D02*
X143625000Y-84070000D01*
X143625000Y-84070000D02*
X143875000Y-84070000D01*
X143875000Y-84070000D02*
X143875000Y-84495000D01*
G36*
X143875000Y-84495000D02*
G01*
X143625000Y-84495000D01*
X143625000Y-84070000D01*
X143875000Y-84070000D01*
X143875000Y-84495000D01*
G37*
X143875000Y-84495000D02*
X143625000Y-84495000D01*
X143625000Y-84070000D01*
X143875000Y-84070000D01*
X143875000Y-84495000D01*
X143525000Y-84495000D02*
X143275000Y-84495000D01*
X143275000Y-84495000D02*
X143275000Y-84070000D01*
X143275000Y-84070000D02*
X143525000Y-84070000D01*
X143525000Y-84070000D02*
X143525000Y-84495000D01*
G36*
X143525000Y-84495000D02*
G01*
X143275000Y-84495000D01*
X143275000Y-84070000D01*
X143525000Y-84070000D01*
X143525000Y-84495000D01*
G37*
X143525000Y-84495000D02*
X143275000Y-84495000D01*
X143275000Y-84070000D01*
X143525000Y-84070000D01*
X143525000Y-84495000D01*
X143630000Y-84680000D02*
X143520000Y-84570000D01*
X143520000Y-84570000D02*
X143520000Y-84490000D01*
X143520000Y-84490000D02*
X143280000Y-84490000D01*
X143280000Y-84490000D02*
X143280000Y-84570000D01*
X143280000Y-84570000D02*
X143170000Y-84680000D01*
X143170000Y-84680000D02*
X143630000Y-84680000D01*
G36*
X143520000Y-84570000D02*
G01*
X143630000Y-84680000D01*
X143170000Y-84680000D01*
X143280000Y-84570000D01*
X143280000Y-84490000D01*
X143520000Y-84490000D01*
X143520000Y-84570000D01*
G37*
X143520000Y-84570000D02*
X143630000Y-84680000D01*
X143170000Y-84680000D01*
X143280000Y-84570000D01*
X143280000Y-84490000D01*
X143520000Y-84490000D01*
X143520000Y-84570000D01*
X143175000Y-84495000D02*
X142925000Y-84495000D01*
X142925000Y-84495000D02*
X142925000Y-84070000D01*
X142925000Y-84070000D02*
X143175000Y-84070000D01*
X143175000Y-84070000D02*
X143175000Y-84495000D01*
G36*
X143175000Y-84495000D02*
G01*
X142925000Y-84495000D01*
X142925000Y-84070000D01*
X143175000Y-84070000D01*
X143175000Y-84495000D01*
G37*
X143175000Y-84495000D02*
X142925000Y-84495000D01*
X142925000Y-84070000D01*
X143175000Y-84070000D01*
X143175000Y-84495000D01*
X143525000Y-85470000D02*
X143275000Y-85470000D01*
X143275000Y-85470000D02*
X143275000Y-85045000D01*
X143275000Y-85045000D02*
X143525000Y-85045000D01*
X143525000Y-85045000D02*
X143525000Y-85470000D01*
G36*
X143525000Y-85470000D02*
G01*
X143275000Y-85470000D01*
X143275000Y-85045000D01*
X143525000Y-85045000D01*
X143525000Y-85470000D01*
G37*
X143525000Y-85470000D02*
X143275000Y-85470000D01*
X143275000Y-85045000D01*
X143525000Y-85045000D01*
X143525000Y-85470000D01*
X143875000Y-85470000D02*
X143625000Y-85470000D01*
X143625000Y-85470000D02*
X143625000Y-85045000D01*
X143625000Y-85045000D02*
X143875000Y-85045000D01*
X143875000Y-85045000D02*
X143875000Y-85470000D01*
G36*
X143875000Y-85470000D02*
G01*
X143625000Y-85470000D01*
X143625000Y-85045000D01*
X143875000Y-85045000D01*
X143875000Y-85470000D01*
G37*
X143875000Y-85470000D02*
X143625000Y-85470000D01*
X143625000Y-85045000D01*
X143875000Y-85045000D01*
X143875000Y-85470000D01*
X143175000Y-85470000D02*
X142925000Y-85470000D01*
X142925000Y-85470000D02*
X142925000Y-85045000D01*
X142925000Y-85045000D02*
X143175000Y-85045000D01*
X143175000Y-85045000D02*
X143175000Y-85470000D01*
G36*
X143175000Y-85470000D02*
G01*
X142925000Y-85470000D01*
X142925000Y-85045000D01*
X143175000Y-85045000D01*
X143175000Y-85470000D01*
G37*
X143175000Y-85470000D02*
X142925000Y-85470000D01*
X142925000Y-85045000D01*
X143175000Y-85045000D01*
X143175000Y-85470000D01*
D12*
X158640000Y-89220000D03*
X158640000Y-90180000D03*
X146200000Y-96095000D03*
X146200000Y-97055000D03*
X160975000Y-79070000D03*
X160975000Y-80030000D03*
D13*
X151330000Y-63500000D03*
X150370000Y-63500000D03*
X171005000Y-91340000D03*
X170045000Y-91340000D03*
D14*
X137000000Y-73200000D03*
D15*
X137000000Y-75740000D03*
X137000000Y-78280000D03*
X137000000Y-80820000D03*
D16*
X166775000Y-74930000D03*
X166775000Y-73970000D03*
X138675000Y-61605000D03*
X138675000Y-60645000D03*
D13*
X141280000Y-85225000D03*
X140320000Y-85225000D03*
D17*
X145495000Y-74475000D03*
X146455000Y-74475000D03*
D18*
X174835000Y-58975000D03*
X173815000Y-58975000D03*
D19*
X164525000Y-56460000D03*
X164525000Y-55440000D03*
D12*
X161425000Y-94545000D03*
X161425000Y-95505000D03*
D13*
X167680000Y-81900000D03*
X166720000Y-81900000D03*
D16*
X146125000Y-91950000D03*
X146125000Y-90990000D03*
D19*
X169600000Y-56460000D03*
X169600000Y-55440000D03*
D14*
X173000000Y-73200000D03*
D15*
X173000000Y-75740000D03*
X173000000Y-78280000D03*
X173000000Y-80820000D03*
D17*
X145520000Y-85575000D03*
X146480000Y-85575000D03*
D12*
X148935244Y-64820244D03*
X148935244Y-65780244D03*
D17*
X173470000Y-87900000D03*
X174430000Y-87900000D03*
D19*
X175975000Y-56460000D03*
X175975000Y-55440000D03*
D18*
X174835000Y-57700000D03*
X173815000Y-57700000D03*
D16*
X160975000Y-74930000D03*
X160975000Y-73970000D03*
D20*
X169725000Y-59225000D03*
X169725000Y-59725000D03*
X169725000Y-60225000D03*
X169725000Y-60725000D03*
D21*
X170475000Y-61475000D03*
X170975000Y-61475000D03*
X171475000Y-61475000D03*
X171975000Y-61475000D03*
D20*
X172725000Y-60725000D03*
X172725000Y-60225000D03*
X172725000Y-59725000D03*
X172725000Y-59225000D03*
D21*
X171975000Y-58475000D03*
X171475000Y-58475000D03*
X170975000Y-58475000D03*
X170475000Y-58475000D03*
D22*
X171225000Y-59975000D03*
D19*
X170875000Y-56460000D03*
X170875000Y-55440000D03*
D14*
X158800000Y-95000000D03*
D15*
X156260000Y-95000000D03*
X153720000Y-95000000D03*
X151180000Y-95000000D03*
D17*
X173645000Y-95510000D03*
X174605000Y-95510000D03*
D13*
X171005000Y-95510000D03*
X170045000Y-95510000D03*
D18*
X175660000Y-59925000D03*
X174640000Y-59925000D03*
D17*
X174345000Y-90800000D03*
X175305000Y-90800000D03*
D12*
X138650000Y-65620000D03*
X138650000Y-66580000D03*
D16*
X158900000Y-84980000D03*
X158900000Y-84020000D03*
D17*
X171920000Y-57200000D03*
X172880000Y-57200000D03*
D14*
X158800000Y-59000000D03*
D15*
X156260000Y-59000000D03*
X153720000Y-59000000D03*
X151180000Y-59000000D03*
D13*
X167655000Y-87675000D03*
X166695000Y-87675000D03*
D12*
X166750000Y-79070000D03*
X166750000Y-80030000D03*
D16*
X167350000Y-90405000D03*
X167350000Y-89445000D03*
D12*
X138225000Y-95770000D03*
X138225000Y-96730000D03*
D17*
X149370000Y-61375000D03*
X150330000Y-61375000D03*
D12*
X166950000Y-94775000D03*
X166950000Y-95735000D03*
D19*
X174675000Y-56460000D03*
X174675000Y-55440000D03*
D17*
X159520000Y-77000000D03*
X160480000Y-77000000D03*
D23*
X155000000Y-77000000D03*
D24*
X155000000Y-79800000D03*
D25*
X155000000Y-74200000D03*
D16*
X138175000Y-91955000D03*
X138175000Y-90995000D03*
D13*
X141355000Y-74500000D03*
X140395000Y-74500000D03*
D16*
X162150000Y-90155000D03*
X162150000Y-89195000D03*
X150350000Y-84980000D03*
X150350000Y-84020000D03*
D12*
X150350000Y-89145000D03*
X150350000Y-90105000D03*
D19*
X165775000Y-56460000D03*
X165775000Y-55440000D03*
D26*
X155000000Y-68750000D03*
D27*
X157540000Y-71290000D03*
X157540000Y-66210000D03*
X152460000Y-66210000D03*
X152460000Y-71290000D03*
M02*
