M48
; DRILL file {KiCad (6.0.2)} date Thu Nov 23 16:59:46 2023
; FORMAT={-:-/ absolute / metric / decimal}
; #@! TF.CreationDate,2023-11-23T16:59:46-08:00
; #@! TF.GenerationSoftware,Kicad,Pcbnew,(6.0.2)
; #@! TF.FileFunction,Plated,1,4,PTH
FMAT,2
METRIC
; #@! TA.AperFunction,Plated,PTH,ViaDrill
T1C0.300
; #@! TA.AperFunction,Plated,PTH,ComponentDrill
T2C1.000
; #@! TA.AperFunction,Plated,PTH,ComponentDrill
T3C1.200
; #@! TA.AperFunction,Plated,PTH,ComponentDrill
T4C1.700
%
G90
G05
T1
X131.0Y-53.0
X131.0Y-55.0
X131.0Y-57.0
X131.0Y-59.0
X131.0Y-61.0
X131.0Y-63.0
X131.0Y-65.0
X131.0Y-67.0
X131.0Y-69.0
X131.0Y-71.0
X131.0Y-73.0
X131.0Y-75.0
X131.0Y-77.0
X131.0Y-79.0
X131.0Y-81.0
X131.0Y-83.0
X131.0Y-85.0
X131.0Y-87.0
X131.0Y-89.0
X131.0Y-91.0
X131.0Y-93.0
X131.0Y-95.0
X131.0Y-97.0
X131.0Y-99.0
X131.0Y-101.0
X131.7Y-78.5
X132.4Y-92.65
X133.0Y-53.0
X133.0Y-58.0
X133.0Y-60.0
X133.0Y-62.0
X133.0Y-64.0
X133.0Y-95.0
X133.0Y-97.0
X133.0Y-99.0
X133.0Y-101.0
X133.4Y-76.5
X133.8Y-67.0
X134.0Y-70.0
X134.0Y-72.0
X134.0Y-74.0
X134.0Y-80.0
X134.0Y-82.0
X134.0Y-84.0
X134.0Y-86.0
X134.0Y-88.0
X134.0Y-90.0
X134.0Y-92.0
X135.0Y-53.0
X135.0Y-97.0
X135.0Y-99.0
X135.0Y-101.0
X135.675Y-89.95
X135.675Y-90.958
X135.675Y-91.967
X135.675Y-93.25
X135.95Y-88.725
X135.975Y-64.5
X135.975Y-65.563
X135.975Y-66.627
X135.975Y-67.69
X136.0Y-58.0
X136.0Y-61.0
X136.0Y-83.0
X136.0Y-85.0
X136.0Y-87.0
X136.2Y-68.85
X136.2Y-94.175
X136.225Y-63.6
X136.825Y-89.95
X136.825Y-90.958
X136.825Y-91.967
X136.85Y-87.775
X136.851Y-69.804
X136.925Y-63.0
X136.95Y-93.2
X137.0Y-53.0
X137.0Y-99.0
X137.0Y-101.0
X137.125Y-64.5
X137.125Y-65.563
X137.125Y-66.627
X137.125Y-67.69
X137.25Y-88.975
X137.35Y-84.55
X137.466Y-70.419
X137.5Y-68.725
X137.95Y-64.1
X138.0Y-56.0
X138.0Y-59.0
X138.0Y-86.0
X138.081Y-71.034
X138.175Y-92.7
X138.2Y-95.05
X138.25Y-87.375
X138.25Y-88.525
X138.279Y-69.606
X138.675Y-62.18
X138.675Y-64.8
X138.696Y-71.649
X138.894Y-70.221
X139.0Y-53.0
X139.0Y-99.0
X139.0Y-101.0
X139.3Y-87.375
X139.3Y-88.525
X139.4Y-57.45
X139.475Y-95.0
X139.5Y-72.225
X139.5Y-91.077
X139.5Y-92.001
X139.5Y-92.925
X139.825Y-80.635
X139.825Y-90.2
X139.825Y-95.9
X139.9Y-62.55
X139.975Y-64.55
X139.975Y-65.461
X139.975Y-66.371
X139.975Y-67.281
X139.975Y-68.192
X139.975Y-69.102
X139.975Y-70.013
X140.15Y-93.975
X140.3Y-61.6
X140.3Y-70.9
X140.35Y-87.375
X140.35Y-88.525
X140.375Y-72.5
X140.675Y-63.5
X140.775Y-89.8
X140.775Y-91.075
X140.775Y-91.999
X140.775Y-92.923
X140.775Y-95.15
X140.775Y-96.3
X141.0Y-53.0
X141.0Y-56.0
X141.0Y-99.0
X141.0Y-101.0
X141.075Y-77.085
X141.075Y-77.885
X141.075Y-78.685
X141.075Y-79.485
X141.075Y-80.285
X141.075Y-81.085
X141.075Y-81.885
X141.075Y-82.685
X141.225Y-93.8
X141.25Y-64.55
X141.25Y-65.461
X141.25Y-66.371
X141.25Y-67.281
X141.25Y-68.192
X141.25Y-69.102
X141.25Y-70.025
X141.25Y-71.3
X141.25Y-61.175
X141.25Y-62.325
X141.315Y-72.525
X141.4Y-87.375
X141.4Y-88.525
X141.45Y-76.175
X141.475Y-83.625
X141.5Y-97.575
X141.617Y-95.15
X141.617Y-96.3
X141.7Y-63.65
X141.725Y-90.2
X142.05Y-61.175
X142.05Y-62.325
X142.075Y-74.5
X142.075Y-85.25
X142.175Y-91.075
X142.175Y-91.999
X142.175Y-92.923
X142.175Y-94.2
X142.2Y-70.9
X142.225Y-72.525
X142.225Y-77.085
X142.225Y-77.885
X142.225Y-78.685
X142.225Y-79.485
X142.225Y-80.285
X142.225Y-81.085
X142.225Y-81.885
X142.225Y-82.685
X142.275Y-87.075
X142.375Y-75.8
X142.4Y-83.975
X142.458Y-95.15
X142.458Y-96.3
X142.475Y-88.3
X142.625Y-90.2
X142.65Y-64.55
X142.65Y-65.46
X142.65Y-66.371
X142.65Y-67.281
X142.65Y-68.192
X142.65Y-69.102
X142.65Y-70.012
X142.7Y-63.25
X142.8Y-73.125
X142.85Y-61.175
X142.85Y-62.325
X143.0Y-53.0
X143.0Y-56.0
X143.0Y-101.0
X143.1Y-70.9
X143.125Y-93.8
X143.175Y-78.475
X143.175Y-81.275
X143.3Y-95.15
X143.3Y-96.3
X143.4Y-76.425
X143.4Y-83.25
X143.4Y-87.6
X143.425Y-59.875
X143.575Y-77.525
X143.575Y-79.425
X143.575Y-80.325
X143.575Y-82.225
X143.575Y-89.8
X143.575Y-91.075
X143.575Y-91.999
X143.575Y-92.923
X143.6Y-63.65
X143.65Y-61.175
X143.65Y-62.325
X143.925Y-86.575
X143.975Y-72.89
X143.975Y-73.8
X144.0Y-58.0
X144.05Y-64.55
X144.05Y-65.461
X144.05Y-66.371
X144.05Y-67.281
X144.05Y-68.192
X144.05Y-69.102
X144.05Y-70.013
X144.05Y-71.3
X144.225Y-93.975
X144.45Y-75.81
X144.45Y-83.96
X144.45Y-61.175
X144.45Y-62.325
X144.475Y-95.95
X144.478Y-77.075
X144.478Y-78.475
X144.478Y-79.875
X144.478Y-81.275
X144.478Y-82.675
X144.5Y-63.65
X144.525Y-90.2
X144.72Y-85.585
X144.725Y-74.5
X144.85Y-91.077
X144.85Y-92.001
X144.85Y-92.925
X144.9Y-94.95
X145.0Y-53.0
X145.0Y-56.0
X145.0Y-70.9
X145.0Y-88.0
X145.0Y-101.0
X145.25Y-61.175
X145.25Y-62.325
X145.272Y-75.81
X145.272Y-83.96
X145.3Y-77.075
X145.3Y-78.475
X145.3Y-79.875
X145.3Y-81.275
X145.3Y-82.675
X145.45Y-64.55
X145.45Y-65.46
X145.45Y-66.371
X145.45Y-67.281
X145.45Y-68.192
X145.45Y-69.102
X145.45Y-70.012
X145.5Y-63.25
X145.85Y-98.85
X145.9Y-70.9
X146.0Y-58.0
X146.0Y-73.0
X146.0Y-90.0
X146.05Y-61.175
X146.05Y-62.325
X146.094Y-75.81
X146.094Y-83.96
X146.122Y-77.075
X146.122Y-78.475
X146.122Y-79.875
X146.122Y-81.275
X146.122Y-82.675
X146.125Y-92.7
X146.175Y-95.325
X146.4Y-63.65
X146.85Y-64.55
X146.85Y-65.461
X146.85Y-66.371
X146.85Y-67.281
X146.85Y-68.192
X146.85Y-69.102
X146.85Y-70.013
X146.85Y-71.3
X146.85Y-93.35
X146.85Y-61.175
X146.85Y-62.325
X146.916Y-75.81
X146.916Y-83.96
X146.944Y-77.075
X146.944Y-78.475
X146.944Y-79.875
X146.944Y-81.275
X146.944Y-82.675
X147.0Y-53.0
X147.0Y-56.0
X147.0Y-101.0
X147.475Y-94.55
X147.5Y-63.5
X147.625Y-88.055
X147.625Y-88.875
X147.625Y-89.695
X147.625Y-90.515
X147.625Y-91.335
X147.625Y-92.155
X147.625Y-92.975
X147.775Y-76.125
X147.775Y-78.93
X147.775Y-80.85
X147.8Y-61.6
X147.8Y-70.9
X147.8Y-78.05
X147.8Y-81.725
X147.8Y-83.625
X147.925Y-87.125
X148.0Y-58.0
X148.0Y-73.0
X148.0Y-75.0
X148.0Y-98.0
X148.125Y-64.55
X148.125Y-65.461
X148.125Y-66.371
X148.125Y-67.281
X148.125Y-68.192
X148.125Y-69.102
X148.125Y-70.013
X148.175Y-62.525
X148.2Y-77.075
X148.2Y-82.675
X148.21Y-79.89
X148.475Y-93.95
X148.725Y-86.55
X148.775Y-88.055
X148.775Y-88.875
X148.775Y-89.695
X148.775Y-90.515
X148.775Y-91.335
X148.775Y-92.155
X148.775Y-92.975
X149.0Y-53.0
X149.0Y-56.0
X149.0Y-82.0
X149.0Y-101.0
X149.4Y-62.175
X149.625Y-99.975
X149.725Y-86.475
X149.735Y-64.82
X150.0Y-66.0
X150.0Y-68.0
X150.0Y-70.0
X150.0Y-72.0
X150.0Y-74.0
X150.0Y-76.0
X150.0Y-78.0
X150.0Y-80.0
X150.34Y-85.735
X150.34Y-88.375
X151.0Y-53.0
X151.0Y-82.0
X151.0Y-93.0
X151.0Y-98.0
X151.0Y-101.0
X151.75Y-86.1
X151.925Y-88.05
X151.95Y-85.28
X152.025Y-62.925
X152.025Y-64.075
X152.275Y-84.4
X152.3Y-89.0
X152.575Y-87.05
X152.972Y-64.075
X153.0Y-53.0
X153.0Y-61.0
X153.0Y-62.925
X153.0Y-82.0
X153.0Y-93.0
X153.0Y-101.0
X153.225Y-84.0
X153.225Y-85.28
X153.225Y-86.1
X153.225Y-88.23
X153.225Y-89.38
X153.5Y-55.4
X153.5Y-98.6
X153.675Y-86.875
X153.95Y-90.63
X153.975Y-64.475
X154.05Y-63.15
X154.158Y-88.23
X154.158Y-89.38
X154.175Y-84.4
X154.4Y-65.4
X154.425Y-66.313
X154.425Y-67.125
X154.5Y-98.6
X154.625Y-85.15
X154.625Y-86.005
X154.625Y-87.3
X154.897Y-63.762
X155.0Y-53.0
X155.0Y-61.0
X155.0Y-82.0
X155.0Y-101.0
X155.075Y-84.4
X155.092Y-88.23
X155.092Y-89.38
X155.394Y-64.554
X155.5Y-55.4
X155.5Y-98.6
X155.574Y-65.472
X155.575Y-66.313
X155.575Y-67.125
X155.575Y-86.875
X156.025Y-84.0
X156.025Y-85.28
X156.025Y-86.1
X156.025Y-88.23
X156.025Y-89.38
X156.675Y-87.05
X156.95Y-89.0
X156.975Y-84.4
X157.0Y-53.0
X157.0Y-61.0
X157.0Y-63.0
X157.0Y-82.0
X157.0Y-101.0
X157.3Y-85.275
X157.33Y-88.03
X157.425Y-86.1
X157.45Y-56.25
X157.974Y-98.0
X158.375Y-91.95
X158.925Y-85.735
X158.925Y-88.375
X159.0Y-53.0
X159.0Y-61.0
X159.0Y-63.0
X159.0Y-74.0
X159.0Y-75.994
X159.0Y-78.0
X159.0Y-80.0
X159.0Y-82.0
X159.0Y-101.0
X159.525Y-86.45
X159.825Y-88.055
X159.825Y-88.906
X159.825Y-89.758
X159.9Y-92.05
X160.0Y-56.0
X160.003Y-98.0
X160.6Y-86.9
X160.625Y-92.85
X160.85Y-98.45
X160.97Y-75.68
X160.97Y-78.32
X160.975Y-88.055
X160.975Y-88.906
X160.975Y-89.758
X160.975Y-90.609
X160.975Y-91.46
X161.0Y-53.0
X161.0Y-61.0
X161.0Y-63.0
X161.0Y-65.0
X161.0Y-67.0
X161.0Y-69.0
X161.0Y-71.0
X161.0Y-81.0
X161.0Y-83.0
X161.0Y-85.0
X161.0Y-101.0
X161.575Y-93.78
X161.6Y-72.1
X162.0Y-98.0
X162.15Y-91.0
X162.26Y-95.785
X162.54Y-76.04
X162.56Y-77.98
X162.825Y-78.925
X162.95Y-75.05
X163.0Y-53.0
X163.0Y-61.0
X163.0Y-63.0
X163.0Y-65.0
X163.0Y-67.0
X163.0Y-69.0
X163.0Y-81.0
X163.0Y-83.0
X163.0Y-85.0
X163.0Y-87.0
X163.0Y-101.0
X163.15Y-93.425
X163.17Y-91.41
X163.18Y-90.29
X163.25Y-77.0
X163.5Y-94.375
X163.51Y-89.42
X163.675Y-56.475
X163.825Y-79.475
X163.85Y-92.45
X163.875Y-75.85
X163.875Y-78.275
X163.9Y-74.65
X164.45Y-94.8
X164.475Y-89.01
X164.475Y-90.3
X164.475Y-91.42
X164.475Y-93.6
X164.5Y-77.0
X164.525Y-54.6
X164.85Y-75.05
X164.875Y-79.0
X165.0Y-63.0
X165.0Y-65.0
X165.0Y-67.0
X165.0Y-69.0
X165.0Y-81.0
X165.0Y-83.0
X165.0Y-85.0
X165.0Y-87.0
X165.0Y-101.0
X165.075Y-92.45
X165.175Y-76.025
X165.2Y-77.975
X165.42Y-94.38
X165.425Y-89.425
X165.735Y-90.29
X165.75Y-91.41
X165.775Y-54.6
X165.78Y-93.44
X166.07Y-73.675
X166.3Y-98.5
X166.43Y-75.71
X166.625Y-56.45
X166.755Y-78.32
X166.85Y-59.0
X166.975Y-93.925
X167.0Y-63.0
X167.0Y-65.0
X167.0Y-67.0
X167.0Y-69.0
X167.0Y-71.0
X167.0Y-101.0
X167.075Y-54.6
X167.125Y-84.75
X167.232Y-77.575
X167.36Y-91.14
X167.47Y-72.775
X167.6Y-85.8
X167.675Y-83.75
X167.8Y-76.4
X168.175Y-93.46
X168.175Y-94.407
X168.175Y-95.355
X168.175Y-96.3
X168.175Y-97.25
X168.225Y-77.575
X168.325Y-54.6
X168.425Y-84.775
X168.43Y-81.885
X168.43Y-87.67
X168.625Y-98.375
X168.7Y-56.45
X168.775Y-86.1
X168.8Y-57.375
X168.8Y-83.45
X168.9Y-76.425
X168.988Y-70.986
X169.0Y-65.0
X169.0Y-67.0
X169.0Y-69.0
X169.0Y-74.0
X169.0Y-101.0
X169.1Y-77.775
X169.175Y-78.843
X169.175Y-79.686
X169.175Y-80.529
X169.175Y-81.372
X169.2Y-88.55
X169.325Y-90.525
X169.325Y-93.46
X169.325Y-94.407
X169.325Y-95.355
X169.325Y-96.302
X169.325Y-97.25
X169.6Y-54.6
X169.7Y-57.375
X169.75Y-84.15
X169.75Y-85.4
X169.75Y-98.825
X169.775Y-89.45
X169.825Y-92.475
X169.875Y-76.9
X169.9Y-63.2
X170.05Y-97.65
X170.2Y-94.6
X170.325Y-78.0
X170.325Y-78.843
X170.325Y-79.686
X170.325Y-80.529
X170.625Y-57.375
X170.633Y-93.425
X170.65Y-88.6
X170.71Y-83.46
X170.73Y-86.1
X170.75Y-59.5
X170.75Y-60.45
X170.75Y-89.775
X170.875Y-54.6
X170.9Y-84.775
X170.975Y-63.2
X170.998Y-68.976
X171.0Y-74.0
X171.0Y-76.0
X171.0Y-101.0
X171.005Y-96.31
X171.05Y-97.65
X171.07Y-81.885
X171.325Y-92.125
X171.325Y-98.825
X171.34Y-94.725
X171.58Y-93.425
X171.7Y-59.5
X171.7Y-60.45
X171.7Y-83.85
X171.7Y-85.75
X171.7Y-90.05
X171.725Y-88.675
X171.725Y-96.875
X171.911Y-55.687
X171.952Y-63.198
X172.1Y-84.8
X172.15Y-54.6
X172.325Y-92.8
X172.325Y-94.05
X172.325Y-98.5
X172.418Y-83.25
X172.514Y-56.286
X172.625Y-87.67
X172.75Y-89.525
X172.776Y-63.174
X172.9Y-97.6
X173.0Y-101.0
X173.075Y-86.985
X173.29Y-92.1
X173.33Y-94.72
X173.4Y-54.6
X173.475Y-93.425
X173.6Y-64.7
X173.6Y-90.825
X173.645Y-96.31
X173.69Y-82.26
X173.825Y-55.875
X174.275Y-92.5
X174.275Y-94.4
X174.65Y-82.6
X174.675Y-54.6
X174.675Y-93.45
X175.0Y-69.1
X175.0Y-101.0
X175.65Y-95.625
X175.675Y-58.975
X175.7Y-79.6
X175.75Y-85.75
X175.95Y-54.6
X175.971Y-71.974
X175.975Y-57.425
X176.0Y-74.0
X176.0Y-82.5
X176.5Y-70.6
X176.6Y-59.1
X176.6Y-76.5
X176.8Y-81.0
X177.0Y-99.0
X177.0Y-101.0
X177.2Y-91.15
X177.225Y-54.6
X178.475Y-54.6
X179.0Y-63.0
X179.0Y-65.0
X179.0Y-67.0
X179.0Y-69.0
X179.0Y-71.0
X179.0Y-73.0
X179.0Y-75.0
X179.0Y-77.0
X179.0Y-79.0
X179.0Y-81.0
X179.0Y-83.0
X179.0Y-85.0
X179.0Y-87.0
X179.0Y-89.0
X179.0Y-91.0
X179.0Y-95.0
X179.0Y-97.0
X179.0Y-99.0
X179.0Y-101.0
T2
X137.0Y-73.2
X137.0Y-75.74
X137.0Y-78.28
X137.0Y-80.82
X151.18Y-59.0
X151.18Y-95.0
X153.72Y-59.0
X153.72Y-95.0
X156.26Y-59.0
X156.26Y-95.0
X158.8Y-59.0
X158.8Y-95.0
X173.0Y-73.2
X173.0Y-75.74
X173.0Y-78.28
X173.0Y-80.82
T3
X155.0Y-68.75
T4
X152.46Y-66.21
X152.46Y-71.29
X157.54Y-66.21
X157.54Y-71.29
T0
M30
