G04 #@! TF.GenerationSoftware,KiCad,Pcbnew,(6.0.2)*
G04 #@! TF.CreationDate,2023-11-23T16:59:36-08:00*
G04 #@! TF.ProjectId,phase_shifter_v1,70686173-655f-4736-9869-667465725f76,rev?*
G04 #@! TF.SameCoordinates,Original*
G04 #@! TF.FileFunction,Soldermask,Bot*
G04 #@! TF.FilePolarity,Negative*
%FSLAX46Y46*%
G04 Gerber Fmt 4.6, Leading zero omitted, Abs format (unit mm)*
G04 Created by KiCad (PCBNEW (6.0.2)) date 2023-11-23 16:59:36*
%MOMM*%
%LPD*%
G01*
G04 APERTURE LIST*
G04 Aperture macros list*
%AMRoundRect*
0 Rectangle with rounded corners*
0 $1 Rounding radius*
0 $2 $3 $4 $5 $6 $7 $8 $9 X,Y pos of 4 corners*
0 Add a 4 corners polygon primitive as box body*
4,1,4,$2,$3,$4,$5,$6,$7,$8,$9,$2,$3,0*
0 Add four circle primitives for the rounded corners*
1,1,$1+$1,$2,$3*
1,1,$1+$1,$4,$5*
1,1,$1+$1,$6,$7*
1,1,$1+$1,$8,$9*
0 Add four rect primitives between the rounded corners*
20,1,$1+$1,$2,$3,$4,$5,0*
20,1,$1+$1,$4,$5,$6,$7,0*
20,1,$1+$1,$6,$7,$8,$9,0*
20,1,$1+$1,$8,$9,$2,$3,0*%
G04 Aperture macros list end*
%ADD10R,1.700000X1.700000*%
%ADD11O,1.700000X1.700000*%
%ADD12RoundRect,0.147500X-0.147500X-0.172500X0.147500X-0.172500X0.147500X0.172500X-0.147500X0.172500X0*%
%ADD13R,1.200000X0.400000*%
%ADD14RoundRect,0.147500X0.172500X-0.147500X0.172500X0.147500X-0.172500X0.147500X-0.172500X-0.147500X0*%
%ADD15RoundRect,0.140000X-0.170000X0.140000X-0.170000X-0.140000X0.170000X-0.140000X0.170000X0.140000X0*%
%ADD16RoundRect,0.147500X-0.172500X0.147500X-0.172500X-0.147500X0.172500X-0.147500X0.172500X0.147500X0*%
%ADD17RoundRect,0.140000X-0.140000X-0.170000X0.140000X-0.170000X0.140000X0.170000X-0.140000X0.170000X0*%
%ADD18RoundRect,0.140000X0.140000X0.170000X-0.140000X0.170000X-0.140000X-0.170000X0.140000X-0.170000X0*%
%ADD19RoundRect,0.140000X0.170000X-0.140000X0.170000X0.140000X-0.170000X0.140000X-0.170000X-0.140000X0*%
%ADD20RoundRect,0.147500X0.147500X0.172500X-0.147500X0.172500X-0.147500X-0.172500X0.147500X-0.172500X0*%
%ADD21R,0.400000X1.200000*%
%ADD22R,0.508000X1.219200*%
%ADD23C,1.800000*%
%ADD24C,2.550000*%
G04 APERTURE END LIST*
D10*
X137000000Y-73200000D03*
D11*
X137000000Y-75740000D03*
X137000000Y-78280000D03*
X137000000Y-80820000D03*
D10*
X173000000Y-73200000D03*
D11*
X173000000Y-75740000D03*
X173000000Y-78280000D03*
X173000000Y-80820000D03*
D10*
X158800000Y-95000000D03*
D11*
X156260000Y-95000000D03*
X153720000Y-95000000D03*
X151180000Y-95000000D03*
D10*
X158800000Y-59000000D03*
D11*
X156260000Y-59000000D03*
X153720000Y-59000000D03*
X151180000Y-59000000D03*
D12*
X174765000Y-78500000D03*
X175735000Y-78500000D03*
X174765000Y-77500000D03*
X175735000Y-77500000D03*
D13*
X155050000Y-91930001D03*
X155050000Y-91280001D03*
X155050000Y-90630001D03*
X156950000Y-90630001D03*
X156950000Y-91930001D03*
D14*
X153500000Y-57220000D03*
X153500000Y-56250000D03*
D15*
X178390000Y-92500000D03*
X178390000Y-93460000D03*
D14*
X156500000Y-57220000D03*
X156500000Y-56250000D03*
D16*
X156500000Y-96765000D03*
X156500000Y-97735000D03*
D17*
X156480000Y-98750000D03*
X157440000Y-98750000D03*
D18*
X144500000Y-100040000D03*
X143540000Y-100040000D03*
D16*
X155500000Y-96765000D03*
X155500000Y-97735000D03*
D17*
X156470000Y-55320000D03*
X157430000Y-55320000D03*
D13*
X142600000Y-98850000D03*
X142600000Y-98200000D03*
X142600000Y-97550000D03*
X144500000Y-97550000D03*
X144500000Y-98850000D03*
D19*
X133310000Y-75700000D03*
X133310000Y-74740000D03*
D13*
X142225244Y-58625244D03*
X142225244Y-59275244D03*
X142225244Y-59925244D03*
X140325244Y-59925244D03*
X140325244Y-58625244D03*
D16*
X153500000Y-96765000D03*
X153500000Y-97735000D03*
D15*
X175815000Y-83860000D03*
X175815000Y-84820000D03*
D14*
X155500000Y-57220000D03*
X155500000Y-56250000D03*
D19*
X171210000Y-80730000D03*
X171210000Y-79770000D03*
D20*
X135235000Y-78500000D03*
X134265000Y-78500000D03*
D21*
X138525000Y-81710000D03*
X139175000Y-81710000D03*
X139825000Y-81710000D03*
X139825000Y-83610000D03*
X138525000Y-83610000D03*
D12*
X174765000Y-75500000D03*
X175735000Y-75500000D03*
D19*
X176680000Y-75550000D03*
X176680000Y-74590000D03*
D20*
X135235000Y-75500000D03*
X134265000Y-75500000D03*
D19*
X137335000Y-83610000D03*
X137335000Y-82650000D03*
D17*
X140325244Y-57435244D03*
X141285244Y-57435244D03*
D18*
X165384999Y-98525001D03*
X164424999Y-98525001D03*
D21*
X174625000Y-85760000D03*
X173975000Y-85760000D03*
X173325000Y-85760000D03*
X173325000Y-83860000D03*
X174625000Y-83860000D03*
D13*
X164845000Y-72125000D03*
X164845000Y-72775000D03*
X164845000Y-73425000D03*
X162945000Y-73425000D03*
X162945000Y-72125000D03*
D17*
X162945000Y-70935000D03*
X163905000Y-70935000D03*
D20*
X135235000Y-77500000D03*
X134265000Y-77500000D03*
D13*
X163484999Y-97335001D03*
X163484999Y-96685001D03*
X163484999Y-96035001D03*
X165384999Y-96035001D03*
X165384999Y-97335001D03*
D14*
X154500000Y-57220000D03*
X154500000Y-56250000D03*
D12*
X174765000Y-76500000D03*
X175735000Y-76500000D03*
D22*
X164515000Y-53436000D03*
X165785000Y-53436000D03*
X167055000Y-53436000D03*
X168325000Y-53436000D03*
X169595000Y-53436000D03*
X170865000Y-53436000D03*
X172135000Y-53436000D03*
X173405000Y-53436000D03*
X174675000Y-53436000D03*
X175945000Y-53436000D03*
X177215000Y-53436000D03*
X178485000Y-53436000D03*
X178485000Y-61564000D03*
X177215000Y-61564000D03*
X175945000Y-61564000D03*
X174675000Y-61564000D03*
X173405000Y-61564000D03*
X172135000Y-61564000D03*
X170865000Y-61564000D03*
X169595000Y-61564000D03*
X168325000Y-61564000D03*
X167055000Y-61564000D03*
X165785000Y-61564000D03*
X164515000Y-61564000D03*
D21*
X177200000Y-94400000D03*
X176550000Y-94400000D03*
X175900000Y-94400000D03*
X175900000Y-92500000D03*
X177200000Y-92500000D03*
D18*
X156950000Y-93120001D03*
X155990000Y-93120001D03*
D20*
X135235000Y-76500000D03*
X134265000Y-76500000D03*
D23*
X155000000Y-68750000D03*
D24*
X157540000Y-71290000D03*
X157540000Y-66210000D03*
X152460000Y-66210000D03*
X152460000Y-71290000D03*
D16*
X154500000Y-96765000D03*
X154500000Y-97735000D03*
M02*
